<svg xmlns="http://www.w3.org/2000/svg" id="canvas" viewBox="228.000 231.935 1052.718 165.362"><path d="M 233.19,275.03 C 232.82 275.83, 232.56 276.58, 232.42 279.04 C 232.29 281.50, 232.44 283.11, 232.53 287.33 C 232.61 291.54, 232.76 294.32, 232.87 300.11 C 232.97 305.91, 233.02 309.43, 233.05 316.30 C 233.08 323.16, 233.08 327.15, 233.00 334.43 C 232.91 341.70, 232.80 345.72, 232.63 352.67 C 232.45 359.61, 232.33 363.26, 232.10 369.16 C 231.87 375.05, 231.69 377.93, 231.47 382.14 C 231.25 386.35, 231.02 387.88, 231.00 390.20 C 230.99 392.52, 231.24 392.94, 231.38 393.74 C 231.53 394.55, 231.63 394.12, 231.74 394.22 C 231.84 394.32, 231.79 394.32, 231.90 394.23 C 232.02 394.14, 232.08 394.58, 232.31 393.79 C 232.53 393.00, 232.85 392.60, 233.03 390.29 C 233.20 387.97, 233.09 386.42, 233.18 382.20 C 233.27 377.99, 233.34 375.10, 233.48 369.20 C 233.61 363.30, 233.71 359.65, 233.86 352.70 C 234.02 345.75, 234.13 341.72, 234.24 334.44 C 234.35 327.16, 234.36 323.17, 234.43 316.30 C 234.50 309.43, 234.51 305.90, 234.58 300.11 C 234.65 294.31, 234.71 291.53, 234.77 287.32 C 234.83 283.11, 234.98 281.51, 234.88 279.06 C 234.77 276.61, 234.60 275.86, 234.26 275.05 C 233.93 274.25, 233.56 274.23, 233.19 275.03" style="stroke: white; fill: white;"/><path d="M 263.22,276.68 C 262.98 277.18, 262.97 277.26, 262.91 279.03 C 262.85 280.80, 262.87 281.98, 262.93 285.52 C 262.99 289.06, 263.24 291.41, 263.21 296.74 C 263.18 302.07, 263.03 305.55, 262.77 312.18 C 262.51 318.81, 262.28 322.84, 261.92 329.89 C 261.56 336.94, 261.31 340.90, 260.96 347.42 C 260.61 353.94, 260.41 357.34, 260.16 362.49 C 259.92 367.63, 259.59 369.98, 259.73 373.14 C 259.87 376.30, 260.13 377.38, 260.87 378.27 C 261.62 379.16, 262.31 378.97, 263.46 377.59 C 264.62 376.20, 265.25 374.68, 266.65 371.34 C 268.05 368.00, 268.66 365.46, 270.46 360.87 C 272.25 356.29, 273.37 353.26, 275.62 348.43 C 277.87 343.60, 279.30 340.81, 281.70 336.72 C 284.11 332.62, 285.53 330.74, 287.65 327.96 C 289.77 325.19, 290.87 324.22, 292.32 322.85 C 293.76 321.49, 294.27 321.21, 294.87 321.12 C 295.47 321.04, 295.47 321.40, 295.33 322.44 C 295.19 323.48, 294.84 324.34, 294.17 326.34 C 293.49 328.34, 292.99 329.79, 291.96 332.43 C 290.92 335.07, 290.32 336.75, 289.00 339.53 C 287.68 342.32, 286.68 343.82, 285.34 346.36 C 284.00 348.89, 283.20 350.17, 282.31 352.20 C 281.42 354.22, 281.01 355.04, 280.88 356.48 C 280.75 357.91, 280.86 358.46, 281.66 359.37 C 282.46 360.28, 283.15 360.68, 284.87 361.04 C 286.58 361.40, 287.79 361.35, 290.23 361.18 C 292.67 361.00, 294.22 360.59, 297.07 360.15 C 299.91 359.71, 301.54 359.42, 304.44 358.96 C 307.33 358.49, 309.05 358.28, 311.54 357.83 C 314.04 357.38, 315.21 357.12, 316.91 356.70 C 318.61 356.27, 319.45 356.08, 320.06 355.71 C 320.67 355.33, 320.64 355.05, 319.96 354.82 C 319.28 354.59, 318.42 354.55, 316.65 354.55 C 314.88 354.54, 313.65 354.56, 311.12 354.81 C 308.59 355.07, 306.89 355.44, 303.98 355.82 C 301.07 356.21, 299.40 356.37, 296.58 356.74 C 293.75 357.11, 292.16 357.34, 289.86 357.66 C 287.55 357.99, 286.50 358.23, 285.07 358.35 C 283.64 358.48, 283.18 358.57, 282.71 358.27 C 282.23 357.98, 282.31 357.86, 282.72 356.89 C 283.13 355.92, 283.68 355.25, 284.75 353.44 C 285.81 351.62, 286.64 350.33, 288.04 347.82 C 289.44 345.31, 290.30 343.70, 291.74 340.88 C 293.17 338.06, 294.09 336.48, 295.21 333.73 C 296.33 330.98, 296.92 329.43, 297.32 327.12 C 297.71 324.81, 297.67 323.63, 297.19 322.19 C 296.71 320.75, 296.18 320.12, 294.94 319.94 C 293.70 319.75, 292.78 319.91, 290.98 321.26 C 289.19 322.62, 288.14 323.79, 285.97 326.69 C 283.80 329.60, 282.53 331.61, 280.13 335.80 C 277.73 339.99, 276.30 342.80, 273.96 347.64 C 271.63 352.49, 270.39 355.50, 268.44 360.04 C 266.48 364.58, 265.48 367.01, 264.19 370.35 C 262.90 373.68, 262.49 375.22, 261.97 376.73 C 261.46 378.24, 261.66 378.63, 261.62 377.90 C 261.58 377.18, 261.75 376.17, 261.76 373.10 C 261.78 370.03, 261.60 367.66, 261.70 362.54 C 261.81 357.42, 261.98 354.00, 262.28 347.49 C 262.59 340.97, 262.84 337.01, 263.23 329.96 C 263.63 322.91, 263.87 318.89, 264.25 312.25 C 264.62 305.62, 264.84 302.14, 265.11 296.79 C 265.38 291.44, 265.58 289.09, 265.60 285.51 C 265.62 281.92, 265.49 280.67, 265.20 278.88 C 264.90 277.09, 264.52 276.98, 264.13 276.54 C 263.73 276.10, 263.47 276.18, 263.22 276.68" style="stroke: white; fill: white;"/><path d="M 390.81,278.06 C 390.44 278.81, 390.24 279.53, 390.03 281.81 C 389.83 284.09, 389.83 285.55, 389.78 289.47 C 389.73 293.39, 389.85 296.06, 389.78 301.42 C 389.71 306.77, 389.60 310.10, 389.44 316.22 C 389.28 322.34, 389.14 325.93, 388.98 332.01 C 388.82 338.10, 388.74 341.49, 388.63 346.65 C 388.52 351.80, 388.25 354.35, 388.43 357.80 C 388.60 361.25, 388.77 362.59, 389.52 363.92 C 390.27 365.24, 390.96 365.31, 392.18 364.41 C 393.40 363.52, 394.24 362.25, 395.64 359.45 C 397.04 356.64, 397.61 354.29, 399.16 350.39 C 400.72 346.49, 401.61 343.90, 403.43 339.97 C 405.24 336.03, 406.30 333.80, 408.22 330.74 C 410.15 327.67, 411.24 326.37, 413.05 324.62 C 414.86 322.87, 415.67 322.36, 417.27 322.00 C 418.87 321.63, 419.64 321.93, 421.05 322.79 C 422.47 323.66, 423.17 324.49, 424.36 326.31 C 425.56 328.13, 426.18 329.36, 427.04 331.88 C 427.89 334.40, 428.38 335.98, 428.63 338.90 C 428.88 341.82, 428.82 343.53, 428.29 346.47 C 427.76 349.41, 427.28 351.00, 425.97 353.60 C 424.65 356.19, 423.68 357.47, 421.71 359.45 C 419.73 361.42, 418.44 362.26, 416.11 363.48 C 413.78 364.69, 412.37 365.12, 410.05 365.53 C 407.73 365.94, 406.44 365.83, 404.52 365.53 C 402.60 365.22, 401.64 364.81, 400.44 364.02 C 399.23 363.24, 398.76 362.67, 398.50 361.60 C 398.25 360.52, 398.36 359.89, 399.16 358.64 C 399.97 357.39, 400.70 356.72, 402.52 355.36 C 404.35 354.00, 405.58 353.22, 408.30 351.85 C 411.02 350.49, 412.72 349.80, 416.13 348.53 C 419.53 347.26, 421.54 346.73, 425.30 345.51 C 429.06 344.30, 431.16 343.77, 434.93 342.45 C 438.70 341.14, 440.70 340.50, 444.14 338.94 C 447.59 337.39, 449.34 336.53, 452.14 334.68 C 454.94 332.84, 456.28 331.79, 458.14 329.72 C 460.00 327.65, 460.69 326.40, 461.45 324.34 C 462.20 322.27, 462.28 321.09, 461.91 319.41 C 461.54 317.74, 460.93 316.81, 459.60 315.96 C 458.27 315.11, 457.14 314.80, 455.28 315.18 C 453.41 315.55, 452.14 316.08, 450.29 317.83 C 448.43 319.58, 447.42 320.99, 446.02 323.92 C 444.62 326.86, 444.03 328.84, 443.28 332.50 C 442.54 336.17, 442.26 338.44, 442.29 342.25 C 442.32 346.06, 442.52 348.24, 443.44 351.55 C 444.36 354.86, 445.08 356.57, 446.88 358.78 C 448.67 360.98, 449.95 361.87, 452.40 362.56 C 454.86 363.24, 456.42 363.22, 459.16 362.20 C 461.89 361.18, 463.37 360.01, 466.08 357.45 C 468.79 354.89, 470.16 353.00, 472.70 349.40 C 475.24 345.81, 476.57 343.40, 478.78 339.47 C 480.98 335.54, 482.16 333.00, 483.73 329.76 C 485.30 326.52, 485.94 324.82, 486.63 323.28 C 487.33 321.73, 487.23 321.40, 487.21 322.01 C 487.20 322.62, 486.73 323.77, 486.56 326.34 C 486.39 328.91, 486.36 331.20, 486.38 334.87 C 486.39 338.54, 486.38 341.10, 486.62 344.71 C 486.87 348.32, 486.88 350.35, 487.62 352.92 C 488.35 355.48, 488.94 356.53, 490.29 357.54 C 491.64 358.56, 492.55 358.63, 494.37 357.99 C 496.18 357.34, 497.37 356.46, 499.38 354.32 C 501.38 352.18, 502.37 350.23, 504.41 347.29 C 506.46 344.35, 507.74 342.28, 509.59 339.61 C 511.45 336.95, 512.41 335.46, 513.71 333.99 C 515.00 332.52, 515.36 332.00, 516.07 332.27 C 516.78 332.54, 516.79 333.32, 517.27 335.33 C 517.74 337.34, 517.84 339.20, 518.43 342.32 C 519.03 345.44, 519.33 347.62, 520.25 350.93 C 521.17 354.23, 521.57 356.22, 523.02 358.84 C 524.47 361.47, 525.45 362.73, 527.49 364.06 C 529.53 365.38, 530.99 365.52, 533.21 365.47 C 535.43 365.43, 536.83 364.77, 538.58 363.84 C 540.33 362.91, 541.43 361.64, 541.96 360.82 C 542.49 360.00, 542.14 359.61, 541.25 359.75 C 540.35 359.88, 539.10 360.83, 537.48 361.48 C 535.85 362.13, 534.84 362.86, 533.10 362.99 C 531.37 363.12, 530.32 363.22, 528.81 362.12 C 527.30 361.03, 526.71 359.92, 525.57 357.53 C 524.43 355.14, 523.92 353.34, 523.12 350.17 C 522.32 347.00, 522.26 344.82, 521.58 341.68 C 520.90 338.53, 520.73 336.59, 519.71 334.46 C 518.69 332.32, 518.00 331.42, 516.48 330.98 C 514.97 330.54, 513.98 330.86, 512.12 332.23 C 510.27 333.61, 509.24 335.21, 507.21 337.87 C 505.17 340.54, 504.02 342.69, 501.96 345.56 C 499.90 348.42, 498.62 350.06, 496.93 352.19 C 495.23 354.33, 494.59 355.38, 493.47 356.22 C 492.35 357.05, 491.98 357.16, 491.33 356.39 C 490.68 355.61, 490.61 354.70, 490.24 352.33 C 489.86 349.96, 489.62 348.04, 489.47 344.55 C 489.32 341.05, 489.45 338.52, 489.46 334.87 C 489.48 331.21, 489.82 328.93, 489.52 326.26 C 489.23 323.60, 488.86 322.33, 487.98 321.54 C 487.10 320.74, 486.42 320.85, 485.14 322.28 C 483.85 323.71, 483.19 325.44, 481.55 328.67 C 479.90 331.90, 479.04 334.55, 476.91 338.44 C 474.79 342.33, 473.42 344.69, 470.92 348.13 C 468.42 351.58, 466.96 353.33, 464.41 355.66 C 461.87 357.99, 460.49 358.83, 458.21 359.78 C 455.92 360.72, 454.87 360.91, 453.00 360.40 C 451.12 359.90, 450.26 359.14, 448.83 357.24 C 447.40 355.34, 446.67 353.89, 445.85 350.89 C 445.02 347.89, 444.73 345.80, 444.73 342.24 C 444.72 338.67, 445.02 336.46, 445.82 333.06 C 446.62 329.67, 447.41 327.87, 448.74 325.26 C 450.07 322.65, 451.03 321.55, 452.46 320.02 C 453.90 318.48, 454.72 318.07, 455.94 317.61 C 457.15 317.14, 457.76 317.27, 458.54 317.70 C 459.31 318.14, 459.68 318.64, 459.82 319.78 C 459.95 320.93, 459.93 321.80, 459.20 323.44 C 458.47 325.07, 457.86 326.10, 456.18 327.95 C 454.50 329.79, 453.38 330.88, 450.79 332.68 C 448.19 334.48, 446.53 335.38, 443.22 336.93 C 439.91 338.48, 437.94 339.12, 434.22 340.41 C 430.50 341.70, 428.41 342.22, 424.63 343.37 C 420.85 344.53, 418.82 345.02, 415.30 346.18 C 411.78 347.35, 409.96 347.85, 407.02 349.20 C 404.09 350.55, 402.65 351.28, 400.63 352.93 C 398.61 354.58, 397.77 355.61, 396.92 357.44 C 396.08 359.28, 395.97 360.40, 396.39 362.11 C 396.81 363.81, 397.49 364.76, 399.02 365.97 C 400.55 367.18, 401.74 367.70, 404.04 368.17 C 406.34 368.64, 407.84 368.73, 410.52 368.30 C 413.20 367.86, 414.81 367.39, 417.44 366.00 C 420.06 364.61, 421.45 363.58, 423.63 361.34 C 425.81 359.10, 426.87 357.67, 428.33 354.80 C 429.79 351.92, 430.31 350.19, 430.94 346.97 C 431.57 343.75, 431.67 341.92, 431.49 338.70 C 431.31 335.47, 430.99 333.68, 430.03 330.87 C 429.07 328.05, 428.29 326.64, 426.70 324.62 C 425.12 322.60, 424.09 321.68, 422.12 320.76 C 420.15 319.84, 419.00 319.59, 416.86 320.01 C 414.71 320.43, 413.51 320.94, 411.40 322.85 C 409.29 324.75, 408.31 326.31, 406.31 329.55 C 404.31 332.78, 403.31 335.04, 401.40 339.01 C 399.49 342.98, 398.45 345.53, 396.75 349.38 C 395.06 353.23, 394.06 355.41, 392.94 358.24 C 391.82 361.07, 391.60 362.47, 391.14 363.52 C 390.69 364.58, 390.80 364.67, 390.67 363.51 C 390.54 362.35, 390.58 361.09, 390.49 357.72 C 390.41 354.35, 390.27 351.80, 390.26 346.66 C 390.26 341.53, 390.32 338.13, 390.47 332.05 C 390.62 325.98, 390.76 322.39, 391.00 316.28 C 391.24 310.16, 391.42 306.82, 391.66 301.47 C 391.90 296.12, 392.04 293.45, 392.21 289.53 C 392.37 285.62, 392.54 284.17, 392.47 281.88 C 392.41 279.60, 392.23 278.86, 391.89 278.09 C 391.56 277.33, 391.19 277.32, 390.81 278.06" style="stroke: white; fill: white;"/><path d="M 611.21,272.35 C 610.75 272.77, 610.45 273.05, 609.89 274.67 C 609.34 276.30, 608.99 277.35, 608.42 280.47 C 607.86 283.60, 607.75 285.64, 607.06 290.30 C 606.38 294.97, 605.87 297.91, 605.00 303.79 C 604.12 309.68, 603.52 313.20, 602.69 319.74 C 601.87 326.27, 601.33 329.96, 600.87 336.44 C 600.41 342.93, 600.13 346.43, 600.38 352.14 C 600.63 357.86, 600.83 360.67, 602.11 365.02 C 603.38 369.37, 604.27 371.27, 606.75 373.88 C 609.22 376.48, 610.96 377.32, 614.48 378.05 C 618.00 378.78, 620.20 378.50, 624.35 377.51 C 628.50 376.53, 630.92 375.39, 635.24 373.11 C 639.56 370.82, 641.93 369.08, 645.94 366.11 C 649.94 363.13, 652.00 361.25, 655.27 358.23 C 658.53 355.21, 660.17 353.58, 662.25 351.01 C 664.33 348.44, 664.83 347.17, 665.66 345.38 C 666.49 343.59, 666.39 342.77, 666.40 342.06 C 666.42 341.34, 666.19 341.30, 665.73 341.80 C 665.27 342.29, 665.18 342.97, 664.13 344.52 C 663.07 346.07, 662.51 347.10, 660.48 349.56 C 658.44 352.02, 657.07 353.81, 653.94 356.83 C 650.81 359.84, 648.76 361.72, 644.85 364.64 C 640.93 367.56, 638.55 369.25, 634.36 371.44 C 630.17 373.63, 627.79 374.66, 623.89 375.59 C 619.99 376.53, 618.03 376.71, 614.86 376.12 C 611.70 375.52, 610.31 374.93, 608.06 372.61 C 605.82 370.30, 604.90 368.66, 603.65 364.56 C 602.40 360.45, 602.10 357.68, 601.81 352.07 C 601.53 346.47, 601.77 342.97, 602.22 336.54 C 602.68 330.11, 603.22 326.42, 604.09 319.92 C 604.97 313.42, 605.59 309.90, 606.61 304.05 C 607.62 298.20, 608.20 295.27, 609.15 290.67 C 610.09 286.06, 610.71 284.12, 611.32 281.02 C 611.92 277.92, 612.02 276.86, 612.19 275.18 C 612.36 273.50, 612.37 273.18, 612.17 272.61 C 611.98 272.05, 611.66 271.94, 611.21 272.35" style="stroke: white; fill: white;"/><path d="M 603.22,321.02 C 603.89 321.27, 604.58 321.38, 606.38 321.18 C 608.18 320.98, 609.39 320.80, 612.20 320.03 C 615.01 319.25, 616.88 318.50, 620.44 317.30 C 624.00 316.10, 626.17 315.34, 630.01 314.04 C 633.84 312.73, 635.97 312.01, 639.61 310.77 C 643.24 309.53, 645.20 308.96, 648.19 307.84 C 651.18 306.73, 652.60 306.13, 654.55 305.19 C 656.50 304.25, 657.34 303.70, 657.95 303.13 C 658.57 302.56, 658.46 302.31, 657.63 302.33 C 656.79 302.36, 655.85 302.62, 653.79 303.25 C 651.73 303.87, 650.30 304.38, 647.31 305.46 C 644.33 306.53, 642.47 307.35, 638.86 308.62 C 635.26 309.90, 633.12 310.61, 629.28 311.83 C 625.44 313.05, 623.24 313.72, 619.64 314.72 C 616.05 315.73, 614.07 316.03, 611.30 316.83 C 608.53 317.63, 607.45 318.12, 605.80 318.74 C 604.15 319.36, 603.55 319.48, 603.03 319.94 C 602.52 320.39, 602.55 320.78, 603.22 321.02" style="stroke: white; fill: white;"/><path d="M 626.14,311.75 C 626.45 312.21, 626.77 312.59, 628.01 313.03 C 629.24 313.48, 630.14 313.76, 632.30 313.99 C 634.45 314.22, 635.92 314.31, 638.78 314.17 C 641.64 314.03, 643.41 313.72, 646.61 313.28 C 649.81 312.85, 651.63 312.55, 654.78 312.00 C 657.94 311.46, 659.64 311.25, 662.38 310.57 C 665.13 309.90, 667.33 309.27, 668.51 308.64 C 669.68 308.00, 669.59 307.56, 668.27 307.41 C 666.94 307.27, 664.67 307.54, 661.88 307.91 C 659.10 308.28, 657.45 308.76, 654.33 309.25 C 651.21 309.73, 649.42 310.06, 646.28 310.33 C 643.15 310.60, 641.42 310.56, 638.66 310.61 C 635.90 310.65, 634.53 310.57, 632.48 310.56 C 630.43 310.56, 629.62 310.57, 628.42 310.60 C 627.21 310.63, 626.90 310.51, 626.45 310.74 C 625.99 310.97, 625.83 311.30, 626.14 311.75" style="stroke: white; fill: white;"/><path d="M 681.92,353.29 C 681.71 353.74, 681.78 354.32, 682.07 354.68 C 682.36 355.04, 682.89 355.18, 683.36 355.09 C 683.83 355.00, 684.23 354.66, 684.43 354.23 C 684.63 353.80, 684.61 353.31, 684.35 352.95 C 684.09 352.59, 683.62 352.36, 683.13 352.43 C 682.65 352.49, 682.13 352.84, 681.92 353.29" style="stroke: white; fill: white;"/><path d="M 773.86,260.79 C 773.60 261.28, 773.49 261.48, 773.50 263.14 C 773.51 264.80, 773.51 265.83, 773.92 269.09 C 774.32 272.34, 774.85 274.43, 775.52 279.41 C 776.19 284.39, 776.52 287.58, 777.28 293.99 C 778.04 300.40, 778.45 304.29, 779.31 311.47 C 780.17 318.64, 780.63 322.79, 781.58 329.85 C 782.53 336.90, 783.05 340.75, 784.05 346.75 C 785.05 352.76, 785.51 355.73, 786.59 359.87 C 787.67 364.01, 788.14 365.75, 789.45 367.45 C 790.77 369.15, 791.76 369.40, 793.16 368.36 C 794.56 367.31, 795.27 365.94, 796.46 362.21 C 797.64 358.47, 798.00 355.69, 799.08 349.68 C 800.16 343.67, 800.72 339.71, 801.84 332.18 C 802.97 324.64, 803.59 320.06, 804.71 312.00 C 805.83 303.94, 806.43 299.42, 807.46 291.88 C 808.48 284.34, 809.00 280.43, 809.85 274.28 C 810.69 268.14, 811.13 265.34, 811.68 261.14 C 812.24 256.95, 812.43 255.55, 812.62 253.30 C 812.81 251.05, 812.76 250.60, 812.64 249.91 C 812.53 249.21, 812.37 249.18, 812.05 249.82 C 811.74 250.46, 811.48 250.87, 811.09 253.10 C 810.69 255.32, 810.57 256.74, 810.07 260.94 C 809.57 265.15, 809.33 267.96, 808.58 274.12 C 807.83 280.28, 807.33 284.18, 806.33 291.73 C 805.33 299.27, 804.73 303.79, 803.58 311.84 C 802.42 319.89, 801.78 324.47, 800.55 331.97 C 799.32 339.48, 798.65 343.44, 797.42 349.36 C 796.19 355.28, 795.44 357.97, 794.41 361.59 C 793.39 365.21, 793.03 366.45, 792.29 367.46 C 791.55 368.47, 791.52 368.24, 790.71 366.64 C 789.90 365.04, 789.30 363.46, 788.24 359.43 C 787.18 355.41, 786.48 352.47, 785.40 346.52 C 784.32 340.57, 783.78 336.72, 782.82 329.68 C 781.86 322.64, 781.41 318.49, 780.60 311.32 C 779.80 304.15, 779.41 300.25, 778.79 293.83 C 778.17 287.40, 777.91 284.21, 777.50 279.20 C 777.09 274.19, 777.09 272.03, 776.75 268.76 C 776.40 265.49, 776.16 264.49, 775.77 262.87 C 775.38 261.25, 775.18 261.08, 774.80 260.66 C 774.42 260.24, 774.12 260.29, 773.86 260.79" style="stroke: white; fill: white;"/><path d="M 843.23,318.65 C 843.22 318.14, 843.09 317.74, 842.42 316.99 C 841.75 316.24, 841.27 315.56, 839.88 314.88 C 838.50 314.21, 837.45 313.68, 835.48 313.61 C 833.50 313.54, 832.26 313.52, 830.00 314.53 C 827.75 315.54, 826.41 316.31, 824.21 318.66 C 822.00 321.01, 820.84 322.72, 818.98 326.28 C 817.12 329.83, 816.15 332.25, 814.91 336.44 C 813.67 340.64, 813.17 343.22, 812.78 347.26 C 812.39 351.29, 812.31 353.55, 812.95 356.61 C 813.59 359.66, 814.35 361.08, 815.98 362.52 C 817.62 363.96, 818.89 364.28, 821.12 363.82 C 823.35 363.36, 824.78 362.53, 827.13 360.21 C 829.48 357.88, 830.66 355.94, 832.89 352.21 C 835.12 348.49, 836.30 345.95, 838.27 341.57 C 840.24 337.19, 841.24 334.42, 842.73 330.31 C 844.21 326.20, 845.09 323.97, 845.70 321.03 C 846.31 318.09, 846.14 316.71, 845.78 315.61 C 845.42 314.50, 844.73 314.44, 843.88 315.50 C 843.03 316.56, 842.17 317.96, 841.54 320.93 C 840.92 323.89, 840.84 326.32, 840.74 330.34 C 840.64 334.36, 840.65 336.96, 841.03 341.03 C 841.40 345.10, 841.61 347.44, 842.62 350.68 C 843.62 353.93, 844.36 355.52, 846.07 357.25 C 847.78 358.97, 848.96 359.44, 851.16 359.30 C 853.36 359.17, 854.75 358.59, 857.07 356.59 C 859.39 354.59, 860.51 352.77, 862.74 349.30 C 864.97 345.82, 866.14 343.35, 868.21 339.22 C 870.28 335.09, 871.41 332.30, 873.08 328.66 C 874.74 325.01, 875.66 323.00, 876.54 321.00 C 877.43 319.01, 877.38 318.37, 877.51 318.69 C 877.64 319.01, 877.26 320.09, 877.19 322.59 C 877.12 325.09, 877.11 327.41, 877.16 331.20 C 877.21 334.98, 877.18 337.66, 877.44 341.51 C 877.70 345.36, 877.70 347.55, 878.46 350.43 C 879.21 353.31, 879.84 354.59, 881.21 355.91 C 882.59 357.24, 883.47 357.55, 885.32 357.06 C 887.18 356.57, 888.38 355.72, 890.48 353.47 C 892.57 351.22, 893.62 349.18, 895.80 345.79 C 897.98 342.39, 899.22 340.02, 901.37 336.49 C 903.52 332.97, 904.83 330.89, 906.54 328.17 C 908.25 325.46, 908.99 324.11, 909.92 322.93 C 910.85 321.74, 910.91 321.51, 911.19 322.24 C 911.46 322.96, 911.17 324.03, 911.32 326.56 C 911.46 329.08, 911.57 331.16, 911.93 334.84 C 912.30 338.53, 912.45 341.03, 913.14 344.96 C 913.84 348.90, 914.15 351.20, 915.41 354.54 C 916.68 357.88, 917.43 359.61, 919.47 361.66 C 921.51 363.71, 923.17 364.21, 925.60 364.79 C 928.04 365.37, 929.62 365.04, 931.67 364.56 C 933.71 364.08, 935.10 363.05, 935.85 362.39 C 936.61 361.73, 936.36 361.31, 935.44 361.26 C 934.51 361.22, 933.09 361.96, 931.24 362.19 C 929.38 362.41, 928.16 362.84, 926.16 362.39 C 924.16 361.94, 922.92 361.67, 921.22 359.93 C 919.53 358.19, 918.80 356.77, 917.68 353.69 C 916.56 350.62, 916.20 348.38, 915.62 344.56 C 915.05 340.74, 915.09 338.27, 914.82 334.59 C 914.54 330.91, 914.78 328.79, 914.24 326.16 C 913.70 323.54, 913.22 322.36, 912.12 321.45 C 911.02 320.54, 910.28 320.55, 908.73 321.60 C 907.17 322.66, 906.23 324.00, 904.35 326.72 C 902.46 329.45, 901.45 331.71, 899.30 335.23 C 897.16 338.76, 895.82 341.09, 893.61 344.35 C 891.40 347.61, 890.04 349.33, 888.26 351.54 C 886.47 353.75, 885.83 354.73, 884.69 355.39 C 883.54 356.04, 883.23 355.90, 882.53 354.79 C 881.82 353.68, 881.65 352.52, 881.17 349.83 C 880.69 347.14, 880.36 345.08, 880.14 341.34 C 879.92 337.60, 880.13 334.94, 880.08 331.16 C 880.02 327.37, 880.31 325.01, 879.88 322.40 C 879.45 319.79, 878.96 318.59, 877.92 318.10 C 876.89 317.61, 876.10 318.01, 874.70 319.93 C 873.31 321.84, 872.64 324.01, 870.94 327.68 C 869.25 331.34, 868.28 334.17, 866.24 338.23 C 864.20 342.29, 862.93 344.71, 860.73 347.98 C 858.53 351.25, 857.20 352.70, 855.25 354.59 C 853.30 356.48, 852.49 357.16, 850.96 357.41 C 849.44 357.66, 848.82 357.32, 847.63 355.84 C 846.43 354.35, 845.84 352.98, 845.00 349.98 C 844.17 346.98, 843.73 344.74, 843.45 340.83 C 843.16 336.93, 843.33 334.35, 843.59 330.47 C 843.85 326.59, 844.42 324.34, 844.75 321.45 C 845.07 318.55, 845.23 317.17, 845.22 316.00 C 845.20 314.83, 845.10 314.70, 844.69 315.58 C 844.29 316.47, 843.98 317.61, 843.19 320.42 C 842.40 323.22, 842.10 325.56, 840.74 329.62 C 839.38 333.68, 838.36 336.44, 836.40 340.72 C 834.43 345.00, 833.16 347.48, 830.93 351.01 C 828.69 354.53, 827.30 356.16, 825.23 358.33 C 823.16 360.51, 822.18 361.29, 820.59 361.86 C 819.00 362.43, 818.31 362.34, 817.27 361.19 C 816.23 360.05, 815.84 358.89, 815.39 356.15 C 814.94 353.40, 814.68 351.27, 815.01 347.46 C 815.34 343.65, 815.81 341.08, 817.03 337.08 C 818.25 333.07, 819.26 330.72, 821.12 327.44 C 822.97 324.16, 824.28 322.72, 826.30 320.68 C 828.32 318.64, 829.40 318.02, 831.20 317.24 C 833.00 316.45, 833.83 316.60, 835.29 316.74 C 836.75 316.87, 837.38 317.45, 838.50 317.92 C 839.61 318.39, 840.08 318.77, 840.88 319.09 C 841.69 319.41, 842.03 319.60, 842.50 319.51 C 842.97 319.42, 843.25 319.15, 843.23 318.65" style="stroke: white; fill: white;"/><path d="M 1032.28,262.04 C 1031.79 262.51, 1031.47 262.83, 1030.77 264.69 C 1030.08 266.55, 1029.75 267.69, 1028.82 271.33 C 1027.89 274.97, 1027.41 277.35, 1026.11 282.87 C 1024.81 288.38, 1023.98 291.81, 1022.32 298.91 C 1020.65 306.01, 1019.63 310.28, 1017.79 318.37 C 1015.95 326.45, 1014.88 331.18, 1013.14 339.35 C 1011.40 347.51, 1010.49 352.08, 1009.08 359.20 C 1007.67 366.32, 1006.91 369.93, 1006.09 374.96 C 1005.26 379.99, 1004.86 382.37, 1004.95 384.34 C 1005.04 386.31, 1005.84 386.68, 1006.54 384.83 C 1007.23 382.97, 1007.44 380.67, 1008.42 375.05 C 1009.39 369.44, 1009.95 365.12, 1011.39 356.75 C 1012.83 348.38, 1013.77 342.98, 1015.60 333.22 C 1017.43 323.45, 1018.51 317.80, 1020.55 307.93 C 1022.58 298.05, 1023.76 292.76, 1025.77 283.83 C 1027.78 274.89, 1028.86 270.50, 1030.61 263.27 C 1032.36 256.04, 1033.23 252.72, 1034.53 247.67 C 1035.82 242.62, 1036.55 240.47, 1037.10 238.02 C 1037.65 235.56, 1037.34 234.91, 1037.27 235.38 C 1037.20 235.84, 1036.78 236.94, 1036.76 240.33 C 1036.74 243.73, 1036.92 246.39, 1037.18 252.34 C 1037.45 258.29, 1037.60 262.20, 1038.09 270.07 C 1038.58 277.94, 1038.88 282.68, 1039.64 291.70 C 1040.39 300.73, 1040.88 305.85, 1041.89 315.19 C 1042.89 324.52, 1043.51 329.57, 1044.66 338.39 C 1045.82 347.21, 1046.51 351.79, 1047.66 359.28 C 1048.80 366.77, 1049.40 370.51, 1050.39 375.84 C 1051.38 381.17, 1051.76 383.66, 1052.60 385.91 C 1053.44 388.16, 1054.14 387.90, 1054.58 387.10 C 1055.02 386.30, 1055.13 384.25, 1054.80 381.91 C 1054.48 379.58, 1053.76 376.64, 1052.97 375.44 C 1052.17 374.24, 1051.03 374.52, 1050.84 375.93 C 1050.64 377.34, 1051.37 380.26, 1051.99 382.50 C 1052.62 384.73, 1053.53 386.50, 1053.95 387.09 C 1054.37 387.69, 1054.55 387.79, 1054.11 385.49 C 1053.67 383.18, 1052.83 380.85, 1051.75 375.57 C 1050.67 370.30, 1049.94 366.57, 1048.71 359.11 C 1047.49 351.65, 1046.79 347.07, 1045.61 338.26 C 1044.43 329.46, 1043.81 324.41, 1042.83 315.09 C 1041.84 305.76, 1041.36 300.64, 1040.67 291.62 C 1039.97 282.60, 1039.71 277.87, 1039.36 270.00 C 1039.01 262.14, 1038.99 258.24, 1038.90 252.29 C 1038.81 246.34, 1039.14 243.69, 1038.89 240.26 C 1038.65 236.83, 1038.35 235.68, 1037.67 235.13 C 1036.99 234.59, 1036.37 235.10, 1035.48 237.54 C 1034.59 239.98, 1034.38 242.25, 1033.20 247.34 C 1032.03 252.44, 1031.26 255.77, 1029.59 263.03 C 1027.93 270.29, 1026.87 274.68, 1024.88 283.63 C 1022.90 292.57, 1021.72 297.87, 1019.67 307.75 C 1017.62 317.63, 1016.54 323.28, 1014.63 333.03 C 1012.72 342.79, 1011.68 348.17, 1010.12 356.52 C 1008.55 364.87, 1007.78 369.17, 1006.81 374.77 C 1005.84 380.38, 1005.39 382.62, 1005.27 384.55 C 1005.15 386.49, 1005.74 386.33, 1006.20 384.46 C 1006.66 382.59, 1006.77 380.21, 1007.57 375.20 C 1008.38 370.19, 1008.90 366.54, 1010.23 359.42 C 1011.55 352.29, 1012.46 347.73, 1014.19 339.57 C 1015.93 331.41, 1017.01 326.69, 1018.89 318.62 C 1020.77 310.55, 1021.82 306.29, 1023.60 299.23 C 1025.39 292.16, 1026.28 288.75, 1027.80 283.30 C 1029.32 277.85, 1030.16 275.57, 1031.20 271.98 C 1032.24 268.39, 1032.60 267.27, 1033.00 265.34 C 1033.41 263.41, 1033.39 262.99, 1033.24 262.33 C 1033.10 261.67, 1032.78 261.57, 1032.28 262.04" style="stroke: white; fill: white;"/><path d="M 1010.82,332.45 C 1011.15 332.90, 1011.45 333.27, 1012.80 333.73 C 1014.14 334.19, 1015.07 334.58, 1017.54 334.74 C 1020.00 334.90, 1021.71 334.89, 1025.13 334.53 C 1028.54 334.17, 1030.69 333.82, 1034.60 332.93 C 1038.52 332.04, 1040.78 331.41, 1044.70 330.08 C 1048.62 328.75, 1050.72 327.87, 1054.21 326.28 C 1057.71 324.69, 1059.53 323.78, 1062.17 322.13 C 1064.82 320.49, 1066.07 319.32, 1067.44 318.06 C 1068.81 316.80, 1068.94 315.97, 1069.00 315.82 C 1069.07 315.67, 1068.45 315.84, 1067.76 317.31 C 1067.08 318.78, 1066.34 320.09, 1065.57 323.15 C 1064.79 326.22, 1064.37 328.54, 1063.88 332.64 C 1063.40 336.75, 1063.11 339.39, 1063.13 343.68 C 1063.15 347.98, 1063.24 350.40, 1063.98 354.12 C 1064.72 357.85, 1065.21 359.80, 1066.83 362.32 C 1068.46 364.83, 1069.69 365.84, 1072.10 366.69 C 1074.51 367.55, 1076.10 367.56, 1078.87 366.59 C 1081.64 365.62, 1083.18 364.43, 1085.95 361.84 C 1088.72 359.25, 1090.16 357.30, 1092.72 353.63 C 1095.28 349.96, 1096.61 347.43, 1098.75 343.49 C 1100.88 339.56, 1102.08 337.08, 1103.38 333.94 C 1104.69 330.80, 1105.02 329.09, 1105.28 327.81 C 1105.54 326.53, 1105.05 326.42, 1104.67 327.54 C 1104.30 328.66, 1103.71 330.20, 1103.40 333.41 C 1103.09 336.62, 1103.01 339.30, 1103.14 343.60 C 1103.26 347.90, 1103.40 350.72, 1104.02 354.92 C 1104.64 359.12, 1104.97 361.38, 1106.25 364.59 C 1107.53 367.80, 1108.40 369.34, 1110.42 370.96 C 1112.44 372.58, 1113.87 373.09, 1116.35 372.69 C 1118.82 372.30, 1120.26 371.51, 1122.80 369.00 C 1125.33 366.49, 1126.59 364.53, 1129.01 360.14 C 1131.42 355.75, 1132.67 352.88, 1134.86 347.06 C 1137.06 341.23, 1138.14 337.67, 1139.97 331.02 C 1141.80 324.38, 1142.66 320.48, 1144.01 313.82 C 1145.36 307.17, 1145.92 303.57, 1146.72 297.74 C 1147.52 291.92, 1147.81 289.06, 1148.02 284.71 C 1148.23 280.37, 1148.31 278.46, 1147.76 276.02 C 1147.21 273.59, 1146.53 272.79, 1145.27 272.53 C 1144.01 272.27, 1142.88 272.65, 1141.45 274.70 C 1140.03 276.76, 1139.33 278.58, 1138.16 282.81 C 1136.99 287.05, 1136.45 289.96, 1135.61 295.88 C 1134.77 301.81, 1134.34 305.59, 1133.97 312.44 C 1133.60 319.29, 1133.48 323.35, 1133.76 330.16 C 1134.03 336.96, 1134.34 340.65, 1135.33 346.46 C 1136.33 352.28, 1137.04 355.08, 1138.75 359.23 C 1140.45 363.37, 1141.49 365.11, 1143.84 367.19 C 1146.20 369.27, 1147.81 369.72, 1150.52 369.62 C 1153.23 369.52, 1154.89 368.73, 1157.41 366.68 C 1159.93 364.63, 1161.18 362.74, 1163.10 359.37 C 1165.02 356.00, 1165.92 353.62, 1167.00 349.83 C 1168.08 346.04, 1168.45 343.73, 1168.50 340.41 C 1168.56 337.08, 1168.17 335.36, 1167.26 333.19 C 1166.35 331.01, 1165.38 330.23, 1163.96 329.52 C 1162.53 328.81, 1161.36 328.97, 1160.13 329.65 C 1158.90 330.32, 1158.10 331.30, 1157.81 332.92 C 1157.51 334.53, 1157.64 335.88, 1158.65 337.71 C 1159.65 339.54, 1160.61 340.70, 1162.83 342.07 C 1165.04 343.43, 1166.61 344.07, 1169.71 344.54 C 1172.81 345.00, 1174.77 344.94, 1178.32 344.40 C 1181.86 343.86, 1183.92 343.27, 1187.43 341.84 C 1190.93 340.42, 1192.81 339.32, 1195.84 337.26 C 1198.87 335.21, 1200.48 333.91, 1202.57 331.58 C 1204.67 329.24, 1205.53 327.78, 1206.31 325.57 C 1207.09 323.36, 1207.06 322.07, 1206.48 320.54 C 1205.89 319.01, 1205.08 318.26, 1203.40 317.92 C 1201.73 317.58, 1200.26 317.66, 1198.10 318.84 C 1195.94 320.02, 1194.56 321.21, 1192.62 323.83 C 1190.68 326.45, 1189.72 328.36, 1188.40 331.93 C 1187.09 335.51, 1186.47 337.75, 1186.06 341.71 C 1185.65 345.68, 1185.65 348.02, 1186.36 351.74 C 1187.07 355.46, 1187.75 357.51, 1189.63 360.31 C 1191.50 363.12, 1192.87 364.52, 1195.73 365.75 C 1198.59 366.99, 1200.47 367.23, 1203.93 366.49 C 1207.39 365.75, 1209.34 364.78, 1213.03 362.06 C 1216.71 359.33, 1218.73 357.36, 1222.36 352.87 C 1226.00 348.38, 1227.91 345.48, 1231.22 339.59 C 1234.52 333.71, 1236.17 330.13, 1238.87 323.46 C 1241.58 316.79, 1242.83 312.88, 1244.74 306.23 C 1246.64 299.57, 1247.39 295.95, 1248.38 290.18 C 1249.37 284.42, 1249.65 281.59, 1249.67 277.40 C 1249.70 273.22, 1249.50 271.39, 1248.51 269.25 C 1247.51 267.11, 1246.49 266.50, 1244.71 266.69 C 1242.92 266.87, 1241.54 267.58, 1239.60 270.17 C 1237.66 272.76, 1236.68 274.90, 1235.00 279.63 C 1233.33 284.35, 1232.41 287.50, 1231.22 293.80 C 1230.02 300.10, 1229.42 304.00, 1229.02 311.13 C 1228.63 318.25, 1228.58 322.36, 1229.24 329.42 C 1229.90 336.49, 1230.51 340.24, 1232.32 346.47 C 1234.14 352.70, 1235.32 355.77, 1238.31 360.56 C 1241.30 365.35, 1243.16 367.52, 1247.27 370.41 C 1251.38 373.30, 1254.45 374.00, 1258.87 375.01 C 1263.30 376.01, 1265.81 375.72, 1269.38 375.45 C 1272.94 375.17, 1275.29 374.19, 1276.72 373.61 C 1278.15 373.04, 1278.01 372.56, 1276.51 372.55 C 1275.02 372.54, 1272.71 373.41, 1269.26 373.55 C 1265.81 373.70, 1263.47 374.17, 1259.25 373.29 C 1255.02 372.42, 1252.08 371.86, 1248.12 369.17 C 1244.16 366.48, 1242.37 364.46, 1239.45 359.84 C 1236.53 355.23, 1235.32 352.23, 1233.53 346.12 C 1231.73 340.01, 1231.11 336.29, 1230.47 329.31 C 1229.83 322.33, 1229.88 318.25, 1230.33 311.21 C 1230.78 304.17, 1231.42 300.28, 1232.73 294.10 C 1234.03 287.93, 1235.09 284.83, 1236.86 280.32 C 1238.63 275.81, 1239.97 274.03, 1241.58 271.57 C 1243.20 269.10, 1243.87 268.32, 1244.94 267.98 C 1246.01 267.64, 1246.32 267.99, 1246.93 269.88 C 1247.53 271.76, 1247.93 273.39, 1247.94 277.40 C 1247.96 281.42, 1247.89 284.26, 1247.00 289.96 C 1246.12 295.65, 1245.39 299.28, 1243.53 305.89 C 1241.67 312.49, 1240.41 316.38, 1237.71 322.99 C 1235.01 329.59, 1233.34 333.15, 1230.03 338.92 C 1226.71 344.69, 1224.76 347.54, 1221.13 351.86 C 1217.51 356.18, 1215.44 358.02, 1211.91 360.52 C 1208.38 363.01, 1206.53 363.72, 1203.48 364.34 C 1200.43 364.96, 1199.05 364.66, 1196.67 363.60 C 1194.30 362.53, 1193.20 361.47, 1191.59 359.01 C 1189.97 356.56, 1189.25 354.73, 1188.61 351.32 C 1187.96 347.91, 1187.93 345.66, 1188.37 341.97 C 1188.81 338.28, 1189.45 336.12, 1190.79 332.86 C 1192.14 329.60, 1193.31 327.99, 1195.08 325.69 C 1196.85 323.38, 1198.03 322.49, 1199.65 321.33 C 1201.27 320.16, 1202.17 319.91, 1203.20 319.85 C 1204.23 319.79, 1204.64 320.08, 1204.81 321.04 C 1204.98 322.00, 1204.90 322.89, 1204.05 324.64 C 1203.21 326.39, 1202.50 327.66, 1200.58 329.79 C 1198.66 331.91, 1197.27 333.30, 1194.46 335.26 C 1191.65 337.22, 1189.82 338.29, 1186.52 339.59 C 1183.22 340.90, 1181.23 341.41, 1177.96 341.79 C 1174.70 342.18, 1172.91 342.01, 1170.20 341.53 C 1167.50 341.05, 1166.25 340.47, 1164.45 339.40 C 1162.64 338.33, 1162.02 337.44, 1161.18 336.19 C 1160.34 334.94, 1160.26 334.17, 1160.23 333.17 C 1160.21 332.17, 1160.51 331.62, 1161.08 331.19 C 1161.65 330.77, 1162.29 330.49, 1163.08 331.05 C 1163.88 331.61, 1164.49 332.13, 1165.06 333.99 C 1165.62 335.85, 1165.99 337.32, 1165.91 340.35 C 1165.83 343.39, 1165.65 345.61, 1164.66 349.17 C 1163.67 352.73, 1162.73 355.02, 1160.96 358.15 C 1159.19 361.27, 1157.91 362.90, 1155.80 364.79 C 1153.69 366.69, 1152.53 367.44, 1150.40 367.63 C 1148.27 367.81, 1147.18 367.52, 1145.15 365.72 C 1143.12 363.91, 1141.93 362.49, 1140.25 358.59 C 1138.56 354.69, 1137.75 351.92, 1136.71 346.22 C 1135.68 340.52, 1135.35 336.84, 1135.08 330.10 C 1134.81 323.36, 1134.93 319.32, 1135.38 312.52 C 1135.82 305.73, 1136.31 301.96, 1137.30 296.14 C 1138.29 290.33, 1139.09 287.49, 1140.31 283.43 C 1141.54 279.38, 1142.47 277.87, 1143.43 275.86 C 1144.39 273.85, 1144.61 273.29, 1145.10 273.38 C 1145.58 273.48, 1145.62 274.09, 1145.87 276.34 C 1146.11 278.60, 1146.41 280.41, 1146.30 284.65 C 1146.19 288.89, 1146.04 291.78, 1145.32 297.56 C 1144.61 303.34, 1144.06 306.95, 1142.73 313.57 C 1141.40 320.19, 1140.53 324.07, 1138.67 330.66 C 1136.81 337.25, 1135.69 340.79, 1133.43 346.50 C 1131.16 352.21, 1129.81 355.03, 1127.36 359.20 C 1124.90 363.38, 1123.43 365.06, 1121.16 367.36 C 1118.88 369.66, 1117.85 370.29, 1115.98 370.69 C 1114.11 371.09, 1113.30 370.75, 1111.79 369.36 C 1110.28 367.97, 1109.53 366.70, 1108.44 363.75 C 1107.34 360.80, 1106.83 358.64, 1106.31 354.60 C 1105.79 350.57, 1105.83 347.77, 1105.84 343.57 C 1105.85 339.36, 1106.33 336.78, 1106.35 333.56 C 1106.38 330.35, 1106.42 328.77, 1105.97 327.49 C 1105.51 326.22, 1105.05 326.09, 1104.06 327.17 C 1103.08 328.25, 1102.49 329.84, 1101.04 332.90 C 1099.60 335.96, 1098.86 338.59, 1096.84 342.48 C 1094.82 346.38, 1093.45 348.86, 1090.94 352.37 C 1088.43 355.89, 1086.90 357.70, 1084.31 360.07 C 1081.72 362.44, 1080.28 363.29, 1077.98 364.22 C 1075.68 365.14, 1074.62 365.35, 1072.80 364.71 C 1070.98 364.07, 1070.22 363.23, 1068.90 361.03 C 1067.58 358.82, 1066.90 357.15, 1066.20 353.68 C 1065.49 350.21, 1065.33 347.83, 1065.38 343.69 C 1065.44 339.56, 1065.80 336.97, 1066.47 333.01 C 1067.14 329.05, 1068.02 326.94, 1068.71 323.91 C 1069.40 320.87, 1069.82 319.56, 1069.91 317.83 C 1069.99 316.10, 1069.87 315.57, 1069.12 315.26 C 1068.36 314.94, 1067.80 315.32, 1066.13 316.24 C 1064.46 317.17, 1063.36 318.30, 1060.78 319.90 C 1058.21 321.50, 1056.62 322.63, 1053.26 324.25 C 1049.90 325.87, 1047.83 326.73, 1044.00 327.99 C 1040.17 329.25, 1037.93 329.85, 1034.11 330.56 C 1030.29 331.27, 1028.18 331.39, 1024.89 331.54 C 1021.61 331.70, 1020.02 331.39, 1017.68 331.35 C 1015.34 331.31, 1014.50 331.33, 1013.19 331.35 C 1011.87 331.37, 1011.58 331.23, 1011.11 331.45 C 1010.63 331.67, 1010.48 332.00, 1010.82 332.45" style="stroke: white; fill: white;"/></svg>