<svg xmlns="http://www.w3.org/2000/svg" id="canvas" viewBox="228.369 257.112 1025.347 144.048"><path d="M 232.28,294.80 C 232.05 295.26, 231.94 295.70, 231.76 297.15 C 231.59 298.60, 231.44 299.50, 231.39 302.04 C 231.33 304.58, 231.41 306.25, 231.49 309.86 C 231.56 313.48, 231.67 315.70, 231.76 320.10 C 231.85 324.49, 231.88 327.06, 231.93 331.86 C 231.98 336.66, 232.00 339.35, 231.99 344.08 C 231.99 348.81, 231.95 351.36, 231.92 355.50 C 231.88 359.65, 231.78 361.71, 231.81 364.79 C 231.83 367.87, 231.89 369.68, 232.06 370.90 C 232.23 372.12, 232.45 372.13, 232.64 370.91 C 232.83 369.69, 232.94 367.88, 233.03 364.80 C 233.12 361.72, 233.08 359.66, 233.09 355.51 C 233.10 351.37, 233.09 348.81, 233.08 344.08 C 233.07 339.35, 233.05 336.65, 233.04 331.85 C 233.03 327.05, 233.02 324.48, 233.03 320.08 C 233.04 315.69, 233.03 313.46, 233.10 309.86 C 233.16 306.26, 233.33 304.60, 233.34 302.07 C 233.36 299.53, 233.27 298.64, 233.18 297.19 C 233.09 295.75, 233.09 295.31, 232.91 294.83 C 232.73 294.35, 232.51 294.34, 232.28 294.80" style="stroke: white; fill: white;"/><path d="M 254.27,301.48 C 254.10 301.81, 254.09 301.93, 253.95 303.10 C 253.81 304.27, 253.66 304.99, 253.57 307.34 C 253.48 309.69, 253.58 311.29, 253.49 314.85 C 253.40 318.41, 253.31 320.74, 253.11 325.14 C 252.91 329.54, 252.74 332.22, 252.48 336.84 C 252.22 341.47, 252.06 344.09, 251.79 348.27 C 251.52 352.45, 251.26 354.62, 251.14 357.75 C 251.02 360.89, 250.97 362.27, 251.17 363.94 C 251.37 365.61, 251.59 366.05, 252.13 366.10 C 252.68 366.16, 253.09 365.66, 253.90 364.21 C 254.72 362.76, 255.24 361.45, 256.22 358.84 C 257.20 356.24, 257.62 354.34, 258.80 351.20 C 259.98 348.06, 260.71 346.11, 262.11 343.14 C 263.52 340.18, 264.42 338.62, 265.82 336.37 C 267.21 334.12, 267.96 333.18, 269.07 331.90 C 270.18 330.61, 270.69 330.25, 271.36 329.93 C 272.02 329.61, 272.20 329.74, 272.40 330.28 C 272.59 330.81, 272.52 331.35, 272.33 332.62 C 272.13 333.89, 271.90 334.80, 271.42 336.62 C 270.94 338.44, 270.57 339.63, 269.92 341.71 C 269.27 343.79, 268.80 345.01, 268.18 347.02 C 267.56 349.03, 267.14 350.09, 266.82 351.75 C 266.50 353.41, 266.37 354.17, 266.58 355.32 C 266.78 356.47, 267.03 356.90, 267.84 357.51 C 268.64 358.12, 269.22 358.29, 270.58 358.36 C 271.95 358.43, 272.85 358.33, 274.65 357.86 C 276.46 357.39, 277.73 356.84, 279.60 356.02 C 281.48 355.20, 282.56 354.60, 284.03 353.75 C 285.51 352.91, 286.43 352.30, 286.96 351.79 C 287.49 351.28, 287.40 351.11, 286.67 351.20 C 285.95 351.30, 284.93 351.70, 283.35 352.26 C 281.77 352.83, 280.64 353.30, 278.78 354.02 C 276.92 354.75, 275.71 355.32, 274.06 355.88 C 272.41 356.43, 271.66 356.64, 270.53 356.79 C 269.41 356.94, 268.98 356.96, 268.43 356.64 C 267.88 356.32, 267.77 356.10, 267.77 355.20 C 267.76 354.30, 267.97 353.65, 268.41 352.14 C 268.86 350.62, 269.29 349.57, 269.98 347.61 C 270.68 345.65, 271.18 344.44, 271.88 342.34 C 272.57 340.24, 273.03 339.04, 273.46 337.11 C 273.89 335.19, 274.08 334.17, 274.02 332.70 C 273.96 331.24, 273.75 330.53, 273.16 329.80 C 272.58 329.08, 272.10 328.85, 271.08 329.08 C 270.06 329.31, 269.41 329.66, 268.07 330.94 C 266.73 332.21, 265.87 333.16, 264.38 335.46 C 262.89 337.76, 262.08 339.42, 260.63 342.43 C 259.17 345.45, 258.41 347.40, 257.11 350.54 C 255.82 353.67, 255.07 355.48, 254.16 358.10 C 253.26 360.73, 253.00 362.13, 252.60 363.68 C 252.19 365.23, 252.20 365.81, 252.14 365.85 C 252.07 365.89, 252.19 365.51, 252.28 363.90 C 252.37 362.30, 252.45 360.93, 252.60 357.82 C 252.74 354.70, 252.79 352.52, 253.00 348.34 C 253.21 344.16, 253.37 341.54, 253.66 336.91 C 253.94 332.29, 254.12 329.61, 254.42 325.22 C 254.73 320.82, 254.94 318.49, 255.17 314.93 C 255.39 311.36, 255.53 309.75, 255.55 307.39 C 255.57 305.02, 255.43 304.28, 255.28 303.10 C 255.14 301.91, 255.03 301.78, 254.82 301.46 C 254.62 301.14, 254.45 301.15, 254.27 301.48" style="stroke: white; fill: white;"/><path d="M 332.28,297.73 C 332.09 298.19, 332.05 298.65, 331.94 300.02 C 331.82 301.40, 331.74 302.25, 331.71 304.60 C 331.68 306.96, 331.78 308.52, 331.80 311.78 C 331.82 315.05, 331.85 317.07, 331.83 320.92 C 331.80 324.78, 331.73 327.05, 331.67 331.06 C 331.60 335.06, 331.55 337.31, 331.51 340.93 C 331.46 344.56, 331.32 346.44, 331.45 349.16 C 331.57 351.89, 331.70 353.09, 332.13 354.55 C 332.56 356.00, 332.89 356.41, 333.60 356.44 C 334.31 356.48, 334.78 356.02, 335.68 354.73 C 336.58 353.43, 337.11 352.24, 338.11 349.98 C 339.10 347.72, 339.60 346.06, 340.64 343.44 C 341.69 340.81, 342.25 339.19, 343.34 336.85 C 344.43 334.52, 345.03 333.36, 346.10 331.76 C 347.17 330.17, 347.71 329.56, 348.67 328.88 C 349.63 328.21, 350.06 328.14, 350.89 328.38 C 351.71 328.62, 352.08 329.04, 352.79 330.07 C 353.50 331.09, 353.86 331.88, 354.42 333.52 C 354.99 335.15, 355.32 336.24, 355.60 338.26 C 355.87 340.27, 355.97 341.50, 355.81 343.60 C 355.65 345.70, 355.43 346.86, 354.79 348.75 C 354.15 350.65, 353.65 351.61, 352.59 353.07 C 351.53 354.53, 350.81 355.17, 349.48 356.06 C 348.15 356.94, 347.33 357.22, 345.94 357.51 C 344.55 357.79, 343.75 357.73, 342.53 357.48 C 341.32 357.23, 340.71 356.90, 339.88 356.27 C 339.04 355.64, 338.66 355.17, 338.37 354.35 C 338.08 353.52, 338.05 353.07, 338.43 352.14 C 338.80 351.21, 339.17 350.68, 340.24 349.70 C 341.30 348.72, 342.06 348.19, 343.75 347.23 C 345.45 346.26, 346.54 345.79, 348.71 344.87 C 350.87 343.94, 352.16 343.51, 354.59 342.60 C 357.02 341.70, 358.39 341.30, 360.85 340.34 C 363.31 339.39, 364.65 338.92, 366.89 337.82 C 369.13 336.71, 370.26 336.10, 372.06 334.82 C 373.86 333.53, 374.70 332.79, 375.88 331.39 C 377.05 329.98, 377.50 329.16, 377.92 327.80 C 378.35 326.44, 378.34 325.66, 378.00 324.61 C 377.67 323.55, 377.22 323.00, 376.26 322.53 C 375.30 322.07, 374.52 321.93, 373.22 322.29 C 371.93 322.66, 371.07 323.07, 369.79 324.35 C 368.50 325.62, 367.79 326.59, 366.81 328.65 C 365.82 330.71, 365.34 332.09, 364.86 334.65 C 364.37 337.20, 364.26 338.80, 364.38 341.42 C 364.50 344.05, 364.74 345.54, 365.46 347.76 C 366.18 349.98, 366.76 351.10, 367.99 352.52 C 369.23 353.94, 370.06 354.48, 371.65 354.87 C 373.24 355.26, 374.19 355.17, 375.95 354.47 C 377.71 353.77, 378.68 353.04, 380.44 351.36 C 382.20 349.69, 383.13 348.43, 384.73 346.08 C 386.33 343.73, 387.12 342.16, 388.42 339.62 C 389.72 337.08, 390.36 335.46, 391.21 333.40 C 392.06 331.35, 392.32 330.27, 392.67 329.35 C 393.02 328.43, 392.96 328.33, 392.96 328.82 C 392.96 329.31, 392.77 330.11, 392.67 331.79 C 392.58 333.46, 392.43 334.91, 392.49 337.21 C 392.55 339.50, 392.66 341.07, 392.96 343.25 C 393.26 345.42, 393.44 346.59, 394.01 348.06 C 394.59 349.54, 394.95 350.14, 395.83 350.64 C 396.71 351.13, 397.29 351.12, 398.42 350.54 C 399.55 349.96, 400.23 349.23, 401.46 347.75 C 402.70 346.26, 403.39 345.04, 404.60 343.11 C 405.81 341.18, 406.50 339.80, 407.52 338.09 C 408.55 336.38, 409.01 335.42, 409.72 334.56 C 410.42 333.69, 410.62 333.48, 411.05 333.76 C 411.48 334.04, 411.52 334.61, 411.86 335.96 C 412.19 337.32, 412.25 338.54, 412.72 340.55 C 413.20 342.56, 413.45 343.94, 414.23 346.02 C 415.01 348.10, 415.47 349.30, 416.61 350.93 C 417.76 352.57, 418.45 353.36, 419.95 354.18 C 421.45 355.01, 422.36 355.22, 424.12 355.06 C 425.88 354.91, 427.05 354.34, 428.76 353.40 C 430.46 352.47, 431.40 351.59, 432.63 350.39 C 433.87 349.19, 434.58 348.10, 434.94 347.40 C 435.30 346.70, 435.11 346.55, 434.43 346.89 C 433.75 347.23, 432.85 348.12, 431.53 349.10 C 430.21 350.08, 429.36 350.89, 427.84 351.78 C 426.32 352.67, 425.37 353.32, 423.94 353.56 C 422.50 353.80, 421.82 353.68, 420.64 352.97 C 419.46 352.26, 418.93 351.54, 418.03 350.02 C 417.13 348.49, 416.80 347.35, 416.15 345.35 C 415.51 343.35, 415.37 342.00, 414.82 340.01 C 414.26 338.02, 414.05 336.80, 413.37 335.40 C 412.68 334.01, 412.30 333.40, 411.39 333.04 C 410.49 332.68, 409.96 332.82, 408.85 333.61 C 407.75 334.40, 407.09 335.32, 405.86 336.98 C 404.63 338.65, 403.90 340.01, 402.70 341.92 C 401.51 343.84, 400.86 345.04, 399.87 346.56 C 398.87 348.08, 398.43 348.84, 397.72 349.51 C 397.01 350.18, 396.76 350.28, 396.31 349.91 C 395.85 349.53, 395.72 349.02, 395.46 347.64 C 395.20 346.27, 395.14 345.15, 395.02 343.04 C 394.91 340.94, 394.99 339.39, 394.88 337.12 C 394.77 334.85, 394.76 333.40, 394.49 331.69 C 394.21 329.97, 394.03 329.12, 393.51 328.55 C 392.98 327.97, 392.64 328.00, 391.85 328.82 C 391.06 329.63, 390.61 330.66, 389.57 332.64 C 388.54 334.61, 387.97 336.25, 386.67 338.71 C 385.37 341.18, 384.59 342.70, 383.08 344.97 C 381.57 347.24, 380.68 348.43, 379.13 350.06 C 377.59 351.68, 376.77 352.38, 375.34 353.09 C 373.90 353.81, 373.20 353.92, 371.95 353.62 C 370.71 353.32, 370.08 352.87, 369.11 351.60 C 368.14 350.33, 367.66 349.32, 367.09 347.27 C 366.52 345.22, 366.31 343.81, 366.25 341.36 C 366.18 338.90, 366.31 337.39, 366.77 335.02 C 367.24 332.64, 367.70 331.36, 368.57 329.48 C 369.44 327.60, 370.09 326.76, 371.12 325.62 C 372.15 324.48, 372.79 324.16, 373.72 323.77 C 374.65 323.37, 375.14 323.42, 375.77 323.65 C 376.39 323.89, 376.67 324.20, 376.84 324.93 C 377.00 325.67, 377.02 326.25, 376.60 327.34 C 376.17 328.43, 375.80 329.15, 374.71 330.38 C 373.61 331.60, 372.83 332.29, 371.11 333.47 C 369.40 334.65, 368.31 335.22, 366.13 336.26 C 363.95 337.30, 362.65 337.74, 360.21 338.66 C 357.77 339.58, 356.39 339.96, 353.94 340.85 C 351.49 341.74, 350.18 342.15, 347.95 343.10 C 345.72 344.05, 344.58 344.51, 342.79 345.59 C 341.00 346.66, 340.16 347.25, 339.01 348.46 C 337.86 349.68, 337.42 350.38, 337.03 351.65 C 336.63 352.91, 336.66 353.63, 337.04 354.80 C 337.42 355.96, 337.90 356.62, 338.94 357.46 C 339.97 358.30, 340.75 358.69, 342.21 359.01 C 343.67 359.33, 344.62 359.38, 346.25 359.05 C 347.88 358.73, 348.83 358.38, 350.36 357.38 C 351.89 356.38, 352.69 355.65, 353.91 354.04 C 355.12 352.43, 355.67 351.38, 356.42 349.33 C 357.17 347.27, 357.42 346.03, 357.65 343.76 C 357.87 341.49, 357.81 340.18, 357.52 338.00 C 357.24 335.82, 356.91 334.63, 356.21 332.85 C 355.50 331.08, 355.00 330.21, 353.99 329.10 C 352.98 327.99, 352.34 327.55, 351.15 327.30 C 349.96 327.05, 349.29 327.14, 348.03 327.85 C 346.76 328.56, 346.10 329.20, 344.83 330.84 C 343.55 332.47, 342.88 333.66, 341.65 336.02 C 340.41 338.37, 339.77 339.99, 338.66 342.62 C 337.54 345.25, 336.93 346.87, 336.07 349.15 C 335.22 351.44, 334.89 352.68, 334.39 354.05 C 333.89 355.42, 333.82 355.95, 333.59 356.01 C 333.35 356.07, 333.33 355.72, 333.22 354.34 C 333.12 352.96, 333.13 351.79, 333.07 349.11 C 333.00 346.43, 332.92 344.55, 332.90 340.94 C 332.89 337.33, 332.93 335.08, 333.01 331.08 C 333.08 327.08, 333.17 324.81, 333.28 320.95 C 333.40 317.09, 333.51 315.07, 333.59 311.80 C 333.66 308.53, 333.72 306.96, 333.67 304.60 C 333.63 302.24, 333.52 301.38, 333.37 300.00 C 333.22 298.63, 333.14 298.17, 332.92 297.72 C 332.70 297.26, 332.48 297.27, 332.28 297.73" style="stroke: white; fill: white;"/><path d="M 470.34,342.12 C 470.80 342.25, 471.38 342.32, 472.55 342.10 C 473.72 341.88, 474.55 341.77, 476.19 341.02 C 477.84 340.27, 478.93 339.70, 480.77 338.35 C 482.61 337.00, 483.63 336.06, 485.37 334.27 C 487.12 332.47, 488.05 331.36, 489.50 329.38 C 490.95 327.39, 491.68 326.24, 492.63 324.35 C 493.58 322.45, 493.96 321.48, 494.25 319.92 C 494.53 318.36, 494.49 317.57, 494.05 316.55 C 493.61 315.54, 493.12 315.07, 492.04 314.82 C 490.96 314.58, 490.13 314.61, 488.63 315.31 C 487.14 316.02, 486.15 316.65, 484.56 318.35 C 482.97 320.05, 482.04 321.28, 480.70 323.80 C 479.35 326.32, 478.69 327.96, 477.82 330.94 C 476.95 333.93, 476.56 335.72, 476.37 338.72 C 476.18 341.72, 476.26 343.40, 476.86 345.94 C 477.45 348.48, 478.01 349.74, 479.34 351.42 C 480.67 353.09, 481.61 353.74, 483.52 354.32 C 485.44 354.90, 486.64 354.87, 488.91 354.32 C 491.18 353.77, 492.50 353.16, 494.87 351.58 C 497.24 350.01, 498.49 348.80, 500.75 346.44 C 503.01 344.09, 504.19 342.56, 506.16 339.81 C 508.13 337.05, 509.12 335.43, 510.58 332.68 C 512.05 329.92, 512.69 328.43, 513.48 326.05 C 514.28 323.67, 514.50 322.50, 514.56 320.78 C 514.61 319.06, 514.40 318.33, 513.75 317.44 C 513.10 316.55, 512.48 316.26, 511.30 316.32 C 510.12 316.38, 509.26 316.65, 507.85 317.74 C 506.45 318.83, 505.58 319.74, 504.27 321.78 C 502.96 323.82, 502.24 325.24, 501.30 327.93 C 500.36 330.63, 499.93 332.36, 499.56 335.27 C 499.19 338.19, 499.13 339.88, 499.46 342.51 C 499.79 345.14, 500.16 346.51, 501.20 348.43 C 502.25 350.35, 503.02 351.19, 504.67 352.10 C 506.32 353.01, 507.41 353.19, 509.45 352.97 C 511.49 352.75, 512.70 352.28, 514.88 350.99 C 517.07 349.71, 518.26 348.67, 520.37 346.54 C 522.47 344.42, 523.56 342.92, 525.42 340.37 C 527.28 337.82, 528.24 336.24, 529.65 333.80 C 531.07 331.35, 531.67 329.99, 532.48 328.14 C 533.29 326.29, 533.52 325.41, 533.70 324.55 C 533.88 323.68, 533.67 323.50, 533.40 323.83 C 533.12 324.17, 532.71 324.77, 532.33 326.23 C 531.95 327.69, 531.69 328.93, 531.50 331.12 C 531.30 333.32, 531.28 334.84, 531.36 337.21 C 531.44 339.58, 531.50 341.01, 531.91 342.97 C 532.32 344.94, 532.62 345.92, 533.42 347.05 C 534.22 348.18, 534.77 348.55, 535.91 348.61 C 537.05 348.67, 537.75 348.37, 539.11 347.34 C 540.46 346.32, 541.25 345.35, 542.68 343.48 C 544.11 341.62, 544.91 340.23, 546.26 338.03 C 547.61 335.82, 548.36 334.33, 549.43 332.46 C 550.50 330.59, 550.96 329.57, 551.59 328.67 C 552.22 327.77, 552.32 327.60, 552.58 327.96 C 552.83 328.33, 552.76 328.96, 552.87 330.50 C 552.98 332.04, 552.87 333.38, 553.14 335.66 C 553.40 337.93, 553.56 339.51, 554.19 341.87 C 554.81 344.24, 555.19 345.59, 556.25 347.48 C 557.31 349.38, 557.94 350.28, 559.49 351.35 C 561.03 352.41, 562.01 352.74, 563.97 352.80 C 565.93 352.86, 567.09 352.64, 569.28 351.64 C 571.48 350.65, 572.90 349.55, 574.94 347.82 C 576.99 346.10, 578.05 344.79, 579.49 343.02 C 580.94 341.25, 581.73 339.86, 582.16 338.96 C 582.58 338.06, 582.41 337.95, 581.63 338.53 C 580.85 339.12, 579.86 340.34, 578.26 341.89 C 576.66 343.44, 575.59 344.63, 573.63 346.26 C 571.68 347.89, 570.42 349.01, 568.49 350.03 C 566.56 351.05, 565.62 351.32, 563.98 351.35 C 562.34 351.39, 561.55 351.13, 560.30 350.20 C 559.06 349.28, 558.57 348.48, 557.74 346.72 C 556.92 344.95, 556.67 343.67, 556.19 341.40 C 555.71 339.12, 555.69 337.60, 555.35 335.36 C 555.02 333.12, 554.97 331.78, 554.50 330.20 C 554.03 328.61, 553.76 327.91, 553.01 327.44 C 552.26 326.98, 551.80 327.06, 550.76 327.86 C 549.72 328.66, 549.07 329.63, 547.81 331.44 C 546.54 333.24, 545.79 334.73, 544.43 336.89 C 543.06 339.05, 542.26 340.40, 540.99 342.25 C 539.71 344.10, 539.06 345.06, 538.04 346.14 C 537.03 347.22, 536.62 347.58, 535.91 347.64 C 535.20 347.69, 534.93 347.41, 534.49 346.42 C 534.04 345.43, 533.87 344.54, 533.67 342.69 C 533.48 340.85, 533.47 339.47, 533.50 337.19 C 533.53 334.91, 533.73 333.44, 533.84 331.29 C 533.96 329.14, 534.09 327.95, 534.09 326.46 C 534.10 324.97, 534.10 324.31, 533.86 323.85 C 533.63 323.39, 533.47 323.45, 532.90 324.16 C 532.33 324.88, 531.99 325.68, 531.02 327.42 C 530.05 329.16, 529.47 330.49, 528.07 332.88 C 526.67 335.26, 525.81 336.87, 524.01 339.34 C 522.21 341.81, 521.07 343.21, 519.06 345.24 C 517.05 347.27, 515.92 348.23, 513.96 349.48 C 512.00 350.73, 510.98 351.20, 509.25 351.49 C 507.52 351.79, 506.66 351.69, 505.32 350.94 C 503.97 350.19, 503.36 349.47, 502.53 347.75 C 501.70 346.03, 501.39 344.77, 501.17 342.32 C 500.94 339.88, 501.00 338.27, 501.40 335.52 C 501.81 332.78, 502.28 331.14, 503.19 328.61 C 504.11 326.07, 504.83 324.76, 505.99 322.85 C 507.15 320.94, 507.90 320.13, 508.99 319.05 C 510.09 317.97, 510.66 317.65, 511.45 317.44 C 512.25 317.22, 512.61 317.31, 512.97 317.95 C 513.32 318.60, 513.43 319.16, 513.22 320.68 C 513.02 322.19, 512.77 323.27, 511.95 325.52 C 511.14 327.76, 510.56 329.24, 509.15 331.91 C 507.73 334.59, 506.80 336.21, 504.88 338.89 C 502.96 341.56, 501.76 343.04, 499.55 345.28 C 497.35 347.51, 496.06 348.56, 493.85 350.06 C 491.64 351.56, 490.49 352.18, 488.50 352.77 C 486.51 353.36, 485.51 353.45, 483.90 353.01 C 482.30 352.57, 481.55 352.04, 480.46 350.56 C 479.37 349.08, 478.93 347.94, 478.45 345.59 C 477.98 343.25, 477.88 341.66, 478.10 338.84 C 478.31 336.01, 478.66 334.27, 479.53 331.46 C 480.40 328.64, 481.16 327.11, 482.46 324.75 C 483.76 322.40, 484.64 321.28, 486.03 319.68 C 487.43 318.09, 488.27 317.53, 489.43 316.78 C 490.60 316.03, 491.15 315.90, 491.87 315.93 C 492.59 315.96, 492.85 316.19, 493.04 316.92 C 493.23 317.65, 493.21 318.27, 492.83 319.59 C 492.45 320.92, 492.08 321.82, 491.12 323.55 C 490.16 325.29, 489.45 326.40, 488.02 328.27 C 486.60 330.14, 485.68 331.21, 483.99 332.90 C 482.30 334.59, 481.30 335.44, 479.56 336.71 C 477.83 337.99, 476.82 338.47, 475.33 339.26 C 473.84 340.05, 473.15 340.23, 472.12 340.66 C 471.10 341.10, 470.56 341.15, 470.21 341.44 C 469.85 341.74, 469.87 341.99, 470.34 342.12" style="stroke: white; fill: white;"/><path d="M 648.10,287.13 C 647.83 286.79, 647.41 286.42, 646.49 286.06 C 645.57 285.71, 644.92 285.46, 643.50 285.36 C 642.09 285.25, 641.13 285.17, 639.41 285.54 C 637.68 285.91, 636.65 286.25, 634.87 287.21 C 633.09 288.17, 632.08 288.85, 630.51 290.34 C 628.95 291.83, 628.10 292.75, 627.04 294.68 C 625.98 296.60, 625.50 297.75, 625.21 299.98 C 624.92 302.20, 624.97 303.47, 625.58 305.79 C 626.19 308.11, 626.79 309.34, 628.25 311.58 C 629.72 313.82, 630.82 314.89, 632.90 317.01 C 634.98 319.14, 636.35 320.15, 638.66 322.20 C 640.96 324.24, 642.31 325.29, 644.44 327.25 C 646.57 329.21, 647.72 330.16, 649.32 331.99 C 650.91 333.82, 651.63 334.70, 652.41 336.39 C 653.18 338.07, 653.36 338.88, 653.18 340.41 C 652.99 341.95, 652.60 342.68, 651.48 344.07 C 650.37 345.46, 649.44 346.15, 647.58 347.35 C 645.73 348.56, 644.49 349.19, 642.19 350.11 C 639.90 351.03, 638.45 351.44, 636.11 351.96 C 633.77 352.48, 632.43 352.62, 630.48 352.71 C 628.52 352.79, 627.59 352.70, 626.33 352.38 C 625.08 352.06, 624.62 351.78, 624.22 351.10 C 623.83 350.43, 623.87 349.99, 624.36 349.00 C 624.84 348.00, 625.35 347.38, 626.65 346.12 C 627.95 344.86, 628.87 344.12, 630.85 342.70 C 632.83 341.28, 634.09 340.45, 636.55 339.01 C 639.00 337.57, 640.44 336.79, 643.12 335.49 C 645.80 334.19, 647.30 333.61, 649.95 332.52 C 652.60 331.43, 654.00 330.91, 656.37 330.03 C 658.74 329.14, 659.91 328.74, 661.79 328.09 C 663.67 327.43, 664.53 327.20, 665.77 326.76 C 667.01 326.32, 667.47 326.17, 667.99 325.91 C 668.50 325.64, 668.51 325.50, 668.33 325.44 C 668.16 325.38, 667.78 325.30, 667.11 325.59 C 666.45 325.88, 665.89 326.11, 664.99 326.88 C 664.09 327.65, 663.51 328.20, 662.61 329.44 C 661.72 330.69, 661.16 331.47, 660.50 333.10 C 659.85 334.74, 659.50 335.77, 659.32 337.62 C 659.14 339.46, 659.16 340.57, 659.61 342.31 C 660.06 344.05, 660.50 345.02, 661.58 346.32 C 662.65 347.63, 663.46 348.24, 665.00 348.82 C 666.53 349.40, 667.54 349.49, 669.25 349.22 C 670.96 348.96, 671.98 348.56, 673.54 347.49 C 675.11 346.41, 675.94 345.56, 677.06 343.86 C 678.18 342.15, 678.68 341.00, 679.13 338.96 C 679.58 336.93, 679.62 335.68, 679.33 333.67 C 679.04 331.65, 678.61 330.54, 677.70 328.89 C 676.78 327.24, 676.02 326.47, 674.74 325.42 C 673.46 324.38, 672.57 324.02, 671.31 323.66 C 670.05 323.31, 669.28 323.37, 668.45 323.64 C 667.63 323.90, 667.22 324.38, 667.16 325.01 C 667.11 325.64, 667.30 326.22, 668.16 326.77 C 669.03 327.31, 669.81 327.64, 671.49 327.73 C 673.16 327.82, 674.31 327.81, 676.55 327.21 C 678.80 326.62, 680.18 326.17, 682.72 324.76 C 685.27 323.34, 686.70 322.35, 689.28 320.16 C 691.86 317.97, 693.26 316.64, 695.63 313.82 C 698.00 311.01, 699.22 309.32, 701.14 306.07 C 703.06 302.83, 703.94 300.93, 705.21 297.59 C 706.48 294.25, 706.97 292.40, 707.48 289.37 C 707.99 286.34, 708.01 284.76, 707.77 282.43 C 707.53 280.11, 707.13 279.04, 706.26 277.73 C 705.40 276.43, 704.70 275.97, 703.43 275.89 C 702.16 275.82, 701.30 276.07, 699.90 277.37 C 698.50 278.67, 697.67 279.68, 696.42 282.40 C 695.18 285.13, 694.66 286.94, 693.69 291.01 C 692.71 295.07, 692.25 297.57, 691.55 302.73 C 690.86 307.90, 690.59 310.94, 690.20 316.85 C 689.82 322.76, 689.74 326.11, 689.62 332.30 C 689.50 338.48, 689.55 341.87, 689.60 347.77 C 689.66 353.67, 689.76 356.75, 689.89 361.79 C 690.02 366.83, 690.09 369.30, 690.26 372.98 C 690.42 376.67, 690.50 378.36, 690.73 380.23 C 690.96 382.10, 691.22 382.59, 691.39 382.35 C 691.56 382.11, 691.71 381.22, 691.59 379.02 C 691.46 376.82, 691.25 374.90, 690.77 371.35 C 690.29 367.80, 689.86 365.32, 689.21 361.28 C 688.55 357.24, 688.17 354.92, 687.48 351.14 C 686.79 347.36, 686.46 345.45, 685.74 342.39 C 685.02 339.32, 684.62 337.99, 683.89 335.80 C 683.16 333.60, 682.75 332.74, 682.08 331.41 C 681.42 330.08, 681.03 329.62, 680.58 329.13 C 680.13 328.64, 679.82 328.74, 679.84 328.96 C 679.86 329.17, 679.92 329.69, 680.68 330.22 C 681.44 330.76, 682.09 331.25, 683.62 331.63 C 685.15 332.01, 686.23 332.21, 688.32 332.12 C 690.42 332.02, 691.69 331.95, 694.11 331.16 C 696.52 330.38, 697.92 329.82, 700.41 328.19 C 702.90 326.55, 704.21 325.46, 706.57 323.00 C 708.92 320.53, 710.11 319.00, 712.20 315.86 C 714.29 312.71, 715.31 310.82, 717.02 307.28 C 718.73 303.73, 719.50 301.67, 720.75 298.13 C 722.00 294.59, 722.55 292.65, 723.26 289.57 C 723.98 286.50, 724.18 284.82, 724.34 282.76 C 724.50 280.70, 724.31 279.79, 724.07 279.26 C 723.83 278.74, 723.50 278.92, 723.14 280.14 C 722.77 281.37, 722.44 282.56, 722.24 285.37 C 722.03 288.19, 722.14 290.23, 722.12 294.24 C 722.10 298.24, 722.11 300.80, 722.13 305.40 C 722.14 310.01, 722.15 312.67, 722.20 317.26 C 722.24 321.86, 722.28 324.34, 722.35 328.38 C 722.42 332.42, 722.39 334.46, 722.53 337.45 C 722.68 340.44, 722.83 341.71, 723.07 343.32 C 723.30 344.94, 723.51 345.34, 723.70 345.51 C 723.89 345.69, 724.05 345.24, 724.02 344.21 C 723.99 343.18, 723.93 342.13, 723.56 340.36 C 723.20 338.59, 722.83 337.32, 722.19 335.35 C 721.54 333.37, 721.06 332.21, 720.34 330.50 C 719.61 328.79, 719.17 327.94, 718.55 326.81 C 717.93 325.67, 717.55 325.27, 717.23 324.81 C 716.91 324.35, 716.75 324.42, 716.95 324.52 C 717.15 324.62, 717.37 324.97, 718.23 325.31 C 719.09 325.65, 719.77 325.96, 721.24 326.22 C 722.71 326.47, 723.72 326.60, 725.57 326.60 C 727.43 326.60, 728.54 326.56, 730.50 326.21 C 732.45 325.87, 733.54 325.57, 735.35 324.88 C 737.17 324.19, 738.13 323.69, 739.57 322.76 C 741.02 321.84, 741.78 321.14, 742.59 320.25 C 743.40 319.37, 743.58 318.70, 743.63 318.34 C 743.68 317.97, 743.33 317.87, 742.85 318.43 C 742.38 318.98, 741.86 319.59, 741.25 321.12 C 740.63 322.66, 740.18 323.89, 739.77 326.11 C 739.35 328.33, 739.17 329.86, 739.16 332.22 C 739.15 334.58, 739.23 335.92, 739.71 337.89 C 740.19 339.86, 740.58 340.81, 741.55 342.06 C 742.51 343.32, 743.21 343.78, 744.54 344.15 C 745.87 344.51, 746.74 344.42, 748.18 343.89 C 749.63 343.37, 750.46 342.78, 751.79 341.52 C 753.11 340.27, 753.82 339.30, 754.82 337.61 C 755.81 335.91, 756.25 334.70, 756.77 333.05 C 757.30 331.40, 757.38 330.37, 757.43 329.35 C 757.48 328.34, 757.23 327.95, 757.02 327.97 C 756.82 327.98, 756.48 328.39, 756.41 329.45 C 756.34 330.51, 756.27 331.58, 756.66 333.25 C 757.06 334.93, 757.45 336.14, 758.37 337.82 C 759.30 339.50, 759.97 340.45, 761.29 341.65 C 762.61 342.85, 763.44 343.36, 764.98 343.82 C 766.53 344.28, 767.45 344.32, 769.01 343.94 C 770.57 343.56, 771.45 343.11, 772.78 341.93 C 774.12 340.75, 774.80 339.88, 775.69 338.04 C 776.58 336.20, 776.95 334.97, 777.23 332.75 C 777.52 330.54, 777.47 329.16, 777.14 326.97 C 776.81 324.77, 776.38 323.57, 775.58 321.77 C 774.78 319.97, 774.13 319.12, 773.15 317.97 C 772.18 316.82, 771.50 316.41, 770.68 316.01 C 769.86 315.61, 769.34 315.72, 769.06 315.97 C 768.77 316.21, 768.72 316.69, 769.27 317.23 C 769.81 317.78, 770.39 318.22, 771.78 318.70 C 773.18 319.19, 774.19 319.42, 776.25 319.64 C 778.30 319.87, 779.59 319.90, 782.05 319.84 C 784.50 319.79, 785.95 319.66, 788.52 319.35 C 791.09 319.05, 792.53 318.79, 794.89 318.33 C 797.26 317.87, 798.52 317.57, 800.36 317.07 C 802.19 316.57, 803.06 316.28, 804.06 315.83 C 805.05 315.37, 805.32 315.07, 805.34 314.80 C 805.35 314.53, 805.00 314.33, 804.12 314.46 C 803.24 314.60, 802.41 314.73, 800.94 315.49 C 799.47 316.26, 798.45 316.86, 796.78 318.29 C 795.11 319.72, 794.13 320.72, 792.60 322.64 C 791.08 324.57, 790.26 325.78, 789.17 327.93 C 788.08 330.09, 787.59 331.38, 787.14 333.41 C 786.70 335.44, 786.65 336.56, 786.97 338.10 C 787.28 339.63, 787.71 340.34, 788.71 341.09 C 789.71 341.83, 790.51 342.05, 791.98 341.82 C 793.45 341.59, 794.42 341.15, 796.06 339.94 C 797.70 338.73, 798.64 337.76, 800.19 335.77 C 801.74 333.78, 802.55 332.42, 803.80 329.99 C 805.05 327.56, 805.66 326.04, 806.43 323.63 C 807.20 321.22, 807.48 319.79, 807.66 317.92 C 807.85 316.06, 807.67 315.14, 807.36 314.32 C 807.04 313.49, 806.61 313.39, 806.09 313.79 C 805.56 314.18, 805.10 314.82, 804.74 316.29 C 804.38 317.76, 804.19 319.01, 804.29 321.12 C 804.38 323.23, 804.60 324.66, 805.21 326.86 C 805.81 329.06, 806.23 330.31, 807.31 332.11 C 808.38 333.91, 809.10 334.79, 810.58 335.86 C 812.05 336.93, 812.97 337.25, 814.69 337.45 C 816.40 337.64, 817.37 337.47, 819.14 336.83 C 820.91 336.19, 821.87 335.57, 823.54 334.25 C 825.21 332.93, 826.08 331.95, 827.47 330.23 C 828.87 328.51, 829.58 327.29, 830.52 325.65 C 831.45 324.01, 831.79 322.99, 832.16 322.03 C 832.53 321.07, 832.42 320.72, 832.38 320.86 C 832.33 320.99, 832.09 321.47, 831.93 322.71 C 831.78 323.95, 831.61 325.11, 831.62 327.05 C 831.62 328.99, 831.69 330.40, 831.95 332.43 C 832.22 334.47, 832.43 335.66, 832.94 337.22 C 833.46 338.79, 833.81 339.51, 834.52 340.25 C 835.23 340.99, 835.70 341.14, 836.50 340.93 C 837.29 340.72, 837.77 340.29, 838.49 339.20 C 839.20 338.11, 839.55 337.17, 840.07 335.48 C 840.58 333.80, 840.76 332.60, 841.06 330.76 C 841.35 328.92, 841.40 327.75, 841.55 326.29 C 841.71 324.84, 841.67 324.15, 841.84 323.47 C 842.00 322.80, 842.00 322.78, 842.39 322.92 C 842.78 323.06, 842.94 323.51, 843.78 324.17 C 844.63 324.83, 845.20 325.51, 846.60 326.22 C 848.01 326.92, 848.96 327.37, 850.80 327.70 C 852.64 328.03, 853.74 328.11, 855.79 327.88 C 857.84 327.64, 859.02 327.37, 861.04 326.53 C 863.06 325.69, 864.17 325.02, 865.90 323.67 C 867.64 322.31, 868.53 321.38, 869.72 319.75 C 870.92 318.13, 871.45 317.12, 871.88 315.54 C 872.32 313.97, 872.32 313.03, 871.92 311.88 C 871.52 310.73, 870.99 310.17, 869.88 309.78 C 868.77 309.40, 867.89 309.38, 866.38 309.96 C 864.88 310.55, 863.85 311.15, 862.36 312.72 C 860.88 314.28, 860.02 315.49, 858.95 317.79 C 857.88 320.10, 857.38 321.60, 857.00 324.23 C 856.62 326.87, 856.57 328.43, 857.07 330.98 C 857.56 333.53, 858.06 334.94, 859.49 337.00 C 860.93 339.07, 861.99 340.01, 864.24 341.30 C 866.50 342.58, 867.88 343.07, 870.77 343.41 C 873.65 343.75, 875.64 343.46, 878.65 343.01 C 881.66 342.55, 883.42 341.98, 885.81 341.13 C 888.20 340.27, 889.69 339.35, 890.60 338.75 C 891.51 338.15, 891.41 337.96, 890.36 338.13 C 889.31 338.30, 887.74 338.99, 885.35 339.60 C 882.95 340.22, 881.27 340.80, 878.39 341.21 C 875.51 341.62, 873.63 341.91, 870.96 341.65 C 868.28 341.39, 867.05 341.02, 865.02 339.91 C 862.99 338.80, 862.06 337.95, 860.81 336.10 C 859.55 334.25, 859.14 332.99, 858.74 330.67 C 858.34 328.35, 858.43 326.92, 858.82 324.51 C 859.22 322.11, 859.74 320.73, 860.73 318.63 C 861.73 316.54, 862.54 315.47, 863.80 314.04 C 865.07 312.60, 865.91 312.08, 867.06 311.45 C 868.21 310.82, 868.82 310.75, 869.56 310.90 C 870.30 311.05, 870.60 311.38, 870.77 312.21 C 870.94 313.05, 870.89 313.77, 870.41 315.07 C 869.92 316.37, 869.46 317.27, 868.34 318.71 C 867.22 320.14, 866.40 321.02, 864.80 322.25 C 863.20 323.48, 862.19 324.10, 860.35 324.87 C 858.51 325.63, 857.43 325.88, 855.59 326.07 C 853.76 326.26, 852.78 326.15, 851.16 325.81 C 849.55 325.48, 848.80 324.99, 847.50 324.38 C 846.20 323.76, 845.65 323.22, 844.64 322.75 C 843.64 322.29, 843.22 322.01, 842.46 322.06 C 841.70 322.10, 841.38 322.21, 840.84 322.99 C 840.30 323.77, 840.13 324.49, 839.76 325.97 C 839.38 327.44, 839.30 328.59, 838.94 330.38 C 838.59 332.17, 838.36 333.30, 837.98 334.91 C 837.59 336.53, 837.37 337.41, 837.02 338.46 C 836.66 339.51, 836.51 339.94, 836.19 340.16 C 835.87 340.39, 835.72 340.28, 835.41 339.61 C 835.10 338.94, 834.90 338.27, 834.64 336.79 C 834.39 335.31, 834.27 334.17, 834.13 332.21 C 833.99 330.25, 834.06 328.89, 833.94 326.97 C 833.82 325.06, 833.78 323.92, 833.52 322.64 C 833.26 321.36, 833.10 320.84, 832.62 320.58 C 832.14 320.33, 831.86 320.56, 831.11 321.37 C 830.37 322.19, 829.93 323.12, 828.90 324.65 C 827.88 326.18, 827.27 327.38, 825.97 329.02 C 824.66 330.65, 823.87 331.58, 822.39 332.84 C 820.90 334.10, 820.06 334.69, 818.56 335.32 C 817.05 335.95, 816.25 336.13, 814.84 336.00 C 813.42 335.87, 812.68 335.61, 811.48 334.66 C 810.27 333.72, 809.68 332.92, 808.82 331.26 C 807.96 329.61, 807.63 328.42, 807.19 326.37 C 806.74 324.31, 806.71 322.96, 806.58 320.99 C 806.45 319.02, 806.52 317.89, 806.52 316.52 C 806.52 315.14, 806.60 314.53, 806.60 314.11 C 806.59 313.69, 806.61 313.71, 806.50 314.43 C 806.38 315.14, 806.39 315.95, 806.02 317.67 C 805.65 319.39, 805.45 320.76, 804.65 323.04 C 803.86 325.32, 803.26 326.78, 802.05 329.09 C 800.84 331.39, 800.03 332.67, 798.60 334.55 C 797.18 336.44, 796.30 337.32, 794.91 338.49 C 793.53 339.67, 792.79 340.10, 791.68 340.45 C 790.57 340.79, 790.05 340.71, 789.38 340.20 C 788.71 339.69, 788.45 339.16, 788.33 337.89 C 788.21 336.61, 788.29 335.63, 788.78 333.81 C 789.28 331.99, 789.74 330.78, 790.81 328.79 C 791.88 326.81, 792.67 325.66, 794.14 323.89 C 795.61 322.12, 796.60 321.26, 798.17 319.94 C 799.75 318.61, 800.72 318.15, 802.00 317.28 C 803.29 316.42, 803.96 316.12, 804.61 315.60 C 805.27 315.07, 805.46 314.86, 805.28 314.66 C 805.10 314.47, 804.77 314.48, 803.70 314.63 C 802.64 314.78, 801.79 315.05, 799.96 315.43 C 798.13 315.81, 796.90 316.13, 794.57 316.54 C 792.24 316.94, 790.82 317.19, 788.31 317.45 C 785.80 317.71, 784.39 317.83, 782.02 317.84 C 779.65 317.85, 778.42 317.73, 776.48 317.51 C 774.54 317.30, 773.65 317.01, 772.32 316.75 C 770.99 316.49, 770.47 316.29, 769.83 316.19 C 769.20 316.09, 769.10 316.08, 769.13 316.25 C 769.16 316.42, 769.44 316.48, 769.99 317.02 C 770.55 317.56, 771.12 317.87, 771.92 318.95 C 772.72 320.03, 773.31 320.79, 774.00 322.44 C 774.68 324.10, 775.05 325.21, 775.33 327.23 C 775.61 329.24, 775.64 330.51, 775.39 332.52 C 775.14 334.53, 774.81 335.64, 774.07 337.28 C 773.32 338.92, 772.75 339.68, 771.67 340.72 C 770.58 341.76, 769.89 342.14, 768.64 342.48 C 767.40 342.81, 766.66 342.80, 765.43 342.39 C 764.20 341.98, 763.53 341.52, 762.49 340.42 C 761.46 339.31, 761.00 338.41, 760.27 336.85 C 759.54 335.30, 759.33 334.18, 758.85 332.66 C 758.37 331.14, 758.23 330.20, 757.87 329.24 C 757.51 328.28, 757.41 327.91, 757.07 327.87 C 756.72 327.82, 756.57 328.13, 756.15 329.04 C 755.72 329.94, 755.55 330.88, 754.94 332.40 C 754.34 333.91, 754.00 335.05, 753.11 336.62 C 752.22 338.19, 751.59 339.05, 750.49 340.22 C 749.38 341.39, 748.72 341.94, 747.60 342.48 C 746.47 343.02, 745.85 343.17, 744.86 342.92 C 743.88 342.68, 743.36 342.34, 742.67 341.26 C 741.97 340.19, 741.68 339.35, 741.38 337.55 C 741.09 335.75, 741.06 334.49, 741.20 332.28 C 741.33 330.08, 741.66 328.65, 742.06 326.55 C 742.47 324.44, 742.87 323.30, 743.22 321.74 C 743.57 320.19, 743.81 319.55, 743.82 318.79 C 743.84 318.03, 743.76 317.89, 743.31 317.95 C 742.85 318.01, 742.48 318.41, 741.54 319.07 C 740.61 319.74, 740.01 320.44, 738.65 321.27 C 737.28 322.09, 736.42 322.58, 734.73 323.19 C 733.04 323.81, 732.02 324.07, 730.19 324.34 C 728.37 324.61, 727.33 324.59, 725.60 324.54 C 723.88 324.49, 722.97 324.25, 721.56 324.08 C 720.14 323.91, 719.51 323.73, 718.55 323.70 C 717.60 323.67, 717.23 323.66, 716.79 323.94 C 716.34 324.23, 716.27 324.40, 716.34 325.11 C 716.41 325.81, 716.67 326.24, 717.12 327.46 C 717.56 328.67, 717.98 329.46, 718.57 331.18 C 719.15 332.89, 719.45 334.07, 720.03 336.02 C 720.61 337.97, 720.89 339.23, 721.46 340.93 C 722.03 342.62, 722.40 343.59, 722.88 344.51 C 723.37 345.44, 723.64 345.81, 723.91 345.55 C 724.18 345.30, 724.21 344.88, 724.24 343.25 C 724.26 341.61, 724.15 340.36, 724.02 337.38 C 723.88 334.40, 723.70 332.37, 723.56 328.35 C 723.43 324.32, 723.38 321.84, 723.34 317.25 C 723.30 312.66, 723.29 310.00, 723.36 305.41 C 723.43 300.82, 723.51 298.26, 723.68 294.28 C 723.86 290.29, 724.15 288.29, 724.25 285.48 C 724.34 282.68, 724.29 281.49, 724.17 280.25 C 724.06 279.00, 723.91 278.79, 723.66 279.26 C 723.40 279.72, 723.28 280.57, 722.90 282.57 C 722.52 284.56, 722.44 286.20, 721.76 289.23 C 721.08 292.25, 720.66 294.19, 719.48 297.69 C 718.29 301.18, 717.52 303.22, 715.83 306.70 C 714.15 310.18, 713.12 312.04, 711.05 315.09 C 708.98 318.13, 707.79 319.60, 705.47 321.93 C 703.15 324.25, 701.84 325.21, 699.45 326.70 C 697.07 328.19, 695.78 328.69, 693.54 329.38 C 691.30 330.06, 690.15 330.07, 688.26 330.11 C 686.36 330.15, 685.46 329.82, 684.07 329.57 C 682.68 329.31, 682.14 329.01, 681.30 328.83 C 680.47 328.65, 680.20 328.54, 679.90 328.68 C 679.60 328.83, 679.63 328.90, 679.82 329.56 C 680.02 330.21, 680.34 330.61, 680.88 331.95 C 681.42 333.29, 681.81 334.10, 682.50 336.25 C 683.19 338.40, 683.59 339.70, 684.32 342.72 C 685.05 345.75, 685.46 347.63, 686.14 351.38 C 686.83 355.14, 687.17 357.46, 687.75 361.50 C 688.32 365.54, 688.55 368.04, 689.01 371.58 C 689.48 375.12, 689.62 377.06, 690.07 379.22 C 690.52 381.39, 690.90 382.21, 691.25 382.41 C 691.59 382.60, 691.75 382.07, 691.79 380.18 C 691.83 378.28, 691.63 376.61, 691.44 372.93 C 691.25 369.24, 691.03 366.79, 690.83 361.76 C 690.63 356.73, 690.53 353.65, 690.45 347.76 C 690.38 341.87, 690.33 338.48, 690.46 332.31 C 690.59 326.14, 690.68 322.80, 691.11 316.91 C 691.53 311.03, 691.82 308.00, 692.60 302.89 C 693.38 297.77, 693.90 295.29, 694.99 291.35 C 696.09 287.40, 696.88 285.75, 698.07 283.16 C 699.27 280.57, 699.90 279.66, 700.97 278.40 C 702.03 277.14, 702.54 276.88, 703.40 276.86 C 704.26 276.85, 704.69 277.19, 705.26 278.33 C 705.84 279.47, 706.14 280.40, 706.28 282.56 C 706.41 284.72, 706.43 286.21, 705.95 289.11 C 705.48 292.02, 705.10 293.85, 703.90 297.10 C 702.71 300.36, 701.84 302.22, 699.97 305.38 C 698.10 308.54, 696.89 310.19, 694.55 312.90 C 692.21 315.61, 690.81 316.89, 688.26 318.93 C 685.72 320.96, 684.26 321.79, 681.81 323.06 C 679.37 324.33, 678.10 324.73, 676.04 325.27 C 673.98 325.82, 672.98 325.74, 671.51 325.78 C 670.05 325.82, 669.45 325.63, 668.72 325.48 C 667.99 325.34, 667.86 325.19, 667.84 325.05 C 667.83 324.91, 668.06 324.78, 668.66 324.79 C 669.26 324.81, 669.83 324.76, 670.84 325.13 C 671.84 325.51, 672.62 325.76, 673.70 326.67 C 674.78 327.58, 675.45 328.24, 676.23 329.69 C 677.02 331.14, 677.39 332.13, 677.63 333.90 C 677.86 335.68, 677.82 336.78, 677.41 338.57 C 677.00 340.37, 676.54 341.38, 675.57 342.88 C 674.59 344.38, 673.87 345.13, 672.55 346.07 C 671.24 347.02, 670.39 347.37, 668.98 347.63 C 667.58 347.89, 666.77 347.84, 665.54 347.38 C 664.31 346.92, 663.67 346.42, 662.82 345.33 C 661.96 344.23, 661.61 343.41, 661.28 341.90 C 660.94 340.40, 660.94 339.43, 661.14 337.81 C 661.34 336.20, 661.65 335.27, 662.27 333.84 C 662.89 332.41, 663.41 331.73, 664.24 330.65 C 665.08 329.57, 665.67 329.20, 666.43 328.43 C 667.19 327.66, 667.61 327.36, 668.05 326.79 C 668.49 326.22, 668.67 325.92, 668.62 325.56 C 668.57 325.21, 668.46 325.06, 667.81 325.03 C 667.16 325.00, 666.68 325.09, 665.37 325.40 C 664.07 325.71, 663.21 325.97, 661.29 326.58 C 659.37 327.19, 658.18 327.57, 655.79 328.44 C 653.39 329.31, 651.98 329.83, 649.30 330.93 C 646.62 332.03, 645.12 332.64, 642.38 333.93 C 639.64 335.22, 638.14 335.94, 635.60 337.37 C 633.06 338.80, 631.74 339.59, 629.69 341.09 C 627.63 342.58, 626.64 343.37, 625.32 344.85 C 624.00 346.34, 623.48 347.16, 623.07 348.51 C 622.67 349.87, 622.73 350.59, 623.30 351.62 C 623.87 352.65, 624.48 353.12, 625.92 353.67 C 627.36 354.22, 628.39 354.36, 630.51 354.38 C 632.62 354.40, 634.01 354.27, 636.49 353.77 C 638.97 353.27, 640.49 352.86, 642.91 351.88 C 645.33 350.90, 646.64 350.23, 648.60 348.86 C 650.57 347.48, 651.54 346.67, 652.73 345.01 C 653.91 343.35, 654.32 342.40, 654.52 340.57 C 654.72 338.73, 654.52 337.74, 653.73 335.81 C 652.94 333.89, 652.19 332.89, 650.56 330.93 C 648.94 328.96, 647.76 327.99, 645.60 325.99 C 643.44 323.99, 642.06 322.98, 639.78 320.94 C 637.49 318.90, 636.17 317.85, 634.16 315.79 C 632.14 313.72, 631.10 312.70, 629.71 310.62 C 628.32 308.53, 627.76 307.45, 627.19 305.36 C 626.61 303.28, 626.57 302.16, 626.84 300.19 C 627.12 298.23, 627.56 297.22, 628.54 295.52 C 629.52 293.81, 630.32 293.00, 631.76 291.67 C 633.20 290.34, 634.14 289.72, 635.75 288.87 C 637.36 288.03, 638.28 287.76, 639.81 287.44 C 641.34 287.12, 642.15 287.25, 643.41 287.27 C 644.67 287.29, 645.23 287.45, 646.11 287.55 C 647.00 287.66, 647.44 287.88, 647.84 287.79 C 648.24 287.71, 648.37 287.48, 648.10 287.13" style="stroke: white; fill: white;"/><path d="M 943.19,281.01 C 942.99 281.50, 942.93 281.97, 942.81 283.49 C 942.69 285.01, 942.58 285.96, 942.59 288.61 C 942.60 291.25, 942.78 292.95, 942.85 296.70 C 942.93 300.45, 942.94 302.78, 942.95 307.35 C 942.96 311.92, 942.93 314.65, 942.90 319.57 C 942.86 324.48, 942.83 327.27, 942.79 331.91 C 942.75 336.55, 942.68 339.02, 942.70 342.77 C 942.71 346.52, 942.65 348.45, 942.87 350.65 C 943.09 352.85, 943.44 353.72, 943.79 353.77 C 944.14 353.82, 944.51 353.18, 944.62 350.92 C 944.74 348.66, 944.60 346.68, 944.37 342.48 C 944.15 338.28, 943.90 335.31, 943.50 329.91 C 943.11 324.51, 942.82 321.25, 942.41 315.50 C 942.00 309.74, 941.77 306.64, 941.43 301.15 C 941.10 295.67, 940.92 292.90, 940.74 288.07 C 940.55 283.23, 940.46 280.90, 940.51 276.97 C 940.55 273.05, 940.70 271.25, 940.98 268.47 C 941.26 265.68, 941.39 264.54, 941.89 263.05 C 942.39 261.56, 942.68 261.18, 943.47 261.03 C 944.25 260.88, 944.65 261.20, 945.82 262.29 C 946.99 263.39, 947.69 264.32, 949.31 266.52 C 950.92 268.72, 952.04 270.13, 953.90 273.30 C 955.76 276.47, 956.80 278.42, 958.59 282.39 C 960.39 286.35, 961.35 288.62, 962.85 293.13 C 964.35 297.64, 965.10 300.14, 966.10 304.94 C 967.09 309.74, 967.50 312.33, 967.84 317.15 C 968.17 321.97, 968.21 324.49, 967.77 329.03 C 967.33 333.58, 966.87 335.91, 965.63 339.86 C 964.40 343.82, 963.45 345.75, 961.61 348.81 C 959.77 351.86, 958.57 353.18, 956.41 355.14 C 954.25 357.10, 952.98 357.77, 950.81 358.61 C 948.63 359.44, 947.44 359.50, 945.54 359.31 C 943.64 359.12, 942.68 358.64, 941.30 357.66 C 939.92 356.67, 939.29 355.84, 938.62 354.39 C 937.95 352.93, 937.77 352.00, 937.94 350.37 C 938.10 348.75, 938.41 347.85, 939.45 346.27 C 940.50 344.69, 941.30 343.86, 943.17 342.47 C 945.03 341.09, 946.26 340.46, 948.78 339.33 C 951.31 338.20, 952.81 337.71, 955.78 336.83 C 958.75 335.94, 960.43 335.63, 963.64 334.90 C 966.85 334.18, 968.62 333.92, 971.82 333.20 C 975.03 332.48, 976.74 332.18, 979.68 331.30 C 982.62 330.43, 984.11 329.95, 986.53 328.83 C 988.95 327.70, 990.09 327.03, 991.78 325.66 C 993.46 324.29, 994.14 323.48, 994.96 321.98 C 995.79 320.47, 995.97 319.57, 995.92 318.15 C 995.88 316.73, 995.56 315.93, 994.73 314.90 C 993.90 313.87, 993.16 313.35, 991.78 313.02 C 990.39 312.68, 989.41 312.66, 987.80 313.23 C 986.19 313.79, 985.22 314.35, 983.74 315.84 C 982.27 317.33, 981.47 318.41, 980.42 320.68 C 979.38 322.96, 978.92 324.46, 978.51 327.22 C 978.11 329.98, 978.08 331.67, 978.42 334.47 C 978.76 337.27, 979.16 338.84, 980.22 341.23 C 981.29 343.62, 982.09 344.81, 983.74 346.41 C 985.38 348.01, 986.44 348.64, 988.43 349.23 C 990.42 349.82, 991.60 349.83, 993.68 349.37 C 995.76 348.91, 996.89 348.38, 998.82 346.96 C 1000.75 345.53, 1001.72 344.45, 1003.31 342.25 C 1004.91 340.06, 1005.64 338.57, 1006.79 335.97 C 1007.94 333.36, 1008.40 331.77, 1009.06 329.24 C 1009.72 326.71, 1009.94 325.19, 1010.09 323.33 C 1010.23 321.48, 1010.03 320.58, 1009.78 319.98 C 1009.54 319.38, 1009.17 319.47, 1008.85 320.31 C 1008.53 321.16, 1008.27 322.14, 1008.19 324.19 C 1008.12 326.24, 1008.12 327.84, 1008.46 330.56 C 1008.81 333.27, 1009.17 335.07, 1009.91 337.78 C 1010.66 340.50, 1011.15 342.00, 1012.19 344.14 C 1013.23 346.28, 1013.86 347.25, 1015.13 348.48 C 1016.41 349.71, 1017.19 350.14, 1018.57 350.28 C 1019.94 350.42, 1020.74 350.17, 1022.00 349.18 C 1023.26 348.19, 1023.91 347.28, 1024.87 345.34 C 1025.84 343.40, 1026.25 342.01, 1026.81 339.49 C 1027.37 336.96, 1027.54 335.33, 1027.67 332.71 C 1027.80 330.09, 1027.71 328.57, 1027.48 326.38 C 1027.24 324.19, 1026.95 323.17, 1026.50 321.75 C 1026.05 320.34, 1025.69 319.86, 1025.23 319.32 C 1024.77 318.78, 1024.40 318.82, 1024.21 319.06 C 1024.02 319.30, 1023.89 319.80, 1024.29 320.52 C 1024.69 321.24, 1025.11 321.87, 1026.21 322.67 C 1027.31 323.47, 1028.13 323.94, 1029.78 324.52 C 1031.43 325.09, 1032.47 325.38, 1034.46 325.54 C 1036.44 325.70, 1037.63 325.68, 1039.71 325.31 C 1041.78 324.95, 1042.93 324.56, 1044.82 323.71 C 1046.71 322.85, 1047.71 322.22, 1049.17 321.04 C 1050.62 319.86, 1051.31 319.10, 1052.11 317.82 C 1052.91 316.54, 1053.16 315.75, 1053.16 314.65 C 1053.17 313.55, 1052.88 312.90, 1052.13 312.32 C 1051.38 311.74, 1050.66 311.53, 1049.42 311.77 C 1048.18 312.01, 1047.30 312.34, 1045.92 313.52 C 1044.55 314.69, 1043.72 315.60, 1042.56 317.64 C 1041.39 319.68, 1040.79 321.07, 1040.11 323.71 C 1039.42 326.35, 1039.15 328.00, 1039.11 330.84 C 1039.07 333.68, 1039.22 335.34, 1039.91 337.91 C 1040.60 340.47, 1041.17 341.83, 1042.56 343.67 C 1043.95 345.52, 1044.91 346.34, 1046.85 347.12 C 1048.80 347.91, 1050.03 348.05, 1052.29 347.58 C 1054.56 347.12, 1055.88 346.53, 1058.18 344.79 C 1060.48 343.06, 1061.63 341.79, 1063.78 338.91 C 1065.94 336.03, 1067.02 334.18, 1068.96 330.39 C 1070.90 326.60, 1071.86 324.31, 1073.48 319.95 C 1075.10 315.58, 1075.85 313.06, 1077.05 308.58 C 1078.25 304.09, 1078.75 301.61, 1079.50 297.53 C 1080.25 293.44, 1080.55 291.38, 1080.82 288.15 C 1081.09 284.93, 1081.11 283.48, 1080.87 281.38 C 1080.63 279.28, 1080.33 278.49, 1079.61 277.65 C 1078.88 276.82, 1078.29 276.67, 1077.25 277.21 C 1076.22 277.76, 1075.47 278.38, 1074.41 280.36 C 1073.35 282.35, 1072.83 283.82, 1071.96 287.13 C 1071.09 290.44, 1070.70 292.61, 1070.07 296.91 C 1069.45 301.21, 1069.13 303.83, 1068.84 308.64 C 1068.54 313.44, 1068.45 316.24, 1068.62 320.93 C 1068.79 325.63, 1068.97 328.11, 1069.69 332.12 C 1070.40 336.13, 1070.88 338.10, 1072.19 340.98 C 1073.50 343.86, 1074.37 345.07, 1076.24 346.54 C 1078.11 348.01, 1079.30 348.32, 1081.55 348.33 C 1083.80 348.34, 1085.14 347.86, 1087.48 346.60 C 1089.81 345.34, 1091.08 344.19, 1093.21 342.02 C 1095.34 339.86, 1096.45 338.32, 1098.12 335.78 C 1099.79 333.25, 1100.59 331.69, 1101.55 329.35 C 1102.51 327.01, 1102.80 325.77, 1102.94 324.07 C 1103.08 322.37, 1102.86 321.62, 1102.25 320.84 C 1101.63 320.06, 1100.96 319.88, 1099.85 320.18 C 1098.74 320.47, 1097.88 320.96, 1096.68 322.30 C 1095.48 323.63, 1094.75 324.76, 1093.87 326.85 C 1092.99 328.94, 1092.58 330.38, 1092.28 332.73 C 1091.99 335.08, 1091.97 336.50, 1092.39 338.61 C 1092.81 340.71, 1093.27 341.84, 1094.40 343.26 C 1095.52 344.67, 1096.40 345.24, 1098.02 345.70 C 1099.63 346.16, 1100.71 346.11, 1102.49 345.55 C 1104.26 344.98, 1105.32 344.35, 1106.90 342.88 C 1108.48 341.41, 1109.32 340.29, 1110.39 338.19 C 1111.46 336.10, 1111.90 334.70, 1112.24 332.39 C 1112.58 330.09, 1112.53 328.73, 1112.09 326.65 C 1111.65 324.58, 1111.11 323.50, 1110.04 322.00 C 1108.98 320.50, 1108.11 319.88, 1106.75 319.14 C 1105.39 318.39, 1104.48 318.29, 1103.24 318.29 C 1102.00 318.30, 1101.25 318.60, 1100.54 319.15 C 1099.84 319.71, 1099.56 320.28, 1099.69 321.06 C 1099.83 321.84, 1100.20 322.45, 1101.23 323.05 C 1102.27 323.66, 1103.12 323.95, 1104.87 324.09 C 1106.62 324.22, 1107.80 324.11, 1109.96 323.73 C 1112.13 323.34, 1113.45 322.96, 1115.71 322.16 C 1117.98 321.36, 1119.25 320.76, 1121.31 319.72 C 1123.36 318.68, 1124.43 317.99, 1125.98 316.97 C 1127.54 315.96, 1128.23 315.29, 1129.09 314.65 C 1129.94 314.01, 1130.10 313.65, 1130.25 313.77 C 1130.39 313.90, 1130.15 314.11, 1129.82 315.28 C 1129.50 316.45, 1129.12 317.32, 1128.63 319.63 C 1128.14 321.95, 1127.90 323.50, 1127.39 326.85 C 1126.88 330.20, 1126.58 332.23, 1126.07 336.39 C 1125.55 340.55, 1125.27 342.95, 1124.81 347.66 C 1124.35 352.37, 1124.14 355.01, 1123.78 359.92 C 1123.41 364.83, 1123.26 367.53, 1122.99 372.21 C 1122.73 376.89, 1122.64 379.36, 1122.44 383.31 C 1122.24 387.26, 1122.03 389.22, 1121.98 391.97 C 1121.93 394.73, 1122.05 395.93, 1122.21 397.08 C 1122.36 398.23, 1122.56 398.37, 1122.75 397.72 C 1122.93 397.07, 1123.09 396.17, 1123.12 393.82 C 1123.16 391.48, 1122.97 389.68, 1122.92 385.99 C 1122.86 382.29, 1122.71 379.90, 1122.84 375.36 C 1122.98 370.83, 1123.07 368.23, 1123.59 363.33 C 1124.10 358.42, 1124.46 355.76, 1125.41 350.85 C 1126.36 345.95, 1126.97 343.36, 1128.34 338.81 C 1129.71 334.26, 1130.55 331.95, 1132.24 328.10 C 1133.93 324.25, 1134.94 322.41, 1136.80 319.56 C 1138.66 316.70, 1139.73 315.52, 1141.54 313.81 C 1143.35 312.10, 1144.26 311.54, 1145.84 310.99 C 1147.43 310.44, 1148.21 310.54, 1149.46 311.08 C 1150.71 311.62, 1151.30 312.26, 1152.11 313.69 C 1152.93 315.13, 1153.28 316.17, 1153.53 318.26 C 1153.77 320.35, 1153.76 321.70, 1153.34 324.13 C 1152.92 326.57, 1152.48 328.04, 1151.43 330.42 C 1150.39 332.80, 1149.61 334.09, 1148.13 336.04 C 1146.65 337.99, 1145.65 338.92, 1144.05 340.17 C 1142.44 341.43, 1141.50 341.85, 1140.10 342.31 C 1138.70 342.77, 1138.00 342.72, 1137.05 342.48 C 1136.11 342.24, 1135.73 341.85, 1135.37 341.10 C 1135.02 340.36, 1134.98 339.76, 1135.27 338.77 C 1135.56 337.79, 1135.85 337.16, 1136.81 336.17 C 1137.77 335.18, 1138.46 334.64, 1140.08 333.82 C 1141.71 333.00, 1142.77 332.64, 1144.93 332.07 C 1147.09 331.50, 1148.38 331.35, 1150.88 330.97 C 1153.37 330.59, 1154.81 330.52, 1157.41 330.17 C 1160.01 329.82, 1161.43 329.71, 1163.88 329.22 C 1166.33 328.72, 1167.59 328.47, 1169.68 327.71 C 1171.77 326.96, 1172.78 326.50, 1174.32 325.42 C 1175.86 324.34, 1176.53 323.65, 1177.40 322.30 C 1178.27 320.95, 1178.53 320.09, 1178.67 318.66 C 1178.81 317.23, 1178.66 316.36, 1178.10 315.14 C 1177.53 313.92, 1176.97 313.26, 1175.87 312.58 C 1174.76 311.90, 1173.93 311.64, 1172.56 311.76 C 1171.19 311.87, 1170.31 312.18, 1169.02 313.16 C 1167.73 314.13, 1167.03 314.93, 1166.12 316.62 C 1165.22 318.32, 1164.82 319.46, 1164.49 321.64 C 1164.15 323.83, 1164.10 325.23, 1164.45 327.55 C 1164.80 329.87, 1165.20 331.20, 1166.25 333.25 C 1167.30 335.29, 1168.08 336.33, 1169.72 337.76 C 1171.36 339.18, 1172.38 339.79, 1174.44 340.37 C 1176.49 340.95, 1177.72 340.98, 1179.98 340.67 C 1182.24 340.36, 1183.51 339.91, 1185.74 338.81 C 1187.98 337.70, 1189.16 336.83, 1191.16 335.14 C 1193.15 333.45, 1194.17 332.30, 1195.71 330.36 C 1197.25 328.42, 1197.94 327.13, 1198.85 325.43 C 1199.75 323.73, 1199.98 322.75, 1200.24 321.84 C 1200.50 320.93, 1200.30 320.65, 1200.13 320.87 C 1199.96 321.09, 1199.61 321.61, 1199.39 322.95 C 1199.17 324.29, 1199.01 325.49, 1199.04 327.57 C 1199.07 329.65, 1199.19 331.09, 1199.56 333.34 C 1199.92 335.59, 1200.19 336.92, 1200.86 338.82 C 1201.53 340.71, 1201.97 341.66, 1202.90 342.81 C 1203.84 343.96, 1204.43 344.38, 1205.52 344.56 C 1206.61 344.75, 1207.26 344.55, 1208.37 343.75 C 1209.48 342.95, 1210.07 342.18, 1211.08 340.56 C 1212.09 338.93, 1212.55 337.77, 1213.41 335.63 C 1214.27 333.50, 1214.65 332.12, 1215.36 329.89 C 1216.07 327.65, 1216.39 326.37, 1216.98 324.44 C 1217.57 322.51, 1217.81 321.57, 1218.32 320.22 C 1218.83 318.87, 1218.96 318.36, 1219.53 317.68 C 1220.10 316.99, 1220.30 316.95, 1221.16 316.80 C 1222.03 316.65, 1222.56 316.81, 1223.84 316.91 C 1225.12 317.02, 1225.91 317.18, 1227.57 317.30 C 1229.23 317.43, 1230.24 317.51, 1232.13 317.52 C 1234.03 317.52, 1235.14 317.49, 1237.05 317.33 C 1238.96 317.17, 1239.97 317.03, 1241.68 316.72 C 1243.40 316.41, 1244.25 316.20, 1245.62 315.79 C 1246.99 315.38, 1247.64 315.09, 1248.53 314.68 C 1249.43 314.26, 1249.69 314.06, 1250.12 313.71 C 1250.54 313.37, 1250.55 313.19, 1250.66 312.96 C 1250.77 312.74, 1250.69 312.69, 1250.65 312.60 C 1250.61 312.50, 1250.54 312.52, 1250.46 312.51 C 1250.38 312.49, 1250.44 312.49, 1250.26 312.54 C 1250.08 312.59, 1250.02 312.60, 1249.57 312.76 C 1249.12 312.92, 1248.88 313.05, 1248.00 313.34 C 1247.13 313.63, 1246.51 313.88, 1245.19 314.21 C 1243.87 314.55, 1243.05 314.76, 1241.40 315.01 C 1239.74 315.27, 1238.76 315.37, 1236.91 315.49 C 1235.07 315.60, 1234.00 315.61, 1232.15 315.59 C 1230.30 315.56, 1229.34 315.45, 1227.68 315.37 C 1226.03 315.29, 1225.25 315.16, 1223.88 315.20 C 1222.51 315.23, 1221.89 315.22, 1220.84 315.56 C 1219.80 315.90, 1219.43 316.08, 1218.65 316.89 C 1217.87 317.71, 1217.62 318.24, 1216.95 319.64 C 1216.28 321.03, 1215.99 321.96, 1215.30 323.89 C 1214.61 325.81, 1214.26 327.07, 1213.50 329.27 C 1212.74 331.46, 1212.31 332.80, 1211.50 334.87 C 1210.68 336.94, 1210.22 338.05, 1209.41 339.61 C 1208.61 341.17, 1208.21 341.90, 1207.46 342.69 C 1206.72 343.48, 1206.39 343.69, 1205.70 343.55 C 1205.02 343.42, 1204.67 343.06, 1204.04 342.01 C 1203.42 340.95, 1203.06 340.07, 1202.59 338.28 C 1202.12 336.49, 1201.93 335.21, 1201.68 333.05 C 1201.43 330.89, 1201.48 329.49, 1201.36 327.48 C 1201.23 325.46, 1201.23 324.32, 1201.06 322.98 C 1200.88 321.63, 1200.82 321.09, 1200.47 320.76 C 1200.12 320.44, 1199.93 320.59, 1199.31 321.35 C 1198.68 322.11, 1198.35 322.98, 1197.34 324.55 C 1196.34 326.13, 1195.75 327.38, 1194.27 329.22 C 1192.80 331.06, 1191.84 332.15, 1189.97 333.75 C 1188.10 335.35, 1186.99 336.17, 1184.94 337.23 C 1182.90 338.28, 1181.75 338.71, 1179.74 339.03 C 1177.72 339.36, 1176.65 339.36, 1174.86 338.86 C 1173.07 338.36, 1172.20 337.83, 1170.79 336.55 C 1169.38 335.28, 1168.71 334.32, 1167.80 332.47 C 1166.90 330.61, 1166.57 329.39, 1166.28 327.28 C 1165.98 325.17, 1166.05 323.89, 1166.34 321.92 C 1166.63 319.96, 1166.99 318.95, 1167.73 317.46 C 1168.48 315.97, 1169.07 315.31, 1170.07 314.48 C 1171.06 313.64, 1171.71 313.41, 1172.72 313.28 C 1173.72 313.16, 1174.28 313.36, 1175.08 313.86 C 1175.88 314.35, 1176.30 314.84, 1176.72 315.77 C 1177.15 316.70, 1177.32 317.37, 1177.21 318.52 C 1177.10 319.67, 1176.93 320.37, 1176.18 321.50 C 1175.43 322.63, 1174.87 323.23, 1173.46 324.16 C 1172.05 325.10, 1171.12 325.50, 1169.14 326.17 C 1167.16 326.84, 1165.95 327.06, 1163.55 327.50 C 1161.16 327.94, 1159.76 328.04, 1157.17 328.36 C 1154.58 328.68, 1153.15 328.74, 1150.60 329.12 C 1148.05 329.50, 1146.72 329.64, 1144.44 330.25 C 1142.17 330.86, 1141.01 331.23, 1139.23 332.18 C 1137.45 333.13, 1136.62 333.75, 1135.53 335.00 C 1134.44 336.25, 1134.04 337.09, 1133.79 338.43 C 1133.53 339.77, 1133.68 340.64, 1134.26 341.69 C 1134.84 342.74, 1135.46 343.27, 1136.71 343.67 C 1137.95 344.07, 1138.84 344.13, 1140.50 343.69 C 1142.17 343.25, 1143.23 342.79, 1145.03 341.48 C 1146.84 340.17, 1147.91 339.18, 1149.53 337.12 C 1151.15 335.06, 1152.00 333.71, 1153.13 331.17 C 1154.26 328.64, 1154.76 327.08, 1155.20 324.45 C 1155.63 321.82, 1155.67 320.33, 1155.31 318.02 C 1154.95 315.71, 1154.49 314.50, 1153.42 312.88 C 1152.34 311.27, 1151.52 310.55, 1149.93 309.94 C 1148.34 309.32, 1147.33 309.24, 1145.46 309.80 C 1143.59 310.37, 1142.51 310.96, 1140.56 312.77 C 1138.61 314.58, 1137.59 315.89, 1135.73 318.87 C 1133.86 321.85, 1132.90 323.73, 1131.23 327.66 C 1129.55 331.59, 1128.72 333.92, 1127.36 338.52 C 1126.00 343.12, 1125.39 345.72, 1124.42 350.66 C 1123.45 355.60, 1123.09 358.28, 1122.53 363.21 C 1121.96 368.14, 1121.84 370.75, 1121.58 375.31 C 1121.32 379.86, 1121.27 382.27, 1121.22 385.99 C 1121.18 389.70, 1121.15 391.53, 1121.35 393.89 C 1121.55 396.24, 1121.88 397.13, 1122.22 397.78 C 1122.56 398.43, 1122.78 398.27, 1123.04 397.12 C 1123.30 395.97, 1123.41 394.77, 1123.53 392.02 C 1123.65 389.27, 1123.54 387.31, 1123.64 383.36 C 1123.75 379.41, 1123.83 376.94, 1124.06 372.27 C 1124.30 367.60, 1124.45 364.90, 1124.83 360.00 C 1125.20 355.10, 1125.42 352.46, 1125.93 347.78 C 1126.44 343.09, 1126.75 340.70, 1127.38 336.57 C 1128.01 332.45, 1128.44 330.46, 1129.08 327.15 C 1129.73 323.83, 1130.19 322.36, 1130.61 320.02 C 1131.04 317.68, 1131.22 316.79, 1131.21 315.45 C 1131.20 314.12, 1131.10 313.73, 1130.56 313.35 C 1130.01 312.97, 1129.57 313.11, 1128.48 313.54 C 1127.38 313.97, 1126.69 314.59, 1125.09 315.50 C 1123.49 316.40, 1122.49 317.09, 1120.49 318.05 C 1118.48 319.01, 1117.25 319.57, 1115.07 320.30 C 1112.90 321.03, 1111.63 321.35, 1109.61 321.71 C 1107.58 322.07, 1106.51 322.11, 1104.96 322.10 C 1103.41 322.08, 1102.74 321.88, 1101.87 321.63 C 1101.00 321.38, 1100.75 321.13, 1100.60 320.83 C 1100.46 320.53, 1100.64 320.35, 1101.16 320.14 C 1101.68 319.93, 1102.23 319.71, 1103.20 319.77 C 1104.17 319.83, 1104.91 319.83, 1106.02 320.46 C 1107.13 321.08, 1107.87 321.59, 1108.76 322.89 C 1109.65 324.20, 1110.11 325.14, 1110.45 326.98 C 1110.80 328.82, 1110.82 330.04, 1110.47 332.12 C 1110.13 334.19, 1109.69 335.46, 1108.73 337.35 C 1107.77 339.24, 1107.01 340.24, 1105.66 341.58 C 1104.30 342.92, 1103.42 343.49, 1101.97 344.05 C 1100.51 344.61, 1099.66 344.69, 1098.38 344.36 C 1097.10 344.03, 1096.42 343.59, 1095.56 342.38 C 1094.70 341.17, 1094.35 340.19, 1094.08 338.32 C 1093.81 336.44, 1093.87 335.14, 1094.22 333.01 C 1094.57 330.88, 1095.04 329.57, 1095.82 327.66 C 1096.60 325.75, 1097.25 324.74, 1098.14 323.45 C 1099.03 322.16, 1099.58 321.64, 1100.26 321.21 C 1100.95 320.77, 1101.30 320.76, 1101.57 321.30 C 1101.83 321.83, 1101.91 322.40, 1101.59 323.88 C 1101.27 325.35, 1100.95 326.48, 1099.96 328.66 C 1098.96 330.84, 1098.23 332.37, 1096.62 334.79 C 1095.01 337.21, 1093.91 338.69, 1091.92 340.76 C 1089.92 342.83, 1088.73 343.90, 1086.65 345.15 C 1084.57 346.40, 1083.45 346.93, 1081.53 347.02 C 1079.60 347.10, 1078.65 346.88, 1077.02 345.56 C 1075.40 344.24, 1074.65 343.15, 1073.42 340.42 C 1072.18 337.69, 1071.58 335.82, 1070.84 331.91 C 1070.10 328.01, 1069.89 325.53, 1069.72 320.89 C 1069.54 316.25, 1069.64 313.46, 1069.98 308.71 C 1070.31 303.96, 1070.65 301.34, 1071.39 297.12 C 1072.12 292.90, 1072.71 290.79, 1073.63 287.59 C 1074.55 284.39, 1075.16 283.05, 1075.99 281.13 C 1076.82 279.20, 1077.19 278.57, 1077.78 277.97 C 1078.38 277.36, 1078.61 277.40, 1078.96 278.10 C 1079.31 278.81, 1079.45 279.50, 1079.55 281.49 C 1079.64 283.48, 1079.68 284.88, 1079.43 288.04 C 1079.19 291.21, 1079.03 293.27, 1078.34 297.32 C 1077.65 301.37, 1077.16 303.84, 1075.98 308.29 C 1074.79 312.73, 1074.04 315.24, 1072.41 319.54 C 1070.78 323.85, 1069.80 326.11, 1067.84 329.80 C 1065.88 333.50, 1064.75 335.29, 1062.61 338.01 C 1060.47 340.73, 1059.26 341.79, 1057.13 343.41 C 1055.00 345.03, 1053.91 345.62, 1051.96 346.10 C 1050.01 346.58, 1049.01 346.49, 1047.38 345.82 C 1045.75 345.16, 1044.97 344.44, 1043.81 342.77 C 1042.65 341.10, 1042.16 339.86, 1041.59 337.48 C 1041.03 335.10, 1040.91 333.53, 1040.99 330.88 C 1041.07 328.22, 1041.33 326.67, 1041.99 324.21 C 1042.65 321.76, 1043.25 320.48, 1044.29 318.61 C 1045.32 316.75, 1046.08 315.98, 1047.18 314.90 C 1048.29 313.81, 1048.95 313.54, 1049.82 313.19 C 1050.68 312.84, 1051.09 312.89, 1051.52 313.16 C 1051.94 313.44, 1052.08 313.80, 1051.95 314.56 C 1051.81 315.32, 1051.60 315.92, 1050.83 316.95 C 1050.06 317.97, 1049.45 318.67, 1048.11 319.69 C 1046.76 320.72, 1045.84 321.31, 1044.09 322.08 C 1042.35 322.84, 1041.29 323.19, 1039.40 323.51 C 1037.50 323.82, 1036.41 323.83, 1034.63 323.64 C 1032.85 323.46, 1031.93 323.13, 1030.48 322.58 C 1029.03 322.03, 1028.41 321.50, 1027.38 320.89 C 1026.36 320.28, 1025.95 319.90, 1025.36 319.53 C 1024.76 319.17, 1024.58 319.02, 1024.39 319.06 C 1024.20 319.10, 1024.28 319.13, 1024.42 319.74 C 1024.56 320.35, 1024.82 320.76, 1025.08 322.12 C 1025.35 323.48, 1025.60 324.43, 1025.73 326.53 C 1025.85 328.62, 1025.89 330.09, 1025.71 332.59 C 1025.53 335.10, 1025.33 336.66, 1024.83 339.06 C 1024.32 341.46, 1023.94 342.76, 1023.19 344.57 C 1022.44 346.39, 1021.98 347.22, 1021.08 348.13 C 1020.18 349.05, 1019.68 349.28, 1018.69 349.16 C 1017.70 349.04, 1017.11 348.68, 1016.13 347.53 C 1015.14 346.39, 1014.60 345.49, 1013.75 343.44 C 1012.90 341.39, 1012.47 339.93, 1011.89 337.29 C 1011.30 334.66, 1011.14 332.89, 1010.81 330.26 C 1010.48 327.63, 1010.44 326.10, 1010.23 324.12 C 1010.02 322.14, 1009.97 321.20, 1009.76 320.37 C 1009.55 319.54, 1009.44 319.43, 1009.18 319.97 C 1008.92 320.52, 1008.84 321.34, 1008.45 323.09 C 1008.07 324.85, 1007.94 326.33, 1007.26 328.75 C 1006.58 331.18, 1006.15 332.72, 1005.06 335.21 C 1003.98 337.70, 1003.27 339.11, 1001.82 341.19 C 1000.36 343.27, 999.49 344.27, 997.79 345.60 C 996.09 346.94, 995.12 347.43, 993.33 347.88 C 991.54 348.32, 990.55 348.34, 988.85 347.83 C 987.15 347.32, 986.24 346.77, 984.83 345.32 C 983.42 343.86, 982.70 342.77, 981.78 340.56 C 980.86 338.34, 980.51 336.88, 980.23 334.26 C 979.95 331.65, 980.00 330.06, 980.38 327.50 C 980.76 324.93, 981.20 323.54, 982.13 321.46 C 983.07 319.38, 983.79 318.43, 985.04 317.10 C 986.29 315.77, 987.11 315.32, 988.39 314.80 C 989.67 314.28, 990.40 314.30, 991.46 314.49 C 992.51 314.69, 993.05 315.04, 993.68 315.77 C 994.30 316.51, 994.58 317.08, 994.60 318.18 C 994.61 319.29, 994.51 320.03, 993.76 321.29 C 993.01 322.54, 992.42 323.27, 990.84 324.48 C 989.26 325.69, 988.17 326.29, 985.85 327.35 C 983.53 328.41, 982.10 328.91, 979.22 329.79 C 976.35 330.66, 974.67 331.00, 971.49 331.72 C 968.31 332.45, 966.54 332.69, 963.31 333.40 C 960.07 334.10, 958.38 334.40, 955.32 335.25 C 952.27 336.10, 950.69 336.50, 948.05 337.66 C 945.40 338.82, 944.09 339.52, 942.09 341.06 C 940.09 342.60, 939.20 343.54, 938.06 345.38 C 936.92 347.21, 936.55 348.30, 936.38 350.23 C 936.22 352.16, 936.42 353.31, 937.23 355.03 C 938.05 356.76, 938.81 357.73, 940.45 358.87 C 942.08 360.01, 943.22 360.52, 945.39 360.74 C 947.57 360.96, 948.93 360.88, 951.33 359.97 C 953.72 359.05, 955.10 358.29, 957.37 356.18 C 959.64 354.08, 960.81 352.64, 962.67 349.44 C 964.54 346.24, 965.47 344.25, 966.69 340.19 C 967.92 336.12, 968.37 333.75, 968.80 329.13 C 969.23 324.51, 969.18 321.96, 968.84 317.08 C 968.50 312.20, 968.08 309.59, 967.09 304.73 C 966.10 299.88, 965.35 297.36, 963.88 292.79 C 962.41 288.22, 961.46 285.94, 959.73 281.89 C 958.00 277.84, 957.00 275.86, 955.23 272.55 C 953.46 269.25, 952.58 267.63, 950.87 265.35 C 949.17 263.08, 948.22 262.21, 946.70 261.18 C 945.18 260.16, 944.46 259.94, 943.29 260.23 C 942.12 260.52, 941.59 261.01, 940.84 262.63 C 940.09 264.25, 939.84 265.45, 939.55 268.32 C 939.26 271.19, 939.34 273.02, 939.38 276.97 C 939.42 280.93, 939.54 283.26, 939.77 288.11 C 940.00 292.96, 940.19 295.72, 940.53 301.21 C 940.87 306.70, 941.10 309.81, 941.47 315.56 C 941.84 321.31, 942.08 324.58, 942.38 329.98 C 942.67 335.38, 942.76 338.36, 942.94 342.55 C 943.11 346.74, 943.07 348.70, 943.25 350.94 C 943.43 353.17, 943.65 353.78, 943.83 353.71 C 944.01 353.64, 944.10 352.79, 944.13 350.60 C 944.17 348.41, 944.03 346.50, 943.98 342.76 C 943.93 339.02, 943.89 336.55, 943.90 331.92 C 943.90 327.28, 943.94 324.49, 944.00 319.58 C 944.05 314.67, 944.10 311.94, 944.18 307.36 C 944.26 302.78, 944.33 300.46, 944.40 296.70 C 944.47 292.95, 944.58 291.23, 944.54 288.59 C 944.51 285.94, 944.37 284.99, 944.23 283.47 C 944.08 281.96, 944.03 281.50, 943.82 281.00 C 943.61 280.51, 943.39 280.51, 943.19 281.01" style="stroke: white; fill: white;"/></svg>