<svg xmlns="http://www.w3.org/2000/svg" id="canvas" viewBox="225.912 290.428 920.180 81.792"><path d="M 229.51,342.77 C 229.84 342.63, 230.03 342.46, 230.59 341.76 C 231.15 341.06, 231.57 340.54, 232.31 339.27 C 233.05 338.00, 233.50 337.09, 234.29 335.40 C 235.08 333.71, 235.44 332.72, 236.26 330.83 C 237.09 328.94, 237.54 327.97, 238.43 325.95 C 239.32 323.94, 239.83 322.80, 240.71 320.75 C 241.58 318.69, 242.01 317.56, 242.83 315.70 C 243.65 313.83, 244.11 312.96, 244.80 311.42 C 245.49 309.88, 245.84 309.15, 246.28 308.00 C 246.71 306.84, 246.88 306.18, 246.97 305.65 C 247.06 305.11, 246.91 304.96, 246.74 305.32 C 246.57 305.68, 246.36 306.11, 246.10 307.44 C 245.84 308.77, 245.74 309.79, 245.45 311.96 C 245.15 314.14, 245.05 315.64, 244.63 318.31 C 244.20 320.98, 243.91 322.47, 243.32 325.32 C 242.73 328.17, 242.40 329.68, 241.68 332.55 C 240.95 335.42, 240.60 336.94, 239.69 339.68 C 238.78 342.42, 238.12 343.77, 237.13 346.24 C 236.14 348.71, 235.56 349.95, 234.73 352.03 C 233.90 354.11, 233.54 355.15, 232.98 356.63 C 232.43 358.11, 232.20 358.61, 231.96 359.43 C 231.72 360.25, 231.75 360.45, 231.78 360.74 C 231.81 361.03, 231.91 361.06, 232.13 360.88 C 232.35 360.70, 232.41 360.57, 232.87 359.84 C 233.34 359.12, 233.75 358.69, 234.45 357.26 C 235.14 355.83, 235.49 354.77, 236.36 352.70 C 237.24 350.63, 237.82 349.41, 238.82 346.92 C 239.83 344.43, 240.48 343.03, 241.39 340.24 C 242.31 337.46, 242.64 335.89, 243.40 332.99 C 244.16 330.09, 244.51 328.59, 245.19 325.73 C 245.87 322.88, 246.28 321.40, 246.80 318.70 C 247.33 316.00, 247.58 314.48, 247.82 312.25 C 248.06 310.02, 248.07 308.99, 248.00 307.57 C 247.92 306.15, 247.81 305.65, 247.44 305.16 C 247.08 304.67, 246.71 304.70, 246.17 305.13 C 245.63 305.56, 245.35 306.20, 244.76 307.31 C 244.17 308.43, 243.95 309.17, 243.23 310.69 C 242.50 312.22, 241.99 313.08, 241.13 314.94 C 240.27 316.79, 239.82 317.93, 238.93 319.98 C 238.03 322.02, 237.56 323.16, 236.66 325.17 C 235.76 327.17, 235.31 328.14, 234.44 330.00 C 233.56 331.85, 233.11 332.79, 232.29 334.44 C 231.48 336.09, 230.98 336.94, 230.36 338.25 C 229.75 339.56, 229.49 340.16, 229.21 341.00 C 228.92 341.84, 228.87 342.10, 228.94 342.45 C 229.00 342.81, 229.18 342.91, 229.51 342.77" style="stroke: white; fill: white;"/><path d="M 279.33,299.22 C 278.95 299.55, 278.63 300.02, 278.15 301.11 C 277.67 302.20, 277.42 303.18, 276.91 304.66 C 276.41 306.15, 276.16 306.99, 275.63 308.53 C 275.10 310.07, 274.78 310.94, 274.27 312.38 C 273.76 313.81, 273.42 314.50, 273.08 315.72 C 272.73 316.95, 272.57 317.55, 272.53 318.50 C 272.50 319.45, 272.72 319.90, 272.92 320.47 C 273.11 321.05, 273.28 321.23, 273.49 321.39 C 273.70 321.54, 273.85 321.48, 273.96 321.26 C 274.07 321.04, 274.01 320.82, 274.03 320.30 C 274.05 319.78, 273.93 319.46, 274.07 318.64 C 274.20 317.83, 274.32 317.36, 274.72 316.24 C 275.11 315.12, 275.46 314.46, 276.04 313.06 C 276.62 311.66, 277.02 310.80, 277.62 309.25 C 278.21 307.71, 278.57 306.85, 279.01 305.32 C 279.46 303.80, 279.64 302.79, 279.84 301.62 C 280.04 300.44, 280.12 299.93, 280.01 299.45 C 279.91 298.97, 279.70 298.89, 279.33 299.22" style="stroke: white; fill: white;"/><path d="M 298.36,326.04 C 298.10 326.31, 298.06 326.59, 297.69 327.48 C 297.32 328.36, 297.10 328.95, 296.52 330.46 C 295.94 331.97, 295.63 333.03, 294.79 335.03 C 293.95 337.03, 293.34 338.29, 292.30 340.45 C 291.26 342.61, 290.55 343.85, 289.59 345.82 C 288.63 347.79, 288.09 348.92, 287.49 350.31 C 286.88 351.70, 286.62 352.21, 286.58 352.78 C 286.55 353.34, 286.75 353.53, 287.31 353.15 C 287.87 352.77, 288.35 352.25, 289.39 350.86 C 290.42 349.47, 291.05 348.25, 292.49 346.19 C 293.92 344.14, 294.78 342.77, 296.57 340.58 C 298.35 338.40, 299.53 337.14, 301.43 335.28 C 303.34 333.42, 304.43 332.51, 306.10 331.28 C 307.77 330.06, 308.60 329.64, 309.79 329.16 C 310.97 328.67, 311.39 328.65, 312.03 328.87 C 312.67 329.09, 312.78 329.43, 312.97 330.24 C 313.17 331.05, 313.13 331.66, 312.99 332.93 C 312.85 334.20, 312.67 335.05, 312.27 336.60 C 311.87 338.15, 311.57 339.09, 311.01 340.69 C 310.44 342.29, 309.98 343.19, 309.46 344.59 C 308.93 346.00, 308.60 346.73, 308.40 347.72 C 308.20 348.71, 308.16 349.26, 308.46 349.54 C 308.77 349.83, 309.11 349.72, 309.94 349.14 C 310.76 348.55, 311.33 347.97, 312.57 346.63 C 313.81 345.28, 314.58 344.22, 316.14 342.41 C 317.70 340.61, 318.61 339.42, 320.37 337.61 C 322.13 335.81, 323.20 334.88, 324.96 333.39 C 326.72 331.89, 327.66 331.20, 329.16 330.13 C 330.65 329.07, 331.36 328.65, 332.44 328.07 C 333.52 327.49, 333.96 327.31, 334.56 327.23 C 335.15 327.15, 335.26 327.17, 335.40 327.65 C 335.54 328.13, 335.46 328.57, 335.26 329.65 C 335.06 330.73, 334.85 331.45, 334.40 333.03 C 333.94 334.60, 333.57 335.65, 332.97 337.52 C 332.38 339.39, 332.00 340.58, 331.42 342.38 C 330.84 344.17, 330.55 345.01, 330.07 346.50 C 329.59 347.99, 329.29 348.73, 329.03 349.83 C 328.76 350.94, 328.73 351.36, 328.74 352.03 C 328.75 352.70, 328.94 352.87, 329.09 353.18 C 329.24 353.48, 329.34 353.50, 329.48 353.54 C 329.61 353.59, 329.70 353.51, 329.76 353.41 C 329.83 353.31, 329.77 353.29, 329.81 353.04 C 329.85 352.79, 329.82 352.72, 329.96 352.16 C 330.11 351.61, 330.17 351.29, 330.53 350.27 C 330.89 349.26, 331.20 348.54, 331.75 347.10 C 332.31 345.65, 332.65 344.82, 333.32 343.04 C 333.98 341.26, 334.44 340.11, 335.08 338.22 C 335.72 336.33, 336.12 335.27, 336.52 333.59 C 336.92 331.90, 337.10 331.07, 337.07 329.78 C 337.04 328.49, 336.88 327.86, 336.37 327.13 C 335.87 326.40, 335.47 326.23, 334.55 326.15 C 333.64 326.07, 333.09 326.21, 331.81 326.72 C 330.54 327.23, 329.81 327.67, 328.19 328.71 C 326.58 329.74, 325.61 330.43, 323.74 331.91 C 321.88 333.39, 320.75 334.31, 318.88 336.10 C 317.00 337.89, 315.98 339.04, 314.37 340.86 C 312.76 342.68, 311.93 343.71, 310.83 345.18 C 309.73 346.65, 309.29 347.35, 308.86 348.20 C 308.43 349.05, 308.50 349.43, 308.68 349.44 C 308.87 349.46, 309.28 349.09, 309.80 348.27 C 310.31 347.45, 310.63 346.72, 311.26 345.34 C 311.89 343.97, 312.34 343.05, 312.96 341.40 C 313.57 339.75, 313.94 338.78, 314.34 337.11 C 314.73 335.43, 314.94 334.49, 314.92 333.02 C 314.91 331.55, 314.77 330.78, 314.26 329.75 C 313.76 328.73, 313.38 328.26, 312.40 327.88 C 311.42 327.50, 310.81 327.45, 309.35 327.85 C 307.90 328.24, 306.97 328.64, 305.11 329.84 C 303.25 331.03, 302.10 331.96, 300.06 333.83 C 298.02 335.70, 296.84 337.00, 294.92 339.18 C 292.99 341.37, 291.92 342.65, 290.44 344.77 C 288.97 346.88, 288.33 348.16, 287.56 349.75 C 286.78 351.34, 286.66 352.03, 286.58 352.71 C 286.51 353.38, 286.69 353.44, 287.18 353.13 C 287.67 352.82, 288.18 352.42, 289.02 351.14 C 289.86 349.86, 290.35 348.69, 291.39 346.74 C 292.44 344.80, 293.14 343.58, 294.24 341.41 C 295.34 339.25, 296.03 337.97, 296.89 335.91 C 297.75 333.86, 298.09 332.75, 298.55 331.14 C 299.01 329.52, 299.09 328.85, 299.18 327.85 C 299.28 326.85, 299.19 326.51, 299.03 326.15 C 298.86 325.79, 298.63 325.78, 298.36 326.04" style="stroke: white; fill: white;"/><path d="M 410.82,312.20 C 410.46 312.27, 410.17 312.35, 409.49 312.98 C 408.80 313.61, 408.41 314.07, 407.41 315.35 C 406.40 316.63, 405.79 317.48, 404.47 319.38 C 403.16 321.28, 402.48 322.48, 400.83 324.85 C 399.17 327.22, 398.20 328.65, 396.19 331.24 C 394.18 333.82, 392.92 335.25, 390.78 337.78 C 388.64 340.30, 387.43 341.64, 385.48 343.87 C 383.52 346.10, 382.52 347.20, 380.99 348.92 C 379.46 350.65, 378.78 351.58, 377.83 352.52 C 376.89 353.45, 376.66 353.51, 376.28 353.61 C 375.90 353.71, 376.05 353.38, 375.94 353.02 C 375.83 352.66, 375.94 352.04, 375.75 351.82 C 375.55 351.60, 375.09 351.61, 374.96 351.93 C 374.84 352.24, 374.86 352.89, 375.13 353.38 C 375.40 353.87, 375.61 354.34, 376.33 354.38 C 377.04 354.41, 377.53 354.42, 378.72 353.57 C 379.91 352.71, 380.66 351.80, 382.27 350.10 C 383.89 348.39, 384.84 347.27, 386.80 345.03 C 388.75 342.78, 389.90 341.40, 392.06 338.86 C 394.21 336.32, 395.48 334.89, 397.57 332.33 C 399.65 329.77, 400.74 328.38, 402.48 326.04 C 404.22 323.70, 404.94 322.53, 406.26 320.63 C 407.59 318.74, 408.23 317.91, 409.11 316.57 C 409.99 315.23, 410.22 314.70, 410.66 313.91 C 411.10 313.13, 411.26 312.99, 411.29 312.65 C 411.33 312.31, 411.18 312.13, 410.82 312.20" style="stroke: white; fill: white;"/><path d="M 407.49,309.90 C 407.09 310.42, 406.69 311.23, 406.26 312.71 C 405.83 314.19, 405.69 315.26, 405.34 317.32 C 404.99 319.37, 404.79 320.75, 404.50 322.98 C 404.20 325.21, 404.10 326.37, 403.86 328.47 C 403.62 330.57, 403.44 331.63, 403.30 333.48 C 403.15 335.33, 403.17 336.21, 403.13 337.73 C 403.09 339.25, 403.00 339.91, 403.11 341.08 C 403.22 342.25, 403.39 342.86, 403.67 343.58 C 403.95 344.30, 404.24 344.48, 404.49 344.67 C 404.75 344.85, 404.87 344.75, 404.94 344.48 C 405.00 344.21, 404.87 344.01, 404.82 343.32 C 404.78 342.62, 404.72 342.10, 404.71 341.00 C 404.70 339.89, 404.72 339.26, 404.79 337.78 C 404.86 336.31, 404.86 335.45, 405.05 333.64 C 405.24 331.83, 405.44 330.79, 405.75 328.72 C 406.06 326.65, 406.27 325.50, 406.61 323.28 C 406.95 321.07, 407.21 319.69, 407.47 317.64 C 407.73 315.59, 407.77 314.54, 407.92 313.03 C 408.07 311.53, 408.31 310.72, 408.22 310.10 C 408.14 309.47, 407.88 309.38, 407.49 309.90" style="stroke: white; fill: white;"/><path d="M 389.57,328.50 C 389.85 328.64, 390.03 328.57, 390.82 328.57 C 391.62 328.57, 392.05 328.57, 393.54 328.49 C 395.03 328.41, 396.14 328.31, 398.28 328.16 C 400.42 328.02, 401.80 327.87, 404.24 327.77 C 406.69 327.66, 408.08 327.69, 410.51 327.65 C 412.95 327.62, 414.38 327.65, 416.43 327.60 C 418.48 327.54, 419.41 327.45, 420.76 327.37 C 422.12 327.29, 422.70 327.33, 423.20 327.19 C 423.70 327.05, 423.73 326.89, 423.25 326.67 C 422.77 326.45, 422.17 326.26, 420.81 326.07 C 419.45 325.88, 418.50 325.82, 416.44 325.74 C 414.38 325.65, 412.96 325.66, 410.51 325.63 C 408.06 325.60, 406.66 325.56, 404.18 325.60 C 401.70 325.65, 400.30 325.69, 398.12 325.85 C 395.94 326.00, 394.81 326.11, 393.30 326.37 C 391.78 326.63, 391.33 326.85, 390.55 327.15 C 389.77 327.45, 389.59 327.61, 389.40 327.87 C 389.20 328.14, 389.28 328.36, 389.57 328.50" style="stroke: white; fill: white;"/><path d="M 516.53,309.09 C 516.40 308.69, 516.14 308.22, 515.42 307.70 C 514.69 307.19, 514.17 306.84, 512.92 306.51 C 511.68 306.18, 510.86 306.06, 509.19 306.06 C 507.51 306.06, 506.51 306.09, 504.53 306.50 C 502.55 306.91, 501.44 307.30, 499.30 308.09 C 497.15 308.88, 495.88 309.41, 493.80 310.46 C 491.71 311.52, 490.60 312.15, 488.86 313.35 C 487.11 314.55, 486.30 315.18, 485.08 316.47 C 483.85 317.76, 483.29 318.46, 482.72 319.79 C 482.15 321.13, 482.02 321.79, 482.23 323.16 C 482.43 324.54, 482.74 325.34, 483.74 326.66 C 484.75 327.98, 485.57 328.63, 487.26 329.77 C 488.95 330.92, 490.12 331.36, 492.19 332.37 C 494.26 333.38, 495.49 333.84, 497.61 334.82 C 499.74 335.80, 500.91 336.34, 502.82 337.27 C 504.74 338.21, 505.70 338.63, 507.20 339.50 C 508.70 340.37, 509.38 340.78, 510.33 341.60 C 511.27 342.42, 511.63 342.84, 511.93 343.59 C 512.23 344.34, 512.18 344.65, 511.84 345.35 C 511.49 346.05, 511.13 346.40, 510.18 347.09 C 509.24 347.79, 508.56 348.17, 507.10 348.83 C 505.65 349.49, 504.74 349.84, 502.92 350.40 C 501.10 350.95, 500.03 351.20, 497.99 351.61 C 495.94 352.02, 494.85 352.22, 492.71 352.45 C 490.56 352.68, 489.38 352.71, 487.27 352.76 C 485.16 352.81, 484.05 352.79, 482.17 352.70 C 480.28 352.61, 479.41 352.49, 477.83 352.31 C 476.25 352.12, 475.39 351.97, 474.28 351.77 C 473.16 351.58, 472.87 351.48, 472.25 351.34 C 471.64 351.20, 471.45 351.03, 471.20 351.05 C 470.94 351.07, 470.84 351.18, 470.97 351.42 C 471.10 351.67, 471.25 351.92, 471.83 352.30 C 472.42 352.68, 472.75 352.98, 473.90 353.33 C 475.06 353.68, 475.97 353.81, 477.61 354.04 C 479.24 354.28, 480.13 354.37, 482.07 354.49 C 484.01 354.61, 485.14 354.68, 487.31 354.65 C 489.48 354.62, 490.69 354.57, 492.90 354.35 C 495.11 354.13, 496.24 353.93, 498.36 353.53 C 500.48 353.13, 501.58 352.92, 503.51 352.35 C 505.43 351.78, 506.42 351.45, 507.98 350.67 C 509.55 349.89, 510.31 349.43, 511.34 348.47 C 512.36 347.51, 512.75 346.93, 513.12 345.87 C 513.48 344.81, 513.51 344.23, 513.16 343.15 C 512.82 342.08, 512.40 341.50, 511.38 340.48 C 510.37 339.46, 509.63 339.01, 508.09 338.03 C 506.54 337.06, 505.59 336.61, 503.67 335.60 C 501.74 334.60, 500.58 334.03, 498.47 333.01 C 496.35 331.99, 495.12 331.50, 493.09 330.51 C 491.07 329.53, 489.95 329.08, 488.35 328.09 C 486.74 327.10, 486.02 326.59, 485.08 325.56 C 484.13 324.52, 483.84 323.95, 483.64 322.92 C 483.43 321.89, 483.52 321.45, 484.05 320.40 C 484.57 319.34, 485.09 318.75, 486.25 317.65 C 487.42 316.55, 488.19 315.97, 489.88 314.89 C 491.56 313.81, 492.66 313.23, 494.68 312.26 C 496.71 311.28, 497.95 310.76, 500.00 310.01 C 502.06 309.26, 503.10 308.87, 504.94 308.49 C 506.78 308.12, 507.68 308.14, 509.19 308.13 C 510.70 308.12, 511.39 308.25, 512.49 308.44 C 513.58 308.64, 513.95 308.87, 514.66 309.12 C 515.38 309.36, 515.69 309.70, 516.07 309.69 C 516.44 309.69, 516.66 309.49, 516.53 309.09" style="stroke: white; fill: white;"/><path d="M 551.81,335.39 C 551.72 335.07, 551.62 334.70, 550.98 334.35 C 550.35 333.99, 549.81 333.80, 548.64 333.61 C 547.47 333.41, 546.73 333.26, 545.14 333.38 C 543.55 333.49, 542.62 333.68, 540.68 334.19 C 538.75 334.69, 537.54 335.02, 535.47 335.90 C 533.40 336.79, 532.28 337.47, 530.34 338.62 C 528.39 339.78, 527.35 340.39, 525.74 341.69 C 524.12 342.99, 523.29 343.76, 522.25 345.12 C 521.22 346.48, 520.87 347.21, 520.57 348.48 C 520.28 349.76, 520.32 350.41, 520.77 351.49 C 521.22 352.57, 521.62 353.18, 522.80 353.90 C 523.98 354.61, 524.87 354.92, 526.66 355.08 C 528.44 355.25, 529.58 355.14, 531.72 354.72 C 533.87 354.30, 535.14 353.89, 537.38 352.99 C 539.62 352.10, 540.86 351.44, 542.93 350.23 C 545.01 349.03, 546.02 348.30, 547.76 346.97 C 549.50 345.63, 550.33 344.93, 551.63 343.54 C 552.92 342.16, 553.49 341.39, 554.24 340.04 C 554.98 338.68, 555.20 337.90, 555.35 336.77 C 555.50 335.64, 555.18 334.86, 554.98 334.38 C 554.78 333.90, 554.53 333.97, 554.35 334.39 C 554.16 334.81, 554.36 335.52, 554.05 336.49 C 553.75 337.45, 553.56 338.04, 552.83 339.21 C 552.09 340.39, 551.62 341.10, 550.39 342.36 C 549.15 343.62, 548.35 344.27, 546.67 345.51 C 544.98 346.75, 543.98 347.43, 541.97 348.54 C 539.96 349.66, 538.76 350.26, 536.63 351.08 C 534.50 351.91, 533.28 352.27, 531.31 352.68 C 529.34 353.09, 528.33 353.18, 526.78 353.14 C 525.23 353.10, 524.52 352.91, 523.56 352.48 C 522.60 352.05, 522.30 351.70, 521.97 350.97 C 521.65 350.25, 521.61 349.82, 521.92 348.86 C 522.24 347.90, 522.56 347.32, 523.56 346.18 C 524.55 345.03, 525.32 344.32, 526.88 343.15 C 528.43 341.98, 529.45 341.40, 531.33 340.33 C 533.21 339.26, 534.30 338.63, 536.27 337.81 C 538.25 336.99, 539.41 336.68, 541.21 336.21 C 543.01 335.75, 543.86 335.59, 545.29 335.48 C 546.73 335.38, 547.35 335.62, 548.39 335.69 C 549.44 335.76, 549.89 335.77, 550.50 335.82 C 551.12 335.87, 551.19 336.03, 551.46 335.94 C 551.72 335.85, 551.91 335.70, 551.81 335.39" style="stroke: white; fill: white;"/><path d="M 589.49,309.98 C 589.39 309.58, 589.17 308.95, 588.46 308.52 C 587.74 308.10, 587.13 307.84, 585.92 307.85 C 584.72 307.87, 583.87 307.93, 582.41 308.60 C 580.96 309.27, 580.25 309.89, 578.67 311.22 C 577.08 312.55, 576.20 313.39, 574.50 315.25 C 572.79 317.12, 571.84 318.28, 570.14 320.54 C 568.45 322.80, 567.62 324.10, 566.02 326.54 C 564.43 328.99, 563.54 330.30, 562.16 332.77 C 560.79 335.25, 560.21 336.57, 559.16 338.92 C 558.11 341.27, 557.64 342.45, 556.91 344.51 C 556.18 346.58, 555.92 347.58, 555.51 349.23 C 555.10 350.88, 555.09 351.64, 554.87 352.76 C 554.65 353.88, 554.50 354.17, 554.40 354.82 C 554.31 355.46, 554.38 355.70, 554.39 356.00 C 554.41 356.29, 554.43 356.22, 554.49 356.31 C 554.55 356.39, 554.57 356.44, 554.69 356.42 C 554.81 356.40, 554.92 356.46, 555.10 356.21 C 555.28 355.95, 555.37 355.76, 555.61 355.13 C 555.85 354.51, 556.00 354.19, 556.29 353.09 C 556.59 351.99, 556.65 351.25, 557.09 349.65 C 557.54 348.05, 557.79 347.10, 558.53 345.10 C 559.27 343.11, 559.74 341.95, 560.80 339.67 C 561.85 337.38, 562.44 336.10, 563.80 333.69 C 565.16 331.27, 566.01 329.97, 567.60 327.58 C 569.19 325.20, 570.07 323.95, 571.76 321.77 C 573.44 319.58, 574.38 318.45, 576.03 316.65 C 577.67 314.85, 578.54 314.03, 579.99 312.77 C 581.44 311.52, 582.07 310.99, 583.27 310.38 C 584.48 309.78, 585.11 309.83, 586.02 309.74 C 586.93 309.65, 587.24 309.76, 587.82 309.92 C 588.41 310.08, 588.61 310.53, 588.94 310.55 C 589.28 310.56, 589.59 310.39, 589.49 309.98" style="stroke: white; fill: white;"/><path d="M 551.81,337.35 C 552.21 337.54, 552.60 337.66, 553.72 337.62 C 554.84 337.59, 555.82 337.40, 557.40 337.17 C 558.97 336.94, 559.80 336.76, 561.59 336.46 C 563.39 336.17, 564.46 336.00, 566.38 335.70 C 568.30 335.41, 569.46 335.27, 571.19 335.00 C 572.92 334.74, 573.80 334.61, 575.04 334.39 C 576.27 334.17, 576.68 334.09, 577.36 333.91 C 578.05 333.73, 578.24 333.70, 578.45 333.48 C 578.66 333.27, 578.50 333.00, 578.41 332.86 C 578.32 332.71, 578.07 332.68, 578.00 332.77 C 577.93 332.86, 578.01 333.24, 578.06 333.31 C 578.12 333.39, 578.24 333.25, 578.28 333.16 C 578.33 333.08, 578.50 332.98, 578.29 332.88 C 578.08 332.77, 577.91 332.68, 577.22 332.66 C 576.53 332.63, 576.09 332.66, 574.84 332.74 C 573.58 332.82, 572.69 332.87, 570.94 333.06 C 569.19 333.25, 568.02 333.42, 566.09 333.68 C 564.15 333.94, 563.08 334.10, 561.27 334.37 C 559.46 334.64, 558.59 334.70, 557.03 335.01 C 555.46 335.32, 554.49 335.59, 553.43 335.92 C 552.37 336.26, 552.04 336.40, 551.72 336.68 C 551.39 336.97, 551.41 337.17, 551.81 337.35" style="stroke: white; fill: white;"/><path d="M 608.66,304.49 C 608.20 304.72, 607.78 305.13, 606.93 306.06 C 606.07 306.98, 605.49 307.58, 604.37 309.11 C 603.25 310.63, 602.53 311.68, 601.32 313.70 C 600.11 315.72, 599.55 316.95, 598.33 319.21 C 597.11 321.48, 596.45 322.69, 595.24 325.03 C 594.03 327.37, 593.41 328.67, 592.30 330.92 C 591.19 333.18, 590.61 334.34, 589.69 336.31 C 588.76 338.28, 588.32 339.24, 587.67 340.78 C 587.02 342.33, 586.79 342.96, 586.45 344.03 C 586.11 345.10, 586.04 345.50, 585.98 346.13 C 585.91 346.77, 586.01 346.98, 586.12 347.21 C 586.23 347.43, 586.37 347.42, 586.53 347.26 C 586.69 347.09, 586.66 346.93, 586.92 346.39 C 587.17 345.84, 587.34 345.54, 587.79 344.55 C 588.25 343.56, 588.47 342.94, 589.17 341.45 C 589.88 339.96, 590.34 339.03, 591.31 337.09 C 592.27 335.15, 592.85 334.00, 593.98 331.76 C 595.11 329.53, 595.73 328.24, 596.96 325.92 C 598.18 323.61, 598.86 322.41, 600.10 320.19 C 601.34 317.96, 601.97 316.79, 603.17 314.81 C 604.37 312.84, 605.10 311.86, 606.11 310.30 C 607.12 308.74, 607.60 308.10, 608.22 307.02 C 608.85 305.95, 609.16 305.44, 609.25 304.93 C 609.33 304.43, 609.13 304.27, 608.66 304.49" style="stroke: white; fill: white;"/><path d="M 588.49,329.54 C 588.85 329.69, 589.20 329.66, 590.14 329.60 C 591.08 329.54, 591.76 329.48, 593.20 329.26 C 594.63 329.04, 595.57 328.81, 597.31 328.51 C 599.05 328.21, 600.10 328.07, 601.91 327.76 C 603.73 327.46, 604.76 327.30, 606.38 326.98 C 608.00 326.67, 608.84 326.46, 610.01 326.17 C 611.17 325.88, 611.77 325.79, 612.20 325.55 C 612.63 325.31, 612.62 325.13, 612.15 324.97 C 611.67 324.81, 611.04 324.73, 609.82 324.75 C 608.61 324.77, 607.73 324.88, 606.08 325.08 C 604.44 325.27, 603.43 325.48, 601.60 325.72 C 599.77 325.97, 598.71 326.03, 596.95 326.31 C 595.18 326.59, 594.21 326.78, 592.78 327.12 C 591.35 327.46, 590.68 327.67, 589.79 328.02 C 588.89 328.37, 588.58 328.57, 588.32 328.87 C 588.06 329.18, 588.13 329.40, 588.49 329.54" style="stroke: white; fill: white;"/><path d="M 623.71,326.14 C 623.33 326.26, 622.95 326.43, 622.31 327.17 C 621.68 327.90, 621.24 328.53, 620.52 329.81 C 619.80 331.09, 619.41 332.00, 618.72 333.57 C 618.03 335.13, 617.66 336.11, 617.08 337.62 C 616.50 339.13, 616.13 339.87, 615.84 341.11 C 615.55 342.36, 615.48 342.99, 615.63 343.84 C 615.79 344.68, 616.04 345.05, 616.62 345.35 C 617.20 345.65, 617.65 345.62, 618.53 345.34 C 619.41 345.05, 619.91 344.77, 621.04 343.92 C 622.16 343.07, 622.87 342.36, 624.15 341.07 C 625.42 339.78, 626.05 338.86, 627.42 337.46 C 628.79 336.05, 629.64 335.34, 630.99 334.04 C 632.33 332.73, 633.18 331.91, 634.16 330.94 C 635.14 329.97, 635.45 329.47, 635.88 329.17 C 636.31 328.87, 636.33 329.02, 636.32 329.43 C 636.31 329.84, 636.04 330.26, 635.82 331.23 C 635.59 332.20, 635.37 332.98, 635.18 334.28 C 634.99 335.58, 634.94 336.43, 634.87 337.74 C 634.79 339.06, 634.71 339.71, 634.80 340.85 C 634.89 341.98, 634.99 342.52, 635.33 343.40 C 635.67 344.27, 635.91 344.70, 636.51 345.22 C 637.11 345.74, 637.49 345.89, 638.33 346.00 C 639.18 346.10, 639.70 346.07, 640.73 345.73 C 641.77 345.40, 642.33 345.13, 643.51 344.31 C 644.69 343.48, 645.31 342.87, 646.62 341.60 C 647.94 340.34, 648.68 339.53, 650.07 337.97 C 651.46 336.40, 652.25 335.44, 653.58 333.77 C 654.90 332.11, 655.53 331.17, 656.67 329.64 C 657.82 328.11, 658.38 327.38, 659.31 326.11 C 660.23 324.84, 660.70 324.20, 661.30 323.29 C 661.90 322.38, 662.19 321.97, 662.31 321.55 C 662.43 321.13, 662.30 321.01, 661.89 321.19 C 661.49 321.37, 661.08 321.68, 660.28 322.45 C 659.49 323.22, 658.95 323.82, 657.93 325.03 C 656.91 326.24, 656.39 327.02, 655.20 328.51 C 654.02 330.01, 653.36 330.90, 652.02 332.51 C 650.68 334.12, 649.87 335.04, 648.50 336.56 C 647.13 338.08, 646.40 338.88, 645.16 340.10 C 643.92 341.33, 643.33 341.90, 642.32 342.69 C 641.30 343.48, 640.86 343.68, 640.08 344.05 C 639.30 344.42, 638.94 344.49, 638.40 344.53 C 637.87 344.56, 637.72 344.57, 637.40 344.25 C 637.08 343.93, 636.97 343.61, 636.80 342.92 C 636.62 342.22, 636.52 341.78, 636.55 340.79 C 636.58 339.80, 636.75 339.20, 636.94 337.96 C 637.13 336.72, 637.35 335.90, 637.50 334.58 C 637.66 333.27, 637.76 332.48, 637.70 331.38 C 637.64 330.28, 637.62 329.72, 637.20 329.08 C 636.77 328.45, 636.42 328.13, 635.58 328.23 C 634.74 328.33, 634.20 328.72, 633.01 329.58 C 631.81 330.45, 631.02 331.28, 629.60 332.55 C 628.18 333.83, 627.33 334.58, 625.92 335.97 C 624.51 337.35, 623.80 338.22, 622.54 339.48 C 621.29 340.75, 620.59 341.38, 619.65 342.29 C 618.71 343.19, 618.36 343.53, 617.83 343.99 C 617.29 344.45, 617.15 344.62, 616.96 344.58 C 616.77 344.55, 616.77 344.39, 616.87 343.80 C 616.98 343.20, 617.09 342.70, 617.51 341.62 C 617.92 340.54, 618.30 339.83, 618.96 338.41 C 619.62 336.99, 620.10 336.03, 620.81 334.51 C 621.52 332.99, 621.92 332.11, 622.50 330.81 C 623.08 329.52, 623.35 328.88, 623.70 328.03 C 624.05 327.19, 624.25 326.95, 624.25 326.57 C 624.26 326.19, 624.10 326.02, 623.71 326.14" style="stroke: white; fill: white;"/><path d="M 694.54,323.60 C 694.28 323.39, 693.97 323.26, 693.23 323.25 C 692.48 323.23, 692.12 323.16, 690.83 323.54 C 689.55 323.91, 688.59 324.24, 686.81 325.14 C 685.03 326.04, 683.99 326.75, 681.93 328.05 C 679.87 329.36, 678.59 330.14, 676.51 331.67 C 674.44 333.20, 673.33 334.10, 671.56 335.70 C 669.80 337.30, 668.86 338.19, 667.68 339.68 C 666.50 341.18, 666.06 341.94, 665.65 343.17 C 665.25 344.40, 665.29 344.95, 665.64 345.83 C 666.00 346.71, 666.43 347.12, 667.44 347.56 C 668.44 348.01, 669.17 348.15, 670.65 348.06 C 672.12 347.96, 673.02 347.71, 674.81 347.10 C 676.61 346.50, 677.67 346.04, 679.63 345.04 C 681.60 344.03, 682.62 343.39, 684.63 342.08 C 686.64 340.77, 687.73 339.98, 689.69 338.48 C 691.66 336.98, 692.71 336.12, 694.45 334.60 C 696.20 333.08, 697.12 332.28, 698.42 330.88 C 699.72 329.48, 700.37 328.61, 700.95 327.62 C 701.53 326.62, 701.53 326.21, 701.32 325.89 C 701.12 325.58, 700.68 325.59, 699.92 326.03 C 699.16 326.47, 698.45 326.99, 697.50 328.10 C 696.56 329.21, 696.06 330.09, 695.17 331.59 C 694.29 333.10, 693.84 334.03, 693.07 335.62 C 692.30 337.21, 691.84 338.07, 691.33 339.53 C 690.82 340.98, 690.64 341.66, 690.51 342.91 C 690.39 344.15, 690.52 344.82, 690.72 345.73 C 690.92 346.64, 691.12 346.97, 691.51 347.46 C 691.89 347.95, 692.34 348.11, 692.65 348.16 C 692.95 348.22, 693.07 347.99, 693.04 347.74 C 693.01 347.48, 692.65 347.33, 692.48 346.88 C 692.31 346.43, 692.26 346.25, 692.19 345.49 C 692.12 344.74, 691.97 344.17, 692.13 343.11 C 692.30 342.04, 692.46 341.48, 693.01 340.18 C 693.57 338.87, 694.07 338.05, 694.90 336.57 C 695.73 335.10, 696.27 334.21, 697.15 332.79 C 698.04 331.37, 698.59 330.63, 699.33 329.46 C 700.08 328.29, 700.52 327.67, 700.88 326.96 C 701.23 326.25, 701.32 325.94, 701.11 325.90 C 700.91 325.85, 700.66 326.01, 699.86 326.75 C 699.06 327.49, 698.44 328.31, 697.11 329.59 C 695.78 330.87, 694.93 331.69, 693.21 333.16 C 691.49 334.63, 690.45 335.47, 688.52 336.92 C 686.58 338.37, 685.51 339.16, 683.55 340.41 C 681.59 341.67, 680.60 342.27, 678.71 343.21 C 676.83 344.15, 675.79 344.53, 674.13 345.12 C 672.47 345.71, 671.68 345.93, 670.43 346.15 C 669.18 346.37, 668.64 346.36, 667.88 346.22 C 667.12 346.08, 666.80 345.95, 666.61 345.45 C 666.41 344.94, 666.42 344.61, 666.90 343.68 C 667.37 342.75, 667.81 342.10, 669.00 340.79 C 670.18 339.49, 671.09 338.63, 672.84 337.14 C 674.58 335.65, 675.67 334.79, 677.72 333.34 C 679.77 331.90, 681.07 331.17, 683.10 329.93 C 685.12 328.68, 686.16 328.04, 687.85 327.14 C 689.53 326.24, 690.41 325.93, 691.53 325.43 C 692.65 324.92, 692.84 324.85, 693.44 324.63 C 694.04 324.40, 694.31 324.51, 694.53 324.31 C 694.74 324.11, 694.80 323.82, 694.54 323.60" style="stroke: white; fill: white;"/><path d="M 715.02,327.61 C 714.72 327.82, 714.55 328.12, 714.20 328.84 C 713.85 329.56, 713.70 330.12, 713.27 331.21 C 712.83 332.30, 712.53 333.03, 712.01 334.29 C 711.50 335.56, 711.19 336.34, 710.69 337.52 C 710.19 338.69, 709.88 339.26, 709.53 340.16 C 709.18 341.06, 708.96 341.49, 708.93 342.01 C 708.91 342.54, 709.05 342.75, 709.41 342.77 C 709.76 342.79, 710.12 342.65, 710.73 342.12 C 711.33 341.58, 711.65 341.13, 712.41 340.09 C 713.17 339.05, 713.54 338.27, 714.53 336.90 C 715.52 335.53, 716.15 334.64, 717.36 333.22 C 718.57 331.80, 719.28 331.03, 720.57 329.80 C 721.86 328.57, 722.58 327.95, 723.82 327.05 C 725.07 326.15, 725.69 325.79, 726.81 325.29 C 727.92 324.78, 728.39 324.67, 729.39 324.52 C 730.39 324.38, 730.85 324.45, 731.81 324.54 C 732.78 324.64, 733.33 324.89, 734.22 325.00 C 735.10 325.10, 735.80 325.20, 736.25 325.07 C 736.69 324.93, 736.77 324.67, 736.44 324.33 C 736.11 323.99, 735.48 323.69, 734.58 323.39 C 733.68 323.09, 733.04 322.92, 731.96 322.85 C 730.87 322.77, 730.31 322.81, 729.15 323.00 C 727.99 323.20, 727.44 323.30, 726.17 323.82 C 724.91 324.33, 724.20 324.68, 722.82 325.59 C 721.43 326.50, 720.67 327.12, 719.26 328.37 C 717.85 329.62, 717.08 330.39, 715.77 331.82 C 714.46 333.26, 713.76 334.16, 712.71 335.56 C 711.66 336.96, 711.19 337.71, 710.51 338.82 C 709.82 339.93, 709.58 340.39, 709.30 341.12 C 709.02 341.85, 708.97 342.18, 709.08 342.46 C 709.20 342.74, 709.45 342.80, 709.86 342.51 C 710.27 342.21, 710.61 341.81, 711.14 340.99 C 711.68 340.16, 711.94 339.54, 712.53 338.38 C 713.12 337.21, 713.54 336.47, 714.10 335.18 C 714.67 333.89, 715.02 333.10, 715.35 331.92 C 715.69 330.74, 715.72 330.10, 715.79 329.28 C 715.86 328.45, 715.86 328.13, 715.70 327.80 C 715.55 327.46, 715.32 327.40, 715.02 327.61" style="stroke: white; fill: white;"/><path d="M 745.25,339.18 C 745.62 339.15, 745.86 338.88, 746.66 338.48 C 747.45 338.07, 747.99 337.87, 749.23 337.17 C 750.47 336.47, 751.32 335.91, 752.85 334.97 C 754.39 334.04, 755.29 333.49, 756.91 332.49 C 758.54 331.48, 759.54 330.93, 760.98 329.94 C 762.42 328.95, 763.14 328.48, 764.12 327.53 C 765.10 326.57, 765.56 326.08, 765.87 325.17 C 766.17 324.26, 766.07 323.68, 765.64 322.97 C 765.20 322.26, 764.78 321.90, 763.71 321.62 C 762.63 321.33, 761.86 321.27, 760.27 321.54 C 758.68 321.81, 757.64 322.15, 755.76 322.97 C 753.88 323.79, 752.78 324.40, 750.87 325.64 C 748.95 326.88, 747.92 327.68, 746.17 329.17 C 744.42 330.66, 743.43 331.51, 742.11 333.10 C 740.79 334.69, 740.18 335.56, 739.57 337.11 C 738.95 338.66, 738.82 339.49, 739.03 340.84 C 739.24 342.20, 739.60 342.86, 740.63 343.88 C 741.66 344.90, 742.39 345.30, 744.19 345.94 C 745.99 346.58, 747.19 346.82, 749.63 347.07 C 752.08 347.33, 753.61 347.36, 756.41 347.24 C 759.21 347.12, 760.94 346.87, 763.63 346.47 C 766.32 346.08, 767.83 345.79, 769.85 345.26 C 771.87 344.73, 772.98 344.22, 773.73 343.81 C 774.47 343.39, 774.41 343.21, 773.57 343.19 C 772.74 343.18, 771.60 343.49, 769.56 343.74 C 767.52 343.98, 766.02 344.15, 763.37 344.42 C 760.73 344.69, 759.03 344.98, 756.32 345.10 C 753.61 345.21, 752.14 345.17, 749.83 344.99 C 747.51 344.80, 746.39 344.61, 744.75 344.17 C 743.10 343.73, 742.49 343.50, 741.61 342.80 C 740.73 342.09, 740.49 341.67, 740.37 340.66 C 740.25 339.65, 740.39 339.02, 741.02 337.75 C 741.64 336.48, 742.21 335.72, 743.50 334.31 C 744.78 332.90, 745.74 332.08, 747.44 330.69 C 749.14 329.31, 750.14 328.54, 751.98 327.40 C 753.82 326.25, 754.88 325.73, 756.63 324.97 C 758.37 324.20, 759.34 323.93, 760.71 323.57 C 762.07 323.21, 762.66 323.17, 763.47 323.17 C 764.28 323.17, 764.50 323.27, 764.76 323.57 C 765.01 323.87, 765.09 324.13, 764.75 324.67 C 764.40 325.21, 764.00 325.55, 763.04 326.28 C 762.07 327.01, 761.37 327.45, 759.93 328.33 C 758.49 329.21, 757.48 329.73, 755.84 330.68 C 754.19 331.63, 753.25 332.13, 751.70 333.06 C 750.15 334.00, 749.28 334.52, 748.09 335.35 C 746.89 336.17, 746.39 336.54, 745.73 337.20 C 745.06 337.86, 744.86 338.26, 744.77 338.66 C 744.67 339.06, 744.87 339.22, 745.25 339.18" style="stroke: white; fill: white;"/><path d="M 851.19,306.88 C 850.89 307.12, 850.75 307.40, 850.33 308.28 C 849.90 309.16, 849.69 309.77, 849.06 311.27 C 848.43 312.78, 848.10 313.81, 847.18 315.81 C 846.26 317.80, 845.63 319.01, 844.46 321.24 C 843.28 323.47, 842.64 324.72, 841.30 326.95 C 839.96 329.18, 839.10 330.33, 837.76 332.40 C 836.42 334.47, 835.75 335.55, 834.60 337.31 C 833.45 339.07, 832.84 339.87, 832.00 341.18 C 831.15 342.49, 830.80 343.06, 830.36 343.85 C 829.93 344.65, 829.90 344.84, 829.81 345.15 C 829.71 345.45, 829.85 345.32, 829.87 345.38 C 829.90 345.44, 829.84 345.43, 829.92 345.46 C 829.99 345.49, 829.95 345.70, 830.26 345.54 C 830.57 345.38, 830.85 345.33, 831.47 344.64 C 832.08 343.96, 832.43 343.38, 833.35 342.11 C 834.27 340.84, 834.88 340.04, 836.08 338.31 C 837.28 336.57, 837.95 335.50, 839.33 333.44 C 840.72 331.37, 841.59 330.22, 842.99 327.98 C 844.38 325.74, 845.05 324.48, 846.30 322.24 C 847.54 319.99, 848.25 318.79, 849.20 316.75 C 850.16 314.70, 850.54 313.61, 851.06 312.01 C 851.58 310.41, 851.65 309.73, 851.80 308.74 C 851.96 307.75, 851.96 307.44, 851.83 307.06 C 851.71 306.69, 851.49 306.63, 851.19 306.88" style="stroke: white; fill: white;"/><path d="M 833.85,305.01 C 834.21 304.74, 834.33 304.18, 834.96 303.36 C 835.59 302.55, 835.85 301.94, 837.00 300.94 C 838.15 299.95, 838.90 299.28, 840.71 298.38 C 842.51 297.48, 843.62 297.02, 846.03 296.43 C 848.43 295.85, 849.93 295.61, 852.72 295.44 C 855.51 295.28, 857.10 295.34, 859.96 295.61 C 862.82 295.89, 864.36 296.09, 867.02 296.81 C 869.69 297.53, 871.05 298.05, 873.29 299.20 C 875.52 300.35, 876.58 301.08, 878.18 302.56 C 879.78 304.05, 880.43 304.86, 881.30 306.62 C 882.18 308.38, 882.42 309.37, 882.54 311.38 C 882.67 313.39, 882.57 314.48, 881.92 316.67 C 881.27 318.86, 880.67 320.03, 879.29 322.33 C 877.91 324.63, 876.98 325.90, 875.02 328.17 C 873.07 330.44, 871.90 331.58, 869.50 333.70 C 867.09 335.83, 865.71 336.90, 863.01 338.80 C 860.31 340.69, 858.74 341.64, 855.98 343.18 C 853.23 344.73, 851.72 345.37, 849.22 346.52 C 846.72 347.68, 845.51 348.17, 843.49 348.96 C 841.46 349.75, 840.52 350.05, 839.09 350.47 C 837.65 350.89, 837.09 350.87, 836.31 351.08 C 835.54 351.30, 835.44 351.43, 835.21 351.55 C 834.98 351.67, 835.09 351.59, 835.16 351.68 C 835.24 351.77, 835.37 351.92, 835.60 352.01 C 835.82 352.10, 836.07 352.21, 836.28 352.14 C 836.49 352.06, 836.59 351.86, 836.66 351.62 C 836.72 351.38, 836.71 351.16, 836.59 350.92 C 836.47 350.67, 836.29 350.52, 836.06 350.38 C 835.83 350.24, 835.66 350.23, 835.46 350.21 C 835.26 350.19, 835.18 350.14, 835.06 350.28 C 834.94 350.42, 834.92 350.64, 834.87 350.92 C 834.81 351.19, 834.72 351.40, 834.79 351.66 C 834.86 351.93, 834.87 352.12, 835.21 352.24 C 835.55 352.36, 835.66 352.33, 836.51 352.28 C 837.37 352.22, 837.96 352.29, 839.47 351.94 C 840.98 351.59, 841.98 351.29, 844.07 350.53 C 846.17 349.77, 847.43 349.32, 849.97 348.14 C 852.52 346.96, 854.01 346.22, 856.80 344.61 C 859.59 343.01, 861.17 342.05, 863.93 340.11 C 866.69 338.18, 868.10 337.10, 870.58 334.95 C 873.07 332.79, 874.29 331.66, 876.36 329.34 C 878.43 327.01, 879.48 325.75, 880.94 323.32 C 882.39 320.88, 882.99 319.57, 883.65 317.16 C 884.30 314.75, 884.39 313.52, 884.21 311.27 C 884.04 309.01, 883.73 307.89, 882.75 305.90 C 881.78 303.92, 881.06 303.00, 879.33 301.35 C 877.60 299.69, 876.47 298.89, 874.11 297.63 C 871.75 296.37, 870.30 295.82, 867.50 295.05 C 864.71 294.28, 863.12 294.09, 860.15 293.78 C 857.17 293.47, 855.54 293.35, 852.62 293.48 C 849.70 293.62, 848.12 293.84, 845.55 294.45 C 842.98 295.06, 841.76 295.52, 839.77 296.53 C 837.79 297.53, 836.87 298.26, 835.64 299.46 C 834.40 300.66, 834.08 301.48, 833.59 302.54 C 833.09 303.59, 833.11 304.24, 833.16 304.74 C 833.21 305.23, 833.49 305.29, 833.85 305.01" style="stroke: white; fill: white;"/><path d="M 881.79,340.47 C 882.04 340.64, 882.21 340.70, 882.92 340.70 C 883.63 340.69, 884.09 340.73, 885.35 340.43 C 886.60 340.14, 887.55 339.83, 889.18 339.22 C 890.81 338.60, 891.77 338.15, 893.49 337.36 C 895.21 336.57, 896.18 336.08, 897.79 335.26 C 899.41 334.44, 900.28 334.03, 901.58 333.25 C 902.88 332.46, 903.49 332.13, 904.29 331.34 C 905.09 330.55, 905.39 330.11, 905.59 329.30 C 905.79 328.49, 905.76 327.98, 905.28 327.30 C 904.79 326.61, 904.29 326.23, 903.14 325.87 C 901.99 325.50, 901.15 325.39, 899.52 325.49 C 897.89 325.59, 896.94 325.79, 895.01 326.37 C 893.08 326.94, 891.94 327.40, 889.86 328.39 C 887.78 329.37, 886.57 330.03, 884.61 331.28 C 882.65 332.54, 881.65 333.29, 880.08 334.67 C 878.50 336.05, 877.75 336.78, 876.72 338.19 C 875.70 339.59, 875.31 340.34, 874.97 341.70 C 874.63 343.07, 874.61 343.80, 875.02 345.01 C 875.43 346.22, 875.80 346.81, 877.03 347.74 C 878.25 348.67, 879.22 349.12, 881.13 349.65 C 883.05 350.18, 884.24 350.29, 886.58 350.39 C 888.93 350.48, 890.27 350.36, 892.87 350.12 C 895.47 349.89, 896.96 349.74, 899.59 349.22 C 902.21 348.70, 903.74 348.22, 906.02 347.52 C 908.29 346.82, 909.38 346.36, 910.97 345.71 C 912.55 345.06, 913.06 344.78, 913.95 344.28 C 914.84 343.78, 915.08 343.55, 915.42 343.21 C 915.75 342.86, 915.62 342.70, 915.62 342.54 C 915.62 342.37, 915.53 342.38, 915.41 342.39 C 915.28 342.40, 915.40 342.44, 915.00 342.58 C 914.60 342.73, 914.33 342.78, 913.41 343.09 C 912.49 343.41, 911.99 343.65, 910.40 344.17 C 908.82 344.69, 907.72 345.07, 905.48 345.68 C 903.24 346.30, 901.76 346.77, 899.20 347.25 C 896.65 347.74, 895.20 347.90, 892.69 348.12 C 890.18 348.33, 888.87 348.42, 886.66 348.34 C 884.45 348.26, 883.36 348.12, 881.62 347.72 C 879.88 347.33, 879.03 347.00, 877.96 346.37 C 876.89 345.73, 876.61 345.41, 876.29 344.56 C 875.98 343.71, 876.03 343.17, 876.38 342.10 C 876.73 341.03, 877.06 340.40, 878.04 339.19 C 879.01 337.98, 879.74 337.31, 881.26 336.07 C 882.79 334.83, 883.78 334.13, 885.67 332.97 C 887.57 331.81, 888.75 331.19, 890.74 330.27 C 892.73 329.35, 893.82 328.91, 895.61 328.37 C 897.40 327.83, 898.26 327.72, 899.69 327.57 C 901.11 327.43, 901.81 327.54, 902.75 327.64 C 903.69 327.75, 904.04 327.82, 904.39 328.08 C 904.74 328.34, 904.73 328.51, 904.51 328.94 C 904.30 329.36, 904.07 329.66, 903.31 330.21 C 902.56 330.76, 901.99 331.04, 900.72 331.70 C 899.44 332.35, 898.56 332.75, 896.94 333.49 C 895.32 334.23, 894.35 334.69, 892.64 335.40 C 890.92 336.11, 889.95 336.45, 888.36 337.04 C 886.77 337.62, 885.85 337.89, 884.70 338.33 C 883.54 338.78, 883.19 338.97, 882.59 339.27 C 881.98 339.57, 881.84 339.60, 881.68 339.85 C 881.53 340.09, 881.54 340.30, 881.79 340.47" style="stroke: white; fill: white;"/><path d="M 929.98,324.87 C 929.72 325.02, 929.67 325.17, 929.35 325.75 C 929.03 326.34, 928.85 326.72, 928.38 327.80 C 927.91 328.88, 927.59 329.66, 927.02 331.16 C 926.44 332.65, 926.04 333.63, 925.52 335.27 C 925.01 336.91, 924.79 337.82, 924.43 339.37 C 924.06 340.92, 923.79 341.70, 923.69 343.01 C 923.59 344.31, 923.64 345.03, 923.93 345.89 C 924.22 346.76, 924.47 347.12, 925.13 347.34 C 925.78 347.55, 926.22 347.45, 927.20 346.98 C 928.17 346.51, 928.79 346.06, 929.99 345.00 C 931.18 343.95, 931.84 343.22, 933.18 341.71 C 934.52 340.21, 935.28 339.22, 936.69 337.49 C 938.09 335.75, 938.86 334.74, 940.22 333.04 C 941.57 331.33, 942.30 330.41, 943.46 328.96 C 944.63 327.50, 945.25 326.76, 946.02 325.76 C 946.80 324.76, 947.02 324.39, 947.34 323.97 C 947.66 323.55, 947.63 323.67, 947.62 323.64 C 947.61 323.62, 947.38 323.69, 947.29 323.86 C 947.19 324.03, 946.96 324.32, 947.14 324.49 C 947.31 324.65, 947.93 324.81, 948.16 324.69 C 948.39 324.57, 948.36 324.20, 948.29 323.91 C 948.22 323.62, 948.11 323.38, 947.79 323.23 C 947.48 323.08, 947.31 322.87, 946.71 323.16 C 946.11 323.45, 945.75 323.76, 944.81 324.68 C 943.88 325.60, 943.26 326.34, 942.03 327.77 C 940.81 329.19, 940.07 330.11, 938.68 331.79 C 937.29 333.47, 936.50 334.46, 935.07 336.15 C 933.65 337.85, 932.86 338.79, 931.54 340.25 C 930.23 341.70, 929.55 342.35, 928.50 343.42 C 927.44 344.50, 926.91 344.99, 926.27 345.62 C 925.63 346.24, 925.52 346.54, 925.32 346.55 C 925.11 346.56, 925.20 346.34, 925.22 345.67 C 925.25 345.01, 925.22 344.39, 925.43 343.23 C 925.64 342.06, 925.85 341.31, 926.28 339.86 C 926.70 338.40, 926.96 337.54, 927.54 335.96 C 928.13 334.39, 928.62 333.49, 929.20 332.00 C 929.78 330.51, 930.12 329.69, 930.44 328.52 C 930.76 327.35, 930.78 326.86, 930.81 326.15 C 930.84 325.45, 930.77 325.25, 930.61 325.00 C 930.44 324.74, 930.23 324.71, 929.98 324.87" style="stroke: white; fill: white;"/><path d="M 958.88,339.46 C 959.20 339.54, 959.46 339.43, 960.11 339.24 C 960.75 339.06, 961.16 338.95, 962.10 338.55 C 963.04 338.14, 963.63 337.85, 964.82 337.22 C 966.01 336.59, 966.79 336.21, 968.05 335.41 C 969.31 334.61, 969.98 334.14, 971.13 333.23 C 972.29 332.31, 972.96 331.79, 973.81 330.85 C 974.66 329.91, 975.01 329.39, 975.39 328.53 C 975.77 327.67, 975.86 327.24, 975.71 326.55 C 975.56 325.85, 975.39 325.38, 974.64 325.06 C 973.89 324.74, 973.27 324.66, 971.98 324.95 C 970.69 325.23, 969.85 325.63, 968.19 326.50 C 966.53 327.36, 965.54 328.00, 963.67 329.27 C 961.81 330.54, 960.61 331.33, 958.87 332.83 C 957.13 334.33, 956.22 335.22, 954.98 336.78 C 953.73 338.34, 953.22 339.21, 952.66 340.62 C 952.10 342.04, 951.98 342.65, 952.18 343.85 C 952.39 345.04, 952.74 345.65, 953.68 346.61 C 954.62 347.57, 955.32 348.08, 956.89 348.63 C 958.47 349.19, 959.51 349.30, 961.56 349.39 C 963.61 349.48, 965.01 349.37, 967.16 349.09 C 969.30 348.81, 970.58 348.47, 972.29 347.99 C 973.99 347.51, 975.04 347.09, 975.69 346.69 C 976.34 346.30, 976.28 346.10, 975.54 346.03 C 974.79 345.95, 973.69 346.14, 971.97 346.32 C 970.24 346.50, 968.98 346.73, 966.91 346.92 C 964.84 347.12, 963.51 347.29, 961.62 347.28 C 959.72 347.27, 958.82 347.22, 957.44 346.86 C 956.06 346.50, 955.51 346.13, 954.71 345.49 C 953.90 344.85, 953.56 344.49, 953.43 343.64 C 953.29 342.79, 953.44 342.37, 954.03 341.24 C 954.62 340.11, 955.15 339.34, 956.38 337.97 C 957.62 336.61, 958.49 335.79, 960.20 334.42 C 961.90 333.05, 963.10 332.31, 964.91 331.12 C 966.72 329.93, 967.72 329.33, 969.25 328.47 C 970.79 327.61, 971.55 327.25, 972.57 326.80 C 973.59 326.34, 973.93 326.23, 974.36 326.20 C 974.78 326.17, 974.73 326.33, 974.67 326.65 C 974.62 326.96, 974.51 327.21, 974.08 327.80 C 973.65 328.38, 973.34 328.80, 972.51 329.58 C 971.69 330.35, 971.05 330.85, 969.94 331.66 C 968.83 332.47, 968.19 332.90, 966.96 333.62 C 965.73 334.35, 964.95 334.65, 963.79 335.26 C 962.63 335.88, 962.05 336.18, 961.17 336.69 C 960.28 337.21, 959.90 337.40, 959.37 337.83 C 958.84 338.26, 958.61 338.50, 958.52 338.83 C 958.42 339.16, 958.56 339.38, 958.88 339.46" style="stroke: white; fill: white;"/><path d="M 1003.28,307.78 C 1002.89 307.99, 1002.59 308.29, 1001.93 309.18 C 1001.27 310.06, 1000.90 310.67, 999.99 312.22 C 999.09 313.77, 998.53 314.83, 997.39 316.91 C 996.26 319.00, 995.61 320.30, 994.32 322.65 C 993.03 325.01, 992.21 326.30, 990.92 328.69 C 989.63 331.07, 988.96 332.40, 987.87 334.59 C 986.78 336.78, 986.21 337.81, 985.48 339.64 C 984.76 341.46, 984.47 342.28, 984.25 343.73 C 984.02 345.17, 984.03 345.79, 984.36 346.86 C 984.69 347.92, 985.05 348.40, 985.90 349.07 C 986.76 349.73, 987.50 349.97, 988.65 350.18 C 989.79 350.40, 990.59 350.37, 991.64 350.14 C 992.68 349.91, 993.47 349.42, 993.88 349.04 C 994.29 348.66, 994.16 348.38, 993.67 348.24 C 993.18 348.09, 992.36 348.29, 991.41 348.31 C 990.46 348.32, 989.85 348.41, 988.91 348.32 C 987.97 348.24, 987.38 348.24, 986.71 347.87 C 986.04 347.51, 985.78 347.28, 985.57 346.50 C 985.36 345.73, 985.39 345.24, 985.68 344.00 C 985.97 342.76, 986.26 342.00, 987.03 340.29 C 987.80 338.57, 988.39 337.56, 989.52 335.43 C 990.65 333.30, 991.33 332.00, 992.66 329.65 C 993.99 327.30, 994.82 326.01, 996.15 323.68 C 997.49 321.35, 998.20 320.07, 999.35 317.98 C 1000.49 315.89, 1001.07 314.83, 1001.86 313.22 C 1002.65 311.62, 1002.89 310.95, 1003.29 309.94 C 1003.70 308.92, 1003.88 308.57, 1003.88 308.14 C 1003.87 307.71, 1003.67 307.58, 1003.28 307.78" style="stroke: white; fill: white;"/><path d="M 1024.02,333.09 C 1023.92 332.79, 1023.73 332.49, 1023.19 332.25 C 1022.65 332.01, 1022.24 331.84, 1021.30 331.89 C 1020.36 331.94, 1019.69 331.99, 1018.48 332.50 C 1017.28 333.01, 1016.64 333.51, 1015.28 334.44 C 1013.92 335.37, 1013.02 335.96, 1011.69 337.14 C 1010.36 338.32, 1009.70 339.06, 1008.65 340.33 C 1007.60 341.59, 1006.99 342.25, 1006.42 343.47 C 1005.86 344.68, 1005.69 345.33, 1005.82 346.39 C 1005.95 347.44, 1006.26 348.02, 1007.07 348.73 C 1007.88 349.44, 1008.54 349.66, 1009.87 349.93 C 1011.19 350.19, 1012.04 350.23, 1013.68 350.05 C 1015.32 349.87, 1016.23 349.59, 1018.08 349.01 C 1019.94 348.43, 1021.06 348.00, 1022.94 347.13 C 1024.82 346.25, 1025.86 345.75, 1027.49 344.63 C 1029.12 343.51, 1029.90 342.82, 1031.09 341.55 C 1032.28 340.27, 1032.84 339.58, 1033.43 338.26 C 1034.01 336.95, 1034.14 336.20, 1034.02 334.97 C 1033.89 333.73, 1033.56 333.05, 1032.81 332.09 C 1032.06 331.13, 1031.46 330.71, 1030.26 330.17 C 1029.06 329.62, 1028.27 329.43, 1026.83 329.35 C 1025.38 329.27, 1024.40 329.40, 1023.04 329.78 C 1021.69 330.15, 1021.10 330.57, 1020.06 331.23 C 1019.03 331.89, 1018.47 332.33, 1017.87 333.06 C 1017.27 333.80, 1017.12 334.47, 1017.07 334.92 C 1017.02 335.36, 1017.26 335.45, 1017.62 335.29 C 1017.98 335.13, 1018.22 334.60, 1018.89 334.10 C 1019.56 333.60, 1020.04 333.28, 1020.97 332.79 C 1021.91 332.30, 1022.39 331.94, 1023.54 331.64 C 1024.69 331.35, 1025.54 331.29, 1026.75 331.33 C 1027.95 331.36, 1028.61 331.44, 1029.59 331.79 C 1030.56 332.14, 1031.02 332.42, 1031.61 333.08 C 1032.21 333.74, 1032.49 334.20, 1032.57 335.10 C 1032.65 336.00, 1032.56 336.54, 1032.01 337.59 C 1031.47 338.63, 1030.95 339.23, 1029.83 340.33 C 1028.72 341.42, 1027.99 342.06, 1026.44 343.05 C 1024.89 344.04, 1023.90 344.48, 1022.10 345.28 C 1020.31 346.08, 1019.19 346.48, 1017.46 347.04 C 1015.72 347.60, 1014.89 347.85, 1013.42 348.06 C 1011.96 348.28, 1011.23 348.21, 1010.13 348.12 C 1009.03 348.03, 1008.51 347.99, 1007.91 347.62 C 1007.30 347.26, 1007.11 346.96, 1007.10 346.28 C 1007.09 345.61, 1007.26 345.18, 1007.86 344.25 C 1008.46 343.31, 1009.06 342.72, 1010.11 341.62 C 1011.15 340.52, 1011.79 339.82, 1013.08 338.75 C 1014.36 337.67, 1015.27 337.11, 1016.52 336.25 C 1017.77 335.38, 1018.34 334.90, 1019.34 334.42 C 1020.35 333.94, 1020.83 333.98, 1021.53 333.84 C 1022.23 333.69, 1022.43 333.73, 1022.86 333.71 C 1023.29 333.69, 1023.44 333.86, 1023.67 333.73 C 1023.91 333.61, 1024.11 333.39, 1024.02 333.09" style="stroke: white; fill: white;"/><path d="M 1052.09,334.33 C 1051.71 334.37, 1051.37 334.44, 1050.58 335.05 C 1049.80 335.66, 1049.30 336.11, 1048.17 337.38 C 1047.03 338.66, 1046.30 339.56, 1044.92 341.43 C 1043.53 343.29, 1042.79 344.53, 1041.24 346.72 C 1039.68 348.90, 1038.81 350.12, 1037.17 352.34 C 1035.52 354.56, 1034.59 355.72, 1033.03 357.80 C 1031.48 359.89, 1030.63 361.04, 1029.38 362.78 C 1028.14 364.51, 1027.56 365.33, 1026.81 366.50 C 1026.07 367.68, 1025.77 368.15, 1025.64 368.66 C 1025.51 369.16, 1025.70 369.25, 1026.17 369.02 C 1026.63 368.79, 1027.10 368.51, 1027.96 367.51 C 1028.81 366.51, 1029.26 365.63, 1030.45 364.01 C 1031.63 362.38, 1032.36 361.35, 1033.88 359.40 C 1035.40 357.45, 1036.23 356.31, 1038.03 354.25 C 1039.84 352.19, 1040.89 351.05, 1042.91 349.11 C 1044.93 347.16, 1046.11 346.18, 1048.14 344.52 C 1050.17 342.85, 1051.19 342.04, 1053.06 340.78 C 1054.93 339.53, 1055.88 339.06, 1057.48 338.24 C 1059.07 337.41, 1059.79 337.07, 1061.03 336.67 C 1062.27 336.27, 1062.82 336.23, 1063.67 336.25 C 1064.53 336.28, 1064.87 336.45, 1065.31 336.81 C 1065.75 337.17, 1065.80 337.40, 1065.88 338.04 C 1065.96 338.68, 1065.94 339.15, 1065.72 339.99 C 1065.50 340.83, 1065.45 341.28, 1064.79 342.25 C 1064.13 343.22, 1063.60 343.78, 1062.41 344.84 C 1061.23 345.89, 1060.40 346.58, 1058.87 347.53 C 1057.34 348.48, 1056.48 348.92, 1054.76 349.60 C 1053.04 350.28, 1051.91 350.49, 1050.27 350.92 C 1048.62 351.36, 1047.77 351.59, 1046.54 351.77 C 1045.32 351.95, 1044.88 351.90, 1044.15 351.84 C 1043.42 351.78, 1043.20 351.60, 1042.90 351.45 C 1042.60 351.30, 1042.69 351.27, 1042.65 351.10 C 1042.61 350.92, 1042.82 350.71, 1042.72 350.57 C 1042.61 350.42, 1042.32 350.25, 1042.12 350.38 C 1041.93 350.50, 1041.73 350.81, 1041.76 351.20 C 1041.78 351.59, 1041.83 351.91, 1042.26 352.31 C 1042.69 352.70, 1043.02 352.95, 1043.91 353.17 C 1044.80 353.40, 1045.35 353.51, 1046.71 353.43 C 1048.07 353.35, 1048.97 353.17, 1050.72 352.78 C 1052.47 352.38, 1053.62 352.14, 1055.47 351.44 C 1057.31 350.74, 1058.27 350.29, 1059.94 349.28 C 1061.61 348.26, 1062.52 347.57, 1063.81 346.37 C 1065.11 345.18, 1065.67 344.48, 1066.40 343.28 C 1067.13 342.07, 1067.27 341.47, 1067.46 340.35 C 1067.65 339.24, 1067.62 338.61, 1067.35 337.70 C 1067.07 336.80, 1066.82 336.38, 1066.10 335.82 C 1065.39 335.25, 1064.88 335.00, 1063.78 334.87 C 1062.68 334.75, 1062.01 334.83, 1060.61 335.21 C 1059.20 335.59, 1058.44 335.95, 1056.74 336.77 C 1055.04 337.59, 1054.06 338.06, 1052.10 339.32 C 1050.15 340.58, 1049.07 341.39, 1046.96 343.07 C 1044.86 344.74, 1043.67 345.74, 1041.58 347.71 C 1039.49 349.68, 1038.40 350.83, 1036.52 352.90 C 1034.65 354.97, 1033.80 356.11, 1032.20 358.05 C 1030.59 359.99, 1029.68 360.93, 1028.50 362.61 C 1027.32 364.28, 1026.88 365.21, 1026.28 366.41 C 1025.69 367.61, 1025.55 368.08, 1025.53 368.62 C 1025.51 369.16, 1025.67 369.36, 1026.18 369.12 C 1026.69 368.89, 1027.14 368.51, 1028.07 367.45 C 1029.00 366.39, 1029.53 365.54, 1030.83 363.84 C 1032.13 362.15, 1032.97 361.02, 1034.55 358.96 C 1036.14 356.89, 1037.07 355.73, 1038.75 353.53 C 1040.43 351.33, 1041.36 350.11, 1042.95 347.96 C 1044.54 345.81, 1045.35 344.61, 1046.72 342.77 C 1048.09 340.92, 1048.83 340.06, 1049.82 338.73 C 1050.81 337.39, 1051.14 336.87, 1051.68 336.09 C 1052.22 335.32, 1052.43 335.19, 1052.52 334.84 C 1052.60 334.49, 1052.48 334.29, 1052.09 334.33" style="stroke: white; fill: white;"/><path d="M 1078.26,345.04 C 1078.56 345.30, 1078.94 345.53, 1079.82 345.65 C 1080.70 345.76, 1081.32 345.77, 1082.67 345.62 C 1084.02 345.46, 1084.91 345.27, 1086.57 344.87 C 1088.23 344.47, 1089.30 344.17, 1090.98 343.61 C 1092.66 343.05, 1093.51 342.68, 1094.98 342.07 C 1096.44 341.47, 1097.15 341.19, 1098.31 340.60 C 1099.46 340.00, 1100.02 339.72, 1100.77 339.09 C 1101.51 338.45, 1101.80 338.14, 1102.02 337.44 C 1102.24 336.74, 1102.28 336.16, 1101.87 335.58 C 1101.46 335.00, 1100.46 334.57, 1099.97 334.54 C 1099.48 334.52, 1099.24 335.08, 1099.40 335.46 C 1099.57 335.84, 1100.48 336.14, 1100.80 336.45 C 1101.13 336.77, 1101.21 336.75, 1101.03 337.04 C 1100.85 337.32, 1100.59 337.48, 1099.90 337.88 C 1099.21 338.28, 1098.69 338.57, 1097.57 339.06 C 1096.45 339.55, 1095.75 339.82, 1094.31 340.33 C 1092.87 340.84, 1092.02 341.14, 1090.36 341.61 C 1088.71 342.08, 1087.65 342.28, 1086.04 342.67 C 1084.44 343.05, 1083.58 343.25, 1082.32 343.53 C 1081.07 343.81, 1080.57 343.90, 1079.77 344.06 C 1078.98 344.23, 1078.65 344.13, 1078.34 344.33 C 1078.04 344.52, 1077.97 344.78, 1078.26 345.04" style="stroke: white; fill: white;"/><path d="M 1095.77,333.46 C 1095.20 333.23, 1094.36 333.01, 1092.93 333.07 C 1091.49 333.13, 1090.45 333.25, 1088.59 333.78 C 1086.73 334.31, 1085.53 334.72, 1083.62 335.73 C 1081.72 336.74, 1080.61 337.59, 1079.07 338.82 C 1077.53 340.05, 1076.90 340.69, 1075.92 341.89 C 1074.94 343.09, 1074.46 343.70, 1074.17 344.84 C 1073.89 345.97, 1073.98 346.56, 1074.51 347.57 C 1075.03 348.57, 1075.56 349.11, 1076.82 349.87 C 1078.08 350.62, 1078.97 350.90, 1080.79 351.35 C 1082.60 351.81, 1083.76 351.96, 1085.90 352.15 C 1088.05 352.34, 1089.47 352.40, 1091.51 352.31 C 1093.55 352.22, 1094.61 351.96, 1096.11 351.68 C 1097.61 351.40, 1098.45 351.20, 1099.01 350.93 C 1099.58 350.65, 1099.56 350.46, 1098.95 350.31 C 1098.34 350.16, 1097.47 350.19, 1095.98 350.18 C 1094.48 350.16, 1093.46 350.28, 1091.48 350.24 C 1089.51 350.20, 1088.14 350.17, 1086.10 349.98 C 1084.05 349.80, 1082.94 349.66, 1081.25 349.32 C 1079.55 348.99, 1078.76 348.79, 1077.64 348.30 C 1076.52 347.81, 1076.08 347.51, 1075.63 346.89 C 1075.18 346.27, 1075.09 345.99, 1075.40 345.21 C 1075.70 344.44, 1076.18 343.96, 1077.15 342.99 C 1078.12 342.03, 1078.76 341.45, 1080.25 340.38 C 1081.75 339.31, 1082.84 338.58, 1084.63 337.66 C 1086.42 336.74, 1087.52 336.37, 1089.22 335.78 C 1090.93 335.20, 1091.84 335.06, 1093.16 334.75 C 1094.47 334.44, 1095.27 334.49, 1095.79 334.23 C 1096.32 333.97, 1096.35 333.69, 1095.77 333.46" style="stroke: white; fill: white;"/><path d="M 1117.53,333.20 C 1117.21 333.39, 1117.03 333.75, 1116.64 334.41 C 1116.26 335.07, 1116.05 335.46, 1115.59 336.50 C 1115.14 337.54, 1114.87 338.33, 1114.37 339.60 C 1113.88 340.87, 1113.61 341.59, 1113.12 342.85 C 1112.64 344.10, 1112.31 344.85, 1111.94 345.88 C 1111.57 346.92, 1111.34 347.36, 1111.27 348.02 C 1111.20 348.68, 1111.27 348.98, 1111.60 349.20 C 1111.93 349.42, 1112.29 349.45, 1112.92 349.12 C 1113.54 348.79, 1113.95 348.41, 1114.74 347.53 C 1115.53 346.66, 1115.90 345.94, 1116.87 344.75 C 1117.84 343.55, 1118.34 342.85, 1119.59 341.55 C 1120.84 340.26, 1121.61 339.51, 1123.12 338.28 C 1124.63 337.05, 1125.52 336.41, 1127.14 335.42 C 1128.77 334.43, 1129.67 334.04, 1131.24 333.32 C 1132.81 332.61, 1133.69 332.24, 1135.00 331.86 C 1136.31 331.48, 1136.82 331.43, 1137.80 331.41 C 1138.78 331.39, 1139.20 331.55, 1139.91 331.76 C 1140.61 331.97, 1140.89 332.21, 1141.33 332.47 C 1141.77 332.74, 1141.83 332.92, 1142.11 333.09 C 1142.38 333.27, 1142.52 333.36, 1142.71 333.36 C 1142.90 333.36, 1143.03 333.27, 1143.07 333.08 C 1143.11 332.89, 1143.11 332.77, 1142.93 332.40 C 1142.75 332.04, 1142.71 331.68, 1142.19 331.27 C 1141.67 330.85, 1141.22 330.60, 1140.34 330.33 C 1139.47 330.06, 1138.95 329.93, 1137.80 329.91 C 1136.65 329.89, 1136.03 329.89, 1134.57 330.24 C 1133.11 330.58, 1132.19 330.93, 1130.50 331.64 C 1128.82 332.35, 1127.89 332.77, 1126.16 333.78 C 1124.43 334.79, 1123.48 335.45, 1121.87 336.71 C 1120.26 337.97, 1119.46 338.77, 1118.12 340.09 C 1116.77 341.41, 1116.18 342.11, 1115.15 343.32 C 1114.13 344.53, 1113.63 345.19, 1112.98 346.14 C 1112.32 347.10, 1112.12 347.54, 1111.87 348.10 C 1111.63 348.66, 1111.65 348.86, 1111.77 348.94 C 1111.89 349.02, 1112.08 348.95, 1112.46 348.50 C 1112.84 348.04, 1113.15 347.61, 1113.67 346.65 C 1114.19 345.68, 1114.50 344.90, 1115.06 343.65 C 1115.61 342.41, 1115.95 341.70, 1116.45 340.42 C 1116.96 339.14, 1117.26 338.34, 1117.60 337.25 C 1117.93 336.16, 1118.02 335.72, 1118.14 334.96 C 1118.27 334.20, 1118.36 333.81, 1118.24 333.46 C 1118.12 333.11, 1117.85 333.01, 1117.53 333.20" style="stroke: white; fill: white;"/></svg>