<svg xmlns="http://www.w3.org/2000/svg" id="canvas" viewBox="218.418 257.241 1008.798 116.019"><path d="M 242.56,278.01 C 242.16 278.62, 242.06 279.47, 241.65 281.18 C 241.24 282.90, 241.08 283.91, 240.50 286.57 C 239.91 289.23, 239.64 291.06, 238.73 294.49 C 237.83 297.93, 237.14 299.92, 235.98 303.75 C 234.82 307.59, 234.25 309.67, 232.95 313.66 C 231.64 317.65, 230.75 319.70, 229.45 323.72 C 228.15 327.74, 227.52 329.87, 226.45 333.77 C 225.39 337.66, 224.94 339.66, 224.13 343.19 C 223.33 346.71, 222.94 348.40, 222.42 351.39 C 221.89 354.38, 221.67 355.73, 221.50 358.14 C 221.33 360.54, 221.46 361.63, 221.57 363.43 C 221.68 365.23, 221.77 365.90, 222.05 367.12 C 222.32 368.33, 222.61 368.90, 222.96 369.51 C 223.30 370.12, 223.52 370.04, 223.76 370.18 C 224.01 370.32, 224.06 370.24, 224.17 370.22 C 224.29 370.20, 224.26 370.14, 224.32 370.06 C 224.38 369.99, 224.40 370.07, 224.47 369.85 C 224.55 369.63, 224.75 369.58, 224.69 368.95 C 224.63 368.32, 224.35 367.83, 224.18 366.71 C 224.00 365.58, 223.88 365.00, 223.83 363.32 C 223.77 361.65, 223.72 360.63, 223.91 358.32 C 224.09 356.01, 224.30 354.71, 224.75 351.77 C 225.20 348.84, 225.45 347.13, 226.17 343.63 C 226.88 340.13, 227.30 338.13, 228.31 334.27 C 229.33 330.40, 229.94 328.29, 231.24 324.30 C 232.53 320.30, 233.42 318.25, 234.78 314.27 C 236.14 310.29, 236.73 308.22, 238.02 304.40 C 239.30 300.59, 240.09 298.65, 241.19 295.21 C 242.30 291.78, 242.99 289.97, 243.55 287.22 C 244.12 284.47, 243.98 283.30, 244.01 281.47 C 244.03 279.65, 243.95 278.80, 243.66 278.10 C 243.37 277.41, 242.97 277.39, 242.56 278.01" style="stroke: white; fill: white;"/><path d="M 292.88,260.58 C 292.39 261.09, 292.20 261.83, 291.45 263.39 C 290.69 264.95, 290.09 266.11, 289.10 268.38 C 288.12 270.65, 287.51 272.33, 286.52 274.76 C 285.53 277.19, 284.99 278.46, 284.14 280.53 C 283.29 282.59, 282.83 283.46, 282.26 285.07 C 281.68 286.67, 281.41 287.37, 281.25 288.55 C 281.10 289.73, 281.23 290.18, 281.49 290.98 C 281.75 291.79, 282.11 292.14, 282.57 292.60 C 283.03 293.05, 283.33 293.15, 283.78 293.27 C 284.23 293.39, 284.53 293.41, 284.82 293.19 C 285.12 292.98, 285.28 292.55, 285.24 292.19 C 285.19 291.84, 284.88 291.63, 284.59 291.42 C 284.31 291.22, 284.10 291.35, 283.81 291.16 C 283.52 290.97, 283.27 290.92, 283.15 290.48 C 283.04 290.04, 282.96 289.84, 283.22 288.95 C 283.49 288.05, 283.78 287.44, 284.47 285.99 C 285.16 284.54, 285.66 283.69, 286.68 281.71 C 287.71 279.73, 288.48 278.51, 289.60 276.09 C 290.71 273.68, 291.41 272.00, 292.25 269.62 C 293.10 267.24, 293.50 265.94, 293.84 264.18 C 294.18 262.42, 294.13 261.56, 293.94 260.84 C 293.75 260.12, 293.38 260.07, 292.88 260.58" style="stroke: white; fill: white;"/><path d="M 323.11,312.30 C 322.66 312.65, 322.56 313.17, 321.89 314.32 C 321.21 315.46, 320.73 316.12, 319.73 318.04 C 318.72 319.96, 318.16 321.40, 316.87 323.92 C 315.58 326.44, 314.85 327.81, 313.28 330.63 C 311.71 333.45, 310.72 335.13, 309.02 338.00 C 307.31 340.87, 306.31 342.42, 304.77 344.97 C 303.23 347.52, 302.32 348.76, 301.31 350.75 C 300.31 352.75, 299.96 353.70, 299.75 354.94 C 299.54 356.17, 299.74 356.65, 300.26 356.92 C 300.79 357.19, 301.28 357.16, 302.36 356.30 C 303.44 355.44, 304.19 354.64, 305.65 352.61 C 307.11 350.59, 307.72 348.99, 309.67 346.18 C 311.62 343.36, 312.80 341.58, 315.38 338.55 C 317.97 335.52, 319.62 333.82, 322.58 331.01 C 325.54 328.20, 327.25 326.76, 330.19 324.51 C 333.13 322.25, 334.81 321.29, 337.29 319.72 C 339.77 318.16, 340.88 317.46, 342.57 316.68 C 344.26 315.91, 344.83 315.73, 345.75 315.85 C 346.66 315.97, 346.92 316.32, 347.16 317.30 C 347.40 318.27, 347.25 318.95, 346.95 320.71 C 346.66 322.46, 346.34 323.77, 345.68 326.08 C 345.02 328.38, 344.56 329.82, 343.66 332.23 C 342.76 334.65, 342.08 335.97, 341.20 338.15 C 340.32 340.34, 339.74 341.50, 339.27 343.16 C 338.80 344.83, 338.68 345.64, 338.84 346.48 C 339.00 347.31, 339.21 347.52, 340.09 347.32 C 340.97 347.11, 341.72 346.76, 343.25 345.44 C 344.78 344.12, 345.61 342.99, 347.73 340.73 C 349.85 338.48, 351.08 336.72, 353.86 334.17 C 356.65 331.63, 358.47 330.25, 361.65 328.00 C 364.82 325.75, 366.65 324.61, 369.72 322.91 C 372.79 321.21, 374.38 320.54, 377.00 319.50 C 379.62 318.46, 380.92 318.14, 382.83 317.71 C 384.74 317.29, 385.52 317.18, 386.56 317.38 C 387.60 317.58, 387.81 317.76, 388.03 318.70 C 388.24 319.65, 388.07 320.32, 387.65 322.11 C 387.23 323.89, 386.79 325.11, 385.92 327.63 C 385.05 330.15, 384.49 331.80, 383.30 334.69 C 382.10 337.58, 381.27 339.27, 379.94 342.08 C 378.61 344.89, 377.76 346.32, 376.64 348.75 C 375.53 351.19, 375.02 352.38, 374.37 354.26 C 373.71 356.14, 373.57 356.93, 373.36 358.14 C 373.15 359.36, 373.19 359.85, 373.32 360.32 C 373.45 360.78, 373.68 360.82, 374.00 360.49 C 374.33 360.15, 374.44 359.72, 374.96 358.66 C 375.48 357.60, 375.78 356.93, 376.61 355.18 C 377.45 353.43, 377.97 352.31, 379.12 349.92 C 380.28 347.53, 381.02 346.07, 382.38 343.25 C 383.74 340.43, 384.60 338.75, 385.93 335.83 C 387.25 332.92, 388.12 331.34, 389.00 328.67 C 389.89 326.01, 390.22 324.62, 390.36 322.50 C 390.50 320.38, 390.37 319.42, 389.71 318.06 C 389.05 316.70, 388.50 316.23, 387.04 315.71 C 385.59 315.19, 384.63 315.17, 382.43 315.47 C 380.24 315.77, 378.84 316.09, 376.08 317.20 C 373.32 318.30, 371.78 319.19, 368.64 321.00 C 365.50 322.80, 363.67 323.94, 360.39 326.21 C 357.11 328.47, 355.25 329.86, 352.25 332.31 C 349.26 334.77, 347.65 336.26, 345.41 338.47 C 343.18 340.68, 342.30 341.80, 341.08 343.37 C 339.85 344.94, 339.51 345.64, 339.29 346.32 C 339.07 347.00, 339.50 347.21, 339.99 346.77 C 340.48 346.33, 340.94 345.63, 341.72 344.13 C 342.50 342.64, 342.91 341.46, 343.89 339.30 C 344.87 337.15, 345.62 335.85, 346.61 333.38 C 347.61 330.90, 348.23 329.43, 348.86 326.94 C 349.50 324.45, 349.79 323.01, 349.79 320.93 C 349.80 318.86, 349.64 317.88, 348.89 316.55 C 348.15 315.23, 347.50 314.66, 346.08 314.29 C 344.66 313.92, 343.81 314.02, 341.79 314.69 C 339.78 315.37, 338.58 316.04, 336.00 317.68 C 333.42 319.31, 331.86 320.48, 328.89 322.85 C 325.93 325.22, 324.21 326.68, 321.17 329.52 C 318.14 332.37, 316.46 334.07, 313.71 337.07 C 310.97 340.07, 309.60 341.79, 307.44 344.52 C 305.27 347.25, 304.24 348.62, 302.88 350.71 C 301.51 352.79, 301.12 353.78, 300.62 354.96 C 300.12 356.13, 300.24 356.47, 300.40 356.59 C 300.55 356.71, 300.76 356.50, 301.39 355.58 C 302.02 354.66, 302.41 353.84, 303.55 352.00 C 304.68 350.16, 305.55 348.90, 307.08 346.36 C 308.61 343.82, 309.49 342.17, 311.19 339.29 C 312.89 336.42, 313.90 334.76, 315.60 331.99 C 317.31 329.22, 318.31 327.96, 319.72 325.44 C 321.12 322.92, 321.75 321.45, 322.61 319.40 C 323.48 317.34, 323.75 316.52, 324.05 315.16 C 324.36 313.80, 324.32 313.17, 324.13 312.60 C 323.95 312.02, 323.56 311.96, 323.11 312.30" style="stroke: white; fill: white;"/><path d="M 525.48,280.28 C 525.09 280.57, 525.07 280.80, 524.42 281.95 C 523.78 283.11, 523.37 283.87, 522.24 286.05 C 521.10 288.23, 520.54 289.73, 518.75 292.86 C 516.96 295.99, 515.83 297.94, 513.28 301.70 C 510.73 305.46, 508.99 307.63, 505.98 311.67 C 502.98 315.71, 501.22 317.97, 498.27 321.90 C 495.32 325.84, 493.79 327.76, 491.25 331.35 C 488.71 334.94, 487.54 336.79, 485.58 339.86 C 483.62 342.93, 482.60 344.20, 481.44 346.72 C 480.28 349.23, 480.00 350.43, 479.79 352.45 C 479.59 354.47, 479.70 355.32, 480.43 356.83 C 481.15 358.33, 481.77 359.01, 483.41 359.97 C 485.06 360.93, 486.16 361.26, 488.65 361.62 C 491.13 361.98, 492.70 361.96, 495.84 361.76 C 498.99 361.56, 500.79 361.15, 504.38 360.63 C 507.96 360.10, 510.01 359.69, 513.75 359.13 C 517.49 358.57, 519.47 358.32, 523.06 357.83 C 526.66 357.34, 528.60 357.13, 531.71 356.70 C 534.83 356.27, 536.31 356.01, 538.63 355.66 C 540.96 355.31, 541.79 355.24, 543.34 354.95 C 544.88 354.65, 545.55 354.48, 546.34 354.18 C 547.14 353.88, 547.05 353.62, 547.30 353.44 C 547.55 353.27, 547.53 353.41, 547.61 353.31 C 547.69 353.21, 547.80 353.08, 547.71 352.93 C 547.62 352.78, 547.52 352.66, 547.17 352.57 C 546.82 352.48, 546.81 352.45, 545.98 352.50 C 545.15 352.55, 544.56 352.67, 543.03 352.82 C 541.49 352.97, 540.63 352.95, 538.30 353.25 C 535.96 353.55, 534.47 353.83, 531.36 354.30 C 528.25 354.78, 526.34 355.11, 522.75 355.64 C 519.17 356.17, 517.17 356.43, 513.43 356.94 C 509.70 357.46, 507.61 357.83, 504.07 358.23 C 500.52 358.63, 498.72 358.83, 495.70 358.93 C 492.69 359.04, 491.24 358.94, 488.99 358.74 C 486.73 358.54, 485.81 358.47, 484.43 357.93 C 483.05 357.38, 482.61 357.05, 482.09 356.01 C 481.56 354.97, 481.51 354.38, 481.80 352.72 C 482.10 351.05, 482.46 350.05, 483.56 347.69 C 484.65 345.32, 485.44 343.97, 487.26 340.90 C 489.09 337.83, 490.20 335.94, 492.67 332.34 C 495.14 328.74, 496.66 326.82, 499.60 322.90 C 502.53 318.97, 504.30 316.72, 507.36 312.71 C 510.42 308.69, 512.18 306.54, 514.90 302.84 C 517.61 299.14, 518.89 297.27, 520.92 294.20 C 522.95 291.12, 523.94 289.77, 525.06 287.47 C 526.18 285.17, 526.25 284.10, 526.52 282.71 C 526.79 281.31, 526.59 280.98, 526.39 280.50 C 526.18 280.01, 525.88 279.99, 525.48 280.28" style="stroke: white; fill: white;"/><path d="M 500.73,318.90 C 501.25 319.07, 501.77 318.90, 502.95 318.72 C 504.13 318.54, 504.78 318.41, 506.62 318.01 C 508.46 317.61, 509.70 317.33, 512.15 316.70 C 514.60 316.08, 516.07 315.68, 518.88 314.86 C 521.69 314.04, 523.19 313.44, 526.20 312.60 C 529.20 311.77, 531.15 311.42, 533.92 310.69 C 536.69 309.96, 538.06 309.58, 540.05 308.97 C 542.04 308.36, 542.79 308.13, 543.88 307.64 C 544.97 307.15, 545.22 306.84, 545.50 306.50 C 545.78 306.16, 545.69 306.00, 545.28 305.93 C 544.87 305.85, 544.64 306.01, 543.47 306.12 C 542.31 306.24, 541.51 306.15, 539.46 306.50 C 537.41 306.85, 536.01 307.20, 533.21 307.89 C 530.41 308.58, 528.49 309.13, 525.47 309.95 C 522.45 310.78, 520.93 311.28, 518.10 312.00 C 515.28 312.71, 513.81 312.92, 511.35 313.53 C 508.89 314.13, 507.63 314.42, 505.81 315.02 C 503.98 315.61, 503.31 315.92, 502.22 316.49 C 501.13 317.07, 500.64 317.39, 500.34 317.87 C 500.04 318.35, 500.21 318.73, 500.73 318.90" style="stroke: white; fill: white;"/><path d="M 537.45,294.26 C 538.01 294.24, 538.46 293.89, 539.53 293.36 C 540.59 292.82, 541.22 292.31, 542.79 291.58 C 544.35 290.85, 545.33 290.33, 547.35 289.71 C 549.38 289.08, 550.58 288.83, 552.93 288.47 C 555.28 288.12, 556.86 288.08, 559.11 287.93 C 561.37 287.78, 562.54 287.83, 564.20 287.71 C 565.86 287.58, 566.43 287.45, 567.42 287.31 C 568.40 287.17, 568.77 287.21, 569.13 287.02 C 569.48 286.82, 569.52 286.60, 569.20 286.33 C 568.87 286.06, 568.49 285.91, 567.50 285.68 C 566.50 285.44, 565.92 285.31, 564.22 285.16 C 562.52 285.01, 561.34 284.87, 558.99 284.91 C 556.64 284.96, 554.99 285.02, 552.48 285.36 C 549.96 285.71, 548.65 285.97, 546.42 286.65 C 544.19 287.34, 543.00 287.83, 541.33 288.78 C 539.66 289.72, 538.98 290.45, 538.07 291.38 C 537.15 292.31, 536.86 292.86, 536.74 293.44 C 536.62 294.01, 536.90 294.27, 537.45 294.26" style="stroke: white; fill: white;"/><path d="M 601.15,345.90 C 600.88 345.53, 600.42 345.22, 599.93 345.19 C 599.43 345.16, 598.91 345.42, 598.68 345.73 C 598.46 346.04, 598.73 346.42, 598.78 346.75 C 598.84 347.09, 598.89 347.17, 598.96 347.38 C 599.02 347.60, 598.95 347.65, 599.10 347.84 C 599.25 348.03, 599.36 348.18, 599.71 348.34 C 600.06 348.50, 600.55 348.72, 600.86 348.63 C 601.18 348.53, 601.19 348.19, 601.28 347.87 C 601.37 347.54, 601.32 347.39, 601.30 347.00 C 601.27 346.60, 601.43 346.26, 601.15 345.90" style="stroke: white; fill: white;"/><path d="M 723.98,310.23 C 723.93 310.60, 724.22 310.70, 724.44 311.26 C 724.66 311.82, 724.73 311.94, 725.08 313.02 C 725.44 314.10, 725.87 314.92, 726.22 316.67 C 726.58 318.42, 726.81 319.56, 726.86 321.77 C 726.91 323.99, 726.75 325.27, 726.50 327.74 C 726.25 330.22, 725.93 331.70, 725.61 334.17 C 725.28 336.64, 725.12 337.91, 724.87 340.08 C 724.63 342.25, 724.36 343.31, 724.38 345.00 C 724.41 346.69, 724.54 347.51, 725.01 348.52 C 725.47 349.54, 725.88 349.91, 726.72 350.08 C 727.56 350.25, 728.05 350.20, 729.22 349.37 C 730.39 348.55, 731.11 347.80, 732.59 345.97 C 734.07 344.14, 734.78 342.77, 736.62 340.22 C 738.45 337.67, 739.50 336.08, 741.75 333.22 C 744.01 330.35, 745.38 328.70, 747.88 325.89 C 750.37 323.08, 751.79 321.64, 754.24 319.16 C 756.69 316.69, 758.02 315.51, 760.11 313.51 C 762.21 311.50, 763.11 310.63, 764.74 309.14 C 766.36 307.66, 767.13 307.04, 768.24 306.08 C 769.36 305.12, 769.66 304.87, 770.30 304.34 C 770.95 303.81, 771.30 303.74, 771.49 303.43 C 771.67 303.13, 771.62 302.88, 771.23 302.79 C 770.85 302.71, 770.43 302.70, 769.57 303.01 C 768.71 303.33, 768.22 303.49, 766.93 304.35 C 765.64 305.22, 764.84 305.87, 763.14 307.34 C 761.43 308.81, 760.49 309.67, 758.38 311.72 C 756.28 313.77, 755.06 315.05, 752.63 317.59 C 750.19 320.13, 748.77 321.59, 746.22 324.41 C 743.67 327.23, 742.28 328.88, 739.88 331.68 C 737.48 334.47, 736.22 335.95, 734.24 338.40 C 732.25 340.86, 731.29 342.09, 729.95 343.95 C 728.60 345.81, 728.14 346.69, 727.51 347.70 C 726.89 348.72, 726.97 348.96, 726.82 349.03 C 726.67 349.10, 726.76 348.86, 726.76 348.07 C 726.77 347.29, 726.69 346.63, 726.86 345.10 C 727.02 343.58, 727.26 342.55, 727.59 340.45 C 727.92 338.34, 728.12 337.06, 728.51 334.59 C 728.90 332.11, 729.22 330.65, 729.53 328.08 C 729.85 325.51, 730.08 324.16, 730.08 321.74 C 730.08 319.31, 730.00 317.95, 729.55 315.95 C 729.10 313.95, 728.52 312.95, 727.82 311.75 C 727.12 310.55, 726.67 310.40, 726.04 309.93 C 725.41 309.46, 725.08 309.35, 724.67 309.42 C 724.26 309.48, 724.03 309.86, 723.98 310.23" style="stroke: white; fill: white;"/><path d="M 800.63,313.05 C 800.64 312.47, 800.28 311.80, 799.70 311.04 C 799.13 310.28, 798.76 309.81, 797.76 309.25 C 796.76 308.69, 796.01 308.32, 794.71 308.24 C 793.41 308.16, 792.86 308.28, 791.25 308.84 C 789.63 309.40, 788.70 309.78, 786.66 311.03 C 784.61 312.28, 783.42 313.17, 781.00 315.09 C 778.59 317.01, 777.08 318.26, 774.59 320.64 C 772.10 323.02, 770.67 324.49, 768.54 326.99 C 766.42 329.48, 765.33 330.87, 763.96 333.12 C 762.58 335.37, 762.08 336.39, 761.68 338.24 C 761.28 340.09, 761.34 341.02, 761.95 342.36 C 762.55 343.71, 763.21 344.32, 764.68 344.96 C 766.15 345.59, 767.19 345.68, 769.30 345.56 C 771.41 345.43, 772.75 345.20, 775.23 344.32 C 777.70 343.44, 779.15 342.73, 781.67 341.17 C 784.19 339.60, 785.43 338.52, 787.83 336.49 C 790.23 334.47, 791.45 333.29, 793.67 331.05 C 795.89 328.81, 797.08 327.51, 798.92 325.28 C 800.75 323.05, 801.72 321.72, 802.85 319.90 C 803.98 318.08, 804.36 317.07, 804.58 316.17 C 804.79 315.27, 804.52 315.08, 803.92 315.40 C 803.32 315.72, 802.67 316.28, 801.58 317.79 C 800.49 319.30, 799.61 320.57, 798.46 322.97 C 797.32 325.36, 796.86 327.16, 795.86 329.76 C 794.87 332.35, 794.20 333.53, 793.48 335.94 C 792.75 338.35, 792.46 339.72, 792.24 341.79 C 792.02 343.86, 792.14 344.80, 792.38 346.28 C 792.61 347.75, 792.94 348.29, 793.39 349.17 C 793.85 350.04, 794.10 350.25, 794.63 350.65 C 795.17 351.05, 795.58 351.21, 796.06 351.19 C 796.54 351.16, 796.92 350.83, 797.01 350.52 C 797.11 350.22, 796.73 349.82, 796.55 349.67 C 796.36 349.51, 796.26 349.81, 796.10 349.76 C 795.94 349.72, 795.94 349.72, 795.75 349.45 C 795.55 349.18, 795.36 349.10, 795.14 348.41 C 794.91 347.73, 794.69 347.28, 794.62 346.02 C 794.54 344.77, 794.45 343.97, 794.75 342.13 C 795.06 340.29, 795.31 339.05, 796.13 336.83 C 796.95 334.61, 797.70 333.49, 798.86 331.04 C 800.02 328.59, 800.87 326.97, 801.95 324.59 C 803.03 322.21, 803.68 320.91, 804.26 319.15 C 804.83 317.39, 804.98 316.53, 804.83 315.77 C 804.67 315.02, 804.32 314.85, 803.49 315.36 C 802.65 315.86, 801.99 316.68, 800.64 318.31 C 799.28 319.93, 798.49 321.31, 796.73 323.49 C 794.96 325.68, 793.93 327.03, 791.81 329.22 C 789.69 331.41, 788.46 332.55, 786.13 334.43 C 783.80 336.31, 782.54 337.23, 780.14 338.62 C 777.75 340.01, 776.40 340.56, 774.17 341.38 C 771.93 342.20, 770.74 342.41, 768.98 342.72 C 767.21 343.03, 766.44 343.14, 765.35 342.94 C 764.26 342.73, 763.86 342.51, 763.53 341.68 C 763.19 340.86, 763.16 340.24, 763.68 338.81 C 764.21 337.38, 764.78 336.55, 766.15 334.53 C 767.52 332.50, 768.48 331.07, 770.53 328.68 C 772.57 326.29, 773.92 324.81, 776.39 322.57 C 778.85 320.33, 780.46 319.26, 782.85 317.48 C 785.23 315.69, 786.43 314.87, 788.31 313.65 C 790.19 312.42, 791.00 311.93, 792.25 311.33 C 793.50 310.74, 793.74 310.63, 794.55 310.69 C 795.37 310.74, 795.67 311.17, 796.33 311.61 C 796.99 312.06, 797.19 312.46, 797.86 312.92 C 798.52 313.38, 799.12 313.90, 799.67 313.92 C 800.23 313.95, 800.63 313.63, 800.63 313.05" style="stroke: white; fill: white;"/><path d="M 829.29,314.02 C 828.89 314.24, 828.78 314.49, 828.24 315.38 C 827.70 316.27, 827.41 316.83, 826.58 318.46 C 825.74 320.08, 825.09 321.38, 824.08 323.51 C 823.07 325.63, 822.58 326.93, 821.54 329.09 C 820.49 331.25, 819.76 332.40, 818.85 334.32 C 817.94 336.24, 817.51 337.14, 816.96 338.69 C 816.42 340.23, 816.12 341.05, 816.13 342.04 C 816.14 343.04, 816.45 343.54, 817.01 343.67 C 817.56 343.80, 818.03 343.53, 818.91 342.68 C 819.79 341.83, 820.19 341.07, 821.39 339.41 C 822.59 337.75, 823.28 336.59, 824.93 334.36 C 826.58 332.14, 827.46 330.67, 829.63 328.27 C 831.80 325.87, 833.22 324.54, 835.78 322.38 C 838.35 320.22, 839.93 319.08, 842.48 317.46 C 845.02 315.84, 846.30 315.16, 848.52 314.28 C 850.75 313.41, 851.85 313.22, 853.60 313.10 C 855.36 312.98, 856.15 313.10, 857.30 313.70 C 858.45 314.29, 858.77 314.83, 859.37 316.07 C 859.97 317.30, 860.14 318.16, 860.30 319.86 C 860.47 321.56, 860.37 322.51, 860.20 324.56 C 860.02 326.62, 859.85 327.90, 859.41 330.12 C 858.97 332.34, 858.56 333.52, 858.00 335.68 C 857.45 337.84, 857.03 338.93, 856.63 340.91 C 856.23 342.90, 856.03 343.99, 856.01 345.59 C 855.99 347.19, 856.21 347.89, 856.55 348.92 C 856.89 349.95, 857.32 350.42, 857.71 350.73 C 858.10 351.03, 858.36 350.87, 858.49 350.45 C 858.62 350.02, 858.34 349.55, 858.34 348.61 C 858.34 347.67, 858.30 347.18, 858.49 345.76 C 858.68 344.34, 858.84 343.37, 859.29 341.51 C 859.75 339.64, 860.17 338.59, 860.78 336.43 C 861.39 334.27, 861.88 333.04, 862.35 330.71 C 862.82 328.38, 863.02 327.02, 863.15 324.77 C 863.28 322.53, 863.34 321.45, 862.99 319.48 C 862.64 317.51, 862.36 316.45, 861.41 314.92 C 860.46 313.40, 859.83 312.66, 858.25 311.85 C 856.68 311.03, 855.65 310.82, 853.53 310.84 C 851.40 310.86, 850.12 311.04, 847.64 311.94 C 845.16 312.83, 843.81 313.62, 841.12 315.33 C 838.43 317.03, 836.88 318.26, 834.19 320.47 C 831.51 322.69, 830.07 324.04, 827.69 326.41 C 825.31 328.78, 824.12 330.09, 822.30 332.32 C 820.48 334.55, 819.67 335.75, 818.59 337.57 C 817.50 339.39, 817.21 340.30, 816.87 341.44 C 816.54 342.58, 816.70 343.05, 816.90 343.27 C 817.10 343.49, 817.39 343.25, 817.88 342.53 C 818.36 341.81, 818.63 341.07, 819.32 339.68 C 820.01 338.29, 820.32 337.42, 821.33 335.59 C 822.33 333.76, 823.15 332.66, 824.33 330.55 C 825.51 328.44, 826.17 327.20, 827.24 325.04 C 828.31 322.89, 829.04 321.57, 829.67 319.78 C 830.30 317.99, 830.28 317.18, 830.39 316.09 C 830.50 314.99, 830.44 314.70, 830.22 314.28 C 830.00 313.87, 829.68 313.80, 829.29 314.02" style="stroke: white; fill: white;"/><path d="M 989.14,289.59 C 988.47 289.97, 987.89 290.65, 986.74 292.08 C 985.59 293.52, 984.98 294.44, 983.37 296.77 C 981.77 299.10, 980.87 300.61, 978.71 303.71 C 976.55 306.82, 975.22 308.76, 972.55 312.30 C 969.89 315.83, 968.36 317.74, 965.38 321.38 C 962.39 325.03, 960.64 327.06, 957.64 330.53 C 954.65 334.00, 953.00 335.74, 950.39 338.74 C 947.77 341.74, 946.58 343.13, 944.57 345.54 C 942.56 347.94, 941.49 349.31, 940.35 350.78 C 939.21 352.25, 939.17 352.64, 938.86 352.89 C 938.55 353.14, 938.84 352.56, 938.81 352.03 C 938.78 351.51, 938.98 350.61, 938.70 350.27 C 938.43 349.93, 937.67 349.91, 937.43 350.34 C 937.19 350.76, 937.19 351.72, 937.53 352.41 C 937.86 353.11, 938.21 353.85, 939.09 353.81 C 939.96 353.77, 940.46 353.58, 941.91 352.21 C 943.36 350.85, 944.36 349.44, 946.34 346.99 C 948.33 344.54, 949.30 343.03, 951.83 339.96 C 954.36 336.90, 956.00 335.17, 958.98 331.68 C 961.96 328.19, 963.72 326.15, 966.75 322.52 C 969.77 318.88, 971.33 316.98, 974.11 313.51 C 976.89 310.03, 978.29 308.14, 980.64 305.14 C 982.99 302.13, 984.23 300.84, 985.86 298.48 C 987.48 296.13, 987.90 295.03, 988.74 293.38 C 989.58 291.72, 989.98 290.95, 990.06 290.20 C 990.14 289.44, 989.80 289.22, 989.14 289.59" style="stroke: white; fill: white;"/><path d="M 984.74,280.42 C 984.65 280.70, 984.90 280.54, 984.90 281.16 C 984.89 281.78, 984.73 282.10, 984.72 283.51 C 984.71 284.93, 984.85 285.96, 984.84 288.24 C 984.82 290.51, 984.77 292.02, 984.63 294.91 C 984.49 297.79, 984.48 299.44, 984.14 302.65 C 983.81 305.86, 983.48 307.59, 982.97 310.95 C 982.46 314.30, 982.18 316.05, 981.59 319.42 C 981.00 322.80, 980.62 324.62, 980.04 327.82 C 979.45 331.02, 979.09 332.66, 978.67 335.42 C 978.25 338.19, 978.18 339.43, 977.95 341.66 C 977.71 343.89, 977.57 344.91, 977.49 346.57 C 977.42 348.22, 977.50 348.91, 977.60 349.95 C 977.70 350.99, 977.77 351.41, 978.00 351.78 C 978.22 352.16, 978.47 352.17, 978.73 351.82 C 978.99 351.47, 979.09 351.06, 979.31 350.05 C 979.53 349.04, 979.61 348.39, 979.82 346.77 C 980.04 345.15, 980.11 344.14, 980.40 341.95 C 980.69 339.76, 980.87 338.55, 981.27 335.81 C 981.68 333.07, 981.89 331.43, 982.41 328.23 C 982.93 325.04, 983.30 323.20, 983.87 319.82 C 984.45 316.44, 984.74 314.69, 985.31 311.33 C 985.88 307.96, 986.24 306.21, 986.73 302.98 C 987.22 299.74, 987.44 298.09, 987.75 295.14 C 988.05 292.20, 988.25 290.64, 988.27 288.26 C 988.28 285.87, 988.11 284.77, 987.81 283.21 C 987.50 281.65, 987.24 281.17, 986.75 280.48 C 986.27 279.79, 985.78 279.77, 985.38 279.76 C 984.98 279.74, 984.84 280.14, 984.74 280.42" style="stroke: white; fill: white;"/><path d="M 952.45,330.02 C 952.79 329.95, 952.54 329.58, 953.26 329.26 C 953.97 328.95, 954.36 328.93, 956.03 328.44 C 957.70 327.95, 958.95 327.56, 961.59 326.80 C 964.23 326.03, 965.98 325.39, 969.23 324.61 C 972.49 323.82, 974.41 323.48, 977.86 322.86 C 981.30 322.24, 983.16 322.00, 986.47 321.53 C 989.78 321.05, 991.68 320.87, 994.41 320.51 C 997.14 320.15, 998.24 320.07, 1000.12 319.72 C 1001.99 319.37, 1003.07 319.11, 1003.78 318.74 C 1004.49 318.37, 1004.45 318.08, 1003.68 317.88 C 1002.91 317.69, 1001.85 317.77, 999.94 317.76 C 998.02 317.75, 996.87 317.57, 994.10 317.85 C 991.34 318.12, 989.44 318.61, 986.11 319.14 C 982.78 319.67, 980.94 319.93, 977.46 320.49 C 973.97 321.05, 972.03 321.33, 968.67 321.93 C 965.32 322.52, 963.42 322.73, 960.67 323.46 C 957.91 324.19, 956.63 324.72, 954.89 325.57 C 953.16 326.42, 952.66 326.90, 951.99 327.71 C 951.33 328.52, 951.48 329.15, 951.57 329.61 C 951.66 330.07, 952.12 330.09, 952.45 330.02" style="stroke: white; fill: white;"/><path d="M 1024.23,318.28 C 1023.63 318.32, 1022.99 318.44, 1021.85 319.30 C 1020.71 320.17, 1019.86 320.97, 1018.53 322.60 C 1017.20 324.22, 1016.43 325.33, 1015.19 327.44 C 1013.95 329.55, 1013.26 330.90, 1012.34 333.17 C 1011.41 335.43, 1011.02 336.67, 1010.56 338.77 C 1010.09 340.87, 1009.87 341.93, 1010.00 343.67 C 1010.12 345.40, 1010.31 346.27, 1011.18 347.46 C 1012.06 348.65, 1012.71 349.13, 1014.37 349.63 C 1016.02 350.12, 1017.13 350.20, 1019.44 349.92 C 1021.75 349.65, 1023.16 349.34, 1025.90 348.26 C 1028.64 347.17, 1030.23 346.26, 1033.13 344.52 C 1036.03 342.77, 1037.62 341.64, 1040.40 339.52 C 1043.18 337.41, 1044.57 336.17, 1047.03 333.95 C 1049.49 331.74, 1050.78 330.55, 1052.70 328.45 C 1054.62 326.35, 1055.47 325.27, 1056.64 323.47 C 1057.80 321.67, 1058.32 320.60, 1058.50 319.45 C 1058.69 318.31, 1058.39 317.69, 1057.58 317.74 C 1056.76 317.78, 1055.76 318.29, 1054.41 319.67 C 1053.07 321.05, 1052.20 322.31, 1050.84 324.64 C 1049.47 326.97, 1048.74 328.63, 1047.59 331.32 C 1046.45 334.01, 1045.81 335.57, 1045.11 338.09 C 1044.42 340.61, 1044.31 341.86, 1044.13 343.93 C 1043.95 346.01, 1043.86 346.85, 1044.22 348.46 C 1044.59 350.07, 1044.98 350.84, 1045.94 351.98 C 1046.90 353.11, 1047.65 353.77, 1049.02 354.15 C 1050.39 354.52, 1052.01 354.20, 1052.78 353.86 C 1053.55 353.52, 1053.46 352.86, 1052.85 352.45 C 1052.25 352.03, 1050.80 352.18, 1049.75 351.80 C 1048.69 351.43, 1048.25 351.31, 1047.56 350.56 C 1046.88 349.81, 1046.52 349.31, 1046.32 348.05 C 1046.11 346.78, 1046.23 346.05, 1046.54 344.23 C 1046.85 342.41, 1047.04 341.25, 1047.85 338.94 C 1048.65 336.63, 1049.32 335.18, 1050.56 332.68 C 1051.80 330.18, 1052.79 328.71, 1054.03 326.44 C 1055.26 324.17, 1055.94 322.95, 1056.74 321.36 C 1057.54 319.76, 1057.96 318.98, 1058.03 318.47 C 1058.11 317.96, 1057.80 318.09, 1057.11 318.79 C 1056.42 319.49, 1055.85 320.40, 1054.57 321.97 C 1053.29 323.54, 1052.55 324.61, 1050.71 326.65 C 1048.87 328.68, 1047.74 329.97, 1045.38 332.15 C 1043.03 334.34, 1041.66 335.57, 1038.95 337.58 C 1036.23 339.60, 1034.64 340.68, 1031.81 342.23 C 1028.98 343.78, 1027.35 344.39, 1024.78 345.35 C 1022.22 346.32, 1020.97 346.63, 1018.98 347.04 C 1017.00 347.45, 1016.10 347.52, 1014.85 347.38 C 1013.60 347.25, 1013.24 347.11, 1012.73 346.36 C 1012.22 345.61, 1012.22 345.02, 1012.31 343.64 C 1012.41 342.26, 1012.63 341.31, 1013.19 339.46 C 1013.75 337.60, 1014.13 336.44, 1015.10 334.38 C 1016.07 332.32, 1016.82 331.11, 1018.03 329.15 C 1019.24 327.19, 1020.03 326.20, 1021.15 324.58 C 1022.28 322.96, 1022.90 322.13, 1023.65 321.03 C 1024.39 319.93, 1024.78 319.64, 1024.89 319.09 C 1025.01 318.54, 1024.84 318.24, 1024.23 318.28" style="stroke: white; fill: white;"/><path d="M 1100.07,290.61 C 1099.55 290.98, 1099.27 291.51, 1098.42 292.87 C 1097.57 294.22, 1096.98 295.16, 1095.82 297.38 C 1094.67 299.59, 1094.07 301.15, 1092.64 303.95 C 1091.22 306.75, 1090.30 308.46, 1088.69 311.39 C 1087.08 314.32, 1086.21 315.86, 1084.58 318.62 C 1082.95 321.39, 1081.98 322.71, 1080.55 325.21 C 1079.13 327.72, 1078.35 329.08, 1077.46 331.14 C 1076.58 333.21, 1076.37 334.22, 1076.13 335.55 C 1075.89 336.89, 1075.95 337.28, 1076.27 337.83 C 1076.59 338.37, 1076.89 338.48, 1077.72 338.29 C 1078.55 338.11, 1079.16 337.84, 1080.41 336.90 C 1081.67 335.96, 1082.34 335.15, 1084.00 333.61 C 1085.66 332.06, 1086.51 330.93, 1088.71 329.17 C 1090.91 327.41, 1092.26 326.33, 1095.00 324.79 C 1097.74 323.25, 1099.43 322.51, 1102.41 321.46 C 1105.38 320.41, 1107.04 319.96, 1109.86 319.53 C 1112.68 319.10, 1114.18 319.12, 1116.49 319.29 C 1118.81 319.46, 1119.85 319.72, 1121.45 320.38 C 1123.05 321.04, 1123.73 321.49, 1124.50 322.59 C 1125.28 323.69, 1125.46 324.47, 1125.31 325.89 C 1125.16 327.30, 1124.80 328.02, 1123.76 329.67 C 1122.71 331.32, 1121.91 332.36, 1120.09 334.13 C 1118.26 335.90, 1117.05 336.93, 1114.63 338.53 C 1112.20 340.12, 1110.70 340.85, 1107.97 342.10 C 1105.24 343.35, 1103.64 343.92, 1100.97 344.79 C 1098.29 345.66, 1096.85 345.97, 1094.60 346.44 C 1092.36 346.91, 1091.28 347.07, 1089.76 347.14 C 1088.24 347.21, 1087.72 347.04, 1087.02 346.80 C 1086.31 346.57, 1086.45 346.38, 1086.23 345.98 C 1086.02 345.57, 1086.18 345.01, 1085.94 344.78 C 1085.70 344.56, 1085.22 344.50, 1085.01 344.85 C 1084.81 345.20, 1084.67 345.83, 1084.92 346.53 C 1085.17 347.23, 1085.30 347.78, 1086.26 348.36 C 1087.22 348.94, 1087.95 349.29, 1089.72 349.43 C 1091.48 349.57, 1092.67 349.45, 1095.09 349.04 C 1097.51 348.64, 1099.02 348.31, 1101.81 347.41 C 1104.61 346.50, 1106.21 345.83, 1109.08 344.53 C 1111.95 343.24, 1113.53 342.56, 1116.16 340.92 C 1118.79 339.27, 1120.22 338.27, 1122.21 336.29 C 1124.20 334.31, 1125.04 333.09, 1126.12 331.03 C 1127.21 328.98, 1127.59 327.94, 1127.61 326.01 C 1127.64 324.08, 1127.31 322.92, 1126.26 321.38 C 1125.22 319.84, 1124.29 319.23, 1122.38 318.31 C 1120.47 317.39, 1119.30 317.04, 1116.72 316.77 C 1114.14 316.50, 1112.50 316.49, 1109.46 316.95 C 1106.43 317.42, 1104.72 317.98, 1101.57 319.08 C 1098.42 320.18, 1096.68 320.92, 1093.73 322.44 C 1090.78 323.96, 1089.24 324.95, 1086.83 326.68 C 1084.41 328.41, 1083.37 329.50, 1081.66 331.10 C 1079.95 332.69, 1079.25 333.47, 1078.28 334.66 C 1077.30 335.85, 1077.04 336.43, 1076.79 337.05 C 1076.54 337.67, 1076.76 337.94, 1077.01 337.76 C 1077.27 337.59, 1077.52 337.30, 1078.08 336.19 C 1078.63 335.08, 1078.84 334.16, 1079.80 332.23 C 1080.77 330.29, 1081.51 329.00, 1082.89 326.53 C 1084.27 324.06, 1085.12 322.65, 1086.72 319.87 C 1088.33 317.10, 1089.21 315.56, 1090.92 312.66 C 1092.63 309.76, 1093.70 308.12, 1095.26 305.35 C 1096.82 302.58, 1097.64 301.10, 1098.71 298.80 C 1099.78 296.50, 1100.14 295.42, 1100.60 293.86 C 1101.07 292.30, 1101.15 291.66, 1101.04 291.01 C 1100.94 290.36, 1100.60 290.24, 1100.07 290.61" style="stroke: white; fill: white;"/><path d="M 1138.58,336.02 C 1138.95 336.29, 1139.26 336.30, 1140.24 336.34 C 1141.21 336.38, 1141.83 336.50, 1143.45 336.23 C 1145.08 335.95, 1146.24 335.65, 1148.37 334.96 C 1150.50 334.26, 1151.72 333.71, 1154.09 332.74 C 1156.47 331.76, 1157.90 331.20, 1160.25 330.11 C 1162.59 329.01, 1163.82 328.36, 1165.81 327.25 C 1167.79 326.13, 1168.75 325.59, 1170.16 324.53 C 1171.57 323.46, 1172.25 322.95, 1172.88 321.90 C 1173.51 320.86, 1173.64 320.22, 1173.32 319.29 C 1173.01 318.35, 1172.57 317.79, 1171.29 317.25 C 1170.02 316.70, 1169.03 316.47, 1166.94 316.57 C 1164.85 316.67, 1163.48 316.86, 1160.83 317.73 C 1158.17 318.60, 1156.62 319.36, 1153.65 320.92 C 1150.68 322.47, 1148.90 323.51, 1145.99 325.51 C 1143.09 327.50, 1141.47 328.69, 1139.12 330.90 C 1136.78 333.10, 1135.57 334.33, 1134.26 336.54 C 1132.94 338.74, 1132.51 339.95, 1132.55 341.93 C 1132.59 343.90, 1132.98 344.92, 1134.47 346.41 C 1135.96 347.89, 1137.24 348.58, 1139.98 349.35 C 1142.73 350.13, 1144.60 350.16, 1148.20 350.28 C 1151.79 350.40, 1153.78 350.27, 1157.94 349.96 C 1162.09 349.64, 1164.81 349.25, 1168.96 348.70 C 1173.12 348.15, 1175.47 347.86, 1178.71 347.19 C 1181.94 346.53, 1183.90 345.92, 1185.15 345.36 C 1186.40 344.79, 1186.31 344.42, 1184.96 344.39 C 1183.60 344.35, 1181.61 344.73, 1178.36 345.17 C 1175.11 345.61, 1172.80 346.08, 1168.69 346.60 C 1164.57 347.13, 1161.87 347.57, 1157.79 347.80 C 1153.72 348.04, 1151.74 348.04, 1148.32 347.80 C 1144.91 347.56, 1143.19 347.19, 1140.70 346.60 C 1138.20 346.01, 1137.10 345.78, 1135.84 344.85 C 1134.59 343.92, 1134.34 343.35, 1134.43 341.95 C 1134.52 340.56, 1135.02 339.70, 1136.31 337.86 C 1137.60 336.02, 1138.66 334.83, 1140.88 332.77 C 1143.10 330.72, 1144.61 329.47, 1147.41 327.58 C 1150.21 325.70, 1151.99 324.72, 1154.87 323.37 C 1157.75 322.02, 1159.32 321.56, 1161.80 320.82 C 1164.27 320.08, 1165.44 319.93, 1167.23 319.66 C 1169.02 319.39, 1169.76 319.45, 1170.74 319.47 C 1171.71 319.49, 1171.95 319.51, 1172.09 319.76 C 1172.23 320.01, 1172.09 320.17, 1171.42 320.71 C 1170.76 321.25, 1170.16 321.65, 1168.77 322.47 C 1167.39 323.28, 1166.46 323.82, 1164.50 324.79 C 1162.55 325.77, 1161.33 326.36, 1159.01 327.35 C 1156.69 328.34, 1155.25 328.86, 1152.92 329.75 C 1150.58 330.64, 1149.36 331.10, 1147.32 331.77 C 1145.28 332.45, 1144.22 332.68, 1142.72 333.14 C 1141.22 333.61, 1140.70 333.73, 1139.83 334.10 C 1138.97 334.47, 1138.64 334.62, 1138.39 335.01 C 1138.14 335.39, 1138.21 335.75, 1138.58 336.02" style="stroke: white; fill: white;"/><path d="M 1223.14,292.26 C 1222.19 292.97, 1221.08 294.18, 1219.31 296.51 C 1217.54 298.84, 1216.57 300.58, 1214.30 303.91 C 1212.03 307.24, 1210.42 309.42, 1207.96 313.16 C 1205.49 316.90, 1204.23 319.00, 1201.97 322.60 C 1199.71 326.20, 1198.41 328.07, 1196.64 331.17 C 1194.87 334.26, 1194.18 335.65, 1193.11 338.08 C 1192.03 340.51, 1191.68 341.62, 1191.28 343.33 C 1190.88 345.05, 1190.99 345.96, 1191.12 346.65 C 1191.24 347.35, 1191.53 347.36, 1191.90 346.81 C 1192.27 346.26, 1192.29 345.43, 1192.97 343.89 C 1193.64 342.34, 1194.17 341.40, 1195.27 339.06 C 1196.37 336.73, 1196.80 335.27, 1198.47 332.19 C 1200.14 329.10, 1201.39 327.22, 1203.62 323.64 C 1205.85 320.06, 1207.14 317.98, 1209.64 314.29 C 1212.15 310.60, 1213.80 308.46, 1216.13 305.18 C 1218.46 301.91, 1219.70 300.36, 1221.29 297.90 C 1222.88 295.45, 1223.70 294.05, 1224.07 292.92 C 1224.44 291.79, 1224.10 291.54, 1223.14 292.26" style="stroke: white; fill: white;"/></svg>