<svg xmlns="http://www.w3.org/2000/svg" id="canvas" viewBox="225.789 266.324 1043.647 155.560"><path d="M 229.65,343.23 C 230.21 342.73, 230.66 342.17, 231.55 340.36 C 232.43 338.55, 232.94 337.38, 234.08 334.19 C 235.21 331.00, 235.83 328.73, 237.22 324.41 C 238.61 320.09, 239.40 317.43, 241.04 312.60 C 242.67 307.77, 243.59 305.01, 245.39 300.25 C 247.19 295.49, 248.20 292.93, 250.04 288.81 C 251.88 284.69, 253.04 282.68, 254.61 279.66 C 256.18 276.64, 256.92 275.23, 257.90 273.71 C 258.88 272.18, 259.10 271.66, 259.50 272.03 C 259.89 272.40, 259.74 273.10, 259.89 275.56 C 260.04 278.02, 260.18 279.88, 260.25 284.33 C 260.32 288.78, 260.30 291.77, 260.23 297.80 C 260.15 303.83, 260.00 307.64, 259.89 314.47 C 259.77 321.29, 259.63 325.24, 259.66 331.94 C 259.68 338.63, 259.74 342.21, 260.02 347.96 C 260.30 353.72, 260.46 356.56, 261.05 360.71 C 261.64 364.85, 261.95 366.58, 262.97 368.69 C 263.99 370.79, 264.84 371.28, 266.17 371.24 C 267.49 371.20, 268.38 370.60, 269.60 368.48 C 270.83 366.36, 271.29 364.68, 272.29 360.64 C 273.30 356.59, 273.66 353.92, 274.62 348.26 C 275.58 342.59, 276.08 339.19, 277.09 332.31 C 278.10 325.43, 278.70 321.00, 279.68 313.84 C 280.65 306.69, 281.09 302.88, 281.96 296.53 C 282.84 290.19, 283.39 286.89, 284.06 282.11 C 284.73 277.33, 285.17 275.19, 285.30 272.63 C 285.42 270.08, 285.16 269.46, 284.69 269.34 C 284.22 269.22, 283.39 269.75, 282.96 272.03 C 282.53 274.32, 282.19 279.00, 282.55 280.77 C 282.91 282.54, 284.21 282.60, 284.77 280.89 C 285.33 279.19, 285.36 274.54, 285.33 272.24 C 285.30 269.94, 284.96 269.35, 284.62 269.40 C 284.28 269.44, 284.02 269.96, 283.63 272.46 C 283.24 274.97, 283.25 277.15, 282.69 281.93 C 282.12 286.72, 281.64 290.03, 280.82 296.38 C 280.00 302.73, 279.57 306.54, 278.58 313.69 C 277.59 320.84, 276.98 325.27, 275.90 332.13 C 274.81 338.99, 274.27 342.39, 273.16 347.99 C 272.06 353.59, 271.44 356.22, 270.36 360.13 C 269.28 364.05, 268.63 365.52, 267.78 367.57 C 266.93 369.62, 266.78 370.27, 266.11 370.37 C 265.43 370.47, 265.14 370.05, 264.43 368.07 C 263.72 366.09, 263.19 364.52, 262.56 360.48 C 261.92 356.45, 261.61 353.61, 261.26 347.89 C 260.91 342.18, 260.84 338.61, 260.81 331.93 C 260.77 325.25, 260.92 321.31, 261.10 314.49 C 261.27 307.67, 261.46 303.87, 261.68 297.84 C 261.89 291.80, 262.08 288.84, 262.16 284.33 C 262.24 279.82, 262.53 277.90, 262.08 275.30 C 261.63 272.70, 261.02 271.84, 259.92 271.32 C 258.82 270.80, 258.01 271.19, 256.60 272.69 C 255.20 274.18, 254.51 275.68, 252.90 278.77 C 251.30 281.87, 250.37 283.98, 248.58 288.17 C 246.80 292.36, 245.80 294.94, 243.99 299.72 C 242.18 304.50, 241.24 307.26, 239.52 312.08 C 237.81 316.89, 236.96 319.53, 235.41 323.79 C 233.86 328.04, 232.95 330.20, 231.78 333.36 C 230.62 336.52, 230.18 337.67, 229.58 339.57 C 228.98 341.47, 228.77 342.12, 228.79 342.85 C 228.80 343.58, 229.10 343.73, 229.65 343.23" style="stroke: white; fill: white;"/><path d="M 312.59,332.48 C 313.04 332.12, 313.46 331.48, 313.76 330.40 C 314.06 329.32, 314.28 328.47, 314.08 327.06 C 313.89 325.65, 313.64 324.50, 312.79 323.35 C 311.93 322.20, 311.22 321.62, 309.79 321.32 C 308.37 321.02, 307.42 320.96, 305.67 321.86 C 303.91 322.75, 302.78 323.44, 301.02 325.79 C 299.27 328.14, 298.39 330.00, 296.90 333.60 C 295.41 337.20, 294.61 339.62, 293.59 343.79 C 292.58 347.97, 292.18 350.56, 291.84 354.47 C 291.49 358.38, 291.33 360.52, 291.86 363.34 C 292.38 366.17, 293.09 367.41, 294.45 368.59 C 295.82 369.78, 296.86 369.90, 298.69 369.25 C 300.51 368.61, 301.72 367.67, 303.58 365.37 C 305.43 363.08, 306.32 361.21, 307.98 357.77 C 309.64 354.32, 310.45 351.96, 311.86 348.14 C 313.27 344.33, 314.06 342.00, 315.03 338.69 C 316.00 335.38, 316.49 333.62, 316.71 331.59 C 316.93 329.56, 316.59 328.74, 316.11 328.54 C 315.64 328.35, 315.00 328.88, 314.35 330.62 C 313.71 332.36, 313.21 334.08, 312.89 337.24 C 312.58 340.39, 312.59 342.82, 312.78 346.39 C 312.96 349.97, 313.13 352.05, 313.83 355.12 C 314.53 358.19, 315.00 359.79, 316.27 361.74 C 317.55 363.69, 318.45 364.48, 320.22 364.87 C 321.98 365.26, 323.15 364.99, 325.10 363.69 C 327.06 362.39, 328.08 361.15, 330.01 358.37 C 331.94 355.58, 332.91 353.46, 334.76 349.75 C 336.62 346.04, 337.67 343.39, 339.30 339.80 C 340.93 336.21, 341.87 334.15, 342.92 331.79 C 343.96 329.43, 344.16 328.37, 344.54 328.01 C 344.92 327.65, 344.78 328.18, 344.80 329.99 C 344.82 331.81, 344.66 333.78, 344.66 337.08 C 344.65 340.38, 344.67 342.83, 344.75 346.50 C 344.84 350.16, 344.79 352.36, 345.08 355.40 C 345.37 358.45, 345.49 359.96, 346.19 361.73 C 346.90 363.50, 347.46 364.13, 348.62 364.25 C 349.78 364.36, 350.63 363.86, 352.00 362.32 C 353.38 360.79, 354.09 359.42, 355.50 356.55 C 356.91 353.67, 357.58 351.50, 359.06 347.96 C 360.53 344.42, 361.54 342.00, 362.87 338.85 C 364.20 335.71, 364.88 333.98, 365.71 332.23 C 366.54 330.48, 366.69 329.96, 367.02 330.11 C 367.35 330.25, 367.26 331.04, 367.34 332.96 C 367.42 334.88, 367.29 336.70, 367.42 339.71 C 367.55 342.73, 367.66 344.92, 367.98 348.04 C 368.30 351.17, 368.40 352.97, 369.03 355.34 C 369.67 357.72, 370.12 358.79, 371.15 359.92 C 372.18 361.05, 372.85 361.31, 374.18 360.97 C 375.51 360.63, 376.36 360.00, 377.80 358.21 C 379.23 356.42, 379.93 354.87, 381.35 352.01 C 382.77 349.14, 383.47 347.00, 384.90 343.88 C 386.32 340.75, 387.33 338.76, 388.49 336.39 C 389.65 334.02, 390.03 332.88, 390.68 332.02 C 391.34 331.17, 391.42 331.23, 391.76 332.12 C 392.10 333.01, 392.04 334.19, 392.41 336.47 C 392.78 338.75, 392.99 340.60, 393.62 343.52 C 394.24 346.44, 394.59 348.31, 395.54 351.08 C 396.49 353.85, 397.04 355.34, 398.39 357.36 C 399.74 359.38, 400.54 360.25, 402.29 361.16 C 404.05 362.07, 405.13 362.27, 407.18 361.92 C 409.24 361.57, 410.47 360.99, 412.58 359.40 C 414.68 357.81, 415.76 356.52, 417.70 353.98 C 419.65 351.44, 420.61 349.68, 422.30 346.70 C 423.99 343.71, 424.94 341.87, 426.17 339.05 C 427.40 336.23, 428.03 334.69, 428.47 332.62 C 428.91 330.55, 428.82 329.58, 428.37 328.72 C 427.93 327.85, 427.27 327.75, 426.25 328.31 C 425.24 328.88, 424.43 329.64, 423.30 331.52 C 422.16 333.41, 421.40 335.00, 420.58 337.74 C 419.76 340.47, 419.41 342.36, 419.20 345.21 C 418.98 348.07, 418.98 349.74, 419.52 352.01 C 420.05 354.28, 420.65 355.38, 421.87 356.56 C 423.09 357.73, 424.00 358.11, 425.63 357.87 C 427.27 357.64, 428.37 357.06, 430.05 355.39 C 431.73 353.72, 432.67 352.30, 434.04 349.54 C 435.41 346.79, 436.02 344.86, 436.90 341.62 C 437.78 338.37, 438.28 336.32, 438.44 333.32 C 438.60 330.32, 438.36 328.56, 437.71 326.62 C 437.05 324.68, 436.32 324.01, 435.16 323.62 C 434.00 323.23, 433.06 323.59, 431.90 324.67 C 430.74 325.75, 430.01 326.91, 429.35 329.04 C 428.69 331.18, 428.48 332.79, 428.60 335.35 C 428.72 337.91, 429.02 339.50, 429.96 341.86 C 430.90 344.22, 431.62 345.44, 433.31 347.17 C 434.99 348.90, 436.13 349.67, 438.38 350.50 C 440.64 351.34, 442.03 351.54, 444.59 351.36 C 447.16 351.17, 448.81 350.55, 451.21 349.60 C 453.61 348.65, 454.89 347.80, 456.61 346.61 C 458.33 345.43, 459.28 344.43, 459.82 343.68 C 460.36 342.94, 460.16 342.70, 459.30 342.89 C 458.43 343.08, 457.30 343.81, 455.49 344.63 C 453.67 345.45, 452.44 346.16, 450.21 347.00 C 447.98 347.84, 446.57 348.55, 444.36 348.82 C 442.15 349.09, 441.04 348.99, 439.17 348.33 C 437.31 347.68, 436.38 347.02, 435.03 345.54 C 433.68 344.07, 433.12 343.01, 432.44 340.95 C 431.75 338.89, 431.66 337.48, 431.61 335.24 C 431.55 333.00, 431.79 331.62, 432.14 329.74 C 432.49 327.86, 432.83 326.85, 433.35 325.83 C 433.88 324.81, 434.28 324.40, 434.75 324.65 C 435.23 324.90, 435.51 325.40, 435.71 327.09 C 435.91 328.79, 436.02 330.36, 435.76 333.13 C 435.50 335.89, 435.26 337.90, 434.40 340.93 C 433.54 343.96, 432.72 345.72, 431.47 348.27 C 430.22 350.83, 429.40 352.10, 428.16 353.69 C 426.92 355.29, 426.28 355.89, 425.28 356.23 C 424.27 356.58, 423.82 356.33, 423.14 355.41 C 422.46 354.48, 422.09 353.58, 421.90 351.60 C 421.70 349.63, 421.77 348.12, 422.15 345.54 C 422.54 342.96, 423.08 341.26, 423.83 338.71 C 424.59 336.15, 425.25 334.67, 425.92 332.78 C 426.60 330.89, 426.91 330.04, 427.21 329.26 C 427.52 328.48, 427.63 328.35, 427.45 328.89 C 427.27 329.43, 427.04 330.15, 426.32 331.97 C 425.59 333.80, 425.05 335.30, 423.83 338.01 C 422.60 340.71, 421.83 342.62, 420.19 345.50 C 418.55 348.38, 417.48 350.01, 415.64 352.39 C 413.80 354.77, 412.75 355.88, 410.97 357.39 C 409.19 358.89, 408.31 359.50, 406.75 359.92 C 405.20 360.35, 404.47 360.27, 403.20 359.51 C 401.92 358.76, 401.36 358.02, 400.37 356.16 C 399.38 354.31, 398.98 352.89, 398.24 350.23 C 397.50 347.57, 397.29 345.75, 396.66 342.86 C 396.03 339.97, 395.86 338.11, 395.10 335.80 C 394.33 333.50, 393.88 332.29, 392.82 331.32 C 391.77 330.35, 391.16 330.20, 389.82 330.95 C 388.48 331.70, 387.59 332.72, 386.13 335.08 C 384.67 337.45, 383.98 339.64, 382.51 342.77 C 381.04 345.90, 380.14 347.94, 378.77 350.74 C 377.41 353.54, 376.71 354.97, 375.70 356.77 C 374.68 358.57, 374.34 359.28, 373.68 359.73 C 373.02 360.19, 372.83 360.03, 372.39 359.05 C 371.96 358.08, 371.81 357.09, 371.50 354.84 C 371.20 352.59, 371.07 350.86, 370.86 347.80 C 370.66 344.73, 370.75 342.56, 370.47 339.51 C 370.20 336.47, 370.13 334.59, 369.49 332.57 C 368.84 330.54, 368.32 329.65, 367.24 329.38 C 366.15 329.11, 365.38 329.51, 364.06 331.20 C 362.74 332.90, 362.09 334.71, 360.64 337.87 C 359.20 341.03, 358.36 343.52, 356.83 347.01 C 355.30 350.51, 354.32 352.54, 353.00 355.35 C 351.69 358.16, 351.12 359.48, 350.25 361.07 C 349.38 362.67, 349.13 363.29, 348.67 363.32 C 348.20 363.36, 348.14 362.88, 347.93 361.26 C 347.72 359.64, 347.74 358.19, 347.62 355.23 C 347.49 352.27, 347.37 350.09, 347.31 346.45 C 347.26 342.81, 347.50 340.38, 347.36 337.02 C 347.22 333.67, 347.23 331.63, 346.62 329.68 C 346.00 327.74, 345.42 327.09, 344.28 327.31 C 343.13 327.52, 342.29 328.42, 340.90 330.74 C 339.51 333.07, 338.95 335.31, 337.34 338.92 C 335.72 342.52, 334.70 345.15, 332.84 348.77 C 330.97 352.38, 329.80 354.34, 328.00 356.99 C 326.20 359.63, 325.33 360.71, 323.84 361.99 C 322.34 363.27, 321.71 363.63, 320.55 363.38 C 319.39 363.12, 318.89 362.47, 318.04 360.72 C 317.18 358.97, 316.80 357.51, 316.27 354.62 C 315.75 351.73, 315.50 349.72, 315.42 346.29 C 315.34 342.86, 315.69 340.53, 315.88 337.47 C 316.06 334.41, 316.30 332.76, 316.32 330.99 C 316.34 329.22, 316.29 328.60, 315.99 328.63 C 315.69 328.67, 315.45 329.30, 314.82 331.18 C 314.20 333.07, 313.85 334.80, 312.86 338.04 C 311.87 341.29, 311.28 343.67, 309.88 347.41 C 308.49 351.15, 307.58 353.46, 305.90 356.74 C 304.22 360.01, 303.06 361.57, 301.48 363.77 C 299.90 365.97, 299.19 366.99, 297.99 367.75 C 296.78 368.52, 296.23 368.55, 295.44 367.60 C 294.66 366.65, 294.38 365.59, 294.06 363.00 C 293.74 360.41, 293.54 358.38, 293.84 354.64 C 294.13 350.89, 294.51 348.30, 295.53 344.28 C 296.56 340.25, 297.42 337.86, 298.98 334.50 C 300.53 331.14, 301.74 329.62, 303.31 327.48 C 304.88 325.35, 305.61 324.68, 306.83 323.83 C 308.04 322.97, 308.63 323.05, 309.39 323.22 C 310.16 323.38, 310.30 323.80, 310.65 324.65 C 311.00 325.50, 311.01 326.36, 311.16 327.46 C 311.30 328.56, 311.30 329.18, 311.37 330.13 C 311.44 331.09, 311.27 331.75, 311.52 332.22 C 311.76 332.68, 312.14 332.84, 312.59 332.48" style="stroke: white; fill: white;"/><path d="M 544.64,316.76 C 544.27 316.31, 543.71 315.96, 542.56 315.53 C 541.41 315.09, 540.55 314.80, 538.88 314.59 C 537.20 314.37, 536.04 314.23, 534.20 314.47 C 532.36 314.71, 531.29 315.06, 529.67 315.80 C 528.06 316.53, 527.16 317.02, 526.14 318.16 C 525.11 319.29, 524.62 320.04, 524.54 321.48 C 524.46 322.93, 524.69 323.82, 525.74 325.39 C 526.79 326.97, 527.73 327.85, 529.77 329.36 C 531.82 330.87, 533.29 331.51, 535.97 332.96 C 538.65 334.41, 540.38 335.07, 543.15 336.61 C 545.93 338.14, 547.52 339.03, 549.86 340.65 C 552.19 342.27, 553.40 343.11, 554.84 344.72 C 556.29 346.33, 556.84 347.11, 557.08 348.70 C 557.31 350.29, 557.04 351.05, 556.02 352.66 C 554.99 354.27, 553.97 355.16, 551.95 356.76 C 549.94 358.35, 548.46 359.31, 545.95 360.63 C 543.43 361.95, 541.77 362.52, 539.36 363.34 C 536.96 364.16, 535.63 364.42, 533.92 364.71 C 532.22 365.01, 531.48 364.97, 530.84 364.81 C 530.20 364.66, 530.14 364.48, 530.72 363.94 C 531.30 363.40, 532.02 363.08, 533.75 362.10 C 535.49 361.13, 536.71 360.46, 539.41 359.07 C 542.11 357.69, 543.78 356.78, 547.25 355.17 C 550.73 353.56, 552.86 352.71, 556.77 351.02 C 560.68 349.32, 562.87 348.45, 566.79 346.71 C 570.71 344.97, 572.82 344.05, 576.36 342.32 C 579.90 340.59, 581.66 339.75, 584.50 338.06 C 587.33 336.37, 588.63 335.57, 590.53 333.87 C 592.42 332.17, 593.18 331.20, 593.96 329.58 C 594.74 327.95, 594.78 327.09, 594.42 325.75 C 594.07 324.41, 593.51 323.64, 592.18 322.90 C 590.86 322.16, 589.78 321.82, 587.78 322.04 C 585.78 322.25, 584.41 322.60, 582.19 323.95 C 579.97 325.31, 578.67 326.45, 576.66 328.82 C 574.66 331.19, 573.62 332.85, 572.15 335.78 C 570.69 338.72, 569.97 340.46, 569.32 343.48 C 568.68 346.50, 568.60 348.28, 568.94 350.89 C 569.27 353.50, 569.79 354.84, 571.02 356.53 C 572.24 358.22, 573.16 358.85, 575.06 359.32 C 576.97 359.78, 578.25 359.74, 580.54 358.84 C 582.83 357.95, 584.22 356.99, 586.52 354.84 C 588.81 352.68, 589.99 350.99, 592.01 348.05 C 594.03 345.12, 595.08 343.19, 596.61 340.15 C 598.14 337.10, 599.01 335.17, 599.67 332.82 C 600.33 330.48, 600.12 329.21, 599.91 328.43 C 599.70 327.64, 599.16 327.80, 598.62 328.91 C 598.09 330.01, 597.57 331.44, 597.23 333.94 C 596.90 336.45, 596.69 338.51, 596.94 341.43 C 597.20 344.35, 597.61 346.18, 598.52 348.54 C 599.43 350.90, 600.08 352.01, 601.49 353.22 C 602.90 354.44, 603.77 354.68, 605.57 354.61 C 607.37 354.54, 608.47 354.21, 610.49 352.86 C 612.50 351.52, 613.65 350.38, 615.63 347.90 C 617.62 345.43, 618.59 343.57, 620.41 340.49 C 622.23 337.42, 623.29 335.43, 624.73 332.51 C 626.17 329.59, 626.90 327.84, 627.59 325.91 C 628.28 323.99, 628.28 323.11, 628.16 322.87 C 628.05 322.63, 627.55 323.16, 627.01 324.71 C 626.47 326.26, 625.90 327.85, 625.46 330.63 C 625.01 333.41, 624.82 335.53, 624.79 338.61 C 624.76 341.69, 624.76 343.55, 625.32 346.04 C 625.89 348.52, 626.44 349.73, 627.64 351.06 C 628.83 352.39, 629.60 352.77, 631.31 352.68 C 633.03 352.58, 634.19 352.19, 636.21 350.60 C 638.22 349.00, 639.32 347.52, 641.38 344.70 C 643.44 341.88, 644.52 339.80, 646.49 336.50 C 648.45 333.19, 649.58 331.13, 651.21 328.18 C 652.83 325.24, 653.68 323.55, 654.61 321.77 C 655.53 319.99, 655.64 319.27, 655.83 319.29 C 656.02 319.31, 655.69 319.86, 655.56 321.86 C 655.43 323.87, 655.33 325.56, 655.18 329.31 C 655.03 333.06, 654.95 335.57, 654.81 340.60 C 654.66 345.64, 654.65 348.70, 654.47 354.48 C 654.29 360.26, 654.25 363.54, 653.91 369.51 C 653.56 375.48, 653.41 378.73, 652.75 384.34 C 652.10 389.95, 651.67 392.85, 650.62 397.55 C 649.57 402.25, 648.94 404.50, 647.52 407.86 C 646.10 411.21, 645.15 412.47, 643.51 414.31 C 641.86 416.15, 641.00 416.75, 639.30 417.04 C 637.60 417.33, 636.66 416.91, 635.00 415.76 C 633.35 414.61, 632.46 413.61, 631.01 411.28 C 629.57 408.96, 628.67 407.37, 627.77 404.12 C 626.86 400.88, 626.45 398.95, 626.49 395.07 C 626.52 391.18, 626.82 388.87, 627.96 384.70 C 629.10 380.53, 629.95 378.33, 632.20 374.20 C 634.45 370.06, 635.96 367.95, 639.19 364.04 C 642.42 360.12, 644.44 358.07, 648.37 354.61 C 652.29 351.15, 654.59 349.57, 658.80 346.73 C 663.01 343.88, 665.33 342.63, 669.40 340.39 C 673.47 338.14, 675.59 337.15, 679.15 335.49 C 682.72 333.83, 684.53 333.29, 687.23 332.08 C 689.93 330.87, 691.14 330.41, 692.66 329.42 C 694.18 328.42, 694.60 328.00, 694.85 327.11 C 695.11 326.21, 694.81 325.68, 693.93 324.94 C 693.04 324.20, 692.15 323.71, 690.42 323.42 C 688.69 323.12, 687.41 323.05, 685.27 323.45 C 683.13 323.85, 681.83 324.18, 679.71 325.41 C 677.60 326.64, 676.40 327.56, 674.68 329.61 C 672.97 331.65, 672.15 333.08, 671.13 335.62 C 670.10 338.16, 669.74 339.73, 669.56 342.31 C 669.38 344.89, 669.52 346.43, 670.24 348.50 C 670.95 350.57, 671.66 351.58, 673.14 352.67 C 674.62 353.75, 675.70 354.03, 677.65 353.91 C 679.60 353.79, 680.82 353.35, 682.90 352.07 C 684.99 350.78, 686.21 349.65, 688.09 347.48 C 689.96 345.32, 690.93 343.63, 692.28 341.26 C 693.63 338.89, 694.24 337.39, 694.82 335.65 C 695.41 333.91, 695.30 332.99, 695.19 332.56 C 695.09 332.13, 694.59 332.38, 694.31 333.50 C 694.03 334.62, 693.68 335.94, 693.77 338.16 C 693.86 340.38, 693.95 342.12, 694.78 344.59 C 695.60 347.06, 696.35 348.51, 697.91 350.51 C 699.47 352.51, 700.47 353.63, 702.56 354.58 C 704.65 355.53, 707.15 355.36, 708.36 355.26 C 709.57 355.16, 709.55 354.63, 708.60 354.09 C 707.65 353.55, 705.32 353.57, 703.61 352.55 C 701.89 351.53, 701.16 350.79, 700.02 349.00 C 698.87 347.22, 698.50 345.87, 697.89 343.64 C 697.28 341.40, 697.32 339.86, 696.95 337.81 C 696.57 335.76, 696.44 334.50, 696.00 333.38 C 695.55 332.25, 695.37 331.92, 694.71 332.17 C 694.05 332.41, 693.69 333.10, 692.69 334.61 C 691.69 336.12, 691.09 337.54, 689.71 339.73 C 688.33 341.92, 687.46 343.53, 685.80 345.56 C 684.15 347.60, 683.11 348.64, 681.44 349.90 C 679.76 351.16, 678.85 351.60, 677.42 351.85 C 675.99 352.10, 675.29 351.95, 674.29 351.15 C 673.29 350.35, 672.86 349.56, 672.43 347.84 C 671.99 346.11, 671.90 344.77, 672.13 342.53 C 672.37 340.29, 672.68 338.86, 673.60 336.62 C 674.52 334.38, 675.23 333.09, 676.72 331.32 C 678.21 329.55, 679.23 328.75, 681.04 327.76 C 682.85 326.78, 683.96 326.69, 685.79 326.38 C 687.62 326.08, 688.68 326.24, 690.17 326.23 C 691.65 326.23, 692.44 326.24, 693.22 326.34 C 693.99 326.44, 694.31 326.44, 694.02 326.73 C 693.74 327.03, 693.32 327.14, 691.79 327.82 C 690.25 328.50, 689.02 328.90, 686.34 330.13 C 683.67 331.35, 681.94 332.16, 678.40 333.95 C 674.87 335.74, 672.74 336.76, 668.67 339.08 C 664.59 341.40, 662.25 342.66, 658.01 345.56 C 653.76 348.46, 651.43 350.05, 647.44 353.56 C 643.46 357.07, 641.40 359.14, 638.09 363.12 C 634.77 367.10, 633.21 369.24, 630.86 373.46 C 628.51 377.69, 627.60 379.93, 626.35 384.24 C 625.09 388.56, 624.73 390.94, 624.59 395.02 C 624.45 399.11, 624.79 401.16, 625.64 404.68 C 626.50 408.20, 627.24 410.05, 628.89 412.63 C 630.54 415.20, 631.75 416.32, 633.89 417.54 C 636.03 418.76, 637.39 419.12, 639.60 418.74 C 641.80 418.35, 643.03 417.65, 644.92 415.60 C 646.81 413.55, 647.64 412.04, 649.06 408.49 C 650.47 404.94, 651.00 402.65, 652.00 397.84 C 652.99 393.04, 653.39 390.14, 654.03 384.49 C 654.67 378.83, 654.82 375.58, 655.18 369.59 C 655.55 363.60, 655.60 360.31, 655.87 354.53 C 656.14 348.75, 656.22 345.70, 656.54 340.68 C 656.85 335.66, 657.24 333.20, 657.45 329.42 C 657.66 325.64, 657.88 323.92, 657.58 321.78 C 657.29 319.64, 656.88 318.93, 655.95 318.71 C 655.03 318.49, 654.31 319.00, 652.94 320.66 C 651.58 322.32, 650.82 324.09, 649.14 327.02 C 647.46 329.96, 646.51 332.10, 644.55 335.33 C 642.59 338.56, 641.34 340.52, 639.34 343.19 C 637.34 345.87, 636.20 347.11, 634.56 348.69 C 632.91 350.26, 632.22 350.81, 631.11 351.07 C 630.00 351.34, 629.64 351.12, 628.99 350.03 C 628.34 348.93, 628.08 347.88, 627.86 345.61 C 627.65 343.35, 627.72 341.64, 627.90 338.72 C 628.08 335.80, 628.55 333.77, 628.75 331.01 C 628.96 328.26, 629.09 326.64, 628.94 324.95 C 628.80 323.26, 628.68 322.56, 628.02 322.57 C 627.37 322.57, 626.77 323.21, 625.66 324.97 C 624.55 326.74, 623.94 328.52, 622.47 331.37 C 621.00 334.23, 620.11 336.28, 618.33 339.25 C 616.54 342.22, 615.39 343.90, 613.54 346.22 C 611.68 348.54, 610.66 349.55, 609.03 350.87 C 607.40 352.20, 606.66 352.63, 605.40 352.84 C 604.15 353.05, 603.64 352.94, 602.77 351.92 C 601.90 350.91, 601.52 349.91, 601.06 347.77 C 600.60 345.62, 600.58 343.92, 600.45 341.19 C 600.32 338.46, 600.51 336.53, 600.43 334.11 C 600.35 331.68, 600.31 330.25, 600.05 329.08 C 599.78 327.90, 599.66 327.64, 599.11 328.23 C 598.56 328.81, 598.25 329.83, 597.32 332.00 C 596.39 334.16, 595.90 336.13, 594.44 339.07 C 592.99 342.01, 592.00 343.92, 590.06 346.69 C 588.11 349.46, 586.80 350.92, 584.70 352.92 C 582.61 354.91, 581.44 355.75, 579.59 356.66 C 577.74 357.58, 576.84 357.74, 575.45 357.50 C 574.06 357.25, 573.48 356.81, 572.64 355.43 C 571.81 354.06, 571.47 352.92, 571.29 350.64 C 571.11 348.35, 571.13 346.76, 571.75 344.01 C 572.37 341.27, 572.98 339.60, 574.37 336.92 C 575.77 334.24, 576.88 332.73, 578.74 330.61 C 580.60 328.49, 581.80 327.55, 583.68 326.34 C 585.57 325.12, 586.63 324.86, 588.17 324.52 C 589.71 324.19, 590.42 324.32, 591.37 324.64 C 592.32 324.97, 592.72 325.33, 592.91 326.14 C 593.11 326.95, 593.10 327.48, 592.34 328.70 C 591.57 329.92, 590.87 330.71, 589.09 332.23 C 587.31 333.75, 586.14 334.62, 583.43 336.31 C 580.72 338.00, 579.02 338.93, 575.55 340.68 C 572.08 342.44, 569.98 343.37, 566.08 345.10 C 562.17 346.82, 559.99 347.68, 556.05 349.30 C 552.11 350.92, 549.97 351.73, 546.39 353.19 C 542.82 354.64, 540.99 355.24, 538.17 356.58 C 535.35 357.92, 534.03 358.56, 532.29 359.89 C 530.55 361.22, 529.87 362.02, 529.46 363.22 C 529.05 364.42, 529.29 365.16, 530.22 365.90 C 531.14 366.65, 532.10 366.93, 534.10 366.94 C 536.09 366.94, 537.55 366.70, 540.18 365.93 C 542.81 365.16, 544.52 364.50, 547.23 363.09 C 549.94 361.68, 551.57 360.74, 553.71 358.87 C 555.85 356.99, 556.88 355.82, 557.93 353.74 C 558.98 351.65, 559.22 350.53, 558.95 348.44 C 558.68 346.35, 558.09 345.26, 556.56 343.29 C 555.04 341.32, 553.75 340.37, 551.31 338.60 C 548.88 336.83, 547.19 336.04, 544.39 334.43 C 541.59 332.81, 539.91 332.02, 537.32 330.54 C 534.73 329.06, 533.38 328.33, 531.44 327.02 C 529.49 325.70, 528.62 325.04, 527.60 323.95 C 526.59 322.86, 526.35 322.39, 526.35 321.55 C 526.36 320.71, 526.77 320.39, 527.63 319.73 C 528.49 319.07, 529.28 318.72, 530.66 318.25 C 532.04 317.78, 532.94 317.53, 534.53 317.39 C 536.12 317.25, 537.09 317.45, 538.60 317.54 C 540.11 317.63, 540.93 317.79, 542.08 317.84 C 543.24 317.88, 543.86 317.98, 544.37 317.77 C 544.88 317.55, 545.00 317.21, 544.64 316.76" style="stroke: white; fill: white;"/><path d="M 779.80,277.70 C 779.41 277.76, 779.11 277.76, 778.50 278.49 C 777.89 279.23, 777.50 279.72, 776.75 281.38 C 775.99 283.04, 775.50 284.03, 774.72 286.79 C 773.95 289.55, 773.73 291.30, 772.87 295.18 C 772.02 299.07, 771.37 301.41, 770.45 306.23 C 769.53 311.05, 768.98 313.86, 768.28 319.29 C 767.59 324.73, 767.20 327.83, 766.99 333.40 C 766.77 338.96, 766.72 342.01, 767.19 347.10 C 767.66 352.19, 768.02 354.76, 769.34 358.84 C 770.66 362.92, 771.55 364.79, 773.80 367.51 C 776.05 370.24, 777.59 371.28, 780.58 372.48 C 783.57 373.68, 785.40 373.77, 788.77 373.54 C 792.13 373.30, 794.03 372.65, 797.40 371.30 C 800.76 369.96, 802.63 368.87, 805.59 366.82 C 808.55 364.77, 810.14 363.24, 812.20 361.03 C 814.25 358.82, 814.87 357.58, 815.88 355.78 C 816.89 353.97, 817.11 352.82, 817.25 352.00 C 817.38 351.17, 817.13 351.08, 816.55 351.64 C 815.98 352.19, 815.58 353.22, 814.36 354.77 C 813.14 356.31, 812.46 357.31, 810.45 359.37 C 808.44 361.42, 807.10 363.04, 804.33 365.04 C 801.56 367.04, 799.76 368.08, 796.61 369.37 C 793.47 370.66, 791.67 371.23, 788.61 371.50 C 785.54 371.76, 783.98 371.70, 781.28 370.69 C 778.59 369.67, 777.23 368.87, 775.13 366.40 C 773.04 363.94, 772.11 362.25, 770.81 358.36 C 769.50 354.47, 769.08 351.95, 768.59 346.96 C 768.10 341.98, 768.13 338.95, 768.36 333.45 C 768.58 327.95, 768.97 324.86, 769.72 319.48 C 770.46 314.10, 771.04 311.32, 772.08 306.56 C 773.12 301.80, 773.82 299.48, 774.90 295.70 C 775.99 291.92, 776.63 290.31, 777.52 287.65 C 778.41 284.99, 778.81 284.05, 779.35 282.40 C 779.89 280.75, 780.01 280.25, 780.23 279.41 C 780.45 278.57, 780.54 278.54, 780.46 278.20 C 780.37 277.86, 780.19 277.64, 779.80 277.70" style="stroke: white; fill: white;"/><path d="M 762.63,326.01 C 763.22 326.18, 763.73 326.09, 765.35 325.94 C 766.96 325.79, 768.09 326.07, 770.69 325.26 C 773.29 324.46, 776.94 322.95, 778.36 321.92 C 779.77 320.88, 779.51 320.11, 777.77 320.09 C 776.03 320.06, 772.24 321.04, 769.65 321.81 C 767.06 322.57, 766.26 323.24, 764.81 323.90 C 763.36 324.56, 762.84 324.68, 762.40 325.10 C 761.97 325.52, 762.04 325.84, 762.63 326.01" style="stroke: white; fill: white;"/><path d="M 792.12,305.94 C 793.10 306.15, 794.95 305.99, 796.76 305.74 C 798.57 305.49, 799.64 305.15, 801.16 304.70 C 802.68 304.24, 803.77 303.92, 804.38 303.47 C 804.99 303.02, 804.93 302.68, 804.20 302.47 C 803.47 302.25, 802.32 302.29, 800.73 302.42 C 799.14 302.55, 798.01 302.66, 796.24 303.12 C 794.47 303.58, 792.70 304.14, 791.87 304.71 C 791.05 305.27, 791.14 305.74, 792.12 305.94" style="stroke: white; fill: white;"/><path d="M 807.27,352.42 C 807.40 352.84, 807.75 353.23, 808.24 353.39 C 808.73 353.55, 809.35 353.51, 809.73 353.22 C 810.11 352.92, 810.29 352.36, 810.13 351.90 C 809.97 351.44, 809.46 351.04, 808.94 350.91 C 808.43 350.79, 807.91 350.96, 807.58 351.26 C 807.24 351.56, 807.14 351.99, 807.27 352.42" style="stroke: white; fill: white;"/><path d="M 872.03,340.35 C 871.80 340.93, 871.81 341.61, 871.87 343.08 C 871.93 344.54, 871.99 345.54, 872.32 347.68 C 872.64 349.82, 872.93 351.36, 873.52 353.77 C 874.10 356.18, 874.38 357.59, 875.23 359.74 C 876.08 361.90, 876.61 363.06, 877.77 364.54 C 878.93 366.01, 879.59 366.68, 881.01 367.13 C 882.44 367.57, 883.30 367.55, 884.90 366.76 C 886.51 365.97, 887.51 365.25, 889.03 363.17 C 890.55 361.09, 891.29 359.49, 892.52 356.38 C 893.74 353.27, 894.26 351.22, 895.16 347.60 C 896.06 343.98, 896.49 341.78, 897.02 338.28 C 897.56 334.78, 897.78 332.87, 897.83 330.09 C 897.88 327.32, 897.60 326.13, 897.28 324.39 C 896.97 322.65, 896.63 322.17, 896.25 321.41 C 895.87 320.64, 895.70 320.64, 895.37 320.56 C 895.04 320.49, 894.83 320.67, 894.61 321.02 C 894.40 321.37, 894.20 321.86, 894.29 322.31 C 894.38 322.75, 894.72 323.01, 895.06 323.26 C 895.41 323.51, 895.66 323.42, 896.02 323.55 C 896.37 323.68, 896.52 323.71, 896.84 323.92 C 897.15 324.13, 897.20 324.25, 897.59 324.60 C 897.97 324.94, 898.22 325.17, 898.75 325.63 C 899.28 326.09, 899.57 326.33, 900.22 326.89 C 900.87 327.46, 901.23 327.75, 901.99 328.46 C 902.76 329.17, 903.16 329.58, 904.05 330.44 C 904.94 331.30, 905.43 331.80, 906.45 332.76 C 907.48 333.72, 908.07 334.23, 909.18 335.23 C 910.28 336.23, 910.87 336.82, 911.99 337.75 C 913.10 338.67, 913.69 339.12, 914.75 339.85 C 915.80 340.58, 916.32 340.99, 917.26 341.40 C 918.20 341.81, 918.68 341.95, 919.46 341.89 C 920.23 341.83, 920.68 341.69, 921.13 341.10 C 921.57 340.51, 921.82 339.92, 921.68 338.94 C 921.53 337.96, 921.25 337.25, 920.41 336.21 C 919.57 335.17, 918.89 334.56, 917.48 333.75 C 916.06 332.93, 915.15 332.38, 913.33 332.12 C 911.52 331.87, 910.32 331.87, 908.40 332.48 C 906.48 333.08, 905.37 333.71, 903.74 335.14 C 902.12 336.57, 901.32 337.61, 900.27 339.64 C 899.23 341.67, 898.77 343.01, 898.52 345.31 C 898.26 347.60, 898.39 349.01, 899.01 351.10 C 899.62 353.19, 900.23 354.30, 901.59 355.76 C 902.94 357.23, 903.93 357.83, 905.77 358.42 C 907.62 359.00, 908.80 359.07, 910.80 358.69 C 912.81 358.32, 913.87 357.80, 915.79 356.55 C 917.71 355.30, 918.74 354.35, 920.40 352.44 C 922.06 350.53, 922.87 349.21, 924.08 346.98 C 925.29 344.76, 925.75 343.43, 926.45 341.32 C 927.14 339.21, 927.42 337.99, 927.54 336.44 C 927.67 334.89, 927.42 334.01, 927.08 333.59 C 926.73 333.17, 926.24 333.35, 925.81 334.34 C 925.38 335.33, 925.14 336.42, 924.92 338.53 C 924.70 340.65, 924.61 342.29, 924.70 344.94 C 924.79 347.58, 924.92 349.24, 925.36 351.74 C 925.80 354.25, 926.09 355.68, 926.90 357.46 C 927.72 359.25, 928.22 360.02, 929.44 360.67 C 930.66 361.32, 931.49 361.31, 932.99 360.70 C 934.49 360.09, 935.39 359.35, 936.95 357.62 C 938.52 355.89, 939.30 354.50, 940.83 352.05 C 942.36 349.61, 943.18 347.89, 944.60 345.42 C 946.03 342.96, 946.80 341.50, 947.95 339.73 C 949.10 337.95, 949.58 337.10, 950.36 336.54 C 951.13 335.97, 951.34 336.12, 951.82 336.91 C 952.29 337.69, 952.39 338.67, 952.74 340.47 C 953.09 342.27, 953.15 343.67, 953.59 345.89 C 954.02 348.12, 954.28 349.63, 954.94 351.58 C 955.59 353.52, 955.98 354.54, 956.87 355.61 C 957.75 356.68, 958.21 356.98, 959.36 356.92 C 960.51 356.87, 961.22 356.50, 962.61 355.34 C 964.00 354.18, 964.83 353.05, 966.29 351.12 C 967.76 349.20, 968.56 347.70, 969.94 345.70 C 971.33 343.70, 972.07 342.45, 973.21 341.11 C 974.35 339.76, 974.82 339.14, 975.64 338.95 C 976.47 338.77, 976.73 339.08, 977.32 340.17 C 977.91 341.27, 977.95 342.40, 978.59 344.41 C 979.24 346.43, 979.65 348.04, 980.55 350.25 C 981.45 352.46, 981.95 353.78, 983.09 355.47 C 984.23 357.17, 985.46 358.19, 986.26 358.72 C 987.05 359.25, 987.29 359.01, 987.08 358.13 C 986.86 357.26, 985.91 356.15, 985.19 354.35 C 984.47 352.55, 984.24 351.35, 983.46 349.15 C 982.69 346.95, 982.26 345.38, 981.33 343.35 C 980.41 341.32, 980.01 340.17, 978.84 338.99 C 977.67 337.81, 976.94 337.38, 975.48 337.45 C 974.01 337.52, 973.15 338.07, 971.53 339.34 C 969.92 340.62, 969.00 341.84, 967.42 343.81 C 965.83 345.79, 964.94 347.24, 963.62 349.21 C 962.30 351.18, 961.69 352.36, 960.79 353.65 C 959.90 354.94, 959.63 355.46, 959.15 355.67 C 958.68 355.89, 958.70 355.68, 958.42 354.72 C 958.13 353.75, 958.06 352.75, 957.72 350.86 C 957.39 348.96, 957.24 347.48, 956.76 345.24 C 956.28 343.01, 956.10 341.57, 955.34 339.68 C 954.58 337.80, 954.08 336.73, 952.96 335.83 C 951.83 334.93, 951.11 334.71, 949.71 335.19 C 948.31 335.66, 947.48 336.47, 945.96 338.22 C 944.44 339.96, 943.65 341.46, 942.09 343.90 C 940.54 346.34, 939.65 348.03, 938.19 350.42 C 936.73 352.82, 936.01 354.15, 934.79 355.88 C 933.57 357.60, 933.01 358.34, 932.09 359.05 C 931.18 359.76, 930.81 359.90, 930.20 359.43 C 929.59 358.96, 929.43 358.32, 929.04 356.70 C 928.66 355.09, 928.45 353.74, 928.27 351.37 C 928.09 349.00, 928.17 347.41, 928.14 344.85 C 928.11 342.30, 928.23 340.69, 928.10 338.60 C 927.97 336.52, 927.81 335.44, 927.48 334.43 C 927.15 333.41, 926.89 333.20, 926.46 333.51 C 926.03 333.82, 925.81 334.58, 925.31 335.96 C 924.81 337.35, 924.69 338.51, 923.96 340.45 C 923.24 342.39, 922.81 343.62, 921.68 345.67 C 920.54 347.71, 919.78 348.91, 918.31 350.66 C 916.84 352.41, 915.94 353.28, 914.34 354.42 C 912.75 355.57, 911.90 356.02, 910.32 356.39 C 908.74 356.76, 907.85 356.71, 906.44 356.29 C 905.03 355.86, 904.29 355.41, 903.28 354.25 C 902.27 353.08, 901.82 352.18, 901.39 350.45 C 900.95 348.72, 900.85 347.53, 901.09 345.61 C 901.34 343.69, 901.73 342.54, 902.60 340.84 C 903.48 339.13, 904.15 338.26, 905.47 337.08 C 906.78 335.90, 907.69 335.40, 909.17 334.94 C 910.66 334.47, 911.55 334.49, 912.91 334.75 C 914.27 335.01, 914.91 335.55, 915.97 336.23 C 917.03 336.92, 917.49 337.48, 918.20 338.18 C 918.90 338.87, 919.13 339.26, 919.49 339.71 C 919.85 340.16, 919.95 340.33, 919.99 340.44 C 920.03 340.55, 920.00 340.46, 919.68 340.26 C 919.35 340.05, 919.04 339.89, 918.35 339.40 C 917.67 338.92, 917.16 338.56, 916.23 337.83 C 915.30 337.10, 914.74 336.67, 913.70 335.74 C 912.66 334.82, 912.10 334.21, 911.02 333.21 C 909.94 332.21, 909.33 331.71, 908.32 330.76 C 907.30 329.81, 906.84 329.32, 905.94 328.47 C 905.05 327.61, 904.62 327.19, 903.84 326.47 C 903.05 325.74, 902.69 325.44, 902.03 324.85 C 901.37 324.26, 901.11 324.00, 900.56 323.53 C 900.00 323.05, 899.73 322.83, 899.24 322.48 C 898.75 322.14, 898.52 322.04, 898.11 321.81 C 897.70 321.58, 897.45 321.53, 897.19 321.33 C 896.93 321.14, 897.00 320.99, 896.81 320.85 C 896.63 320.72, 896.53 320.63, 896.26 320.64 C 895.98 320.65, 895.68 320.86, 895.43 320.92 C 895.17 320.97, 895.09 320.73, 894.99 320.91 C 894.89 321.08, 894.86 321.05, 894.93 321.80 C 894.99 322.54, 895.22 322.98, 895.32 324.63 C 895.41 326.28, 895.50 327.36, 895.40 330.02 C 895.30 332.69, 895.30 334.55, 894.82 337.95 C 894.33 341.35, 893.91 343.55, 892.97 347.03 C 892.03 350.52, 891.35 352.48, 890.12 355.40 C 888.88 358.32, 888.04 359.69, 886.79 361.62 C 885.54 363.55, 884.92 364.25, 883.88 365.04 C 882.83 365.83, 882.41 365.91, 881.56 365.56 C 880.70 365.21, 880.36 364.64, 879.61 363.29 C 878.86 361.95, 878.43 360.89, 877.82 358.84 C 877.21 356.80, 877.06 355.43, 876.56 353.08 C 876.06 350.73, 875.80 349.18, 875.31 347.09 C 874.81 345.01, 874.55 344.06, 874.10 342.68 C 873.64 341.29, 873.43 340.64, 873.02 340.18 C 872.61 339.71, 872.26 339.77, 872.03 340.35" style="stroke: white; fill: white;"/><path d="M 1070.68,296.09 C 1070.22 296.26, 1069.94 296.25, 1069.06 297.40 C 1068.18 298.54, 1067.54 299.38, 1066.29 301.82 C 1065.04 304.26, 1064.52 305.82, 1062.81 309.61 C 1061.09 313.40, 1059.88 315.86, 1057.72 320.79 C 1055.56 325.72, 1054.27 328.74, 1052.03 334.27 C 1049.79 339.79, 1048.53 343.16, 1046.52 348.43 C 1044.52 353.69, 1043.43 356.56, 1041.99 360.58 C 1040.54 364.60, 1039.78 366.72, 1039.29 368.53 C 1038.80 370.35, 1039.15 370.77, 1039.54 369.66 C 1039.94 368.55, 1040.37 366.97, 1041.27 362.98 C 1042.18 358.99, 1042.66 355.76, 1044.07 349.72 C 1045.48 343.68, 1046.45 339.68, 1048.32 332.78 C 1050.19 325.87, 1051.36 321.89, 1053.43 315.18 C 1055.50 308.46, 1056.66 304.88, 1058.67 299.21 C 1060.68 293.54, 1061.82 290.80, 1063.46 286.83 C 1065.10 282.86, 1065.93 281.21, 1066.86 279.35 C 1067.79 277.49, 1067.82 277.09, 1068.12 277.54 C 1068.41 278.00, 1068.10 278.89, 1068.34 281.64 C 1068.58 284.39, 1068.91 286.49, 1069.33 291.30 C 1069.75 296.10, 1069.94 299.35, 1070.44 305.66 C 1070.93 311.96, 1071.22 315.80, 1071.80 322.83 C 1072.39 329.85, 1072.74 333.83, 1073.37 340.79 C 1073.99 347.76, 1074.33 351.48, 1074.91 357.65 C 1075.50 363.82, 1075.90 367.01, 1076.28 371.65 C 1076.66 376.29, 1076.56 378.13, 1076.81 380.85 C 1077.07 383.57, 1077.38 384.15, 1077.56 385.26 C 1077.74 386.38, 1077.63 386.20, 1077.72 386.45 C 1077.81 386.69, 1077.86 386.73, 1078.03 386.49 C 1078.19 386.25, 1078.41 386.40, 1078.54 385.24 C 1078.67 384.08, 1078.85 383.45, 1078.68 380.70 C 1078.50 377.96, 1078.19 376.15, 1077.67 371.51 C 1077.15 366.88, 1076.72 363.69, 1076.07 357.53 C 1075.43 351.37, 1075.07 347.65, 1074.45 340.70 C 1073.83 333.74, 1073.47 329.76, 1072.95 322.74 C 1072.42 315.71, 1072.17 311.88, 1071.81 305.57 C 1071.45 299.25, 1071.39 296.02, 1071.14 291.17 C 1070.88 286.33, 1071.06 284.17, 1070.54 281.34 C 1070.02 278.51, 1069.52 277.57, 1068.53 277.02 C 1067.54 276.47, 1066.87 276.74, 1065.59 278.59 C 1064.30 280.44, 1063.70 282.23, 1062.10 286.28 C 1060.49 290.33, 1059.50 293.11, 1057.56 298.82 C 1055.61 304.54, 1054.45 308.12, 1052.37 314.85 C 1050.29 321.58, 1049.12 325.56, 1047.17 332.46 C 1045.21 339.36, 1044.12 343.33, 1042.59 349.35 C 1041.05 355.38, 1040.25 358.55, 1039.47 362.60 C 1038.69 366.65, 1038.46 368.30, 1038.67 369.59 C 1038.88 370.89, 1039.54 370.74, 1040.52 369.05 C 1041.50 367.36, 1042.10 365.18, 1043.56 361.15 C 1045.02 357.12, 1045.87 354.19, 1047.82 348.91 C 1049.77 343.64, 1051.04 340.28, 1053.31 334.79 C 1055.57 329.29, 1056.88 326.29, 1059.16 321.44 C 1061.43 316.58, 1062.73 314.18, 1064.67 310.52 C 1066.61 306.86, 1067.62 305.55, 1068.86 303.13 C 1070.09 300.70, 1070.33 299.70, 1070.83 298.38 C 1071.33 297.07, 1071.37 297.00, 1071.34 296.54 C 1071.31 296.08, 1071.13 295.92, 1070.68 296.09" style="stroke: white; fill: white;"/><path d="M 1044.11,346.48 C 1044.28 347.01, 1044.47 347.59, 1045.56 348.39 C 1046.65 349.19, 1047.48 349.84, 1049.57 350.46 C 1051.65 351.08, 1053.08 351.40, 1056.00 351.50 C 1058.92 351.59, 1060.84 351.40, 1064.15 350.94 C 1067.47 350.48, 1069.25 350.14, 1072.57 349.19 C 1075.90 348.24, 1077.80 347.48, 1080.78 346.18 C 1083.76 344.88, 1085.30 344.06, 1087.49 342.68 C 1089.68 341.29, 1090.60 340.24, 1091.73 339.25 C 1092.86 338.25, 1093.06 337.67, 1093.15 337.70 C 1093.23 337.73, 1092.76 337.96, 1092.16 339.38 C 1091.56 340.79, 1090.80 342.08, 1090.13 344.78 C 1089.46 347.48, 1089.15 349.56, 1088.81 352.87 C 1088.47 356.18, 1088.26 358.24, 1088.44 361.34 C 1088.61 364.43, 1088.82 366.11, 1089.69 368.36 C 1090.55 370.61, 1091.23 371.55, 1092.77 372.59 C 1094.31 373.62, 1095.37 373.89, 1097.37 373.52 C 1099.37 373.16, 1100.64 372.50, 1102.77 370.74 C 1104.90 368.97, 1105.98 367.45, 1108.00 364.70 C 1110.02 361.96, 1111.11 360.04, 1112.87 357.01 C 1114.63 353.99, 1115.64 352.17, 1116.80 349.58 C 1117.97 346.98, 1118.34 345.49, 1118.71 344.05 C 1119.08 342.60, 1118.91 342.13, 1118.66 342.35 C 1118.42 342.56, 1117.92 343.25, 1117.50 345.12 C 1117.09 347.00, 1116.72 348.69, 1116.60 351.71 C 1116.49 354.72, 1116.55 356.90, 1116.95 360.18 C 1117.34 363.47, 1117.54 365.56, 1118.58 368.14 C 1119.61 370.72, 1120.46 371.94, 1122.13 373.07 C 1123.81 374.20, 1124.88 374.47, 1126.97 373.80 C 1129.06 373.14, 1130.37 372.28, 1132.59 369.74 C 1134.82 367.21, 1135.92 365.24, 1138.07 361.11 C 1140.22 356.99, 1141.32 354.27, 1143.35 349.12 C 1145.37 343.97, 1146.42 340.87, 1148.20 335.34 C 1149.98 329.81, 1150.86 326.69, 1152.25 321.46 C 1153.64 316.22, 1154.23 313.50, 1155.16 309.16 C 1156.10 304.82, 1156.60 302.81, 1156.92 299.76 C 1157.24 296.72, 1157.17 295.44, 1156.76 293.95 C 1156.36 292.46, 1155.83 292.01, 1154.89 292.32 C 1153.96 292.64, 1153.11 293.24, 1152.10 295.53 C 1151.10 297.82, 1150.71 299.67, 1149.88 303.78 C 1149.04 307.88, 1148.60 310.60, 1147.93 316.05 C 1147.27 321.49, 1146.89 324.89, 1146.54 331.00 C 1146.18 337.10, 1146.02 340.72, 1146.17 346.58 C 1146.33 352.44, 1146.57 355.55, 1147.31 360.31 C 1148.05 365.07, 1148.53 367.26, 1149.88 370.38 C 1151.22 373.50, 1152.12 374.66, 1154.03 375.93 C 1155.94 377.19, 1157.22 377.31, 1159.43 376.71 C 1161.64 376.11, 1163.01 375.13, 1165.07 372.90 C 1167.13 370.68, 1168.16 368.78, 1169.74 365.60 C 1171.31 362.42, 1172.10 360.30, 1172.96 357.02 C 1173.83 353.74, 1174.13 351.81, 1174.04 349.18 C 1173.96 346.56, 1173.47 345.34, 1172.54 343.89 C 1171.61 342.44, 1170.77 342.08, 1169.40 341.92 C 1168.03 341.76, 1166.91 342.13, 1165.70 343.08 C 1164.48 344.03, 1163.69 345.01, 1163.32 346.68 C 1162.95 348.36, 1163.05 349.62, 1163.85 351.46 C 1164.65 353.31, 1165.42 354.43, 1167.33 355.90 C 1169.23 357.38, 1170.62 358.18, 1173.38 358.85 C 1176.14 359.52, 1177.93 359.61, 1181.14 359.24 C 1184.36 358.86, 1186.20 358.25, 1189.45 356.97 C 1192.70 355.69, 1194.50 354.77, 1197.41 352.84 C 1200.31 350.90, 1201.86 349.57, 1203.96 347.30 C 1206.06 345.03, 1207.02 343.59, 1207.92 341.49 C 1208.82 339.39, 1208.95 338.19, 1208.48 336.82 C 1208.01 335.45, 1207.14 334.80, 1205.55 334.64 C 1203.96 334.48, 1202.53 334.74, 1200.54 336.02 C 1198.55 337.29, 1197.29 338.51, 1195.59 341.02 C 1193.90 343.53, 1193.05 345.36, 1192.06 348.58 C 1191.07 351.80, 1190.70 353.81, 1190.62 357.11 C 1190.55 360.41, 1190.71 362.31, 1191.67 365.08 C 1192.64 367.84, 1193.49 369.27, 1195.46 370.95 C 1197.42 372.63, 1198.85 373.38, 1201.49 373.48 C 1204.13 373.58, 1205.73 373.14, 1208.67 371.45 C 1211.61 369.76, 1213.15 368.41, 1216.18 365.03 C 1219.20 361.66, 1220.84 359.44, 1223.80 354.59 C 1226.75 349.74, 1228.29 346.62, 1230.97 340.78 C 1233.65 334.94, 1235.04 331.44, 1237.20 325.37 C 1239.36 319.31, 1240.35 315.92, 1241.76 310.46 C 1243.16 305.00, 1243.64 302.19, 1244.23 298.08 C 1244.82 293.97, 1244.98 292.21, 1244.69 289.91 C 1244.40 287.61, 1243.92 286.88, 1242.78 286.57 C 1241.63 286.26, 1240.51 286.56, 1238.96 288.36 C 1237.40 290.16, 1236.54 291.77, 1235.00 295.58 C 1233.46 299.39, 1232.62 302.03, 1231.27 307.43 C 1229.93 312.82, 1229.12 316.20, 1228.29 322.55 C 1227.47 328.89, 1227.12 332.60, 1227.14 339.13 C 1227.15 345.66, 1227.34 349.27, 1228.37 355.21 C 1229.41 361.15, 1230.12 364.14, 1232.33 368.83 C 1234.54 373.52, 1236.00 375.71, 1239.42 378.65 C 1242.84 381.59, 1245.54 382.40, 1249.42 383.55 C 1253.30 384.69, 1255.59 384.59, 1258.81 384.38 C 1262.03 384.17, 1264.23 383.07, 1265.53 382.51 C 1266.84 381.95, 1266.69 381.57, 1265.33 381.58 C 1263.97 381.59, 1261.82 382.49, 1258.73 382.56 C 1255.64 382.64, 1253.55 382.94, 1249.88 381.94 C 1246.20 380.95, 1243.62 380.30, 1240.34 377.57 C 1237.06 374.84, 1235.63 372.80, 1233.47 368.28 C 1231.31 363.77, 1230.58 360.83, 1229.55 355.00 C 1228.51 349.17, 1228.32 345.59, 1228.32 339.13 C 1228.32 332.67, 1228.67 328.98, 1229.57 322.72 C 1230.46 316.46, 1231.33 313.10, 1232.80 307.83 C 1234.27 302.56, 1235.36 300.02, 1236.91 296.37 C 1238.47 292.72, 1239.44 291.38, 1240.57 289.56 C 1241.71 287.75, 1242.10 287.20, 1242.60 287.30 C 1243.10 287.39, 1243.06 287.91, 1243.07 290.02 C 1243.09 292.13, 1243.19 293.84, 1242.68 297.87 C 1242.16 301.89, 1241.83 304.72, 1240.51 310.14 C 1239.19 315.56, 1238.20 318.95, 1236.07 324.97 C 1233.93 330.99, 1232.53 334.48, 1229.83 340.25 C 1227.13 346.03, 1225.56 349.11, 1222.58 353.83 C 1219.59 358.55, 1217.89 360.70, 1214.90 363.86 C 1211.91 367.01, 1210.29 368.11, 1207.62 369.62 C 1204.95 371.13, 1203.71 371.46, 1201.55 371.41 C 1199.40 371.37, 1198.37 370.81, 1196.84 369.39 C 1195.32 367.97, 1194.70 366.77, 1193.93 364.32 C 1193.17 361.88, 1192.90 360.17, 1193.00 357.18 C 1193.10 354.19, 1193.44 352.27, 1194.45 349.36 C 1195.45 346.45, 1196.48 344.90, 1198.01 342.65 C 1199.53 340.41, 1200.57 339.41, 1202.08 338.14 C 1203.59 336.87, 1204.56 336.49, 1205.57 336.29 C 1206.59 336.10, 1207.08 336.31, 1207.16 337.15 C 1207.24 338.00, 1206.97 338.82, 1205.98 340.52 C 1204.98 342.21, 1204.15 343.55, 1202.18 345.65 C 1200.22 347.74, 1198.87 349.15, 1196.16 350.99 C 1193.45 352.83, 1191.69 353.71, 1188.63 354.87 C 1185.58 356.03, 1183.81 356.51, 1180.89 356.78 C 1177.96 357.06, 1176.42 356.83, 1174.02 356.23 C 1171.62 355.64, 1170.49 354.97, 1168.90 353.82 C 1167.32 352.66, 1166.76 351.77, 1166.11 350.43 C 1165.47 349.10, 1165.48 348.31, 1165.68 347.16 C 1165.88 346.01, 1166.39 345.44, 1167.12 344.70 C 1167.84 343.96, 1168.50 343.44, 1169.29 343.44 C 1170.08 343.44, 1170.59 343.54, 1171.07 344.69 C 1171.54 345.84, 1171.76 346.84, 1171.67 349.18 C 1171.58 351.52, 1171.44 353.33, 1170.62 356.40 C 1169.79 359.46, 1169.03 361.54, 1167.54 364.50 C 1166.05 367.47, 1164.90 369.13, 1163.17 371.24 C 1161.43 373.34, 1160.52 374.35, 1158.87 375.03 C 1157.22 375.71, 1156.40 375.71, 1154.92 374.64 C 1153.44 373.57, 1152.71 372.61, 1151.47 369.70 C 1150.23 366.78, 1149.53 364.71, 1148.73 360.07 C 1147.93 355.44, 1147.66 352.34, 1147.49 346.54 C 1147.32 340.74, 1147.48 337.14, 1147.89 331.08 C 1148.29 325.03, 1148.70 321.63, 1149.51 316.26 C 1150.33 310.89, 1150.99 308.22, 1151.96 304.24 C 1152.92 300.26, 1153.67 298.61, 1154.34 296.35 C 1155.01 294.09, 1155.09 293.40, 1155.31 292.95 C 1155.53 292.50, 1155.51 292.78, 1155.44 294.10 C 1155.36 295.42, 1155.29 296.59, 1154.93 299.54 C 1154.57 302.49, 1154.45 304.54, 1153.65 308.86 C 1152.85 313.17, 1152.27 315.90, 1150.92 321.11 C 1149.58 326.32, 1148.70 329.43, 1146.91 334.92 C 1145.11 340.41, 1144.04 343.49, 1141.95 348.56 C 1139.87 353.62, 1138.68 356.30, 1136.47 360.25 C 1134.26 364.19, 1132.92 365.90, 1130.89 368.27 C 1128.87 370.65, 1127.89 371.42, 1126.34 372.12 C 1124.79 372.81, 1124.23 372.69, 1123.16 371.73 C 1122.09 370.76, 1121.66 369.67, 1120.98 367.30 C 1120.30 364.94, 1119.99 363.01, 1119.75 359.91 C 1119.52 356.80, 1119.80 354.70, 1119.82 351.78 C 1119.84 348.85, 1120.01 347.20, 1119.85 345.28 C 1119.70 343.36, 1119.58 342.56, 1119.04 342.17 C 1118.51 341.77, 1118.12 342.06, 1117.19 343.31 C 1116.25 344.55, 1115.65 345.91, 1114.37 348.41 C 1113.09 350.91, 1112.46 352.86, 1110.78 355.81 C 1109.10 358.76, 1107.92 360.59, 1105.96 363.18 C 1104.01 365.76, 1102.82 367.04, 1101.01 368.73 C 1099.20 370.42, 1098.35 371.14, 1096.90 371.63 C 1095.45 372.13, 1094.77 372.00, 1093.75 371.21 C 1092.73 370.42, 1092.33 369.65, 1091.79 367.66 C 1091.25 365.67, 1091.09 364.13, 1091.06 361.24 C 1091.02 358.36, 1091.17 356.37, 1091.62 353.21 C 1092.07 350.06, 1092.79 348.17, 1093.31 345.48 C 1093.82 342.80, 1094.17 341.46, 1094.20 339.80 C 1094.23 338.13, 1094.15 337.59, 1093.45 337.17 C 1092.76 336.75, 1092.17 337.01, 1090.72 337.68 C 1089.27 338.36, 1088.37 339.27, 1086.19 340.55 C 1084.02 341.82, 1082.68 342.76, 1079.83 344.06 C 1076.99 345.35, 1075.15 346.12, 1071.95 347.00 C 1068.76 347.88, 1067.03 348.18, 1063.87 348.47 C 1060.70 348.76, 1058.86 348.62, 1056.14 348.46 C 1053.42 348.30, 1052.18 348.08, 1050.27 347.69 C 1048.35 347.30, 1047.69 346.90, 1046.58 346.51 C 1045.47 346.12, 1045.20 345.74, 1044.71 345.74 C 1044.22 345.73, 1043.94 345.95, 1044.11 346.48" style="stroke: white; fill: white;"/></svg>