<svg xmlns="http://www.w3.org/2000/svg" id="canvas" viewBox="225.272 272.373 1023.528 123.632"><path d="M 258.72,300.50 C 258.47 300.14, 258.09 299.75, 257.18 299.36 C 256.27 298.98, 255.58 298.74, 254.16 298.58 C 252.74 298.43, 251.79 298.34, 250.09 298.58 C 248.38 298.82, 247.39 299.08, 245.65 299.78 C 243.90 300.47, 242.93 300.91, 241.38 302.06 C 239.83 303.21, 239.00 303.97, 237.89 305.55 C 236.77 307.13, 236.30 308.09, 235.81 309.96 C 235.32 311.83, 235.19 312.86, 235.43 314.90 C 235.67 316.94, 236.03 318.10, 237.00 320.17 C 237.98 322.24, 238.76 323.29, 240.32 325.24 C 241.88 327.18, 242.89 328.08, 244.79 329.90 C 246.69 331.72, 247.85 332.62, 249.82 334.36 C 251.78 336.10, 252.92 336.97, 254.63 338.62 C 256.33 340.26, 257.19 341.04, 258.34 342.59 C 259.50 344.15, 259.96 344.91, 260.40 346.40 C 260.83 347.89, 260.89 348.62, 260.52 350.04 C 260.16 351.46, 259.72 352.18, 258.57 353.50 C 257.42 354.82, 256.55 355.52, 254.78 356.65 C 253.01 357.77, 251.88 358.27, 249.71 359.14 C 247.55 360.01, 246.19 360.43, 243.94 360.98 C 241.69 361.53, 240.46 361.76, 238.46 361.90 C 236.46 362.04, 235.43 361.97, 233.92 361.66 C 232.42 361.35, 231.81 360.92, 230.92 360.36 C 230.02 359.81, 229.88 359.43, 229.47 358.88 C 229.06 358.33, 229.11 357.83, 228.88 357.60 C 228.66 357.37, 228.42 357.37, 228.35 357.73 C 228.28 358.10, 228.16 358.67, 228.51 359.43 C 228.86 360.19, 229.09 360.78, 230.10 361.54 C 231.11 362.30, 231.87 362.81, 233.56 363.23 C 235.25 363.66, 236.39 363.75, 238.55 363.68 C 240.71 363.60, 242.00 363.38, 244.38 362.84 C 246.76 362.29, 248.15 361.88, 250.44 360.96 C 252.73 360.04, 253.93 359.51, 255.82 358.24 C 257.72 356.97, 258.68 356.18, 259.91 354.61 C 261.15 353.04, 261.61 352.11, 262.00 350.39 C 262.38 348.67, 262.30 347.75, 261.84 346.00 C 261.37 344.25, 260.87 343.37, 259.68 341.64 C 258.49 339.91, 257.62 339.07, 255.90 337.33 C 254.17 335.59, 253.04 334.71, 251.08 332.95 C 249.12 331.19, 247.96 330.31, 246.10 328.53 C 244.24 326.75, 243.27 325.89, 241.78 324.06 C 240.29 322.23, 239.58 321.25, 238.65 319.37 C 237.72 317.50, 237.39 316.48, 237.14 314.69 C 236.90 312.89, 237.02 312.02, 237.45 310.40 C 237.89 308.78, 238.32 307.95, 239.33 306.58 C 240.33 305.21, 241.07 304.55, 242.47 303.55 C 243.87 302.55, 244.76 302.17, 246.34 301.58 C 247.92 301.00, 248.83 300.83, 250.36 300.64 C 251.89 300.45, 252.72 300.58, 254.00 300.63 C 255.28 300.69, 255.87 300.81, 256.75 300.92 C 257.64 301.02, 258.04 301.25, 258.43 301.17 C 258.82 301.08, 258.97 300.86, 258.72 300.50" style="stroke: white; fill: white;"/><path d="M 273.91,324.10 C 273.61 324.05, 273.36 323.97, 272.74 324.35 C 272.11 324.73, 271.62 324.97, 270.78 326.00 C 269.94 327.02, 269.42 327.75, 268.54 329.48 C 267.66 331.20, 267.13 332.37, 266.38 334.63 C 265.63 336.88, 265.26 338.30, 264.80 340.74 C 264.34 343.18, 264.13 344.62, 264.08 346.84 C 264.03 349.07, 264.07 350.28, 264.55 351.87 C 265.04 353.45, 265.51 354.16, 266.51 354.77 C 267.50 355.38, 268.24 355.43, 269.52 354.93 C 270.79 354.43, 271.56 353.85, 272.87 352.28 C 274.18 350.71, 274.93 349.47, 276.07 347.09 C 277.22 344.72, 277.74 343.06, 278.59 340.40 C 279.43 337.74, 279.82 336.12, 280.31 333.80 C 280.81 331.48, 280.97 330.17, 281.05 328.81 C 281.13 327.45, 280.93 327.00, 280.70 327.00 C 280.47 327.01, 280.16 327.57, 279.91 328.84 C 279.67 330.12, 279.43 331.33, 279.49 333.39 C 279.54 335.44, 279.70 336.95, 280.18 339.12 C 280.66 341.29, 281.04 342.60, 281.88 344.23 C 282.72 345.86, 283.25 346.59, 284.40 347.28 C 285.55 347.97, 286.30 348.03, 287.63 347.69 C 288.96 347.35, 289.70 346.90, 291.04 345.59 C 292.37 344.28, 293.10 343.18, 294.30 341.15 C 295.49 339.12, 296.07 337.67, 297.01 335.42 C 297.94 333.17, 298.39 331.83, 298.96 329.89 C 299.53 327.96, 299.76 326.94, 299.86 325.74 C 299.95 324.53, 299.74 324.02, 299.42 323.86 C 299.10 323.71, 298.71 324.02, 298.24 324.97 C 297.77 325.92, 297.42 326.82, 297.07 328.59 C 296.72 330.37, 296.53 331.68, 296.50 333.84 C 296.46 336.01, 296.52 337.39, 296.89 339.42 C 297.27 341.44, 297.54 342.53, 298.36 343.95 C 299.18 345.37, 299.76 346.04, 300.99 346.51 C 302.22 346.98, 303.06 346.95, 304.51 346.31 C 305.96 345.67, 306.76 344.93, 308.23 343.29 C 309.71 341.65, 310.51 340.42, 311.91 338.13 C 313.31 335.84, 314.09 334.27, 315.24 331.85 C 316.40 329.43, 316.93 327.95, 317.67 326.03 C 318.41 324.11, 318.65 323.12, 318.95 322.23 C 319.26 321.35, 319.18 321.13, 319.20 321.59 C 319.22 322.06, 319.03 322.75, 319.04 324.54 C 319.05 326.33, 319.01 327.73, 319.23 330.55 C 319.45 333.36, 319.79 335.13, 320.14 338.60 C 320.49 342.07, 320.70 344.05, 320.99 347.89 C 321.28 351.72, 321.44 353.87, 321.58 357.78 C 321.72 361.69, 321.83 363.77, 321.69 367.44 C 321.55 371.10, 321.42 372.96, 320.87 376.10 C 320.32 379.24, 319.88 380.73, 318.96 383.13 C 318.04 385.54, 317.50 386.58, 316.26 388.11 C 315.02 389.64, 314.27 390.13, 312.75 390.78 C 311.24 391.43, 310.31 391.49, 308.68 391.37 C 307.05 391.26, 306.08 390.96, 304.59 390.19 C 303.09 389.43, 302.28 388.85, 301.22 387.53 C 300.16 386.22, 299.66 385.42, 299.29 383.63 C 298.91 381.83, 298.89 380.76, 299.32 378.54 C 299.76 376.32, 300.23 375.08, 301.46 372.53 C 302.69 369.97, 303.53 368.48, 305.47 365.76 C 307.41 363.04, 308.64 361.61, 311.15 358.93 C 313.67 356.24, 315.15 354.87, 318.05 352.36 C 320.95 349.85, 322.58 348.63, 325.64 346.39 C 328.70 344.14, 330.38 343.11, 333.34 341.13 C 336.29 339.16, 337.88 338.23, 340.43 336.51 C 342.97 334.80, 344.24 333.99, 346.06 332.57 C 347.89 331.15, 348.70 330.50, 349.55 329.41 C 350.40 328.32, 350.55 327.77, 350.32 327.12 C 350.09 326.46, 349.52 326.13, 348.39 326.14 C 347.26 326.15, 346.28 326.32, 344.65 327.16 C 343.02 328.00, 341.94 328.79, 340.25 330.35 C 338.56 331.91, 337.60 333.02, 336.18 334.98 C 334.77 336.93, 334.05 338.12, 333.18 340.13 C 332.31 342.14, 331.96 343.34, 331.83 345.02 C 331.70 346.70, 331.89 347.52, 332.53 348.53 C 333.18 349.55, 333.80 349.95, 335.05 350.09 C 336.29 350.23, 337.19 350.02, 338.75 349.22 C 340.31 348.43, 341.28 347.68, 342.84 346.12 C 344.41 344.55, 345.26 343.39, 346.58 341.39 C 347.89 339.38, 348.52 338.02, 349.40 336.07 C 350.28 334.13, 350.64 332.97, 350.98 331.65 C 351.31 330.33, 351.23 329.75, 351.06 329.49 C 350.89 329.23, 350.49 329.46, 350.12 330.36 C 349.75 331.27, 349.37 332.23, 349.21 334.00 C 349.04 335.76, 348.96 337.11, 349.27 339.19 C 349.58 341.27, 349.90 342.56, 350.76 344.40 C 351.63 346.23, 352.22 347.15, 353.57 348.36 C 354.93 349.58, 355.75 350.09, 357.54 350.47 C 359.34 350.84, 360.45 350.78, 362.54 350.25 C 364.62 349.72, 365.99 348.98, 367.98 347.82 C 369.98 346.67, 371.05 345.76, 372.51 344.48 C 373.98 343.20, 374.85 342.14, 375.32 341.41 C 375.79 340.69, 375.63 340.53, 374.86 340.87 C 374.09 341.22, 373.06 342.09, 371.48 343.12 C 369.90 344.15, 368.84 344.95, 366.95 346.02 C 365.06 347.09, 363.85 347.88, 362.03 348.47 C 360.20 349.06, 359.31 349.21, 357.84 348.95 C 356.36 348.70, 355.72 348.27, 354.66 347.21 C 353.59 346.15, 353.12 345.32, 352.51 343.66 C 351.89 342.00, 351.78 340.81, 351.57 338.90 C 351.37 336.98, 351.52 335.76, 351.48 334.08 C 351.44 332.41, 351.50 331.47, 351.37 330.53 C 351.24 329.58, 351.19 329.25, 350.82 329.36 C 350.46 329.48, 350.20 329.92, 349.55 331.09 C 348.91 332.26, 348.54 333.37, 347.59 335.20 C 346.64 337.03, 346.07 338.34, 344.81 340.23 C 343.56 342.11, 342.72 343.16, 341.33 344.64 C 339.93 346.12, 339.07 346.79, 337.83 347.63 C 336.58 348.47, 335.95 348.77, 335.09 348.83 C 334.23 348.90, 333.87 348.69, 333.53 347.97 C 333.19 347.25, 333.11 346.63, 333.39 345.22 C 333.66 343.81, 333.99 342.72, 334.88 340.92 C 335.77 339.11, 336.45 337.99, 337.83 336.20 C 339.20 334.42, 340.19 333.44, 341.76 332.00 C 343.34 330.55, 344.34 329.89, 345.72 328.97 C 347.09 328.06, 347.81 327.76, 348.62 327.41 C 349.44 327.07, 349.78 327.03, 349.79 327.26 C 349.80 327.49, 349.60 327.76, 348.65 328.57 C 347.71 329.37, 346.91 329.95, 345.09 331.27 C 343.26 332.60, 342.03 333.45, 339.53 335.19 C 337.02 336.93, 335.48 337.94, 332.54 339.96 C 329.60 341.98, 327.91 343.03, 324.84 345.30 C 321.76 347.57, 320.11 348.80, 317.16 351.32 C 314.21 353.85, 312.70 355.23, 310.10 357.93 C 307.50 360.62, 306.23 362.05, 304.17 364.81 C 302.11 367.57, 301.12 369.04, 299.80 371.72 C 298.48 374.40, 298.00 375.76, 297.56 378.21 C 297.13 380.67, 297.17 381.91, 297.63 383.99 C 298.10 386.06, 298.65 387.05, 299.89 388.60 C 301.12 390.15, 302.06 390.87, 303.80 391.74 C 305.54 392.62, 306.68 392.91, 308.59 392.99 C 310.50 393.06, 311.58 392.91, 313.34 392.12 C 315.10 391.33, 315.98 390.74, 317.40 389.05 C 318.82 387.37, 319.47 386.26, 320.46 383.71 C 321.45 381.17, 321.82 379.59, 322.34 376.35 C 322.86 373.10, 322.95 371.21, 323.07 367.48 C 323.18 363.76, 323.07 361.67, 322.94 357.73 C 322.81 353.80, 322.65 351.65, 322.43 347.79 C 322.21 343.94, 322.03 341.95, 321.85 338.47 C 321.66 334.98, 321.69 333.20, 321.48 330.38 C 321.28 327.56, 321.19 326.19, 320.84 324.37 C 320.49 322.55, 320.29 321.82, 319.74 321.28 C 319.19 320.75, 318.84 320.89, 318.08 321.69 C 317.33 322.48, 316.92 323.42, 315.97 325.27 C 315.02 327.11, 314.53 328.57, 313.35 330.92 C 312.16 333.27, 311.37 334.78, 310.04 337.00 C 308.72 339.22, 307.97 340.42, 306.72 342.02 C 305.48 343.62, 304.88 344.32, 303.82 345.00 C 302.77 345.68, 302.25 345.75, 301.44 345.40 C 300.62 345.05, 300.28 344.51, 299.76 343.25 C 299.25 342.00, 299.05 341.00, 298.87 339.13 C 298.68 337.26, 298.74 335.96, 298.83 333.91 C 298.92 331.87, 299.17 330.64, 299.32 328.92 C 299.47 327.19, 299.60 326.29, 299.59 325.29 C 299.59 324.30, 299.51 323.91, 299.30 323.94 C 299.09 323.96, 298.97 324.37, 298.54 325.44 C 298.11 326.50, 297.85 327.45, 297.15 329.28 C 296.45 331.12, 295.99 332.43, 295.05 334.59 C 294.10 336.75, 293.49 338.13, 292.42 340.08 C 291.35 342.04, 290.73 343.08, 289.69 344.36 C 288.66 345.63, 288.16 346.08, 287.23 346.46 C 286.31 346.84, 285.84 346.85, 285.09 346.26 C 284.35 345.67, 284.03 345.04, 283.51 343.52 C 282.98 342.01, 282.78 340.75, 282.45 338.69 C 282.12 336.63, 282.07 335.20, 281.86 333.23 C 281.65 331.27, 281.65 330.11, 281.42 328.85 C 281.20 327.60, 281.08 327.01, 280.74 326.94 C 280.40 326.88, 280.21 327.26, 279.74 328.54 C 279.27 329.81, 279.03 331.08, 278.39 333.32 C 277.75 335.56, 277.41 337.17, 276.55 339.74 C 275.69 342.30, 275.12 343.88, 274.08 346.16 C 273.04 348.43, 272.36 349.59, 271.33 351.11 C 270.30 352.63, 269.78 353.20, 268.93 353.75 C 268.08 354.31, 267.67 354.35, 267.09 353.90 C 266.51 353.46, 266.26 352.91, 266.03 351.51 C 265.80 350.12, 265.80 349.01, 265.95 346.93 C 266.11 344.86, 266.31 343.47, 266.81 341.14 C 267.30 338.82, 267.68 337.45, 268.42 335.32 C 269.16 333.18, 269.71 332.09, 270.51 330.46 C 271.31 328.84, 271.79 328.20, 272.43 327.19 C 273.06 326.18, 273.33 325.92, 273.69 325.41 C 274.05 324.89, 274.18 324.89, 274.22 324.63 C 274.27 324.37, 274.21 324.16, 273.91 324.10" style="stroke: white; fill: white;"/><path d="M 420.27,320.38 C 420.14 320.07, 419.93 319.75, 419.31 319.49 C 418.69 319.23, 418.21 319.10, 417.17 319.08 C 416.12 319.06, 415.41 319.02, 414.11 319.38 C 412.81 319.74, 411.98 320.08, 410.67 320.86 C 409.37 321.65, 408.57 322.19, 407.58 323.30 C 406.59 324.41, 406.09 325.13, 405.72 326.40 C 405.34 327.67, 405.30 328.39, 405.71 329.65 C 406.12 330.92, 406.60 331.59, 407.78 332.72 C 408.95 333.85, 409.89 334.33, 411.59 335.28 C 413.28 336.23, 414.42 336.62, 416.27 337.47 C 418.11 338.33, 419.19 338.70, 420.81 339.57 C 422.44 340.43, 423.28 340.89, 424.39 341.79 C 425.49 342.70, 425.93 343.18, 426.34 344.10 C 426.76 345.03, 426.76 345.49, 426.46 346.41 C 426.15 347.34, 425.75 347.84, 424.82 348.72 C 423.88 349.61, 423.13 350.10, 421.79 350.84 C 420.45 351.59, 419.55 351.95, 418.11 352.46 C 416.67 352.96, 415.79 353.15, 414.57 353.36 C 413.35 353.57, 412.73 353.57, 412.03 353.51 C 411.33 353.45, 411.09 353.40, 411.06 353.05 C 411.03 352.69, 411.20 352.44, 411.88 351.72 C 412.56 351.00, 413.13 350.53, 414.45 349.45 C 415.78 348.37, 416.67 347.66, 418.51 346.31 C 420.35 344.95, 421.50 344.18, 423.64 342.66 C 425.78 341.14, 427.01 340.32, 429.20 338.71 C 431.40 337.11, 432.59 336.27, 434.62 334.63 C 436.64 332.99, 437.69 332.11, 439.31 330.50 C 440.92 328.89, 441.67 328.03, 442.69 326.56 C 443.71 325.10, 444.11 324.36, 444.42 323.19 C 444.73 322.02, 444.64 321.39, 444.22 320.72 C 443.80 320.05, 443.31 319.77, 442.33 319.84 C 441.35 319.91, 440.55 320.14, 439.33 321.08 C 438.10 322.01, 437.35 322.81, 436.20 324.50 C 435.05 326.18, 434.43 327.31, 433.58 329.50 C 432.73 331.69, 432.27 333.08, 431.93 335.44 C 431.60 337.80, 431.57 339.21, 431.88 341.31 C 432.20 343.42, 432.55 344.44, 433.49 345.96 C 434.43 347.48, 435.08 348.18, 436.57 348.91 C 438.06 349.63, 439.04 349.77, 440.92 349.59 C 442.80 349.41, 443.91 349.05, 445.98 348.03 C 448.05 347.01, 449.18 346.20, 451.26 344.49 C 453.34 342.77, 454.47 341.54, 456.38 339.45 C 458.28 337.36, 459.28 336.04, 460.77 334.04 C 462.26 332.04, 462.96 330.95, 463.82 329.46 C 464.67 327.97, 464.91 327.31, 465.05 326.57 C 465.19 325.84, 464.95 325.68, 464.51 325.78 C 464.06 325.88, 463.51 326.20, 462.82 327.09 C 462.13 327.98, 461.66 328.74, 461.06 330.24 C 460.45 331.73, 460.15 332.75, 459.81 334.55 C 459.46 336.35, 459.33 337.47, 459.33 339.25 C 459.34 341.02, 459.42 342.00, 459.82 343.44 C 460.21 344.89, 460.54 345.58, 461.30 346.47 C 462.06 347.37, 462.63 347.71, 463.63 347.91 C 464.63 348.11, 465.27 348.04, 466.31 347.45 C 467.35 346.86, 467.97 346.32, 468.83 344.98 C 469.70 343.63, 470.16 342.63, 470.65 340.72 C 471.15 338.81, 471.29 337.52, 471.30 335.42 C 471.30 333.31, 471.11 332.08, 470.67 330.21 C 470.23 328.33, 469.84 327.42, 469.10 326.06 C 468.35 324.70, 467.80 324.14, 466.95 323.42 C 466.09 322.69, 465.50 322.53, 464.81 322.46 C 464.13 322.39, 463.70 322.66, 463.51 323.04 C 463.32 323.43, 463.35 323.91, 463.86 324.38 C 464.36 324.84, 464.88 325.14, 466.03 325.37 C 467.19 325.59, 468.03 325.60, 469.64 325.51 C 471.26 325.41, 472.26 325.19, 474.10 324.89 C 475.93 324.60, 476.97 324.36, 478.81 324.03 C 480.66 323.70, 481.68 323.46, 483.31 323.23 C 484.95 323.01, 485.76 322.81, 486.99 322.91 C 488.22 323.00, 488.70 323.07, 489.46 323.73 C 490.21 324.39, 490.41 324.89, 490.75 326.20 C 491.09 327.52, 491.11 328.43, 491.17 330.30 C 491.22 332.17, 491.14 333.42, 491.03 335.57 C 490.93 337.72, 490.79 339.07, 490.66 341.07 C 490.52 343.07, 490.35 344.20, 490.36 345.58 C 490.37 346.95, 490.43 347.53, 490.70 347.92 C 490.97 348.31, 491.26 348.21, 491.69 347.54 C 492.12 346.87, 492.39 346.12, 492.86 344.57 C 493.33 343.03, 493.55 341.84, 494.05 339.83 C 494.56 337.82, 494.79 336.50, 495.40 334.53 C 496.01 332.56, 496.33 331.51, 497.11 329.96 C 497.90 328.41, 498.32 327.75, 499.31 326.78 C 500.29 325.81, 500.83 325.57, 502.05 325.11 C 503.26 324.65, 503.93 324.61, 505.37 324.47 C 506.81 324.32, 507.64 324.39, 509.25 324.39 C 510.86 324.39, 511.77 324.47, 513.42 324.46 C 515.08 324.46, 515.95 324.45, 517.52 324.35 C 519.08 324.24, 519.94 324.24, 521.26 323.94 C 522.58 323.64, 523.28 323.44, 524.13 322.86 C 524.97 322.28, 525.31 321.80, 525.48 321.05 C 525.65 320.29, 525.53 319.74, 524.97 319.09 C 524.42 318.45, 523.86 318.00, 522.69 317.82 C 521.51 317.63, 520.61 317.64, 519.10 318.16 C 517.58 318.67, 516.63 319.15, 515.11 320.40 C 513.58 321.65, 512.76 322.53, 511.49 324.41 C 510.22 326.29, 509.57 327.59, 508.75 329.79 C 507.94 331.99, 507.60 333.34, 507.41 335.42 C 507.22 337.51, 507.37 338.67, 507.81 340.22 C 508.26 341.77, 508.67 342.43, 509.64 343.16 C 510.61 343.89, 511.35 344.08, 512.66 343.85 C 513.98 343.62, 514.80 343.20, 516.19 342.02 C 517.59 340.84, 518.35 339.87, 519.64 337.95 C 520.93 336.04, 521.56 334.72, 522.64 332.44 C 523.73 330.16, 524.29 328.70, 525.09 326.55 C 525.88 324.40, 526.32 323.21, 526.64 321.70 C 526.96 320.20, 526.86 319.49, 526.68 319.04 C 526.51 318.59, 526.17 318.69, 525.75 319.45 C 525.32 320.22, 524.90 321.10, 524.55 322.87 C 524.21 324.64, 524.02 326.04, 524.02 328.30 C 524.01 330.57, 524.15 332.02, 524.52 334.19 C 524.89 336.35, 525.15 337.53, 525.88 339.14 C 526.60 340.74, 527.07 341.50, 528.13 342.22 C 529.19 342.95, 529.88 343.08, 531.18 342.78 C 532.48 342.47, 533.24 341.97, 534.64 340.70 C 536.04 339.43, 536.82 338.38, 538.16 336.41 C 539.51 334.45, 540.20 333.05, 541.37 330.87 C 542.54 328.70, 543.14 327.38, 544.00 325.55 C 544.87 323.72, 545.26 322.77, 545.70 321.73 C 546.14 320.70, 546.17 320.36, 546.22 320.38 C 546.27 320.40, 546.12 320.79, 545.94 321.83 C 545.77 322.87, 545.57 323.81, 545.35 325.57 C 545.14 327.32, 544.98 328.63, 544.88 330.61 C 544.78 332.58, 544.72 333.82, 544.86 335.44 C 545.01 337.06, 545.14 337.85, 545.61 338.70 C 546.08 339.56, 546.42 339.82, 547.21 339.72 C 548.01 339.63, 548.55 339.28, 549.57 338.23 C 550.60 337.17, 551.20 336.19, 552.33 334.44 C 553.47 332.69, 554.11 331.42, 555.25 329.49 C 556.38 327.55, 557.05 326.32, 558.00 324.76 C 558.95 323.19, 559.38 322.38, 559.99 321.66 C 560.60 320.94, 560.75 320.86, 561.06 321.16 C 561.37 321.47, 561.40 321.96, 561.53 323.18 C 561.67 324.41, 561.59 325.51, 561.73 327.29 C 561.86 329.06, 561.92 330.27, 562.21 332.07 C 562.51 333.88, 562.64 334.91, 563.21 336.31 C 563.78 337.72, 564.14 338.40, 565.07 339.09 C 566.01 339.78, 566.63 339.96, 567.90 339.77 C 569.17 339.57, 569.94 339.20, 571.44 338.12 C 572.93 337.03, 573.84 336.12, 575.38 334.34 C 576.92 332.56, 577.77 331.31, 579.15 329.23 C 580.53 327.15, 581.23 325.88, 582.27 323.94 C 583.32 322.01, 583.84 320.98, 584.38 319.55 C 584.92 318.12, 585.07 317.51, 584.95 316.79 C 584.84 316.07, 584.48 315.88, 583.81 315.95 C 583.14 316.03, 582.50 316.30, 581.60 317.16 C 580.71 318.03, 580.14 318.83, 579.33 320.29 C 578.53 321.76, 578.11 322.77, 577.58 324.49 C 577.05 326.22, 576.79 327.30, 576.69 328.94 C 576.60 330.58, 576.67 331.48, 577.11 332.70 C 577.56 333.91, 577.96 334.50, 578.91 335.00 C 579.85 335.50, 580.57 335.59, 581.83 335.21 C 583.08 334.83, 583.88 334.34, 585.18 333.11 C 586.49 331.88, 587.22 330.87, 588.35 329.05 C 589.47 327.23, 590.11 325.84, 590.81 323.98 C 591.50 322.13, 591.69 321.00, 591.83 319.79 C 591.96 318.57, 591.71 318.05, 591.49 317.89 C 591.27 317.74, 590.97 318.00, 590.72 319.00 C 590.47 320.00, 590.28 320.90, 590.25 322.90 C 590.22 324.91, 590.27 326.22, 590.57 329.02 C 590.88 331.82, 591.26 333.49, 591.79 336.89 C 592.32 340.30, 592.65 342.21, 593.23 346.05 C 593.80 349.88, 594.17 352.07, 594.66 356.07 C 595.14 360.07, 595.43 362.28, 595.67 366.05 C 595.90 369.83, 595.99 371.77, 595.84 374.94 C 595.70 378.12, 595.52 379.62, 594.95 381.93 C 594.38 384.24, 593.99 385.18, 592.98 386.50 C 591.98 387.82, 591.29 388.22, 589.93 388.53 C 588.57 388.84, 587.74 388.66, 586.19 388.06 C 584.64 387.46, 583.70 386.90, 582.17 385.54 C 580.65 384.17, 579.70 383.22, 578.57 381.23 C 577.43 379.23, 576.89 377.98, 576.49 375.55 C 576.09 373.12, 576.06 371.74, 576.55 369.09 C 577.03 366.43, 577.50 364.97, 578.90 362.28 C 580.31 359.58, 581.31 358.18, 583.58 355.59 C 585.85 353.00, 587.34 351.68, 590.24 349.31 C 593.14 346.94, 594.89 345.78, 598.07 343.74 C 601.25 341.70, 603.01 340.74, 606.13 339.10 C 609.25 337.45, 610.90 336.74, 613.69 335.53 C 616.48 334.31, 617.87 333.84, 620.08 333.01 C 622.29 332.19, 623.22 331.95, 624.74 331.41 C 626.26 330.87, 626.81 330.72, 627.67 330.32 C 628.52 329.93, 628.70 329.76, 629.02 329.44 C 629.35 329.12, 629.28 328.91, 629.28 328.74 C 629.29 328.56, 629.16 328.55, 629.03 328.57 C 628.90 328.59, 628.99 328.72, 628.64 328.84 C 628.28 328.97, 628.12 328.96, 627.25 329.20 C 626.38 329.44, 625.84 329.58, 624.30 330.04 C 622.75 330.50, 621.78 330.69, 619.53 331.50 C 617.28 332.30, 615.86 332.81, 613.05 334.08 C 610.24 335.35, 608.60 336.14, 605.46 337.84 C 602.31 339.54, 600.55 340.50, 597.33 342.58 C 594.10 344.65, 592.32 345.81, 589.35 348.21 C 586.37 350.62, 584.83 351.94, 582.46 354.60 C 580.08 357.26, 579.00 358.68, 577.46 361.51 C 575.93 364.34, 575.35 365.89, 574.79 368.76 C 574.24 371.62, 574.27 373.16, 574.69 375.84 C 575.12 378.53, 575.66 379.94, 576.91 382.16 C 578.16 384.39, 579.19 385.47, 580.94 386.96 C 582.69 388.45, 583.80 389.03, 585.66 389.61 C 587.53 390.18, 588.58 390.29, 590.26 389.84 C 591.93 389.38, 592.80 388.85, 594.04 387.34 C 595.28 385.84, 595.78 384.78, 596.44 382.32 C 597.10 379.85, 597.22 378.28, 597.34 375.00 C 597.45 371.73, 597.30 369.78, 597.03 365.96 C 596.76 362.14, 596.47 359.93, 595.99 355.91 C 595.51 351.89, 595.15 349.70, 594.64 345.85 C 594.14 342.00, 593.82 340.08, 593.45 336.67 C 593.07 333.27, 592.98 331.58, 592.76 328.81 C 592.55 326.05, 592.52 324.80, 592.37 322.84 C 592.22 320.88, 592.24 320.03, 592.03 319.03 C 591.83 318.03, 591.67 317.75, 591.34 317.82 C 591.01 317.89, 590.88 318.31, 590.37 319.38 C 589.87 320.45, 589.61 321.45, 588.82 323.16 C 588.03 324.86, 587.44 326.18, 586.43 327.89 C 585.41 329.60, 584.78 330.54, 583.75 331.72 C 582.72 332.90, 582.13 333.35, 581.27 333.80 C 580.42 334.25, 580.01 334.28, 579.46 333.98 C 578.92 333.67, 578.73 333.26, 578.55 332.29 C 578.37 331.32, 578.35 330.55, 578.56 329.13 C 578.77 327.70, 579.04 326.72, 579.61 325.17 C 580.17 323.62, 580.70 322.75, 581.39 321.39 C 582.09 320.02, 582.54 319.29, 583.09 318.35 C 583.64 317.40, 583.92 316.99, 584.13 316.66 C 584.35 316.33, 584.41 316.26, 584.17 316.70 C 583.92 317.14, 583.63 317.61, 582.92 318.87 C 582.20 320.13, 581.70 321.15, 580.60 322.99 C 579.49 324.82, 578.78 326.06, 577.41 328.05 C 576.03 330.04, 575.16 331.21, 573.72 332.93 C 572.29 334.65, 571.46 335.52, 570.24 336.63 C 569.01 337.73, 568.47 338.15, 567.59 338.46 C 566.71 338.76, 566.39 338.69, 565.84 338.16 C 565.28 337.62, 565.12 337.06, 564.82 335.79 C 564.52 334.52, 564.50 333.55, 564.34 331.80 C 564.18 330.05, 564.26 328.86, 564.03 327.05 C 563.80 325.24, 563.70 324.08, 563.20 322.77 C 562.69 321.45, 562.31 320.88, 561.51 320.47 C 560.71 320.06, 560.23 320.08, 559.21 320.72 C 558.18 321.35, 557.58 322.13, 556.40 323.65 C 555.22 325.17, 554.53 326.40, 553.31 328.31 C 552.10 330.22, 551.37 331.44, 550.33 333.20 C 549.30 334.97, 548.81 335.97, 548.14 337.12 C 547.46 338.28, 547.27 338.72, 546.98 338.97 C 546.68 339.22, 546.69 339.08, 546.66 338.37 C 546.62 337.66, 546.68 336.94, 546.80 335.42 C 546.91 333.90, 547.06 332.71, 547.24 330.78 C 547.42 328.84, 547.65 327.53, 547.68 325.73 C 547.72 323.93, 547.69 322.91, 547.42 321.76 C 547.15 320.62, 546.89 320.13, 546.33 319.98 C 545.76 319.84, 545.40 320.10, 544.59 321.03 C 543.79 321.97, 543.32 322.90, 542.30 324.66 C 541.28 326.42, 540.69 327.74, 539.50 329.84 C 538.31 331.95, 537.59 333.30, 536.35 335.21 C 535.11 337.11, 534.42 338.12, 533.31 339.39 C 532.20 340.66, 531.69 341.18, 530.80 341.55 C 529.91 341.93, 529.53 341.88, 528.86 341.27 C 528.19 340.67, 527.90 340.01, 527.44 338.54 C 526.98 337.06, 526.76 335.95, 526.56 333.91 C 526.37 331.87, 526.43 330.49, 526.47 328.33 C 526.50 326.17, 526.69 324.86, 526.75 323.12 C 526.82 321.39, 526.90 320.50, 526.79 319.66 C 526.69 318.82, 526.56 318.63, 526.21 318.94 C 525.87 319.25, 525.68 319.83, 525.08 321.21 C 524.48 322.58, 524.09 323.75, 523.22 325.81 C 522.35 327.88, 521.81 329.33, 520.74 331.52 C 519.67 333.72, 519.05 334.97, 517.88 336.80 C 516.72 338.62, 516.03 339.51, 514.92 340.65 C 513.82 341.80, 513.25 342.22, 512.34 342.53 C 511.43 342.85, 510.98 342.78, 510.37 342.25 C 509.76 341.71, 509.52 341.20, 509.30 339.87 C 509.07 338.55, 508.98 337.51, 509.25 335.63 C 509.51 333.76, 509.83 332.51, 510.62 330.49 C 511.40 328.48, 512.00 327.25, 513.16 325.54 C 514.31 323.83, 515.06 323.04, 516.38 321.95 C 517.71 320.85, 518.55 320.53, 519.78 320.06 C 521.01 319.59, 521.66 319.60, 522.53 319.60 C 523.40 319.59, 523.72 319.79, 524.11 320.02 C 524.50 320.26, 524.61 320.44, 524.47 320.76 C 524.33 321.07, 524.12 321.31, 523.42 321.60 C 522.71 321.90, 522.14 322.06, 520.94 322.24 C 519.74 322.42, 518.92 322.45, 517.41 322.52 C 515.91 322.59, 515.06 322.58, 513.42 322.58 C 511.78 322.58, 510.88 322.47, 509.23 322.51 C 507.57 322.54, 506.70 322.51, 505.15 322.75 C 503.60 322.98, 502.85 323.10, 501.47 323.68 C 500.09 324.27, 499.43 324.59, 498.26 325.67 C 497.08 326.76, 496.54 327.49, 495.58 329.12 C 494.62 330.76, 494.23 331.83, 493.45 333.85 C 492.67 335.87, 492.25 337.17, 491.70 339.22 C 491.16 341.27, 490.93 342.50, 490.72 344.11 C 490.51 345.73, 490.57 346.54, 490.66 347.30 C 490.75 348.06, 490.92 348.23, 491.19 347.92 C 491.45 347.61, 491.70 347.09, 492.00 345.75 C 492.30 344.42, 492.45 343.27, 492.68 341.25 C 492.91 339.23, 493.05 337.88, 493.15 335.67 C 493.24 333.45, 493.33 332.18, 493.17 330.19 C 493.01 328.19, 492.89 327.19, 492.33 325.69 C 491.76 324.19, 491.37 323.56, 490.34 322.69 C 489.32 321.83, 488.64 321.63, 487.19 321.38 C 485.75 321.12, 484.86 321.28, 483.12 321.42 C 481.38 321.56, 480.36 321.80, 478.49 322.08 C 476.63 322.35, 475.59 322.56, 473.79 322.80 C 471.99 323.04, 471.01 323.16, 469.50 323.26 C 468.00 323.36, 467.28 323.30, 466.26 323.29 C 465.24 323.28, 464.89 323.20, 464.42 323.20 C 463.94 323.21, 463.88 323.23, 463.90 323.30 C 463.91 323.37, 464.09 323.32, 464.50 323.56 C 464.91 323.80, 465.33 323.84, 465.95 324.49 C 466.58 325.14, 467.05 325.60, 467.62 326.82 C 468.20 328.04, 468.52 328.88, 468.84 330.59 C 469.17 332.31, 469.29 333.47, 469.24 335.39 C 469.20 337.31, 469.03 338.49, 468.61 340.21 C 468.20 341.93, 467.81 342.81, 467.18 344.00 C 466.55 345.20, 466.14 345.65, 465.48 346.19 C 464.81 346.72, 464.48 346.80, 463.87 346.69 C 463.26 346.57, 462.90 346.33, 462.42 345.61 C 461.94 344.89, 461.70 344.32, 461.47 343.06 C 461.25 341.80, 461.20 340.91, 461.28 339.30 C 461.37 337.68, 461.52 336.65, 461.91 335.00 C 462.31 333.36, 462.76 332.48, 463.26 331.07 C 463.76 329.66, 464.09 328.94, 464.41 327.95 C 464.73 326.95, 464.89 326.46, 464.86 326.11 C 464.84 325.75, 464.77 325.69, 464.28 326.18 C 463.80 326.67, 463.44 327.22, 462.44 328.55 C 461.43 329.89, 460.76 330.97, 459.25 332.87 C 457.74 334.78, 456.74 336.07, 454.88 338.08 C 453.02 340.10, 451.92 341.29, 449.97 342.94 C 448.01 344.60, 446.96 345.35, 445.11 346.35 C 443.26 347.35, 442.30 347.70, 440.72 347.95 C 439.13 348.20, 438.37 348.16, 437.19 347.61 C 436.00 347.06, 435.51 346.50, 434.80 345.20 C 434.09 343.89, 433.82 342.98, 433.63 341.09 C 433.45 339.20, 433.50 337.91, 433.88 335.75 C 434.25 333.58, 434.68 332.28, 435.51 330.27 C 436.33 328.26, 436.97 327.25, 437.99 325.70 C 439.01 324.16, 439.69 323.49, 440.61 322.56 C 441.53 321.62, 442.04 321.34, 442.61 321.05 C 443.18 320.76, 443.36 320.77, 443.47 321.11 C 443.58 321.45, 443.58 321.86, 443.16 322.75 C 442.75 323.65, 442.41 324.31, 441.39 325.60 C 440.37 326.90, 439.67 327.73, 438.08 329.24 C 436.49 330.76, 435.46 331.61, 433.46 333.19 C 431.46 334.77, 430.27 335.59, 428.08 337.15 C 425.88 338.71, 424.64 339.51, 422.48 340.99 C 420.31 342.48, 419.12 343.21, 417.24 344.58 C 415.36 345.96, 414.41 346.63, 413.08 347.87 C 411.74 349.12, 411.16 349.72, 410.57 350.79 C 409.99 351.87, 409.91 352.46, 410.14 353.25 C 410.36 354.04, 410.77 354.38, 411.69 354.76 C 412.62 355.14, 413.36 355.22, 414.77 355.14 C 416.18 355.05, 417.13 354.84, 418.74 354.33 C 420.34 353.82, 421.32 353.46, 422.79 352.58 C 424.27 351.71, 425.10 351.11, 426.11 349.96 C 427.12 348.80, 427.54 348.07, 427.84 346.80 C 428.14 345.52, 428.10 344.82, 427.63 343.58 C 427.16 342.33, 426.66 341.70, 425.48 340.57 C 424.30 339.44, 423.40 338.91, 421.74 337.93 C 420.07 336.94, 418.98 336.52, 417.14 335.63 C 415.31 334.74, 414.19 334.34, 412.56 333.48 C 410.92 332.63, 410.05 332.24, 408.96 331.38 C 407.86 330.51, 407.44 330.06, 407.09 329.16 C 406.74 328.27, 406.82 327.82, 407.19 326.91 C 407.56 326.00, 408.04 325.47, 408.94 324.62 C 409.85 323.77, 410.57 323.30, 411.72 322.66 C 412.86 322.03, 413.57 321.74, 414.68 321.44 C 415.78 321.13, 416.37 321.21, 417.23 321.12 C 418.10 321.03, 418.46 321.02, 419.01 321.00 C 419.56 320.97, 419.73 321.13, 419.98 321.01 C 420.23 320.88, 420.40 320.68, 420.27 320.38" style="stroke: white; fill: white;"/><path d="M 692.51,308.37 C 692.29 308.02, 691.94 307.61, 691.11 307.26 C 690.29 306.91, 689.65 306.72, 688.38 306.63 C 687.10 306.54, 686.20 306.50, 684.72 306.81 C 683.25 307.13, 682.35 307.41, 681.02 308.22 C 679.68 309.04, 678.90 309.69, 678.05 310.88 C 677.19 312.06, 676.82 312.80, 676.74 314.14 C 676.66 315.48, 676.88 316.23, 677.64 317.59 C 678.40 318.95, 679.08 319.65, 680.56 320.95 C 682.03 322.25, 683.11 322.89, 685.00 324.10 C 686.90 325.30, 688.17 325.86, 690.05 326.98 C 691.93 328.10, 692.96 328.62, 694.39 329.69 C 695.82 330.77, 696.49 331.32, 697.21 332.35 C 697.93 333.38, 698.16 333.87, 697.98 334.84 C 697.81 335.81, 697.41 336.28, 696.36 337.20 C 695.31 338.12, 694.43 338.64, 692.74 339.46 C 691.05 340.28, 689.88 340.72, 687.92 341.30 C 685.96 341.88, 684.72 342.14, 682.92 342.37 C 681.13 342.61, 680.15 342.60, 678.95 342.47 C 677.75 342.34, 677.28 342.17, 676.92 341.73 C 676.57 341.29, 676.64 341.07, 677.18 340.29 C 677.71 339.51, 678.30 339.00, 679.60 337.85 C 680.91 336.69, 681.82 335.93, 683.71 334.52 C 685.61 333.10, 686.80 332.24, 689.08 330.76 C 691.37 329.28, 692.73 328.48, 695.15 327.12 C 697.57 325.77, 698.92 325.10, 701.19 323.98 C 703.45 322.86, 704.65 322.32, 706.47 321.52 C 708.28 320.73, 709.10 320.44, 710.27 320.00 C 711.43 319.56, 711.83 319.47, 712.29 319.32 C 712.74 319.17, 712.75 319.12, 712.54 319.25 C 712.34 319.38, 711.92 319.45, 711.27 319.96 C 710.61 320.46, 710.05 320.83, 709.26 321.77 C 708.48 322.70, 707.97 323.38, 707.33 324.65 C 706.70 325.92, 706.31 326.72, 706.08 328.12 C 705.84 329.51, 705.79 330.30, 706.14 331.62 C 706.49 332.93, 706.87 333.68, 707.83 334.68 C 708.79 335.68, 709.55 336.17, 710.94 336.61 C 712.34 337.06, 713.25 337.15, 714.80 336.91 C 716.34 336.66, 717.25 336.29, 718.66 335.38 C 720.08 334.48, 720.87 333.79, 721.89 332.36 C 722.91 330.93, 723.34 329.97, 723.76 328.24 C 724.17 326.51, 724.19 325.44, 723.96 323.72 C 723.74 322.00, 723.36 321.04, 722.63 319.63 C 721.90 318.22, 721.32 317.59, 720.32 316.66 C 719.32 315.74, 718.63 315.38, 717.64 315.00 C 716.64 314.62, 715.98 314.61, 715.34 314.78 C 714.70 314.95, 714.40 315.37, 714.45 315.86 C 714.49 316.36, 714.71 316.82, 715.58 317.26 C 716.44 317.70, 717.19 317.99, 718.76 318.06 C 720.34 318.12, 721.41 318.10, 723.46 317.59 C 725.52 317.07, 726.72 316.66, 729.03 315.49 C 731.34 314.31, 732.67 313.55, 735.00 311.73 C 737.33 309.91, 738.59 308.77, 740.67 306.39 C 742.76 304.01, 743.82 302.59, 745.43 299.83 C 747.05 297.07, 747.76 295.41, 748.77 292.59 C 749.78 289.76, 750.15 288.20, 750.51 285.71 C 750.86 283.22, 750.81 281.94, 750.54 280.13 C 750.28 278.32, 749.97 277.48, 749.20 276.67 C 748.43 275.87, 747.82 275.65, 746.72 276.10 C 745.62 276.56, 744.79 277.09, 743.71 278.94 C 742.62 280.79, 742.09 282.15, 741.28 285.36 C 740.46 288.57, 740.18 290.65, 739.62 295.00 C 739.06 299.34, 738.79 301.92, 738.49 307.11 C 738.18 312.29, 738.16 315.28, 738.10 320.92 C 738.04 326.55, 738.09 329.75, 738.17 335.28 C 738.26 340.81, 738.32 343.74, 738.51 348.59 C 738.70 353.44, 738.80 355.93, 739.11 359.54 C 739.42 363.16, 739.62 364.79, 740.06 366.64 C 740.49 368.50, 740.88 368.95, 741.28 368.83 C 741.68 368.72, 741.97 367.94, 742.06 366.05 C 742.14 364.17, 742.10 362.46, 741.72 359.41 C 741.34 356.36, 740.88 354.27, 740.15 350.80 C 739.42 347.33, 738.92 345.31, 738.08 342.04 C 737.23 338.78, 736.77 337.13, 735.93 334.47 C 735.08 331.80, 734.58 330.63, 733.86 328.73 C 733.13 326.83, 732.76 326.08, 732.30 324.98 C 731.85 323.88, 731.55 323.63, 731.58 323.23 C 731.60 322.83, 731.70 323.00, 732.41 323.00 C 733.12 323.01, 733.71 323.24, 735.12 323.26 C 736.52 323.29, 737.48 323.36, 739.44 323.12 C 741.40 322.88, 742.68 322.73, 744.94 322.05 C 747.19 321.38, 748.44 320.97, 750.73 319.76 C 753.02 318.54, 754.24 317.80, 756.37 315.98 C 758.50 314.15, 759.58 313.01, 761.38 310.65 C 763.18 308.28, 763.99 306.83, 765.36 304.16 C 766.74 301.50, 767.36 299.93, 768.25 297.32 C 769.13 294.70, 769.49 293.12, 769.80 291.10 C 770.10 289.08, 769.95 288.03, 769.79 287.24 C 769.62 286.44, 769.29 286.35, 768.98 287.13 C 768.67 287.92, 768.39 288.87, 768.25 291.18 C 768.11 293.49, 768.15 295.31, 768.28 298.68 C 768.41 302.05, 768.63 304.26, 768.89 308.03 C 769.14 311.81, 769.30 314.00, 769.55 317.54 C 769.79 321.08, 769.82 322.95, 770.10 325.73 C 770.39 328.51, 770.61 329.82, 770.97 331.44 C 771.33 333.06, 771.63 333.59, 771.91 333.82 C 772.19 334.04, 772.43 333.62, 772.37 332.58 C 772.30 331.54, 772.13 330.40, 771.57 328.63 C 771.01 326.85, 770.53 325.59, 769.57 323.71 C 768.60 321.83, 767.87 320.71, 766.74 319.23 C 765.62 317.74, 764.95 317.04, 763.93 316.28 C 762.92 315.51, 762.29 315.40, 761.68 315.41 C 761.06 315.43, 760.76 315.83, 760.84 316.37 C 760.91 316.92, 761.18 317.52, 762.07 318.14 C 762.95 318.76, 763.70 319.16, 765.26 319.48 C 766.81 319.80, 767.87 319.87, 769.85 319.75 C 771.82 319.64, 773.03 319.45, 775.13 318.88 C 777.24 318.32, 778.44 317.86, 780.37 316.93 C 782.31 316.00, 783.35 315.36, 784.82 314.23 C 786.29 313.09, 786.99 312.27, 787.71 311.26 C 788.44 310.24, 788.49 309.56, 788.44 309.17 C 788.39 308.77, 787.99 308.70, 787.46 309.27 C 786.92 309.84, 786.42 310.44, 785.77 312.01 C 785.12 313.57, 784.64 314.85, 784.21 317.11 C 783.78 319.37, 783.66 320.88, 783.62 323.30 C 783.58 325.71, 783.61 327.08, 784.01 329.17 C 784.42 331.26, 784.76 332.31, 785.64 333.74 C 786.53 335.16, 787.19 335.73, 788.45 336.31 C 789.72 336.88, 790.54 336.94, 791.98 336.60 C 793.41 336.26, 794.26 335.79, 795.63 334.59 C 797.01 333.39, 797.78 332.41, 798.85 330.59 C 799.92 328.77, 800.39 327.43, 800.97 325.48 C 801.56 323.53, 801.70 322.29, 801.79 320.82 C 801.89 319.36, 801.69 318.68, 801.45 318.18 C 801.21 317.68, 800.84 317.73, 800.58 318.33 C 800.32 318.93, 800.05 319.75, 800.17 321.18 C 800.29 322.60, 800.47 323.73, 801.17 325.44 C 801.86 327.14, 802.47 328.18, 803.64 329.71 C 804.80 331.24, 805.53 332.03, 807.00 333.07 C 808.47 334.11, 809.39 334.51, 811.00 334.89 C 812.61 335.27, 813.56 335.27, 815.05 334.97 C 816.55 334.67, 817.34 334.28, 818.50 333.37 C 819.65 332.45, 820.18 331.81, 820.82 330.39 C 821.45 328.97, 821.62 328.02, 821.68 326.28 C 821.74 324.53, 821.58 323.51, 821.13 321.67 C 820.69 319.84, 820.24 318.77, 819.46 317.12 C 818.67 315.47, 818.07 314.62, 817.22 313.44 C 816.37 312.27, 815.83 311.84, 815.23 311.26 C 814.63 310.68, 814.26 310.64, 814.21 310.55 C 814.16 310.47, 814.26 310.69, 814.97 310.83 C 815.69 310.97, 816.32 311.18, 817.79 311.26 C 819.25 311.33, 820.29 311.35, 822.31 311.22 C 824.33 311.09, 825.63 310.94, 827.87 310.60 C 830.11 310.27, 831.41 310.01, 833.52 309.53 C 835.63 309.05, 836.78 308.73, 838.42 308.22 C 840.05 307.70, 840.84 307.42, 841.69 306.95 C 842.55 306.47, 842.77 306.13, 842.71 305.84 C 842.65 305.56, 842.25 305.34, 841.39 305.51 C 840.53 305.69, 839.75 305.90, 838.42 306.72 C 837.09 307.55, 836.18 308.17, 834.72 309.65 C 833.25 311.12, 832.36 312.13, 831.10 314.11 C 829.83 316.08, 829.19 317.36, 828.39 319.54 C 827.59 321.71, 827.27 322.97, 827.11 324.99 C 826.94 327.01, 827.01 328.11, 827.57 329.65 C 828.13 331.19, 828.72 331.93, 829.90 332.69 C 831.09 333.46, 831.92 333.64, 833.49 333.47 C 835.06 333.31, 836.07 332.97, 837.75 331.86 C 839.43 330.75, 840.41 329.81, 841.88 327.93 C 843.35 326.05, 844.05 324.75, 845.11 322.44 C 846.16 320.13, 846.66 318.68, 847.17 316.38 C 847.67 314.08, 847.75 312.65, 847.65 310.94 C 847.55 309.22, 847.18 308.43, 846.68 307.79 C 846.17 307.15, 845.71 307.19, 845.14 307.74 C 844.57 308.30, 844.07 309.07, 843.81 310.57 C 843.54 312.08, 843.48 313.34, 843.82 315.27 C 844.16 317.20, 844.64 318.43, 845.52 320.23 C 846.39 322.03, 846.97 322.98, 848.20 324.26 C 849.43 325.55, 850.15 326.09, 851.67 326.66 C 853.18 327.22, 854.08 327.30, 855.76 327.09 C 857.45 326.88, 858.41 326.54, 860.08 325.61 C 861.76 324.67, 862.67 323.90, 864.16 322.40 C 865.64 320.90, 866.39 319.81, 867.53 318.10 C 868.67 316.40, 869.22 315.29, 869.86 313.89 C 870.50 312.48, 870.63 311.67, 870.74 311.08 C 870.85 310.49, 870.62 310.42, 870.42 310.94 C 870.22 311.47, 869.93 312.21, 869.75 313.72 C 869.56 315.22, 869.47 316.42, 869.50 318.47 C 869.53 320.51, 869.67 321.88, 869.91 323.96 C 870.16 326.04, 870.33 327.25, 870.73 328.87 C 871.13 330.50, 871.39 331.23, 871.92 332.09 C 872.45 332.95, 872.79 333.20, 873.38 333.18 C 873.97 333.16, 874.38 332.88, 874.88 331.99 C 875.38 331.10, 875.59 330.33, 875.89 328.74 C 876.19 327.14, 876.24 325.99, 876.38 324.01 C 876.52 322.04, 876.54 320.76, 876.59 318.86 C 876.64 316.96, 876.63 315.92, 876.65 314.51 C 876.66 313.10, 876.62 312.49, 876.66 311.81 C 876.71 311.12, 876.58 311.06, 876.88 311.08 C 877.18 311.09, 877.36 311.44, 878.17 311.89 C 878.98 312.33, 879.57 312.79, 880.93 313.31 C 882.28 313.84, 883.14 314.18, 884.93 314.50 C 886.73 314.83, 887.86 314.98, 889.89 314.93 C 891.91 314.89, 893.06 314.78, 895.05 314.27 C 897.04 313.77, 898.12 313.33, 899.84 312.41 C 901.56 311.49, 902.46 310.86, 903.65 309.69 C 904.84 308.52, 905.32 307.81, 905.81 306.58 C 906.30 305.35, 906.38 304.60, 906.11 303.55 C 905.84 302.49, 905.43 301.84, 904.48 301.30 C 903.53 300.75, 902.72 300.58, 901.36 300.81 C 900.01 301.05, 899.12 301.40, 897.71 302.49 C 896.30 303.59, 895.46 304.41, 894.33 306.28 C 893.20 308.16, 892.62 309.45, 892.07 311.88 C 891.52 314.31, 891.36 315.83, 891.57 318.42 C 891.78 321.01, 892.12 322.51, 893.14 324.82 C 894.17 327.13, 894.95 328.31, 896.70 329.97 C 898.45 331.62, 899.60 332.26, 901.90 333.11 C 904.20 333.95, 905.62 334.19, 908.20 334.20 C 910.78 334.20, 912.41 333.76, 914.81 333.12 C 917.20 332.48, 918.42 331.85, 920.17 331.00 C 921.91 330.14, 922.90 329.40, 923.51 328.85 C 924.13 328.31, 924.01 328.13, 923.23 328.27 C 922.44 328.42, 921.36 328.98, 919.58 329.58 C 917.80 330.17, 916.61 330.70, 914.33 331.25 C 912.05 331.81, 910.55 332.30, 908.18 332.35 C 905.81 332.40, 904.54 332.23, 902.47 331.52 C 900.40 330.80, 899.39 330.24, 897.85 328.76 C 896.31 327.28, 895.66 326.21, 894.78 324.12 C 893.90 322.02, 893.63 320.63, 893.47 318.28 C 893.32 315.92, 893.48 314.52, 894.00 312.33 C 894.51 310.13, 895.06 308.98, 896.05 307.31 C 897.03 305.64, 897.78 304.96, 898.92 303.99 C 900.06 303.02, 900.76 302.76, 901.74 302.46 C 902.73 302.16, 903.23 302.22, 903.85 302.50 C 904.47 302.77, 904.72 303.13, 904.84 303.83 C 904.96 304.52, 904.93 305.05, 904.46 305.98 C 903.99 306.90, 903.58 307.48, 902.49 308.44 C 901.40 309.41, 900.57 309.99, 899.00 310.79 C 897.42 311.59, 896.43 312.01, 894.60 312.44 C 892.77 312.87, 891.72 312.95, 889.86 312.95 C 888.01 312.95, 886.97 312.78, 885.33 312.45 C 883.68 312.12, 882.96 311.73, 881.64 311.30 C 880.32 310.88, 879.72 310.53, 878.73 310.33 C 877.74 310.12, 877.33 310.05, 876.70 310.29 C 876.06 310.52, 875.92 310.69, 875.56 311.51 C 875.20 312.33, 875.11 312.93, 874.90 314.37 C 874.69 315.82, 874.67 316.85, 874.50 318.74 C 874.34 320.63, 874.23 321.89, 874.07 323.83 C 873.91 325.77, 873.80 326.91, 873.69 328.45 C 873.58 329.99, 873.57 330.69, 873.50 331.53 C 873.43 332.37, 873.44 332.63, 873.35 332.65 C 873.26 332.66, 873.22 332.44, 873.06 331.62 C 872.90 330.80, 872.74 330.10, 872.54 328.53 C 872.34 326.96, 872.19 325.80, 872.07 323.77 C 871.96 321.75, 872.02 320.42, 871.96 318.41 C 871.91 316.41, 871.94 315.26, 871.80 313.74 C 871.66 312.23, 871.59 311.47, 871.24 310.84 C 870.89 310.20, 870.64 310.16, 870.04 310.59 C 869.44 311.02, 869.07 311.71, 868.23 312.99 C 867.40 314.27, 866.96 315.37, 865.86 316.98 C 864.76 318.58, 864.08 319.62, 862.74 321.03 C 861.40 322.44, 860.60 323.14, 859.16 324.03 C 857.72 324.92, 856.92 325.24, 855.53 325.48 C 854.14 325.72, 853.42 325.71, 852.21 325.23 C 851.00 324.76, 850.43 324.30, 849.47 323.13 C 848.50 321.96, 848.05 321.05, 847.38 319.39 C 846.72 317.74, 846.46 316.59, 846.14 314.85 C 845.82 313.12, 845.84 312.06, 845.79 310.72 C 845.73 309.38, 845.84 308.68, 845.88 308.16 C 845.91 307.63, 845.93 307.56, 845.94 308.11 C 845.96 308.66, 846.08 309.35, 845.94 310.92 C 845.81 312.48, 845.80 313.80, 845.27 315.94 C 844.74 318.07, 844.28 319.45, 843.28 321.60 C 842.28 323.75, 841.59 324.95, 840.27 326.69 C 838.95 328.44, 838.07 329.27, 836.67 330.32 C 835.27 331.38, 834.47 331.71, 833.26 331.96 C 832.05 332.21, 831.47 332.13, 830.62 331.58 C 829.76 331.03, 829.34 330.47, 828.99 329.19 C 828.63 327.91, 828.60 326.97, 828.84 325.18 C 829.08 323.38, 829.40 322.22, 830.20 320.23 C 830.99 318.24, 831.61 317.04, 832.82 315.24 C 834.04 313.44, 834.92 312.57, 836.29 311.22 C 837.66 309.88, 838.52 309.41, 839.66 308.51 C 840.80 307.61, 841.40 307.27, 841.99 306.72 C 842.58 306.18, 842.78 305.98, 842.64 305.78 C 842.49 305.58, 842.22 305.60, 841.28 305.74 C 840.34 305.88, 839.58 306.11, 837.95 306.48 C 836.31 306.85, 835.19 307.20, 833.12 307.60 C 831.04 308.01, 829.77 308.24, 827.58 308.51 C 825.39 308.78, 824.13 308.83, 822.17 308.95 C 820.20 309.07, 819.23 309.01, 817.76 309.12 C 816.30 309.22, 815.68 309.21, 814.86 309.48 C 814.04 309.75, 813.81 309.96, 813.67 310.47 C 813.53 310.99, 813.74 311.26, 814.15 312.06 C 814.56 312.85, 815.02 313.25, 815.72 314.43 C 816.43 315.61, 816.98 316.40, 817.68 317.95 C 818.38 319.49, 818.80 320.49, 819.24 322.15 C 819.67 323.81, 819.83 324.73, 819.84 326.24 C 819.85 327.76, 819.74 328.56, 819.28 329.73 C 818.81 330.91, 818.41 331.40, 817.50 332.12 C 816.60 332.85, 815.96 333.15, 814.74 333.38 C 813.52 333.61, 812.74 333.62, 811.40 333.27 C 810.06 332.93, 809.27 332.59, 808.05 331.64 C 806.82 330.70, 806.20 329.97, 805.27 328.55 C 804.35 327.12, 804.02 326.09, 803.42 324.54 C 802.81 322.99, 802.65 322.03, 802.26 320.78 C 801.87 319.53, 801.77 318.82, 801.47 318.29 C 801.17 317.76, 801.05 317.69, 800.76 318.14 C 800.47 318.59, 800.36 319.19, 800.00 320.54 C 799.65 321.88, 799.58 323.05, 798.99 324.86 C 798.40 326.66, 797.97 327.88, 797.05 329.56 C 796.12 331.24, 795.46 332.12, 794.36 333.24 C 793.27 334.37, 792.64 334.81, 791.57 335.18 C 790.50 335.55, 789.93 335.55, 789.00 335.12 C 788.08 334.68, 787.59 334.24, 786.95 332.99 C 786.31 331.74, 786.05 330.80, 785.81 328.88 C 785.56 326.96, 785.58 325.65, 785.74 323.39 C 785.89 321.12, 786.17 319.71, 786.59 317.57 C 787.01 315.43, 787.46 314.25, 787.84 312.68 C 788.21 311.11, 788.41 310.46, 788.45 309.70 C 788.49 308.95, 788.44 308.81, 788.06 308.92 C 787.68 309.02, 787.41 309.45, 786.55 310.21 C 785.68 310.98, 785.12 311.75, 783.72 312.75 C 782.32 313.74, 781.37 314.35, 779.55 315.18 C 777.73 316.02, 776.59 316.43, 774.62 316.92 C 772.66 317.41, 771.53 317.56, 769.74 317.64 C 767.94 317.72, 767.03 317.53, 765.66 317.31 C 764.29 317.09, 763.73 316.80, 762.88 316.54 C 762.04 316.28, 761.72 316.10, 761.44 316.02 C 761.15 315.95, 761.17 315.88, 761.46 316.16 C 761.75 316.44, 762.15 316.59, 762.88 317.42 C 763.61 318.26, 764.21 318.88, 765.12 320.34 C 766.03 321.81, 766.56 322.95, 767.43 324.77 C 768.29 326.59, 768.69 327.81, 769.44 329.45 C 770.20 331.08, 770.67 332.09, 771.22 332.95 C 771.77 333.82, 771.99 334.12, 772.20 333.78 C 772.42 333.45, 772.38 332.91, 772.31 331.26 C 772.24 329.62, 772.10 328.33, 771.85 325.56 C 771.61 322.79, 771.36 320.95, 771.09 317.43 C 770.82 313.90, 770.65 311.71, 770.50 307.95 C 770.35 304.19, 770.36 301.98, 770.33 298.63 C 770.29 295.28, 770.43 293.49, 770.32 291.20 C 770.22 288.91, 770.07 287.97, 769.80 287.16 C 769.54 286.35, 769.36 286.42, 769.00 287.14 C 768.65 287.86, 768.55 288.82, 768.04 290.73 C 767.53 292.65, 767.31 294.19, 766.46 296.71 C 765.60 299.23, 765.07 300.78, 763.77 303.35 C 762.47 305.91, 761.66 307.31, 759.94 309.55 C 758.22 311.79, 757.19 312.86, 755.17 314.56 C 753.15 316.27, 752.01 316.97, 749.85 318.08 C 747.69 319.18, 746.52 319.53, 744.38 320.10 C 742.25 320.68, 741.04 320.73, 739.17 320.97 C 737.30 321.21, 736.42 321.12, 735.01 321.29 C 733.61 321.46, 732.98 321.46, 732.14 321.82 C 731.30 322.17, 731.03 322.36, 730.82 323.07 C 730.61 323.78, 730.77 324.15, 731.09 325.38 C 731.40 326.62, 731.76 327.33, 732.39 329.25 C 733.03 331.17, 733.45 332.35, 734.27 334.99 C 735.09 337.63, 735.67 339.22, 736.50 342.45 C 737.32 345.68, 737.77 347.69, 738.39 351.14 C 739.02 354.59, 739.18 356.70, 739.61 359.70 C 740.04 362.70, 740.24 364.34, 740.56 366.15 C 740.88 367.96, 741.09 368.67, 741.22 368.73 C 741.34 368.79, 741.35 368.32, 741.19 366.46 C 741.03 364.60, 740.73 363.01, 740.41 359.43 C 740.08 355.85, 739.81 353.38, 739.56 348.54 C 739.30 343.71, 739.23 340.79, 739.14 335.26 C 739.04 329.74, 738.99 326.55, 739.08 320.93 C 739.17 315.32, 739.21 312.33, 739.58 307.18 C 739.96 302.03, 740.27 299.46, 740.96 295.19 C 741.65 290.92, 742.18 288.92, 743.04 285.84 C 743.91 282.76, 744.46 281.55, 745.29 279.79 C 746.13 278.02, 746.60 277.52, 747.23 277.01 C 747.85 276.51, 748.08 276.61, 748.44 277.26 C 748.80 277.91, 748.96 278.64, 749.04 280.28 C 749.11 281.92, 749.18 283.11, 748.80 285.45 C 748.41 287.80, 748.09 289.29, 747.13 292.00 C 746.16 294.71, 745.54 296.34, 743.99 298.99 C 742.44 301.63, 741.41 303.00, 739.38 305.24 C 737.35 307.49, 736.09 308.53, 733.84 310.22 C 731.59 311.90, 730.31 312.62, 728.13 313.68 C 725.96 314.75, 724.83 315.10, 722.97 315.55 C 721.10 315.99, 720.17 315.87, 718.79 315.90 C 717.41 315.93, 716.81 315.74, 716.05 315.69 C 715.28 315.64, 715.09 315.61, 714.95 315.65 C 714.81 315.69, 714.94 315.73, 715.34 315.89 C 715.75 316.06, 716.22 316.09, 716.98 316.49 C 717.75 316.89, 718.35 317.10, 719.17 317.89 C 719.98 318.67, 720.47 319.21, 721.07 320.42 C 721.68 321.64, 721.99 322.47, 722.18 323.95 C 722.36 325.43, 722.36 326.35, 722.00 327.82 C 721.65 329.29, 721.27 330.09, 720.40 331.30 C 719.54 332.50, 718.85 333.07, 717.67 333.84 C 716.49 334.61, 715.75 334.93, 714.50 335.15 C 713.26 335.37, 712.55 335.27, 711.46 334.95 C 710.36 334.62, 709.77 334.27, 709.02 333.52 C 708.28 332.77, 707.97 332.22, 707.74 331.21 C 707.51 330.21, 707.58 329.61, 707.87 328.49 C 708.16 327.38, 708.56 326.72, 709.19 325.66 C 709.83 324.60, 710.36 324.09, 711.04 323.18 C 711.72 322.27, 712.18 321.87, 712.61 321.11 C 713.04 320.35, 713.25 319.92, 713.19 319.39 C 713.12 318.86, 712.96 318.62, 712.29 318.47 C 711.63 318.31, 711.15 318.32, 709.85 318.62 C 708.56 318.92, 707.71 319.22, 705.82 319.96 C 703.92 320.70, 702.71 321.23, 700.39 322.32 C 698.06 323.41, 696.69 324.08, 694.21 325.42 C 691.73 326.76, 690.34 327.54, 687.98 329.02 C 685.62 330.50, 684.37 331.32, 682.42 332.80 C 680.47 334.28, 679.51 335.05, 678.22 336.43 C 676.93 337.81, 676.39 338.52, 675.97 339.70 C 675.55 340.87, 675.58 341.44, 676.12 342.29 C 676.65 343.14, 677.25 343.56, 678.65 343.96 C 680.05 344.35, 681.14 344.41, 683.11 344.28 C 685.08 344.14, 686.39 343.90, 688.50 343.30 C 690.61 342.69, 691.86 342.24, 693.67 341.26 C 695.48 340.28, 696.42 339.63, 697.54 338.38 C 698.66 337.14, 699.08 336.39, 699.26 335.03 C 699.44 333.68, 699.19 332.94, 698.44 331.59 C 697.68 330.25, 696.96 329.58, 695.49 328.32 C 694.03 327.06, 692.97 326.48, 691.09 325.28 C 689.22 324.09, 687.98 323.50, 686.12 322.33 C 684.27 321.16, 683.23 320.57, 681.81 319.45 C 680.40 318.33, 679.75 317.77, 679.03 316.73 C 678.30 315.69, 678.12 315.20, 678.19 314.24 C 678.27 313.28, 678.64 312.81, 679.40 311.95 C 680.16 311.08, 680.84 310.53, 681.99 309.91 C 683.14 309.30, 683.88 309.10, 685.14 308.86 C 686.41 308.62, 687.19 308.71, 688.30 308.70 C 689.42 308.70, 689.93 308.75, 690.71 308.82 C 691.49 308.89, 691.84 309.13, 692.20 309.04 C 692.56 308.95, 692.73 308.73, 692.51 308.37" style="stroke: white; fill: white;"/><path d="M 977.48,309.06 C 977.44 308.76, 977.29 308.54, 976.86 308.16 C 976.43 307.79, 976.16 307.40, 975.33 307.20 C 974.49 306.99, 973.85 306.82, 972.69 307.12 C 971.52 307.42, 970.80 307.62, 969.48 308.68 C 968.17 309.75, 967.37 310.52, 966.10 312.45 C 964.83 314.38, 964.12 315.68, 963.12 318.32 C 962.13 320.96, 961.68 322.69, 961.11 325.66 C 960.54 328.63, 960.32 330.40, 960.29 333.15 C 960.25 335.89, 960.41 337.36, 960.93 339.40 C 961.46 341.43, 961.91 342.37, 962.92 343.32 C 963.93 344.28, 964.65 344.47, 965.99 344.16 C 967.33 343.84, 968.14 343.37, 969.62 341.75 C 971.09 340.12, 971.88 338.93, 973.37 336.02 C 974.85 333.10, 975.63 331.08, 977.05 327.19 C 978.48 323.30, 979.22 320.99, 980.49 316.55 C 981.76 312.11, 982.38 309.49, 983.39 304.99 C 984.41 300.48, 984.85 298.06, 985.56 294.02 C 986.27 289.98, 986.56 287.96, 986.95 284.81 C 987.35 281.65, 987.54 280.10, 987.55 278.22 C 987.56 276.35, 987.36 275.66, 986.99 275.43 C 986.63 275.21, 986.23 275.60, 985.74 277.11 C 985.25 278.61, 984.88 279.94, 984.55 282.94 C 984.22 285.93, 984.20 288.06, 984.08 292.08 C 983.95 296.10, 983.90 298.60, 983.93 303.04 C 983.96 307.47, 983.95 310.00, 984.23 314.25 C 984.50 318.51, 984.67 320.75, 985.29 324.32 C 985.91 327.89, 986.30 329.61, 987.33 332.11 C 988.35 334.61, 989.01 335.62, 990.42 336.83 C 991.83 338.05, 992.70 338.33, 994.38 338.19 C 996.06 338.05, 997.09 337.58, 998.82 336.14 C 1000.55 334.69, 1001.47 333.41, 1003.03 330.97 C 1004.59 328.53, 1005.39 326.82, 1006.62 323.93 C 1007.85 321.04, 1008.50 319.26, 1009.20 316.52 C 1009.90 313.78, 1010.10 312.32, 1010.12 310.24 C 1010.14 308.16, 1009.97 307.24, 1009.30 306.12 C 1008.63 305.00, 1007.96 304.63, 1006.78 304.65 C 1005.59 304.66, 1004.71 305.01, 1003.36 306.17 C 1002.02 307.34, 1001.17 308.35, 1000.04 310.47 C 998.91 312.59, 998.32 314.08, 997.72 316.76 C 997.12 319.45, 996.96 321.14, 997.02 323.91 C 997.08 326.67, 997.25 328.27, 998.03 330.60 C 998.81 332.92, 999.47 334.08, 1000.91 335.54 C 1002.34 337.00, 1003.35 337.54, 1005.20 337.88 C 1007.04 338.23, 1008.12 338.09, 1010.12 337.26 C 1012.12 336.42, 1013.29 335.59, 1015.21 333.73 C 1017.12 331.86, 1018.12 330.49, 1019.69 327.92 C 1021.26 325.36, 1021.95 323.68, 1023.05 320.91 C 1024.14 318.14, 1024.61 316.40, 1025.16 314.07 C 1025.71 311.74, 1025.80 310.45, 1025.80 309.25 C 1025.81 308.06, 1025.51 307.74, 1025.19 308.10 C 1024.87 308.46, 1024.47 309.23, 1024.21 311.04 C 1023.95 312.85, 1023.85 314.43, 1023.91 317.13 C 1023.98 319.83, 1024.16 321.70, 1024.54 324.55 C 1024.92 327.41, 1025.17 329.01, 1025.81 331.41 C 1026.46 333.80, 1026.87 334.95, 1027.74 336.53 C 1028.62 338.11, 1029.15 338.72, 1030.20 339.30 C 1031.25 339.87, 1031.89 339.88, 1032.98 339.39 C 1034.08 338.90, 1034.68 338.37, 1035.68 336.85 C 1036.67 335.33, 1037.18 334.12, 1037.97 331.79 C 1038.75 329.45, 1039.10 327.83, 1039.61 325.17 C 1040.11 322.52, 1040.25 320.90, 1040.50 318.51 C 1040.75 316.11, 1040.76 314.88, 1040.85 313.19 C 1040.94 311.51, 1040.90 310.85, 1040.95 310.08 C 1040.99 309.31, 1040.88 309.26, 1041.09 309.34 C 1041.30 309.43, 1041.35 309.91, 1041.99 310.51 C 1042.64 311.12, 1043.13 311.69, 1044.29 312.37 C 1045.46 313.05, 1046.25 313.48, 1047.80 313.91 C 1049.35 314.34, 1050.31 314.51, 1052.05 314.51 C 1053.79 314.50, 1054.76 314.40, 1056.48 313.90 C 1058.21 313.40, 1059.19 312.93, 1060.69 312.01 C 1062.19 311.09, 1062.93 310.48, 1064.00 309.30 C 1065.06 308.11, 1065.54 307.32, 1066.02 306.09 C 1066.49 304.86, 1066.58 304.10, 1066.37 303.14 C 1066.16 302.19, 1065.79 301.65, 1064.97 301.32 C 1064.16 300.98, 1063.44 300.96, 1062.29 301.46 C 1061.15 301.96, 1060.39 302.42, 1059.23 303.82 C 1058.07 305.23, 1057.40 306.26, 1056.51 308.48 C 1055.61 310.70, 1055.19 312.19, 1054.76 314.92 C 1054.33 317.66, 1054.22 319.31, 1054.38 322.16 C 1054.54 325.01, 1054.77 326.66, 1055.56 329.16 C 1056.35 331.66, 1056.97 332.95, 1058.34 334.65 C 1059.70 336.35, 1060.61 337.05, 1062.40 337.65 C 1064.19 338.25, 1065.32 338.23, 1067.29 337.64 C 1069.27 337.05, 1070.36 336.42, 1072.29 334.69 C 1074.23 332.95, 1075.23 331.72, 1076.96 328.98 C 1078.69 326.24, 1079.55 324.48, 1080.96 320.98 C 1082.36 317.48, 1082.97 315.43, 1083.99 311.50 C 1085.02 307.57, 1085.41 305.35, 1086.07 301.32 C 1086.73 297.30, 1086.96 295.05, 1087.29 291.38 C 1087.62 287.72, 1087.76 285.81, 1087.70 283.00 C 1087.65 280.19, 1087.47 278.79, 1087.03 277.33 C 1086.59 275.87, 1086.19 275.44, 1085.52 275.70 C 1084.85 275.96, 1084.29 276.65, 1083.67 278.65 C 1083.05 280.65, 1082.75 282.30, 1082.40 285.71 C 1082.06 289.12, 1082.02 291.46, 1081.95 295.68 C 1081.89 299.91, 1081.92 302.48, 1082.07 306.83 C 1082.22 311.19, 1082.32 313.55, 1082.70 317.46 C 1083.08 321.36, 1083.27 323.31, 1083.97 326.37 C 1084.67 329.44, 1085.12 330.83, 1086.20 332.78 C 1087.28 334.74, 1087.95 335.40, 1089.37 336.14 C 1090.78 336.88, 1091.61 336.92, 1093.27 336.47 C 1094.94 336.01, 1095.94 335.40, 1097.67 333.86 C 1099.41 332.33, 1100.35 331.08, 1101.95 328.80 C 1103.55 326.53, 1104.44 324.85, 1105.67 322.50 C 1106.89 320.14, 1107.50 318.66, 1108.07 317.02 C 1108.64 315.39, 1108.64 314.66, 1108.50 314.33 C 1108.37 313.99, 1107.95 314.28, 1107.40 315.35 C 1106.85 316.42, 1106.25 317.62, 1105.75 319.70 C 1105.24 321.78, 1104.93 323.40, 1104.87 325.76 C 1104.80 328.12, 1104.93 329.55, 1105.42 331.50 C 1105.90 333.46, 1106.29 334.41, 1107.27 335.53 C 1108.26 336.65, 1108.96 337.04, 1110.32 337.10 C 1111.68 337.17, 1112.64 336.85, 1114.07 335.84 C 1115.50 334.84, 1116.32 333.95, 1117.46 332.06 C 1118.59 330.17, 1119.14 328.83, 1119.75 326.42 C 1120.35 324.00, 1120.62 322.44, 1120.47 319.98 C 1120.31 317.52, 1119.95 316.13, 1118.97 314.11 C 1117.98 312.09, 1117.07 311.09, 1115.55 309.88 C 1114.02 308.67, 1112.94 308.35, 1111.33 308.06 C 1109.71 307.77, 1108.70 307.96, 1107.46 308.44 C 1106.22 308.91, 1105.48 309.56, 1105.12 310.43 C 1104.76 311.31, 1104.91 312.07, 1105.64 312.83 C 1106.37 313.60, 1107.15 314.02, 1108.76 314.27 C 1110.37 314.52, 1111.50 314.48, 1113.69 314.08 C 1115.87 313.67, 1117.27 313.21, 1119.69 312.25 C 1122.10 311.29, 1123.48 310.52, 1125.75 309.29 C 1128.03 308.06, 1129.26 307.19, 1131.07 306.09 C 1132.87 304.99, 1133.69 304.31, 1134.77 303.79 C 1135.86 303.26, 1136.12 303.05, 1136.48 303.47 C 1136.84 303.89, 1136.72 304.30, 1136.56 305.89 C 1136.40 307.48, 1136.09 308.59, 1135.69 311.43 C 1135.28 314.26, 1135.07 316.13, 1134.55 320.04 C 1134.04 323.96, 1133.66 326.34, 1133.09 330.98 C 1132.52 335.62, 1132.22 338.31, 1131.71 343.26 C 1131.21 348.21, 1130.98 350.95, 1130.58 355.72 C 1130.17 360.49, 1129.97 363.09, 1129.69 367.12 C 1129.40 371.15, 1129.18 373.20, 1129.14 375.87 C 1129.10 378.54, 1129.25 379.57, 1129.48 380.49 C 1129.71 381.40, 1129.93 381.44, 1130.29 380.45 C 1130.65 379.47, 1131.02 378.31, 1131.30 375.55 C 1131.57 372.79, 1131.42 370.67, 1131.66 366.64 C 1131.91 362.61, 1132.02 360.07, 1132.53 355.41 C 1133.04 350.76, 1133.36 348.09, 1134.22 343.35 C 1135.07 338.60, 1135.61 336.11, 1136.80 331.69 C 1137.98 327.26, 1138.73 325.01, 1140.14 321.22 C 1141.55 317.44, 1142.41 315.65, 1143.85 312.76 C 1145.29 309.88, 1146.05 308.60, 1147.33 306.79 C 1148.61 304.99, 1149.22 304.39, 1150.23 303.75 C 1151.23 303.11, 1151.68 303.14, 1152.35 303.61 C 1153.02 304.07, 1153.29 304.65, 1153.58 306.10 C 1153.87 307.54, 1153.95 308.64, 1153.80 310.82 C 1153.65 313.00, 1153.42 314.47, 1152.84 317.01 C 1152.26 319.55, 1151.81 321.13, 1150.88 323.50 C 1149.95 325.87, 1149.29 327.11, 1148.20 328.88 C 1147.10 330.65, 1146.41 331.37, 1145.40 332.34 C 1144.40 333.31, 1143.87 333.50, 1143.19 333.71 C 1142.51 333.92, 1142.27 333.77, 1142.00 333.39 C 1141.73 333.02, 1141.69 332.62, 1141.84 331.84 C 1142.00 331.06, 1142.11 330.54, 1142.76 329.49 C 1143.42 328.44, 1143.88 327.78, 1145.12 326.59 C 1146.36 325.40, 1147.17 324.69, 1148.97 323.55 C 1150.77 322.40, 1151.88 321.88, 1154.13 320.88 C 1156.38 319.89, 1157.73 319.48, 1160.22 318.59 C 1162.71 317.69, 1164.13 317.29, 1166.59 316.39 C 1169.05 315.49, 1170.35 315.09, 1172.53 314.10 C 1174.71 313.11, 1175.81 312.59, 1177.47 311.45 C 1179.14 310.30, 1179.88 309.63, 1180.85 308.38 C 1181.82 307.13, 1182.09 306.41, 1182.32 305.19 C 1182.54 303.96, 1182.48 303.28, 1181.97 302.26 C 1181.46 301.24, 1180.92 300.66, 1179.77 300.09 C 1178.62 299.52, 1177.72 299.30, 1176.22 299.41 C 1174.72 299.52, 1173.75 299.76, 1172.28 300.65 C 1170.80 301.53, 1169.96 302.25, 1168.82 303.84 C 1167.68 305.43, 1167.15 306.52, 1166.56 308.58 C 1165.98 310.65, 1165.80 311.93, 1165.91 314.16 C 1166.02 316.39, 1166.30 317.68, 1167.10 319.73 C 1167.90 321.79, 1168.54 322.85, 1169.90 324.44 C 1171.26 326.04, 1172.14 326.76, 1173.90 327.71 C 1175.67 328.65, 1176.74 328.96, 1178.73 329.16 C 1180.72 329.36, 1181.82 329.26, 1183.83 328.70 C 1185.84 328.13, 1186.91 327.60, 1188.76 326.35 C 1190.62 325.10, 1191.57 324.18, 1193.09 322.43 C 1194.61 320.68, 1195.32 319.40, 1196.35 317.61 C 1197.37 315.81, 1197.80 314.75, 1198.22 313.46 C 1198.65 312.17, 1198.53 311.54, 1198.46 311.17 C 1198.39 310.79, 1198.07 310.86, 1197.87 311.57 C 1197.68 312.27, 1197.50 313.12, 1197.48 314.70 C 1197.45 316.27, 1197.47 317.52, 1197.77 319.46 C 1198.07 321.39, 1198.35 322.66, 1198.99 324.37 C 1199.62 326.08, 1200.08 327.04, 1200.94 328.03 C 1201.80 329.01, 1202.33 329.30, 1203.30 329.29 C 1204.27 329.29, 1204.86 328.94, 1205.80 328.00 C 1206.75 327.07, 1207.24 326.23, 1208.01 324.64 C 1208.77 323.04, 1209.01 321.89, 1209.62 320.02 C 1210.22 318.16, 1210.49 317.05, 1211.03 315.30 C 1211.57 313.55, 1211.82 312.63, 1212.32 311.27 C 1212.83 309.91, 1212.99 309.27, 1213.54 308.48 C 1214.09 307.69, 1214.28 307.57, 1215.06 307.33 C 1215.84 307.10, 1216.27 307.22, 1217.43 307.31 C 1218.59 307.39, 1219.31 307.57, 1220.87 307.76 C 1222.43 307.94, 1223.38 308.12, 1225.23 308.25 C 1227.07 308.37, 1228.16 308.44, 1230.10 308.39 C 1232.04 308.33, 1233.13 308.26, 1234.95 307.99 C 1236.77 307.72, 1237.67 307.49, 1239.20 307.05 C 1240.73 306.61, 1241.45 306.33, 1242.58 305.80 C 1243.72 305.27, 1244.24 304.92, 1244.87 304.41 C 1245.51 303.89, 1245.64 303.54, 1245.76 303.23 C 1245.87 302.92, 1245.75 302.83, 1245.45 302.86 C 1245.15 302.89, 1244.96 303.10, 1244.26 303.39 C 1243.56 303.67, 1243.06 303.88, 1241.96 304.28 C 1240.85 304.68, 1240.19 305.00, 1238.74 305.38 C 1237.29 305.76, 1236.44 305.95, 1234.70 306.16 C 1232.97 306.37, 1231.93 306.42, 1230.07 306.43 C 1228.20 306.44, 1227.17 306.36, 1225.37 306.23 C 1223.57 306.10, 1222.66 305.89, 1221.07 305.77 C 1219.49 305.64, 1218.73 305.54, 1217.44 305.61 C 1216.15 305.67, 1215.61 305.69, 1214.62 306.10 C 1213.62 306.50, 1213.23 306.73, 1212.45 307.63 C 1211.68 308.54, 1211.40 309.20, 1210.74 310.61 C 1210.09 312.02, 1209.81 312.93, 1209.18 314.68 C 1208.54 316.43, 1208.20 317.52, 1207.57 319.35 C 1206.95 321.17, 1206.66 322.26, 1206.07 323.80 C 1205.47 325.33, 1205.15 326.11, 1204.59 327.02 C 1204.03 327.92, 1203.77 328.30, 1203.27 328.33 C 1202.78 328.37, 1202.58 328.12, 1202.12 327.20 C 1201.66 326.29, 1201.35 325.39, 1200.97 323.77 C 1200.60 322.15, 1200.49 320.94, 1200.24 319.09 C 1199.99 317.25, 1199.98 316.05, 1199.72 314.52 C 1199.46 313.00, 1199.28 312.18, 1198.94 311.46 C 1198.59 310.74, 1198.44 310.64, 1198.01 310.91 C 1197.57 311.18, 1197.42 311.66, 1196.76 312.80 C 1196.09 313.94, 1195.71 314.94, 1194.68 316.62 C 1193.65 318.29, 1193.01 319.52, 1191.62 321.17 C 1190.23 322.81, 1189.38 323.67, 1187.72 324.85 C 1186.07 326.02, 1185.11 326.50, 1183.35 327.03 C 1181.58 327.55, 1180.62 327.64, 1178.89 327.49 C 1177.16 327.33, 1176.23 327.07, 1174.69 326.24 C 1173.16 325.40, 1172.40 324.76, 1171.22 323.33 C 1170.05 321.90, 1169.48 320.94, 1168.80 319.09 C 1168.11 317.24, 1167.86 316.08, 1167.78 314.08 C 1167.70 312.08, 1167.88 310.92, 1168.39 309.10 C 1168.91 307.27, 1169.38 306.30, 1170.35 304.93 C 1171.32 303.56, 1172.03 302.98, 1173.24 302.24 C 1174.45 301.50, 1175.21 301.37, 1176.38 301.23 C 1177.56 301.10, 1178.23 301.25, 1179.11 301.58 C 1179.99 301.91, 1180.40 302.22, 1180.78 302.88 C 1181.16 303.55, 1181.22 304.01, 1181.00 304.92 C 1180.78 305.82, 1180.58 306.40, 1179.69 307.43 C 1178.80 308.46, 1178.13 309.05, 1176.55 310.06 C 1174.98 311.07, 1173.93 311.56, 1171.81 312.48 C 1169.69 313.39, 1168.41 313.77, 1165.96 314.63 C 1163.52 315.49, 1162.09 315.88, 1159.57 316.77 C 1157.05 317.66, 1155.68 318.07, 1153.34 319.09 C 1151.01 320.11, 1149.83 320.65, 1147.91 321.86 C 1145.98 323.07, 1145.08 323.80, 1143.71 325.14 C 1142.35 326.48, 1141.78 327.23, 1141.10 328.55 C 1140.41 329.87, 1140.27 330.63, 1140.30 331.74 C 1140.33 332.85, 1140.61 333.48, 1141.23 334.09 C 1141.85 334.70, 1142.38 334.92, 1143.40 334.79 C 1144.43 334.66, 1145.12 334.45, 1146.37 333.46 C 1147.63 332.47, 1148.40 331.69, 1149.67 329.85 C 1150.94 328.00, 1151.67 326.72, 1152.72 324.25 C 1153.77 321.78, 1154.29 320.17, 1154.92 317.50 C 1155.55 314.83, 1155.84 313.28, 1155.88 310.91 C 1155.93 308.54, 1155.75 307.28, 1155.15 305.64 C 1154.55 304.01, 1153.96 303.31, 1152.87 302.73 C 1151.78 302.16, 1151.04 302.13, 1149.70 302.77 C 1148.35 303.41, 1147.57 304.05, 1146.15 305.92 C 1144.72 307.80, 1144.00 309.16, 1142.57 312.14 C 1141.15 315.11, 1140.37 316.96, 1139.00 320.81 C 1137.63 324.66, 1136.90 326.94, 1135.72 331.40 C 1134.54 335.87, 1134.00 338.37, 1133.11 343.15 C 1132.22 347.92, 1131.90 350.59, 1131.28 355.26 C 1130.66 359.93, 1130.42 362.48, 1130.01 366.51 C 1129.60 370.53, 1129.34 372.63, 1129.23 375.41 C 1129.13 378.18, 1129.29 379.36, 1129.47 380.38 C 1129.66 381.40, 1129.90 381.39, 1130.15 380.50 C 1130.40 379.61, 1130.57 378.59, 1130.73 375.93 C 1130.89 373.27, 1130.75 371.22, 1130.94 367.20 C 1131.13 363.17, 1131.31 360.58, 1131.68 355.81 C 1132.06 351.05, 1132.29 348.31, 1132.82 343.37 C 1133.35 338.44, 1133.67 335.76, 1134.32 331.14 C 1134.97 326.52, 1135.39 324.16, 1136.07 320.28 C 1136.75 316.39, 1137.30 314.59, 1137.71 311.71 C 1138.12 308.84, 1138.26 307.67, 1138.13 305.90 C 1137.99 304.14, 1137.80 303.56, 1137.05 302.89 C 1136.29 302.22, 1135.73 302.24, 1134.35 302.56 C 1132.97 302.88, 1132.07 303.49, 1130.16 304.48 C 1128.25 305.47, 1127.05 306.34, 1124.80 307.50 C 1122.55 308.65, 1121.22 309.38, 1118.91 310.27 C 1116.60 311.17, 1115.26 311.54, 1113.26 311.97 C 1111.27 312.40, 1110.29 312.45, 1108.92 312.43 C 1107.55 312.42, 1106.98 312.20, 1106.41 311.90 C 1105.84 311.60, 1105.76 311.33, 1106.07 310.93 C 1106.38 310.53, 1106.94 310.16, 1107.94 309.89 C 1108.93 309.63, 1109.72 309.36, 1111.04 309.61 C 1112.36 309.86, 1113.26 310.09, 1114.53 311.14 C 1115.80 312.19, 1116.59 313.06, 1117.40 314.85 C 1118.21 316.63, 1118.50 317.86, 1118.58 320.07 C 1118.65 322.28, 1118.34 323.72, 1117.77 325.91 C 1117.19 328.11, 1116.67 329.34, 1115.72 331.06 C 1114.77 332.78, 1114.10 333.55, 1113.03 334.52 C 1111.95 335.48, 1111.27 335.83, 1110.33 335.87 C 1109.39 335.91, 1108.94 335.66, 1108.32 334.72 C 1107.70 333.78, 1107.43 332.93, 1107.22 331.16 C 1107.00 329.39, 1107.08 328.08, 1107.24 325.88 C 1107.40 323.67, 1107.76 322.17, 1108.04 320.13 C 1108.32 318.09, 1108.59 316.87, 1108.63 315.68 C 1108.68 314.49, 1108.67 314.06, 1108.26 314.19 C 1107.86 314.32, 1107.51 314.88, 1106.61 316.33 C 1105.71 317.78, 1105.06 319.21, 1103.77 321.46 C 1102.48 323.70, 1101.63 325.36, 1100.15 327.57 C 1098.67 329.78, 1097.83 330.98, 1096.37 332.50 C 1094.91 334.02, 1094.14 334.65, 1092.84 335.18 C 1091.55 335.71, 1090.98 335.76, 1089.90 335.15 C 1088.82 334.54, 1088.34 333.95, 1087.45 332.13 C 1086.55 330.31, 1086.12 329.00, 1085.43 326.04 C 1084.75 323.08, 1084.43 321.17, 1084.01 317.32 C 1083.60 313.47, 1083.49 311.11, 1083.38 306.79 C 1083.26 302.48, 1083.26 299.90, 1083.44 295.72 C 1083.62 291.55, 1083.91 289.25, 1084.28 285.91 C 1084.64 282.57, 1084.98 280.99, 1085.27 279.02 C 1085.57 277.05, 1085.63 276.34, 1085.76 276.04 C 1085.89 275.74, 1085.88 276.12, 1085.93 277.52 C 1085.97 278.91, 1085.99 280.26, 1085.98 283.01 C 1085.97 285.77, 1086.12 287.65, 1085.88 291.27 C 1085.64 294.89, 1085.41 297.14, 1084.77 301.11 C 1084.13 305.09, 1083.73 307.30, 1082.69 311.15 C 1081.65 315.01, 1081.01 317.03, 1079.57 320.41 C 1078.13 323.78, 1077.19 325.45, 1075.49 328.03 C 1073.79 330.62, 1072.80 331.72, 1071.07 333.35 C 1069.33 334.97, 1068.46 335.58, 1066.81 336.17 C 1065.17 336.77, 1064.29 336.83, 1062.85 336.33 C 1061.40 335.83, 1060.69 335.23, 1059.59 333.69 C 1058.48 332.16, 1057.95 330.97, 1057.30 328.64 C 1056.66 326.32, 1056.45 324.74, 1056.34 322.07 C 1056.24 319.39, 1056.37 317.81, 1056.79 315.25 C 1057.22 312.69, 1057.66 311.30, 1058.46 309.26 C 1059.27 307.22, 1059.89 306.32, 1060.81 305.05 C 1061.73 303.77, 1062.30 303.41, 1063.07 302.87 C 1063.83 302.33, 1064.21 302.25, 1064.62 302.33 C 1065.03 302.42, 1065.13 302.67, 1065.11 303.29 C 1065.09 303.91, 1064.99 304.47, 1064.51 305.43 C 1064.03 306.39, 1063.65 307.09, 1062.70 308.09 C 1061.74 309.09, 1061.08 309.63, 1059.74 310.43 C 1058.39 311.24, 1057.50 311.67, 1055.97 312.10 C 1054.44 312.54, 1053.59 312.64, 1052.07 312.61 C 1050.55 312.57, 1049.74 312.36, 1048.39 311.93 C 1047.04 311.50, 1046.44 311.01, 1045.33 310.46 C 1044.23 309.90, 1043.71 309.51, 1042.85 309.16 C 1042.00 308.82, 1041.64 308.58, 1041.05 308.71 C 1040.47 308.84, 1040.30 308.97, 1039.93 309.83 C 1039.56 310.69, 1039.49 311.33, 1039.22 313.02 C 1038.94 314.70, 1038.91 315.92, 1038.56 318.26 C 1038.21 320.61, 1038.02 322.18, 1037.48 324.75 C 1036.94 327.32, 1036.54 328.87, 1035.87 331.11 C 1035.19 333.35, 1034.79 334.50, 1034.10 335.95 C 1033.41 337.40, 1033.09 337.90, 1032.43 338.38 C 1031.76 338.87, 1031.43 338.89, 1030.77 338.39 C 1030.10 337.89, 1029.73 337.35, 1029.10 335.86 C 1028.47 334.38, 1028.10 333.29, 1027.63 330.98 C 1027.15 328.66, 1026.97 327.10, 1026.71 324.31 C 1026.46 321.52, 1026.51 319.68, 1026.37 317.04 C 1026.23 314.39, 1026.17 312.87, 1026.01 311.09 C 1025.85 309.31, 1025.84 308.54, 1025.58 308.13 C 1025.33 307.72, 1025.17 307.95, 1024.72 309.04 C 1024.27 310.12, 1024.01 311.34, 1023.32 313.57 C 1022.63 315.80, 1022.32 317.53, 1021.26 320.20 C 1020.20 322.87, 1019.52 324.48, 1018.04 326.91 C 1016.55 329.34, 1015.55 330.59, 1013.84 332.36 C 1012.12 334.13, 1011.12 334.93, 1009.45 335.76 C 1007.77 336.58, 1006.93 336.74, 1005.44 336.49 C 1003.95 336.24, 1003.15 335.79, 1002.01 334.51 C 1000.86 333.22, 1000.31 332.20, 999.70 330.08 C 999.09 327.95, 998.96 326.46, 998.97 323.89 C 998.98 321.32, 999.17 319.72, 999.76 317.23 C 1000.35 314.74, 1000.95 313.40, 1001.92 311.44 C 1002.89 309.47, 1003.60 308.56, 1004.59 307.41 C 1005.58 306.26, 1006.12 305.85, 1006.87 305.68 C 1007.62 305.52, 1008.01 305.70, 1008.34 306.60 C 1008.68 307.49, 1008.74 308.27, 1008.53 310.15 C 1008.33 312.04, 1008.07 313.41, 1007.34 316.02 C 1006.60 318.62, 1006.07 320.40, 1004.86 323.17 C 1003.65 325.94, 1002.71 327.53, 1001.27 329.87 C 999.84 332.21, 999.07 333.45, 997.66 334.88 C 996.26 336.30, 995.52 336.79, 994.23 337.01 C 992.95 337.22, 992.34 337.04, 991.24 335.95 C 990.14 334.86, 989.67 333.92, 988.75 331.54 C 987.83 329.17, 987.29 327.55, 986.64 324.07 C 985.99 320.60, 985.77 318.38, 985.49 314.17 C 985.21 309.96, 985.21 307.44, 985.25 303.04 C 985.29 298.64, 985.41 296.14, 985.67 292.16 C 985.94 288.18, 986.32 286.11, 986.59 283.14 C 986.86 280.18, 986.98 278.86, 987.03 277.33 C 987.08 275.81, 986.99 275.36, 986.83 275.52 C 986.67 275.68, 986.52 276.31, 986.24 278.13 C 985.97 279.95, 985.85 281.48, 985.47 284.62 C 985.09 287.76, 984.98 289.79, 984.33 293.81 C 983.69 297.83, 983.25 300.25, 982.24 304.73 C 981.24 309.21, 980.61 311.81, 979.30 316.20 C 977.99 320.59, 977.22 322.88, 975.70 326.68 C 974.19 330.47, 973.22 332.37, 971.73 335.16 C 970.25 337.95, 969.49 339.04, 968.28 340.63 C 967.06 342.21, 966.56 342.70, 965.65 343.09 C 964.74 343.48, 964.36 343.37, 963.73 342.57 C 963.10 341.76, 962.82 340.93, 962.51 339.06 C 962.20 337.19, 962.09 335.80, 962.19 333.20 C 962.29 330.59, 962.44 328.86, 963.02 326.04 C 963.60 323.21, 964.13 321.56, 965.09 319.07 C 966.05 316.58, 966.70 315.35, 967.83 313.57 C 968.95 311.78, 969.65 311.09, 970.72 310.15 C 971.79 309.22, 972.32 309.12, 973.16 308.89 C 973.99 308.65, 974.33 308.85, 974.91 308.97 C 975.49 309.10, 975.62 309.37, 976.05 309.51 C 976.49 309.66, 976.79 309.78, 977.07 309.69 C 977.36 309.60, 977.53 309.37, 977.48 309.06" style="stroke: white; fill: white;"/></svg>