<svg xmlns="http://www.w3.org/2000/svg" id="canvas" viewBox="234.981 226.541 1068.494 257.421"><path d="M 291.53,260.94 C 290.79 260.30, 289.76 259.67, 287.58 259.31 C 285.40 258.95, 283.81 258.76, 280.64 259.13 C 277.46 259.49, 275.33 259.86, 271.72 261.13 C 268.11 262.40, 266.06 263.32, 262.56 265.47 C 259.07 267.62, 257.11 268.99, 254.23 271.88 C 251.35 274.76, 249.82 276.45, 248.17 279.91 C 246.51 283.37, 245.93 285.41, 245.97 289.17 C 246.00 292.93, 246.53 294.94, 248.36 298.69 C 250.18 302.45, 251.72 304.36, 255.10 307.94 C 258.47 311.53, 260.79 313.24, 265.23 316.63 C 269.67 320.02, 272.45 321.60, 277.30 324.91 C 282.14 328.23, 284.93 329.87, 289.46 333.20 C 293.99 336.53, 296.43 338.20, 299.94 341.56 C 303.46 344.92, 305.09 346.62, 307.04 349.99 C 308.99 353.36, 309.53 355.03, 309.69 358.40 C 309.84 361.77, 309.46 363.49, 307.84 366.84 C 306.21 370.19, 304.82 371.97, 301.57 375.14 C 298.31 378.32, 295.98 379.96, 291.57 382.70 C 287.15 385.44, 284.42 386.86, 279.48 388.85 C 274.53 390.85, 271.68 391.70, 266.86 392.68 C 262.03 393.65, 259.37 393.83, 255.37 393.73 C 251.37 393.62, 249.51 393.20, 246.87 392.15 C 244.24 391.10, 243.31 390.34, 242.19 388.47 C 241.07 386.60, 240.97 385.48, 241.29 382.81 C 241.60 380.13, 242.03 378.41, 243.77 375.08 C 245.51 371.74, 246.88 369.71, 249.98 366.13 C 253.09 362.55, 255.16 360.56, 259.28 357.16 C 263.40 353.75, 265.84 352.07, 270.59 349.12 C 275.33 346.16, 277.97 344.80, 283.01 342.37 C 288.06 339.94, 290.82 338.99, 295.80 336.97 C 300.78 334.95, 303.37 334.07, 307.92 332.27 C 312.47 330.46, 314.75 329.65, 318.56 327.93 C 322.37 326.21, 324.23 325.50, 326.98 323.69 C 329.74 321.87, 330.92 320.86, 332.33 318.84 C 333.74 316.82, 334.05 315.59, 334.03 313.61 C 334.00 311.62, 333.59 310.40, 332.21 308.92 C 330.83 307.44, 329.55 306.64, 327.14 306.20 C 324.74 305.76, 322.98 305.67, 320.18 306.72 C 317.38 307.76, 315.75 308.77, 313.15 311.43 C 310.54 314.09, 309.14 315.96, 307.15 320.01 C 305.16 324.07, 304.23 326.69, 303.21 331.71 C 302.20 336.74, 301.92 339.81, 302.07 345.12 C 302.22 350.43, 302.59 353.49, 303.99 358.26 C 305.38 363.02, 306.43 365.55, 309.02 368.94 C 311.62 372.34, 313.42 373.89, 316.98 375.22 C 320.54 376.55, 322.78 376.63, 326.82 375.59 C 330.87 374.55, 333.04 373.40, 337.20 370.05 C 341.37 366.69, 343.60 364.37, 347.65 358.83 C 351.70 353.29, 353.73 349.71, 357.45 342.36 C 361.16 335.01, 362.98 330.54, 366.22 322.06 C 369.45 313.58, 371.04 308.60, 373.61 299.96 C 376.19 291.33, 377.29 286.62, 379.08 278.88 C 380.88 271.14, 381.60 267.27, 382.60 261.25 C 383.60 255.23, 384.07 252.62, 384.09 248.77 C 384.11 244.91, 383.83 243.49, 382.70 241.99 C 381.56 240.48, 380.27 240.11, 378.43 241.23 C 376.58 242.36, 375.40 243.69, 373.46 247.62 C 371.52 251.56, 370.51 254.45, 368.73 260.92 C 366.96 267.39, 365.95 271.66, 364.59 279.98 C 363.22 288.30, 362.48 293.43, 361.90 302.53 C 361.31 311.62, 361.19 316.86, 361.66 325.44 C 362.14 334.01, 362.64 338.46, 364.28 345.40 C 365.92 352.33, 367.06 355.51, 369.86 360.12 C 372.67 364.72, 374.49 366.53, 378.31 368.44 C 382.14 370.36, 384.54 370.54, 388.98 369.68 C 393.42 368.81, 395.96 367.35, 400.53 364.12 C 405.10 360.89, 407.53 358.31, 411.82 353.52 C 416.11 348.74, 418.31 345.57, 421.98 340.21 C 425.65 334.84, 427.47 331.57, 430.16 326.69 C 432.85 321.80, 434.13 319.38, 435.43 315.80 C 436.72 312.21, 436.97 310.73, 436.63 308.78 C 436.29 306.82, 435.37 306.11, 433.71 306.03 C 432.05 305.95, 430.46 306.39, 428.34 308.36 C 426.21 310.34, 425.10 312.28, 423.07 315.90 C 421.05 319.53, 419.91 321.93, 418.22 326.49 C 416.52 331.05, 415.63 333.96, 414.61 338.70 C 413.58 343.45, 413.16 346.15, 413.08 350.21 C 413.01 354.28, 413.06 356.38, 414.22 359.01 C 415.37 361.64, 416.61 362.72, 418.85 363.37 C 421.08 364.02, 422.82 363.85, 425.41 362.26 C 427.99 360.68, 429.29 358.98, 431.79 355.46 C 434.28 351.93, 435.63 349.37, 437.88 344.62 C 440.13 339.87, 441.35 336.70, 443.05 331.72 C 444.74 326.73, 445.56 323.60, 446.35 319.68 C 447.14 315.77, 447.19 313.80, 446.99 312.15 C 446.79 310.50, 445.92 310.33, 445.34 311.43 C 444.76 312.53, 444.14 314.23, 444.09 317.65 C 444.03 321.07, 444.37 323.95, 445.07 328.53 C 445.76 333.12, 446.31 336.16, 447.58 340.58 C 448.85 344.99, 449.52 347.39, 451.41 350.62 C 453.29 353.84, 454.47 355.28, 457.00 356.69 C 459.52 358.10, 461.20 358.39, 464.04 357.65 C 466.88 356.91, 468.41 355.70, 471.18 352.98 C 473.95 350.27, 475.30 348.14, 477.88 344.08 C 480.45 340.02, 481.80 337.21, 484.06 332.69 C 486.32 328.18, 487.58 325.18, 489.17 321.52 C 490.77 317.86, 491.40 315.90, 492.03 314.38 C 492.65 312.86, 492.29 312.77, 492.32 313.93 C 492.36 315.10, 492.10 316.82, 492.20 320.21 C 492.30 323.61, 492.45 326.46, 492.83 330.92 C 493.20 335.37, 493.42 338.38, 494.08 342.51 C 494.75 346.63, 494.86 348.89, 496.15 351.55 C 497.45 354.21, 498.55 355.22, 500.55 355.79 C 502.56 356.36, 503.97 356.20, 506.18 354.40 C 508.40 352.60, 509.37 350.63, 511.61 346.78 C 513.84 342.92, 515.03 340.01, 517.35 335.14 C 519.66 330.26, 521.00 327.00, 523.18 322.40 C 525.36 317.79, 526.76 315.13, 528.25 312.11 C 529.73 309.10, 530.12 307.86, 530.61 307.32 C 531.10 306.79, 530.66 307.40, 530.69 309.42 C 530.71 311.44, 530.68 313.52, 530.75 317.43 C 530.81 321.35, 530.74 324.44, 530.99 329.00 C 531.25 333.56, 531.34 336.41, 532.03 340.24 C 532.71 344.07, 533.04 345.96, 534.41 348.15 C 535.79 350.34, 536.83 351.12, 538.89 351.21 C 540.95 351.30, 542.43 350.70, 544.70 348.58 C 546.96 346.45, 548.00 344.29, 550.22 340.56 C 552.44 336.84, 553.64 334.12, 555.81 329.95 C 557.98 325.79, 559.38 323.05, 561.08 319.74 C 562.79 316.42, 563.57 314.69, 564.32 313.37 C 565.07 312.04, 564.75 311.91, 564.83 313.12 C 564.92 314.33, 564.58 316.03, 564.75 319.40 C 564.92 322.77, 565.04 325.66, 565.68 329.96 C 566.31 334.26, 566.61 337.04, 567.92 340.89 C 569.23 344.74, 569.96 346.79, 572.22 349.22 C 574.47 351.65, 576.10 352.68, 579.20 353.05 C 582.29 353.43, 584.18 352.80, 587.70 351.10 C 591.21 349.40, 593.10 347.78, 596.78 344.56 C 600.46 341.35, 602.51 339.07, 606.10 335.02 C 609.69 330.98, 611.65 328.35, 614.72 324.34 C 617.79 320.32, 619.38 318.17, 621.45 314.96 C 623.52 311.75, 624.44 310.31, 625.08 308.30 C 625.71 306.30, 625.39 305.46, 624.64 304.92 C 623.89 304.38, 622.92 304.55, 621.32 305.58 C 619.73 306.62, 618.57 307.58, 616.67 310.10 C 614.77 312.62, 613.73 314.58, 611.82 318.19 C 609.91 321.80, 608.78 324.14, 607.12 328.15 C 605.46 332.17, 604.52 334.52, 603.52 338.26 C 602.51 342.01, 601.94 344.06, 602.11 346.87 C 602.28 349.68, 602.93 351.08, 604.35 352.33 C 605.78 353.58, 607.05 353.90, 609.23 353.14 C 611.41 352.37, 612.91 351.26, 615.24 348.50 C 617.58 345.73, 618.80 343.48, 620.91 339.32 C 623.01 335.16, 624.11 332.33, 625.76 327.69 C 627.41 323.05, 628.22 320.27, 629.15 316.12 C 630.09 311.97, 630.64 309.78, 630.44 306.93 C 630.24 304.07, 629.45 302.80, 628.17 301.85 C 626.90 300.90, 625.69 300.98, 624.08 302.18 C 622.47 303.38, 621.22 304.87, 620.11 307.84 C 619.00 310.81, 618.77 313.08, 618.54 317.03 C 618.31 320.98, 618.38 323.50, 618.96 327.59 C 619.54 331.68, 619.93 334.06, 621.43 337.47 C 622.94 340.88, 623.96 342.71, 626.48 344.62 C 628.99 346.53, 630.79 347.33, 634.01 347.02 C 637.22 346.70, 639.12 345.80, 642.56 343.05 C 646.00 340.31, 647.76 338.26, 651.21 333.28 C 654.65 328.30, 656.47 325.02, 659.76 318.14 C 663.05 311.26, 664.72 306.93, 667.66 298.88 C 670.60 290.83, 672.04 286.14, 674.48 277.89 C 676.91 269.63, 678.01 265.01, 679.83 257.63 C 681.65 250.25, 682.48 246.24, 683.58 240.99 C 684.68 235.74, 685.24 233.40, 685.33 231.38 C 685.41 229.35, 684.47 229.13, 684.01 230.86 C 683.55 232.59, 683.35 234.73, 683.01 240.03 C 682.68 245.33, 682.60 249.42, 682.33 257.36 C 682.05 265.31, 681.83 270.48, 681.64 279.76 C 681.45 289.03, 681.33 294.45, 681.38 303.74 C 681.43 313.04, 681.58 318.11, 681.89 326.25 C 682.21 334.38, 682.42 338.51, 682.97 344.43 C 683.51 350.35, 683.66 353.11, 684.62 355.84 C 685.58 358.57, 686.87 359.06, 687.77 358.08 C 688.67 357.11, 689.14 354.70, 689.12 350.97 C 689.11 347.24, 688.49 343.82, 687.70 339.44 C 686.90 335.07, 686.08 331.09, 685.14 329.10 C 684.20 327.11, 683.19 327.31, 683.01 329.49 C 682.83 331.66, 683.68 335.64, 684.26 339.98 C 684.85 344.33, 685.41 347.66, 685.93 351.21 C 686.46 354.76, 686.73 356.92, 686.90 357.73 C 687.07 358.54, 687.23 357.98, 686.79 355.28 C 686.35 352.58, 685.41 350.06, 684.71 344.24 C 684.01 338.43, 683.70 334.29, 683.29 326.19 C 682.89 318.08, 682.74 313.02, 682.70 303.74 C 682.66 294.46, 682.79 289.05, 683.09 279.80 C 683.39 270.54, 683.76 265.37, 684.21 257.45 C 684.66 249.52, 685.05 245.48, 685.34 240.17 C 685.63 234.86, 685.98 232.75, 685.64 230.91 C 685.30 229.08, 684.42 229.06, 683.63 231.00 C 682.83 232.93, 682.72 235.34, 681.66 240.60 C 680.60 245.85, 680.05 249.90, 678.35 257.27 C 676.64 264.65, 675.54 269.27, 673.13 277.49 C 670.71 285.71, 669.26 290.39, 666.28 298.37 C 663.30 306.35, 661.59 310.66, 658.24 317.40 C 654.88 324.14, 652.96 327.35, 649.50 332.07 C 646.05 336.79, 644.12 338.62, 640.97 341.01 C 637.81 343.40, 636.23 343.80, 633.73 344.02 C 631.22 344.24, 630.33 343.68, 628.45 342.12 C 626.57 340.56, 625.60 339.20, 624.34 336.21 C 623.08 333.22, 622.57 330.96, 622.14 327.18 C 621.71 323.41, 621.80 320.94, 622.19 317.33 C 622.59 313.73, 623.37 311.85, 624.13 309.16 C 624.89 306.48, 625.41 305.15, 626.00 303.91 C 626.58 302.66, 626.82 302.32, 627.06 302.93 C 627.29 303.54, 627.32 304.44, 627.18 306.96 C 627.04 309.48, 627.16 311.57, 626.36 315.53 C 625.57 319.49, 624.83 322.29, 623.20 326.76 C 621.56 331.24, 620.35 334.01, 618.21 337.89 C 616.06 341.78, 614.50 343.66, 612.46 346.20 C 610.42 348.74, 609.33 349.66, 607.99 350.60 C 606.66 351.55, 606.30 351.69, 605.80 350.94 C 605.29 350.19, 605.31 349.24, 605.46 346.86 C 605.61 344.48, 605.67 342.56, 606.56 339.06 C 607.46 335.56, 608.28 333.18, 609.94 329.35 C 611.60 325.52, 612.81 323.26, 614.87 319.93 C 616.93 316.60, 618.49 315.14, 620.22 312.70 C 621.95 310.25, 622.71 309.16, 623.52 307.70 C 624.33 306.24, 624.44 305.50, 624.28 305.40 C 624.12 305.30, 623.76 305.60, 622.71 307.20 C 621.67 308.81, 621.03 310.29, 619.05 313.42 C 617.06 316.55, 615.72 318.87, 612.77 322.87 C 609.82 326.87, 607.83 329.47, 604.29 333.41 C 600.75 337.35, 598.64 339.55, 595.06 342.57 C 591.49 345.58, 589.54 346.98, 586.43 348.48 C 583.33 349.98, 581.93 350.33, 579.54 350.07 C 577.16 349.80, 576.23 349.20, 574.51 347.17 C 572.79 345.15, 572.00 343.46, 570.94 339.93 C 569.87 336.39, 569.71 333.67, 569.20 329.49 C 568.69 325.30, 568.93 322.45, 568.40 319.02 C 567.87 315.59, 567.66 313.77, 566.54 312.34 C 565.41 310.91, 564.43 310.70, 562.77 311.86 C 561.11 313.03, 560.16 314.84, 558.23 318.18 C 556.30 321.51, 555.28 324.42, 553.13 328.55 C 550.97 332.69, 549.64 335.35, 547.44 338.86 C 545.23 342.38, 543.82 344.05, 542.10 346.11 C 540.39 348.18, 539.88 349.05, 538.85 349.20 C 537.81 349.34, 537.66 348.75, 536.93 346.86 C 536.20 344.96, 535.73 343.33, 535.20 339.73 C 534.68 336.12, 534.50 333.32, 534.30 328.83 C 534.11 324.35, 534.43 321.30, 534.23 317.32 C 534.03 313.33, 534.13 311.13, 533.30 308.89 C 532.48 306.66, 531.61 305.80, 530.09 306.16 C 528.57 306.52, 527.54 307.67, 525.68 310.70 C 523.83 313.72, 522.97 316.64, 520.82 321.30 C 518.68 325.96, 517.32 329.19, 514.95 333.98 C 512.59 338.76, 511.18 341.61, 508.99 345.23 C 506.80 348.85, 505.59 350.35, 504.02 352.09 C 502.45 353.82, 502.10 354.26, 501.14 353.91 C 500.17 353.55, 499.97 352.68, 499.19 350.30 C 498.42 347.92, 497.85 345.94, 497.27 342.01 C 496.69 338.08, 496.60 335.07, 496.29 330.65 C 495.99 326.23, 496.23 323.40, 495.76 319.91 C 495.28 316.43, 494.99 314.59, 493.90 313.23 C 492.81 311.87, 491.78 311.71, 490.29 313.12 C 488.79 314.53, 488.15 316.60, 486.43 320.28 C 484.70 323.96, 483.84 327.05, 481.66 331.51 C 479.48 335.97, 478.07 338.72, 475.54 342.57 C 473.01 346.43, 471.49 348.35, 469.02 350.79 C 466.56 353.23, 465.33 354.09, 463.21 354.78 C 461.09 355.46, 460.27 355.35, 458.42 354.23 C 456.57 353.10, 455.57 352.04, 453.97 349.15 C 452.37 346.27, 451.52 344.02, 450.42 339.80 C 449.32 335.58, 449.01 332.53, 448.49 328.07 C 447.97 323.61, 448.14 320.82, 447.81 317.50 C 447.48 314.17, 447.37 312.57, 446.82 311.45 C 446.26 310.32, 445.72 310.34, 445.05 311.86 C 444.37 313.38, 444.32 315.24, 443.44 319.05 C 442.56 322.87, 442.23 326.03, 440.64 330.92 C 439.06 335.80, 437.78 338.93, 435.52 343.47 C 433.26 348.02, 431.73 350.47, 429.33 353.67 C 426.93 356.86, 425.48 357.95, 423.51 359.45 C 421.53 360.94, 420.75 361.44, 419.45 361.14 C 418.14 360.84, 417.69 360.12, 416.98 357.94 C 416.27 355.77, 415.87 353.99, 415.91 350.26 C 415.95 346.52, 416.20 343.81, 417.18 339.26 C 418.17 334.71, 419.07 331.83, 420.84 327.51 C 422.61 323.19, 423.95 320.94, 426.02 317.64 C 428.08 314.34, 429.58 313.01, 431.17 311.01 C 432.75 309.02, 433.26 308.11, 433.96 307.68 C 434.65 307.25, 434.82 307.42, 434.63 308.87 C 434.45 310.31, 434.28 311.54, 433.01 314.91 C 431.75 318.28, 430.85 320.86, 428.32 325.70 C 425.80 330.55, 423.99 333.83, 420.39 339.13 C 416.80 344.43, 414.57 347.55, 410.35 352.21 C 406.14 356.86, 403.68 359.33, 399.32 362.40 C 394.96 365.48, 392.58 366.73, 388.56 367.58 C 384.53 368.43, 382.64 368.33, 379.19 366.66 C 375.75 364.98, 374.03 363.53, 371.34 359.21 C 368.64 354.89, 367.39 351.82, 365.73 345.05 C 364.07 338.28, 363.52 333.84, 363.04 325.36 C 362.55 316.87, 362.66 311.64, 363.29 302.62 C 363.91 293.60, 364.67 288.48, 366.16 280.25 C 367.65 272.03, 368.77 267.79, 370.73 261.50 C 372.68 255.22, 374.12 252.55, 375.93 248.83 C 377.73 245.11, 378.68 244.10, 379.75 242.90 C 380.83 241.69, 380.89 241.63, 381.30 242.80 C 381.72 243.96, 381.92 245.10, 381.85 248.74 C 381.77 252.38, 381.76 255.03, 380.93 260.99 C 380.11 266.96, 379.42 270.85, 377.70 278.57 C 375.99 286.28, 374.89 290.99, 372.34 299.59 C 369.79 308.19, 368.19 313.16, 364.94 321.57 C 361.69 329.99, 359.84 334.43, 356.09 341.67 C 352.34 348.90, 350.25 352.41, 346.20 357.75 C 342.16 363.09, 339.86 365.26, 335.87 368.35 C 331.87 371.44, 329.82 372.32, 326.22 373.21 C 322.63 374.11, 320.92 374.00, 317.87 372.84 C 314.82 371.69, 313.31 370.50, 310.98 367.45 C 308.65 364.40, 307.55 362.08, 306.23 357.60 C 304.91 353.12, 304.51 350.13, 304.39 345.06 C 304.27 339.98, 304.58 336.98, 305.63 332.23 C 306.69 327.48, 307.68 324.97, 309.66 321.30 C 311.64 317.64, 313.14 316.04, 315.52 313.89 C 317.90 311.74, 319.35 311.34, 321.58 310.55 C 323.80 309.77, 324.93 309.85, 326.64 309.96 C 328.35 310.08, 329.17 310.39, 330.11 311.12 C 331.06 311.84, 331.39 312.41, 331.34 313.59 C 331.30 314.78, 331.12 315.53, 329.91 317.04 C 328.69 318.55, 327.75 319.42, 325.27 321.14 C 322.78 322.86, 321.11 323.82, 317.47 325.63 C 313.84 327.45, 311.57 328.32, 307.08 330.20 C 302.59 332.09, 300.00 332.98, 295.02 335.05 C 290.03 337.12, 287.24 338.09, 282.14 340.55 C 277.03 343.01, 274.35 344.38, 269.50 347.35 C 264.64 350.33, 262.15 352.00, 257.87 355.41 C 253.58 358.82, 251.41 360.77, 248.07 364.43 C 244.73 368.08, 243.17 370.07, 241.17 373.68 C 239.17 377.29, 238.36 379.22, 238.07 382.48 C 237.78 385.74, 238.17 387.52, 239.72 389.99 C 241.27 392.46, 242.68 393.57, 245.80 394.82 C 248.93 396.07, 251.03 396.22, 255.33 396.24 C 259.64 396.25, 262.32 395.96, 267.32 394.89 C 272.31 393.83, 275.21 392.94, 280.30 390.90 C 285.39 388.85, 288.17 387.45, 292.77 384.66 C 297.36 381.86, 299.80 380.25, 303.28 376.91 C 306.76 373.57, 308.36 371.68, 310.15 367.95 C 311.94 364.22, 312.43 362.10, 312.22 358.27 C 312.00 354.44, 311.24 352.45, 309.09 348.80 C 306.93 345.14, 305.12 343.44, 301.43 339.99 C 297.75 336.54, 295.26 334.90, 290.67 331.55 C 286.08 328.19, 283.28 326.55, 278.46 323.22 C 273.65 319.89, 270.90 318.28, 266.58 314.89 C 262.26 311.51, 260.04 309.76, 256.87 306.30 C 253.71 302.83, 252.37 300.97, 250.75 297.55 C 249.14 294.12, 248.78 292.43, 248.79 289.16 C 248.79 285.88, 249.28 284.21, 250.78 281.17 C 252.28 278.13, 253.62 276.57, 256.29 273.96 C 258.96 271.34, 260.84 270.01, 264.14 268.11 C 267.44 266.22, 269.39 265.45, 272.79 264.48 C 276.18 263.51, 278.18 263.59, 281.10 263.27 C 284.03 262.95, 285.37 263.02, 287.40 262.87 C 289.43 262.72, 290.44 262.92, 291.27 262.53 C 292.09 262.15, 292.27 261.59, 291.53 260.94" style="stroke: white; fill: white;"/><path d="M 653.68,300.61 C 654.57 301.05, 655.47 301.36, 658.04 301.34 C 660.60 301.31, 662.39 300.96, 666.51 300.49 C 670.63 300.03, 673.49 299.62, 678.66 299.01 C 683.82 298.39, 686.91 298.01, 692.34 297.42 C 697.78 296.83, 700.99 296.50, 705.84 296.05 C 710.69 295.59, 713.15 295.50, 716.58 295.13 C 720.02 294.76, 721.74 294.63, 723.02 294.19 C 724.29 293.76, 724.28 293.26, 722.95 292.95 C 721.63 292.65, 719.87 292.53, 716.40 292.67 C 712.93 292.80, 710.47 293.15, 705.61 293.63 C 700.75 294.12, 697.54 294.54, 692.10 295.09 C 686.65 295.64, 683.56 295.95, 678.39 296.39 C 673.21 296.83, 670.34 297.00, 666.21 297.30 C 662.09 297.60, 660.30 297.54, 657.77 297.91 C 655.25 298.28, 654.42 298.59, 653.60 299.13 C 652.78 299.67, 652.80 300.17, 653.68 300.61" style="stroke: white; fill: white;"/><path d="M 837.89,247.66 C 837.45 248.66, 837.24 249.60, 837.11 252.70 C 836.99 255.81, 837.18 257.80, 837.26 263.18 C 837.34 268.56, 837.44 272.17, 837.50 279.60 C 837.57 287.03, 837.52 291.57, 837.59 300.33 C 837.66 309.09, 837.70 314.35, 837.84 323.40 C 837.98 332.46, 838.03 337.59, 838.28 345.63 C 838.52 353.66, 838.67 357.78, 839.07 363.59 C 839.47 369.39, 839.78 372.46, 840.27 374.65 C 840.77 376.84, 841.49 376.75, 841.55 374.52 C 841.60 372.29, 840.91 369.28, 840.55 363.49 C 840.18 357.70, 839.99 353.60, 839.73 345.58 C 839.46 337.56, 839.34 332.43, 839.21 323.38 C 839.08 314.33, 839.05 309.08, 839.08 300.33 C 839.10 291.57, 839.21 287.03, 839.32 279.61 C 839.44 272.18, 839.50 268.58, 839.65 263.20 C 839.80 257.83, 840.16 255.84, 840.09 252.73 C 840.03 249.63, 839.79 248.68, 839.35 247.66 C 838.91 246.64, 838.34 246.65, 837.89 247.66" style="stroke: white; fill: white;"/><path d="M 820.08,251.69 C 820.88 251.48, 821.29 250.67, 822.87 249.66 C 824.44 248.65, 825.21 247.77, 827.96 246.65 C 830.72 245.54, 832.50 244.40, 836.62 244.08 C 840.74 243.77, 843.47 243.81, 848.55 245.07 C 853.64 246.34, 856.71 247.42, 862.04 250.40 C 867.37 253.37, 870.36 255.36, 875.19 259.95 C 880.02 264.53, 882.60 267.37, 886.20 273.33 C 889.79 279.28, 891.40 282.81, 893.18 289.74 C 894.95 296.67, 895.43 300.47, 895.07 307.96 C 894.71 315.46, 893.91 319.58, 891.38 327.20 C 888.86 334.82, 886.72 338.97, 882.45 346.07 C 878.18 353.16, 875.19 356.85, 870.04 362.68 C 864.90 368.51, 861.79 371.32, 856.72 375.21 C 851.65 379.10, 848.83 380.52, 844.68 382.13 C 840.54 383.74, 838.55 383.66, 835.99 383.27 C 833.44 382.88, 832.74 382.20, 831.92 380.17 C 831.09 378.14, 830.98 376.51, 831.86 373.12 C 832.74 369.74, 833.51 367.39, 836.33 363.24 C 839.16 359.10, 841.29 356.59, 845.99 352.40 C 850.69 348.22, 853.79 345.96, 859.84 342.30 C 865.88 338.64, 869.45 336.94, 876.20 334.12 C 882.95 331.30, 886.76 330.11, 893.58 328.20 C 900.41 326.28, 904.08 325.59, 910.33 324.56 C 916.59 323.52, 919.75 323.32, 924.86 323.00 C 929.98 322.69, 932.40 322.94, 935.90 322.99 C 939.40 323.05, 940.80 323.32, 942.37 323.29 C 943.94 323.27, 944.19 323.08, 943.75 322.88 C 943.32 322.68, 942.36 322.24, 940.21 322.29 C 938.05 322.35, 936.30 322.49, 932.97 323.15 C 929.64 323.82, 927.40 324.24, 923.54 325.62 C 919.67 326.99, 917.30 327.77, 913.64 330.02 C 909.98 332.27, 908.06 333.78, 905.23 336.86 C 902.40 339.94, 901.11 341.86, 899.51 345.40 C 897.90 348.95, 897.29 351.17, 897.20 354.60 C 897.10 358.02, 897.52 360.03, 899.01 362.52 C 900.51 365.01, 901.90 366.16, 904.67 367.04 C 907.44 367.91, 909.41 367.93, 912.85 366.90 C 916.28 365.87, 918.32 364.65, 921.85 361.88 C 925.37 359.12, 927.25 357.01, 930.47 353.07 C 933.70 349.12, 935.42 346.20, 937.96 342.15 C 940.50 338.10, 941.93 335.76, 943.16 332.83 C 944.39 329.90, 944.31 328.31, 944.12 327.48 C 943.93 326.65, 942.95 326.90, 942.21 328.66 C 941.46 330.42, 940.81 332.54, 940.38 336.29 C 939.96 340.04, 939.77 342.99, 940.09 347.41 C 940.41 351.84, 940.76 354.63, 941.98 358.42 C 943.21 362.22, 943.93 364.27, 946.21 366.40 C 948.50 368.54, 950.30 369.41, 953.41 369.10 C 956.52 368.79, 958.34 367.81, 961.76 364.84 C 965.18 361.87, 966.95 359.64, 970.52 354.25 C 974.08 348.87, 976.02 345.27, 979.58 337.90 C 983.15 330.54, 985.05 325.91, 988.33 317.43 C 991.61 308.96, 993.26 303.93, 995.97 295.52 C 998.68 287.11, 999.93 282.47, 1001.89 275.39 C 1003.84 268.31, 1004.79 264.63, 1005.74 260.13 C 1006.70 255.62, 1006.81 253.73, 1006.66 252.86 C 1006.51 251.99, 1005.54 252.64, 1004.98 255.77 C 1004.42 258.91, 1004.36 261.99, 1003.87 268.54 C 1003.38 275.09, 1002.98 279.83, 1002.52 288.55 C 1002.06 297.27, 1001.82 302.72, 1001.58 312.14 C 1001.34 321.56, 1001.23 327.02, 1001.33 335.65 C 1001.42 344.27, 1001.58 348.72, 1002.06 355.28 C 1002.54 361.85, 1002.72 364.88, 1003.73 368.45 C 1004.74 372.03, 1005.75 373.10, 1007.11 373.17 C 1008.48 373.24, 1009.59 371.96, 1010.54 368.81 C 1011.48 365.66, 1011.65 362.70, 1011.84 357.43 C 1012.02 352.16, 1011.91 348.36, 1011.46 342.44 C 1011.02 336.52, 1010.59 333.06, 1009.60 327.85 C 1008.61 322.64, 1008.00 320.15, 1006.53 316.39 C 1005.07 312.62, 1004.11 311.05, 1002.29 309.03 C 1000.46 307.01, 999.06 306.58, 997.40 306.29 C 995.73 306.01, 994.64 306.55, 993.96 307.59 C 993.29 308.64, 993.07 309.90, 994.01 311.52 C 994.95 313.15, 995.94 314.45, 998.67 315.72 C 1001.39 316.99, 1003.51 317.32, 1007.64 317.85 C 1011.76 318.39, 1014.32 318.55, 1019.29 318.39 C 1024.26 318.22, 1027.13 317.90, 1032.49 317.04 C 1037.85 316.19, 1040.85 315.41, 1046.09 314.09 C 1051.33 312.78, 1054.21 311.83, 1058.69 310.47 C 1063.18 309.10, 1065.49 308.53, 1068.51 307.27 C 1071.54 306.02, 1072.73 305.24, 1073.81 304.19 C 1074.89 303.13, 1074.84 302.39, 1073.93 301.99 C 1073.01 301.59, 1071.67 301.18, 1069.24 302.20 C 1066.81 303.21, 1065.00 304.40, 1061.78 307.07 C 1058.55 309.73, 1056.51 311.59, 1053.11 315.52 C 1049.71 319.45, 1047.72 321.96, 1044.79 326.72 C 1041.86 331.49, 1040.34 334.44, 1038.45 339.34 C 1036.57 344.24, 1035.83 347.00, 1035.36 351.23 C 1034.90 355.46, 1034.94 357.70, 1036.12 360.48 C 1037.31 363.25, 1038.72 364.44, 1041.27 365.10 C 1043.82 365.75, 1045.69 365.45, 1048.86 363.75 C 1052.03 362.04, 1053.83 360.26, 1057.10 356.58 C 1060.38 352.90, 1062.18 350.28, 1065.24 345.34 C 1068.29 340.40, 1069.96 337.16, 1072.38 331.87 C 1074.81 326.59, 1075.95 323.29, 1077.36 318.92 C 1078.77 314.54, 1079.33 312.24, 1079.44 310.00 C 1079.55 307.75, 1078.70 307.11, 1077.91 307.69 C 1077.12 308.27, 1076.12 309.67, 1075.50 312.89 C 1074.88 316.11, 1074.77 319.01, 1074.82 323.79 C 1074.88 328.58, 1075.04 331.91, 1075.79 336.82 C 1076.54 341.73, 1077.06 344.41, 1078.58 348.34 C 1080.10 352.27, 1081.00 354.27, 1083.40 356.49 C 1085.81 358.71, 1087.57 359.51, 1090.63 359.44 C 1093.69 359.37, 1095.51 358.47, 1098.70 356.15 C 1101.90 353.83, 1103.53 351.83, 1106.58 347.82 C 1109.64 343.81, 1111.25 340.89, 1113.97 336.09 C 1116.69 331.29, 1118.05 328.24, 1120.18 323.81 C 1122.31 319.39, 1123.53 316.96, 1124.63 313.98 C 1125.74 311.00, 1125.76 309.57, 1125.72 308.91 C 1125.68 308.25, 1124.90 308.72, 1124.45 310.67 C 1124.00 312.63, 1123.80 314.70, 1123.47 318.69 C 1123.13 322.69, 1122.93 325.75, 1122.79 330.67 C 1122.64 335.58, 1122.48 338.76, 1122.74 343.28 C 1122.99 347.81, 1123.02 350.26, 1124.06 353.27 C 1125.09 356.28, 1126.02 357.46, 1127.91 358.31 C 1129.79 359.17, 1131.24 359.08, 1133.48 357.54 C 1135.73 356.00, 1136.84 354.21, 1139.14 350.61 C 1141.44 347.02, 1142.64 344.21, 1144.99 339.57 C 1147.33 334.93, 1148.76 331.64, 1150.87 327.42 C 1152.97 323.19, 1154.29 320.89, 1155.51 318.44 C 1156.72 316.00, 1156.74 315.08, 1156.95 315.20 C 1157.16 315.32, 1156.61 316.37, 1156.56 319.04 C 1156.51 321.72, 1156.52 324.31, 1156.68 328.58 C 1156.85 332.84, 1156.79 335.94, 1157.38 340.38 C 1157.97 344.82, 1158.18 347.38, 1159.62 350.78 C 1161.05 354.18, 1162.06 355.81, 1164.55 357.37 C 1167.05 358.93, 1168.82 359.32, 1172.09 358.60 C 1175.35 357.87, 1177.18 356.56, 1180.86 353.72 C 1184.54 350.89, 1186.66 348.68, 1190.50 344.41 C 1194.35 340.13, 1196.54 337.17, 1200.09 332.36 C 1203.65 327.55, 1205.53 324.61, 1208.29 320.35 C 1211.04 316.09, 1212.58 314.03, 1213.87 311.06 C 1215.17 308.08, 1215.22 306.71, 1214.77 305.48 C 1214.33 304.25, 1213.29 304.08, 1211.66 304.92 C 1210.03 305.75, 1208.61 306.97, 1206.63 309.66 C 1204.64 312.36, 1203.50 314.58, 1201.74 318.39 C 1199.99 322.21, 1198.99 324.72, 1197.85 328.73 C 1196.70 332.74, 1196.02 335.05, 1196.02 338.45 C 1196.02 341.86, 1196.43 343.73, 1197.85 345.76 C 1199.28 347.80, 1200.65 348.62, 1203.14 348.64 C 1205.62 348.66, 1207.34 347.94, 1210.28 345.87 C 1213.22 343.80, 1214.94 341.86, 1217.84 338.31 C 1220.74 334.77, 1222.36 332.20, 1224.80 328.15 C 1227.23 324.09, 1228.54 321.51, 1230.01 318.02 C 1231.48 314.53, 1232.02 312.56, 1232.14 310.69 C 1232.26 308.83, 1231.47 308.11, 1230.61 308.69 C 1229.75 309.28, 1228.65 310.33, 1227.84 313.64 C 1227.03 316.94, 1226.82 319.55, 1226.55 325.20 C 1226.29 330.85, 1226.31 334.46, 1226.51 341.89 C 1226.72 349.31, 1227.02 353.66, 1227.57 362.32 C 1228.11 370.99, 1228.67 375.85, 1229.25 385.21 C 1229.83 394.56, 1230.34 399.74, 1230.48 409.08 C 1230.61 418.43, 1230.70 423.40, 1229.92 431.92 C 1229.14 440.44, 1228.55 444.69, 1226.56 451.68 C 1224.57 458.68, 1223.13 461.97, 1219.96 466.88 C 1216.79 471.78, 1214.75 473.79, 1210.71 476.21 C 1206.68 478.62, 1204.25 479.09, 1199.77 478.93 C 1195.28 478.78, 1192.57 477.93, 1188.29 475.43 C 1184.01 472.93, 1181.62 470.90, 1178.36 466.43 C 1175.11 461.95, 1173.52 458.86, 1172.01 453.05 C 1170.50 447.24, 1170.07 443.85, 1170.82 437.37 C 1171.58 430.89, 1172.56 427.36, 1175.76 420.66 C 1178.96 413.97, 1181.41 410.41, 1186.84 403.89 C 1192.27 397.38, 1195.84 394.06, 1202.91 388.09 C 1209.99 382.12, 1214.23 379.20, 1222.22 374.05 C 1230.21 368.89, 1234.76 366.52, 1242.85 362.31 C 1250.94 358.09, 1255.37 356.20, 1262.67 352.96 C 1269.98 349.71, 1273.61 348.45, 1279.39 346.09 C 1285.17 343.73, 1287.78 342.99, 1291.58 341.16 C 1295.38 339.33, 1296.62 338.42, 1298.38 336.94 C 1300.14 335.46, 1300.10 334.50, 1300.37 333.76 C 1300.64 333.01, 1300.38 332.90, 1299.73 333.20 C 1299.08 333.51, 1298.95 334.07, 1297.13 335.28 C 1295.31 336.48, 1294.31 337.38, 1290.63 339.24 C 1286.96 341.10, 1284.46 342.10, 1278.75 344.59 C 1273.05 347.08, 1269.41 348.39, 1262.11 351.71 C 1254.82 355.03, 1250.38 356.94, 1242.27 361.20 C 1234.16 365.46, 1229.59 367.83, 1221.56 373.02 C 1213.52 378.20, 1209.25 381.12, 1202.10 387.12 C 1194.94 393.12, 1191.32 396.43, 1185.79 403.01 C 1180.25 409.59, 1177.73 413.18, 1174.41 420.01 C 1171.09 426.84, 1170.01 430.47, 1169.18 437.17 C 1168.34 443.87, 1168.72 447.42, 1170.23 453.50 C 1171.75 459.59, 1173.35 462.85, 1176.75 467.59 C 1180.15 472.33, 1182.66 474.54, 1187.25 477.21 C 1191.84 479.89, 1194.83 480.83, 1199.71 480.95 C 1204.59 481.06, 1207.35 480.42, 1211.67 477.78 C 1215.99 475.14, 1218.07 472.89, 1221.32 467.75 C 1224.57 462.61, 1225.95 459.21, 1227.93 452.07 C 1229.90 444.92, 1230.45 440.63, 1231.21 432.03 C 1231.97 423.43, 1231.86 418.45, 1231.73 409.07 C 1231.59 399.68, 1231.08 394.49, 1230.54 385.13 C 1230.00 375.76, 1229.46 370.89, 1229.01 362.24 C 1228.57 353.59, 1228.31 349.24, 1228.31 341.87 C 1228.32 334.49, 1228.50 330.90, 1229.04 325.38 C 1229.59 319.87, 1230.53 317.53, 1231.04 314.28 C 1231.55 311.03, 1231.80 309.97, 1231.58 309.12 C 1231.35 308.27, 1230.83 308.50, 1229.92 310.02 C 1229.01 311.54, 1228.56 313.39, 1227.04 316.72 C 1225.52 320.05, 1224.63 322.75, 1222.32 326.67 C 1220.01 330.60, 1218.30 333.06, 1215.49 336.35 C 1212.68 339.64, 1210.77 341.20, 1208.27 343.13 C 1205.77 345.05, 1204.62 345.72, 1202.99 345.97 C 1201.35 346.22, 1200.84 345.87, 1200.12 344.39 C 1199.39 342.90, 1199.20 341.49, 1199.36 338.54 C 1199.52 335.59, 1199.79 333.34, 1200.91 329.63 C 1202.04 325.92, 1203.17 323.51, 1204.99 319.97 C 1206.80 316.43, 1208.35 314.61, 1209.99 311.94 C 1211.63 309.27, 1212.48 307.91, 1213.20 306.62 C 1213.92 305.34, 1213.98 304.88, 1213.59 305.51 C 1213.20 306.14, 1212.71 307.07, 1211.25 309.79 C 1209.80 312.51, 1208.88 314.85, 1206.30 319.10 C 1203.72 323.36, 1201.84 326.32, 1198.33 331.06 C 1194.83 335.81, 1192.59 338.72, 1188.78 342.83 C 1184.96 346.93, 1182.73 349.02, 1179.25 351.60 C 1175.78 354.18, 1174.03 355.04, 1171.40 355.73 C 1168.76 356.41, 1167.86 356.25, 1166.06 355.04 C 1164.27 353.82, 1163.54 352.67, 1162.44 349.66 C 1161.34 346.65, 1161.01 344.24, 1160.55 340.00 C 1160.09 335.76, 1160.25 332.72, 1160.13 328.46 C 1160.01 324.21, 1160.54 321.57, 1159.96 318.72 C 1159.38 315.88, 1158.66 314.63, 1157.24 314.24 C 1155.83 313.86, 1154.66 314.42, 1152.88 316.81 C 1151.09 319.19, 1150.40 321.87, 1148.32 326.17 C 1146.24 330.46, 1144.84 333.74, 1142.47 338.29 C 1140.11 342.84, 1138.67 345.53, 1136.50 348.92 C 1134.32 352.31, 1133.14 353.69, 1131.60 355.22 C 1130.05 356.76, 1129.68 357.18, 1128.77 356.61 C 1127.87 356.04, 1127.70 355.09, 1127.07 352.39 C 1126.44 349.69, 1125.86 347.44, 1125.63 343.12 C 1125.39 338.81, 1125.63 335.63, 1125.89 330.79 C 1126.14 325.96, 1126.67 322.95, 1126.91 318.94 C 1127.15 314.93, 1127.46 312.86, 1127.09 310.72 C 1126.72 308.59, 1126.11 307.88, 1125.06 308.29 C 1124.01 308.70, 1123.29 309.89, 1121.85 312.78 C 1120.42 315.67, 1119.88 318.32, 1117.88 322.74 C 1115.89 327.17, 1114.54 330.20, 1111.87 334.90 C 1109.20 339.60, 1107.50 342.44, 1104.52 346.23 C 1101.55 350.02, 1099.81 351.77, 1097.01 353.84 C 1094.21 355.91, 1092.86 356.45, 1090.53 356.56 C 1088.20 356.67, 1087.27 356.23, 1085.39 354.39 C 1083.51 352.56, 1082.49 350.96, 1081.12 347.36 C 1079.76 343.77, 1079.17 341.14, 1078.56 336.43 C 1077.95 331.72, 1078.00 328.43, 1078.07 323.80 C 1078.15 319.17, 1078.80 316.46, 1078.93 313.29 C 1079.06 310.12, 1079.08 308.70, 1078.71 307.94 C 1078.35 307.19, 1077.87 307.48, 1077.11 309.52 C 1076.35 311.56, 1076.25 313.85, 1074.90 318.13 C 1073.55 322.42, 1072.68 325.76, 1070.35 330.95 C 1068.03 336.15, 1066.32 339.35, 1063.28 344.11 C 1060.23 348.88, 1058.31 351.38, 1055.13 354.78 C 1051.94 358.17, 1050.02 359.51, 1047.36 361.09 C 1044.70 362.67, 1043.55 363.01, 1041.83 362.68 C 1040.11 362.35, 1039.54 361.68, 1038.75 359.44 C 1037.97 357.21, 1037.54 355.35, 1037.91 351.49 C 1038.28 347.64, 1038.83 344.87, 1040.60 340.15 C 1042.36 335.44, 1043.84 332.51, 1046.74 327.94 C 1049.63 323.37, 1051.63 320.91, 1055.07 317.29 C 1058.51 313.67, 1060.72 312.16, 1063.92 309.84 C 1067.13 307.52, 1069.05 307.05, 1071.10 305.69 C 1073.14 304.33, 1073.78 303.68, 1074.13 303.03 C 1074.49 302.38, 1074.22 302.17, 1072.86 302.44 C 1071.51 302.71, 1070.34 303.23, 1067.36 304.37 C 1064.37 305.50, 1062.30 306.62, 1057.94 308.13 C 1053.57 309.64, 1050.70 310.59, 1045.54 311.92 C 1040.38 313.25, 1037.40 314.01, 1032.14 314.77 C 1026.89 315.54, 1024.05 315.80, 1019.26 315.76 C 1014.47 315.71, 1011.96 315.38, 1008.21 314.56 C 1004.45 313.73, 1002.87 312.63, 1000.50 311.62 C 998.12 310.61, 997.38 310.14, 996.33 309.49 C 995.29 308.85, 995.20 308.59, 995.28 308.39 C 995.36 308.18, 995.77 307.95, 996.73 308.47 C 997.68 308.99, 998.55 309.22, 1000.04 310.99 C 1001.53 312.77, 1002.70 313.89, 1004.16 317.35 C 1005.63 320.80, 1006.38 323.22, 1007.35 328.28 C 1008.33 333.33, 1008.70 336.80, 1009.05 342.61 C 1009.40 348.41, 1009.36 352.19, 1009.11 357.31 C 1008.86 362.44, 1008.18 365.21, 1007.79 368.22 C 1007.40 371.23, 1007.58 372.41, 1007.17 372.36 C 1006.76 372.31, 1006.45 371.40, 1005.76 367.96 C 1005.06 364.52, 1004.29 361.62, 1003.68 355.15 C 1003.07 348.68, 1002.85 344.22, 1002.71 335.63 C 1002.57 327.03, 1002.67 321.58, 1002.96 312.18 C 1003.26 302.79, 1003.59 297.34, 1004.18 288.65 C 1004.77 279.95, 1005.30 275.25, 1005.92 268.72 C 1006.55 262.18, 1007.29 259.20, 1007.31 255.98 C 1007.32 252.77, 1006.69 251.90, 1006.00 252.64 C 1005.30 253.38, 1004.95 255.22, 1003.83 259.69 C 1002.71 264.16, 1002.23 267.91, 1000.39 274.99 C 998.56 282.07, 997.34 286.71, 994.66 295.10 C 991.99 303.49, 990.33 308.51, 987.02 316.92 C 983.72 325.34, 981.77 329.95, 978.14 337.19 C 974.51 344.43, 972.47 347.98, 968.87 353.13 C 965.27 358.28, 963.30 360.31, 960.14 362.94 C 956.99 365.57, 955.47 366.00, 953.11 366.27 C 950.75 366.53, 949.97 366.01, 948.34 364.26 C 946.72 362.51, 945.93 360.93, 944.98 357.52 C 944.03 354.11, 943.76 351.40, 943.60 347.22 C 943.44 343.04, 943.95 340.26, 944.18 336.62 C 944.40 332.99, 944.91 330.97, 944.73 329.05 C 944.55 327.13, 944.18 326.55, 943.28 327.02 C 942.38 327.50, 941.77 328.67, 940.24 331.41 C 938.71 334.15, 937.99 336.73, 935.63 340.73 C 933.27 344.73, 931.55 347.63, 928.44 351.40 C 925.34 355.18, 923.41 357.13, 920.10 359.61 C 916.79 362.09, 914.81 362.90, 911.91 363.79 C 909.00 364.67, 907.61 364.59, 905.58 364.02 C 903.54 363.45, 902.77 362.81, 901.74 360.94 C 900.71 359.08, 900.35 357.56, 900.44 354.70 C 900.53 351.83, 900.83 349.78, 902.20 346.60 C 903.57 343.41, 904.71 341.58, 907.30 338.76 C 909.89 335.94, 911.68 334.51, 915.13 332.51 C 918.58 330.52, 920.83 329.84, 924.55 328.80 C 928.27 327.76, 930.48 327.87, 933.75 327.30 C 937.02 326.73, 938.77 326.70, 940.89 325.94 C 943.02 325.19, 943.98 324.49, 944.36 323.54 C 944.74 322.58, 944.46 321.82, 942.78 321.18 C 941.09 320.54, 939.55 320.36, 935.94 320.32 C 932.32 320.28, 929.88 320.48, 924.70 320.99 C 919.52 321.50, 916.35 321.72, 910.04 322.86 C 903.73 323.99, 900.04 324.70, 893.15 326.65 C 886.26 328.61, 882.42 329.81, 875.58 332.65 C 868.75 335.48, 865.13 337.17, 858.95 340.83 C 852.77 344.48, 849.60 346.71, 844.69 350.91 C 839.77 355.12, 837.48 357.57, 834.37 361.87 C 831.27 366.17, 830.13 368.57, 829.17 372.44 C 828.21 376.31, 828.28 378.57, 829.57 381.22 C 830.85 383.88, 832.42 385.14, 835.59 385.69 C 838.77 386.24, 841.00 385.82, 845.43 383.98 C 849.86 382.14, 852.59 380.57, 857.73 376.50 C 862.87 372.44, 865.96 369.59, 871.14 363.64 C 876.33 357.70, 879.33 353.99, 883.65 346.79 C 887.96 339.58, 890.14 335.39, 892.72 327.64 C 895.29 319.89, 896.13 315.69, 896.52 308.04 C 896.91 300.38, 896.44 296.47, 894.66 289.36 C 892.87 282.26, 891.23 278.63, 887.58 272.50 C 883.93 266.36, 881.31 263.45, 876.40 258.69 C 871.48 253.93, 868.46 251.88, 863.01 248.71 C 857.56 245.54, 854.45 244.35, 849.15 242.84 C 843.85 241.33, 841.01 241.10, 836.50 241.14 C 831.98 241.19, 829.72 241.88, 826.57 243.06 C 823.42 244.24, 822.27 245.51, 820.73 247.04 C 819.19 248.56, 819.00 249.77, 818.87 250.70 C 818.74 251.63, 819.28 251.90, 820.08 251.69" style="stroke: white; fill: white;"/></svg>