<svg xmlns="http://www.w3.org/2000/svg" id="canvas" viewBox="358.258 258.027 686.290 122.420"><path d="M 386.28,261.52 C 385.32 262.39, 384.39 263.66, 383.18 266.58 C 381.98 269.51, 381.65 271.74, 380.27 276.16 C 378.89 280.57, 377.94 283.23, 376.29 288.65 C 374.64 294.07, 373.73 297.35, 372.01 303.25 C 370.30 309.15, 369.28 312.29, 367.70 318.15 C 366.12 324.00, 365.30 327.07, 364.09 332.54 C 362.88 338.00, 362.17 340.75, 361.64 345.47 C 361.10 350.19, 361.23 352.33, 361.44 356.14 C 361.65 359.94, 361.88 361.68, 362.68 364.49 C 363.49 367.30, 364.06 368.50, 365.44 370.17 C 366.82 371.85, 367.74 372.43, 369.59 372.86 C 371.43 373.30, 372.57 373.37, 374.68 372.36 C 376.78 371.35, 377.84 370.51, 380.11 367.82 C 382.37 365.12, 383.38 362.99, 386.00 358.89 C 388.62 354.80, 390.17 352.15, 393.22 347.35 C 396.27 342.55, 398.12 339.68, 401.25 334.90 C 404.37 330.12, 406.10 327.39, 408.86 323.46 C 411.61 319.53, 413.24 317.64, 415.03 315.26 C 416.82 312.88, 417.37 311.83, 417.82 311.57 C 418.28 311.30, 417.66 311.77, 417.31 313.94 C 416.97 316.11, 416.75 318.16, 416.10 322.41 C 415.46 326.66, 414.91 329.89, 414.08 335.17 C 413.25 340.44, 412.56 343.77, 411.95 348.78 C 411.34 353.79, 411.09 356.14, 411.04 360.19 C 410.98 364.25, 410.89 366.10, 411.67 369.05 C 412.46 372.00, 413.28 373.27, 414.97 374.93 C 416.66 376.59, 417.77 377.12, 420.11 377.35 C 422.46 377.59, 423.75 377.46, 426.69 376.10 C 429.63 374.74, 431.21 373.51, 434.82 370.54 C 438.44 367.56, 440.58 365.63, 444.74 361.21 C 448.91 356.80, 451.17 354.00, 455.67 348.44 C 460.17 342.89, 462.64 339.59, 467.24 333.44 C 471.85 327.29, 474.38 323.83, 478.68 317.69 C 482.99 311.54, 485.12 308.19, 488.76 302.71 C 492.41 297.24, 494.09 294.68, 496.92 290.32 C 499.75 285.95, 500.98 284.20, 502.92 280.89 C 504.86 277.58, 505.85 276.15, 506.62 273.76 C 507.38 271.37, 506.92 270.32, 506.74 268.93 C 506.56 267.54, 506.12 267.19, 505.72 266.80 C 505.32 266.41, 505.00 266.57, 504.75 266.98 C 504.50 267.39, 504.73 267.72, 504.46 268.85 C 504.19 269.98, 504.20 270.50, 503.39 272.64 C 502.59 274.77, 502.09 276.23, 500.42 279.53 C 498.74 282.82, 497.67 284.70, 495.02 289.13 C 492.36 293.55, 490.71 296.15, 487.14 301.65 C 483.58 307.15, 481.47 310.51, 477.20 316.65 C 472.92 322.78, 470.39 326.23, 465.77 332.33 C 461.15 338.43, 458.64 341.71, 454.08 347.14 C 449.52 352.57, 447.21 355.30, 442.97 359.48 C 438.73 363.65, 436.48 365.42, 432.87 368.00 C 429.26 370.59, 427.47 371.19, 424.94 372.41 C 422.42 373.63, 421.79 374.03, 420.24 374.10 C 418.70 374.18, 418.24 373.99, 417.23 372.79 C 416.23 371.60, 415.83 370.66, 415.20 368.13 C 414.57 365.61, 414.17 363.98, 414.09 360.18 C 414.02 356.38, 414.19 354.03, 414.82 349.14 C 415.45 344.24, 416.25 340.94, 417.23 335.71 C 418.20 330.47, 419.01 327.32, 419.69 322.96 C 420.37 318.60, 421.01 316.47, 420.63 313.91 C 420.24 311.34, 419.39 310.30, 417.76 310.14 C 416.13 309.97, 414.71 310.73, 412.47 313.08 C 410.24 315.44, 409.24 317.82, 406.57 321.91 C 403.90 326.00, 402.25 328.72, 399.13 333.51 C 396.00 338.31, 394.11 341.16, 390.95 345.87 C 387.79 350.58, 386.13 353.22, 383.32 357.06 C 380.52 360.91, 379.04 362.69, 376.93 365.10 C 374.83 367.51, 374.15 368.13, 372.80 369.12 C 371.46 370.11, 371.15 370.20, 370.21 370.03 C 369.27 369.85, 368.88 369.57, 368.11 368.25 C 367.34 366.93, 367.07 365.91, 366.35 363.43 C 365.63 360.96, 364.92 359.41, 364.49 355.87 C 364.07 352.33, 363.83 350.29, 364.21 345.72 C 364.58 341.15, 365.23 338.42, 366.36 333.02 C 367.49 327.63, 368.28 324.55, 369.85 318.73 C 371.43 312.91, 372.45 309.77, 374.25 303.92 C 376.05 298.07, 377.04 294.82, 378.85 289.47 C 380.66 284.12, 381.75 281.51, 383.31 277.18 C 384.87 272.85, 385.72 270.83, 386.66 267.84 C 387.59 264.84, 388.05 263.48, 387.97 262.22 C 387.90 260.96, 387.23 260.65, 386.28 261.52" style="stroke: white; fill: white;"/><path d="M 519.08,360.56 C 520.11 360.52, 521.14 359.88, 523.06 358.83 C 524.99 357.77, 526.08 357.09, 528.69 355.30 C 531.31 353.50, 533.03 352.17, 536.14 349.84 C 539.24 347.51, 541.07 346.23, 544.20 343.65 C 547.33 341.07, 549.06 339.44, 551.78 336.94 C 554.50 334.45, 556.15 333.62, 557.80 331.17 C 559.45 328.71, 559.81 326.96, 560.01 324.68 C 560.21 322.39, 559.96 321.40, 558.79 319.74 C 557.63 318.08, 556.70 317.03, 554.21 316.39 C 551.72 315.76, 549.98 315.71, 546.35 316.57 C 542.73 317.42, 540.51 318.38, 536.07 320.69 C 531.62 322.99, 529.04 324.75, 524.13 328.09 C 519.23 331.42, 516.23 333.55, 511.54 337.36 C 506.85 341.16, 504.23 343.23, 500.68 347.10 C 497.12 350.97, 495.70 353.07, 493.76 356.71 C 491.83 360.34, 491.03 362.19, 490.99 365.27 C 490.95 368.36, 491.48 369.95, 493.56 372.13 C 495.63 374.31, 497.56 375.18, 501.37 376.19 C 505.18 377.21, 507.50 377.38, 512.60 377.20 C 517.71 377.02, 520.71 376.44, 526.90 375.30 C 533.09 374.16, 536.94 373.30, 543.55 371.51 C 550.17 369.72, 553.78 368.63, 559.96 366.33 C 566.14 364.04, 569.07 362.63, 574.44 360.02 C 579.82 357.42, 584.55 355.02, 586.84 353.31 C 589.12 351.61, 588.51 350.54, 585.86 351.52 C 583.21 352.50, 578.89 355.64, 573.57 358.22 C 568.25 360.80, 565.36 362.17, 559.25 364.41 C 553.14 366.66, 549.56 367.74, 543.01 369.45 C 536.45 371.16, 532.58 371.97, 526.49 372.95 C 520.40 373.93, 517.40 374.35, 512.55 374.35 C 507.70 374.35, 505.57 373.85, 502.25 372.93 C 498.92 372.02, 497.53 371.29, 495.92 369.78 C 494.32 368.26, 494.13 367.69, 494.21 365.34 C 494.29 362.99, 494.64 361.34, 496.30 358.03 C 497.97 354.72, 499.19 352.54, 502.54 348.79 C 505.89 345.03, 508.45 342.95, 513.06 339.24 C 517.67 335.53, 520.70 333.40, 525.57 330.25 C 530.44 327.10, 533.09 325.43, 537.42 323.48 C 541.75 321.52, 544.01 321.13, 547.22 320.48 C 550.42 319.84, 551.62 320.05, 553.46 320.25 C 555.30 320.45, 555.77 320.72, 556.42 321.50 C 557.07 322.28, 557.09 322.69, 556.69 324.15 C 556.29 325.61, 555.92 326.79, 554.43 328.81 C 552.94 330.83, 551.76 331.84, 549.25 334.24 C 546.75 336.65, 544.99 338.35, 541.90 340.82 C 538.82 343.29, 537.00 344.47, 533.83 346.60 C 530.67 348.73, 528.72 349.69, 526.09 351.47 C 523.45 353.25, 522.31 353.99, 520.67 355.50 C 519.03 357.02, 518.21 358.03, 517.90 359.05 C 517.58 360.06, 518.05 360.60, 519.08 360.56" style="stroke: white; fill: white;"/><path d="M 633.53,267.28 C 632.63 268.11, 631.88 269.26, 630.71 272.08 C 629.53 274.91, 629.34 276.92, 627.64 281.41 C 625.95 285.89, 624.66 288.88, 622.23 294.53 C 619.80 300.17, 618.27 303.57, 615.48 309.61 C 612.70 315.65, 611.08 318.95, 608.28 324.72 C 605.48 330.49, 603.80 333.43, 601.49 338.45 C 599.17 343.46, 598.15 345.88, 596.71 349.79 C 595.28 353.70, 594.62 355.16, 594.32 357.99 C 594.01 360.83, 594.20 362.38, 595.18 363.97 C 596.15 365.56, 598.24 365.81, 599.19 365.95 C 600.14 366.09, 600.30 365.26, 599.94 364.65 C 599.57 364.03, 597.83 364.10, 597.37 362.86 C 596.92 361.62, 597.29 360.87, 597.68 358.44 C 598.07 356.00, 598.15 354.49, 599.34 350.68 C 600.52 346.87, 601.43 344.40, 603.60 339.39 C 605.77 334.39, 607.43 331.41, 610.20 325.64 C 612.97 319.88, 614.60 316.56, 617.47 310.55 C 620.34 304.53, 621.94 301.16, 624.54 295.56 C 627.15 289.97, 628.59 287.01, 630.51 282.57 C 632.43 278.12, 633.18 276.27, 634.13 273.34 C 635.07 270.41, 635.33 269.13, 635.21 267.92 C 635.09 266.71, 634.43 266.45, 633.53 267.28" style="stroke: white; fill: white;"/><path d="M 709.78,314.34 C 709.44 313.58, 709.00 312.75, 707.32 312.07 C 705.65 311.39, 704.44 310.82, 701.39 310.92 C 698.33 311.03, 696.44 311.43, 692.05 312.60 C 687.66 313.76, 684.74 314.74, 679.42 316.74 C 674.10 318.75, 670.79 319.93, 665.45 322.63 C 660.11 325.33, 657.35 327.18, 652.74 330.25 C 648.14 333.31, 645.81 334.87, 642.43 337.95 C 639.04 341.02, 637.49 342.58, 635.82 345.63 C 634.16 348.67, 633.73 350.45, 634.10 353.16 C 634.47 355.88, 635.29 357.28, 637.68 359.20 C 640.08 361.11, 641.94 361.77, 646.09 362.74 C 650.24 363.70, 653.08 363.85, 658.43 364.00 C 663.78 364.16, 666.71 364.09, 672.84 363.49 C 678.97 362.90, 683.05 362.02, 689.09 361.01 C 695.13 360.00, 698.42 359.45, 703.05 358.46 C 707.68 357.47, 710.45 356.86, 712.22 356.06 C 713.98 355.27, 713.79 354.47, 711.87 354.48 C 709.95 354.50, 707.23 355.32, 702.60 356.15 C 697.96 356.98, 694.69 357.65, 688.70 358.63 C 682.70 359.61, 678.65 360.54, 672.62 361.06 C 666.59 361.57, 663.70 361.52, 658.56 361.20 C 653.41 360.88, 650.64 360.44, 646.90 359.45 C 643.16 358.47, 641.82 357.62, 639.86 356.28 C 637.90 354.94, 637.33 354.58, 637.09 352.76 C 636.85 350.94, 637.21 349.76, 638.64 347.19 C 640.08 344.63, 641.19 342.92, 644.28 339.93 C 647.38 336.95, 649.65 335.30, 654.11 332.29 C 658.56 329.27, 661.31 327.43, 666.56 324.84 C 671.81 322.26, 675.11 321.13, 680.36 319.37 C 685.61 317.60, 688.57 316.76, 692.80 316.03 C 697.04 315.30, 698.79 315.80, 701.53 315.73 C 704.28 315.66, 705.02 315.64, 706.52 315.67 C 708.01 315.70, 708.35 316.14, 709.01 315.88 C 709.66 315.61, 710.11 315.10, 709.78 314.34" style="stroke: white; fill: white;"/><path d="M 774.63,320.25 C 773.87 319.49, 772.59 318.98, 770.47 318.41 C 768.35 317.83, 767.03 317.31, 764.04 317.38 C 761.04 317.44, 758.96 317.80, 755.49 318.75 C 752.03 319.70, 750.30 320.47, 746.69 322.14 C 743.08 323.81, 740.91 324.80, 737.43 327.09 C 733.96 329.38, 732.03 330.84, 729.32 333.58 C 726.61 336.33, 725.50 337.85, 723.88 340.79 C 722.26 343.73, 721.48 345.32, 721.20 348.28 C 720.93 351.24, 721.07 353.01, 722.49 355.61 C 723.91 358.22, 725.32 359.67, 728.29 361.30 C 731.27 362.93, 733.23 363.36, 737.34 363.78 C 741.45 364.19, 743.99 364.06, 748.85 363.37 C 753.71 362.69, 756.60 362.01, 761.63 360.35 C 766.67 358.70, 769.34 357.56, 774.01 355.11 C 778.68 352.67, 781.21 351.24, 784.98 348.12 C 788.75 345.00, 790.54 343.13, 792.87 339.51 C 795.20 335.90, 795.95 333.73, 796.62 330.04 C 797.30 326.34, 797.21 324.27, 796.26 321.03 C 795.30 317.79, 794.29 316.16, 791.86 313.85 C 789.43 311.53, 787.46 310.59, 784.09 309.47 C 780.71 308.34, 778.33 308.22, 774.98 308.23 C 771.64 308.23, 769.81 308.66, 767.35 309.47 C 764.89 310.28, 763.52 311.40, 762.70 312.27 C 761.89 313.15, 762.17 313.64, 763.26 313.84 C 764.36 314.03, 765.84 313.49, 768.18 313.25 C 770.52 313.00, 772.03 312.59, 774.97 312.61 C 777.92 312.62, 780.03 312.51, 782.89 313.32 C 785.75 314.13, 787.29 314.90, 789.28 316.65 C 791.27 318.40, 792.00 319.51, 792.83 322.08 C 793.66 324.65, 793.91 326.32, 793.43 329.50 C 792.94 332.68, 792.44 334.65, 790.41 337.97 C 788.38 341.28, 786.79 343.09, 783.27 346.06 C 779.75 349.03, 777.30 350.46, 772.80 352.80 C 768.31 355.14, 765.67 356.24, 760.80 357.76 C 755.94 359.27, 753.08 359.87, 748.47 360.38 C 743.86 360.89, 741.41 360.84, 737.75 360.33 C 734.10 359.82, 732.59 359.14, 730.20 357.83 C 727.82 356.52, 726.88 355.58, 725.84 353.75 C 724.80 351.92, 724.72 350.91, 724.99 348.68 C 725.26 346.45, 725.82 345.13, 727.19 342.61 C 728.57 340.08, 729.43 338.59, 731.86 336.06 C 734.28 333.54, 736.07 332.11, 739.33 329.99 C 742.59 327.88, 744.74 326.92, 748.17 325.49 C 751.59 324.06, 753.27 323.47, 756.47 322.85 C 759.66 322.22, 761.46 322.43, 764.15 322.36 C 766.84 322.30, 767.90 322.55, 769.93 322.52 C 771.95 322.50, 773.34 322.68, 774.28 322.22 C 775.22 321.77, 775.40 321.02, 774.63 320.25" style="stroke: white; fill: white;"/><path d="M 847.85,319.80 C 846.89 320.05, 846.10 320.66, 844.45 322.18 C 842.79 323.71, 841.79 324.89, 839.59 327.43 C 837.39 329.96, 836.03 331.74, 833.45 334.86 C 830.88 337.97, 829.43 339.96, 826.71 343.00 C 824.00 346.05, 822.24 347.61, 819.87 350.08 C 817.51 352.54, 816.18 353.72, 814.87 355.34 C 813.56 356.96, 813.13 357.83, 813.33 358.16 C 813.53 358.49, 814.38 358.47, 815.86 356.98 C 817.34 355.48, 818.36 353.75, 820.74 350.67 C 823.11 347.59, 824.50 345.29, 827.73 341.57 C 830.96 337.85, 832.95 335.60, 836.89 332.08 C 840.84 328.56, 843.38 326.67, 847.47 323.98 C 851.56 321.28, 853.74 320.14, 857.34 318.59 C 860.94 317.05, 862.68 316.72, 865.47 316.26 C 868.25 315.80, 869.61 315.84, 871.27 316.28 C 872.93 316.73, 873.25 317.17, 873.77 318.46 C 874.29 319.76, 874.14 320.69, 873.86 322.75 C 873.58 324.81, 873.32 326.16, 872.35 328.76 C 871.37 331.35, 870.50 332.99, 868.99 335.74 C 867.48 338.48, 866.30 340.08, 864.78 342.49 C 863.26 344.89, 862.07 346.17, 861.39 347.75 C 860.70 349.33, 860.70 350.10, 861.35 350.39 C 862.00 350.68, 862.70 350.64, 864.62 349.18 C 866.53 347.73, 867.76 345.97, 870.92 343.10 C 874.09 340.24, 876.19 338.06, 880.45 334.84 C 884.71 331.63, 887.44 329.92, 892.23 327.04 C 897.02 324.15, 899.73 322.59, 904.39 320.43 C 909.04 318.27, 911.44 317.34, 915.51 316.24 C 919.58 315.14, 921.77 315.06, 924.75 314.94 C 927.73 314.82, 928.96 314.91, 930.41 315.65 C 931.87 316.39, 932.02 316.84, 932.02 318.63 C 932.01 320.41, 931.57 321.76, 930.39 324.58 C 929.21 327.40, 928.15 329.25, 926.11 332.73 C 924.08 336.20, 922.46 338.44, 920.20 341.95 C 917.94 345.46, 916.44 347.28, 914.83 350.28 C 913.22 353.27, 912.59 354.80, 912.13 356.93 C 911.68 359.07, 912.19 359.83, 912.56 360.93 C 912.92 362.04, 913.51 362.25, 913.95 362.47 C 914.40 362.68, 914.65 362.36, 914.77 362.00 C 914.90 361.65, 914.43 361.51, 914.58 360.70 C 914.72 359.90, 914.75 359.69, 915.49 357.98 C 916.24 356.27, 916.74 354.98, 918.29 352.16 C 919.84 349.34, 921.03 347.39, 923.25 343.90 C 925.46 340.40, 927.17 338.25, 929.36 334.68 C 931.56 331.11, 933.02 329.35, 934.21 326.07 C 935.41 322.79, 935.80 320.88, 935.34 318.28 C 934.87 315.69, 934.03 314.44, 931.89 313.10 C 929.75 311.75, 928.07 311.47, 924.64 311.55 C 921.21 311.64, 918.99 312.22, 914.73 313.53 C 910.46 314.84, 908.07 315.86, 903.31 318.12 C 898.55 320.38, 895.84 321.96, 890.92 324.82 C 886.00 327.67, 883.20 329.33, 878.70 332.40 C 874.20 335.47, 871.81 337.39, 868.41 340.17 C 865.00 342.94, 863.17 344.27, 861.67 346.28 C 860.17 348.28, 860.43 349.45, 860.89 350.21 C 861.35 350.96, 862.37 351.04, 863.97 350.07 C 865.58 349.09, 867.11 347.77, 868.91 345.34 C 870.72 342.91, 871.41 340.91, 873.01 337.92 C 874.61 334.93, 875.87 333.39, 876.91 330.39 C 877.94 327.40, 878.23 325.65, 878.18 322.97 C 878.13 320.28, 877.84 318.91, 876.66 316.95 C 875.47 314.99, 874.61 314.01, 872.26 313.17 C 869.91 312.33, 868.11 312.22, 864.88 312.76 C 861.65 313.31, 859.90 314.10, 856.12 315.89 C 852.33 317.68, 850.17 318.89, 845.96 321.72 C 841.76 324.54, 839.21 326.47, 835.08 330.01 C 830.96 333.54, 828.86 335.76, 825.35 339.38 C 821.84 343.01, 820.06 345.03, 817.54 348.15 C 815.02 351.26, 813.65 352.81, 812.75 354.94 C 811.86 357.07, 812.17 358.17, 813.07 358.79 C 813.96 359.41, 815.31 359.25, 817.23 358.05 C 819.16 356.85, 820.26 355.31, 822.69 352.78 C 825.12 350.24, 826.64 348.46, 829.38 345.38 C 832.12 342.30, 833.66 340.38, 836.37 337.38 C 839.09 334.39, 840.73 332.91, 842.97 330.40 C 845.21 327.89, 846.32 326.74, 847.58 324.85 C 848.84 322.96, 849.21 321.95, 849.26 320.94 C 849.32 319.93, 848.82 319.55, 847.85 319.80" style="stroke: white; fill: white;"/><path d="M 966.17,347.48 C 966.81 347.94, 967.38 348.05, 969.11 348.10 C 970.85 348.16, 972.06 348.44, 974.86 347.74 C 977.67 347.03, 979.48 346.09, 983.13 344.58 C 986.79 343.07, 989.08 342.26, 993.13 340.21 C 997.19 338.16, 999.40 336.67, 1003.41 334.32 C 1007.42 331.97, 1009.74 330.65, 1013.20 328.45 C 1016.65 326.26, 1018.38 325.49, 1020.68 323.35 C 1022.98 321.20, 1024.10 319.93, 1024.68 317.73 C 1025.26 315.54, 1025.01 314.05, 1023.57 312.38 C 1022.14 310.72, 1020.81 309.88, 1017.52 309.40 C 1014.23 308.91, 1012.01 309.14, 1007.12 309.96 C 1002.23 310.78, 998.89 311.40, 993.06 313.49 C 987.23 315.57, 983.85 317.20, 977.97 320.39 C 972.10 323.58, 968.73 325.63, 963.69 329.44 C 958.65 333.24, 956.07 335.42, 952.79 339.42 C 949.50 343.42, 948.29 345.64, 947.27 349.45 C 946.25 353.26, 946.32 355.33, 947.71 358.46 C 949.10 361.60, 950.76 362.97, 954.21 365.14 C 957.65 367.32, 959.86 368.15, 964.93 369.34 C 970.00 370.53, 973.14 370.76, 979.55 371.08 C 985.97 371.40, 989.89 371.22, 997.02 370.94 C 1004.16 370.65, 1008.62 370.17, 1015.22 369.64 C 1021.82 369.11, 1025.05 368.81, 1030.03 368.28 C 1035.01 367.74, 1038.13 367.55, 1040.12 366.96 C 1042.10 366.38, 1042.00 365.52, 1039.95 365.36 C 1037.89 365.20, 1034.80 365.75, 1029.82 366.18 C 1024.84 366.61, 1021.62 366.99, 1015.04 367.52 C 1008.47 368.05, 1004.02 368.58, 996.94 368.83 C 989.87 369.09, 985.96 369.21, 979.69 368.79 C 973.41 368.37, 970.35 367.97, 965.58 366.73 C 960.80 365.49, 958.84 364.50, 955.82 362.59 C 952.79 360.69, 951.63 359.70, 950.45 357.21 C 949.27 354.72, 949.06 353.40, 949.90 350.14 C 950.74 346.88, 951.63 344.72, 954.65 340.93 C 957.67 337.14, 960.14 334.90, 965.02 331.18 C 969.89 327.47, 973.25 325.41, 979.02 322.35 C 984.80 319.29, 988.17 317.73, 993.88 315.89 C 999.58 314.04, 1002.92 313.62, 1007.56 313.11 C 1012.19 312.61, 1014.23 313.12, 1017.04 313.37 C 1019.86 313.63, 1020.66 313.72, 1021.64 314.38 C 1022.62 315.05, 1022.66 315.49, 1021.96 316.71 C 1021.26 317.94, 1020.25 318.70, 1018.14 320.50 C 1016.02 322.30, 1014.65 323.49, 1011.39 325.71 C 1008.13 327.94, 1005.78 329.33, 1001.83 331.63 C 997.89 333.93, 995.70 335.38, 991.69 337.20 C 987.68 339.03, 985.40 339.67, 981.77 340.76 C 978.14 341.85, 976.21 341.94, 973.55 342.66 C 970.88 343.37, 969.98 343.70, 968.45 344.32 C 966.93 344.95, 966.37 345.15, 965.92 345.78 C 965.46 346.41, 965.53 347.01, 966.17 347.48" style="stroke: white; fill: white;"/></svg>