<svg xmlns="http://www.w3.org/2000/svg" id="canvas" viewBox="425.697 187.821 675.503 224.639"><path d="M 430.57,226.63 C 429.81 227.39, 428.96 227.98, 428.74 230.73 C 428.52 233.48, 429.21 234.95, 429.45 240.37 C 429.69 245.79, 429.62 249.18, 429.92 257.85 C 430.23 266.52, 430.29 272.32, 430.98 283.73 C 431.67 295.14, 432.24 302.12, 433.37 314.90 C 434.50 327.69, 435.06 335.25, 436.62 347.67 C 438.18 360.08, 439.07 366.89, 441.17 376.97 C 443.27 387.06, 444.41 391.76, 447.13 398.09 C 449.86 404.42, 451.33 407.01, 454.81 408.63 C 458.28 410.25, 460.66 409.53, 464.49 406.19 C 468.32 402.85, 470.09 399.57, 473.96 391.95 C 477.82 384.33, 479.84 378.91, 483.83 368.08 C 487.83 357.25, 490.05 349.98, 493.94 337.78 C 497.84 325.58, 499.93 318.46, 503.29 307.10 C 506.65 295.74, 508.21 289.88, 510.76 280.98 C 513.32 272.08, 514.76 267.58, 516.06 262.60 C 517.36 257.63, 517.27 256.15, 517.26 256.11 C 517.26 256.07, 516.21 257.72, 516.02 262.41 C 515.84 267.09, 516.04 270.87, 516.33 279.53 C 516.63 288.19, 516.78 294.50, 517.51 305.71 C 518.24 316.93, 518.61 324.02, 520.00 335.60 C 521.38 347.17, 522.17 353.53, 524.44 363.59 C 526.71 373.65, 528.02 378.82, 531.32 385.90 C 534.63 392.97, 536.71 395.92, 540.97 398.98 C 545.23 402.04, 547.89 402.62, 552.62 401.20 C 557.35 399.78, 559.99 397.59, 564.61 391.87 C 569.24 386.14, 571.75 381.98, 575.74 372.58 C 579.73 363.18, 581.50 357.09, 584.58 344.86 C 587.65 332.64, 588.88 325.17, 591.11 311.48 C 593.34 297.78, 594.28 289.83, 595.71 276.37 C 597.14 262.91, 597.50 255.73, 598.25 244.16 C 599.00 232.59, 599.24 227.05, 599.47 218.52 C 599.70 209.99, 599.50 206.52, 599.40 201.51 C 599.30 196.50, 599.22 195.54, 598.98 193.48 C 598.75 191.41, 598.52 191.63, 598.22 191.17 C 597.92 190.71, 597.78 190.70, 597.48 191.17 C 597.18 191.65, 596.81 191.47, 596.72 193.56 C 596.63 195.64, 596.82 196.60, 597.03 201.58 C 597.24 206.57, 597.80 210.00, 597.76 218.49 C 597.72 226.99, 597.52 232.52, 596.85 244.07 C 596.19 255.62, 595.83 262.80, 594.42 276.23 C 593.01 289.67, 592.06 297.61, 589.80 311.26 C 587.54 324.91, 586.27 332.37, 583.12 344.49 C 579.98 356.61, 578.10 362.66, 574.06 371.85 C 570.01 381.05, 567.34 385.06, 562.91 390.48 C 558.48 395.91, 556.05 397.62, 551.92 398.96 C 547.79 400.31, 546.03 399.98, 542.25 397.21 C 538.47 394.44, 536.26 391.89, 533.02 385.10 C 529.78 378.30, 528.32 373.17, 526.04 363.23 C 523.76 353.29, 522.94 346.93, 521.61 335.41 C 520.27 323.88, 519.97 316.79, 519.38 305.60 C 518.79 294.42, 518.81 288.11, 518.67 279.47 C 518.53 270.82, 518.97 267.14, 518.69 262.38 C 518.42 257.62, 518.23 255.75, 517.28 255.67 C 516.33 255.59, 515.58 257.01, 513.94 261.98 C 512.31 266.95, 511.52 271.58, 509.10 280.52 C 506.68 289.46, 505.18 295.32, 501.86 306.68 C 498.54 318.04, 496.44 325.16, 492.50 337.32 C 488.57 349.48, 486.27 356.73, 482.19 367.46 C 478.10 378.20, 475.93 383.58, 472.07 390.98 C 468.21 398.37, 466.15 401.31, 462.89 404.44 C 459.64 407.56, 458.60 408.01, 455.80 406.59 C 453.00 405.17, 451.51 403.32, 448.90 397.33 C 446.28 391.34, 444.89 386.61, 442.72 376.64 C 440.55 366.67, 439.62 359.86, 438.04 347.49 C 436.47 335.11, 435.91 327.55, 434.84 314.78 C 433.77 302.01, 433.23 295.03, 432.70 283.64 C 432.18 272.25, 432.20 266.47, 432.21 257.81 C 432.23 249.16, 432.57 245.75, 432.76 240.36 C 432.96 234.97, 433.25 233.57, 433.21 230.88 C 433.16 228.19, 433.07 227.76, 432.54 226.91 C 432.01 226.07, 431.33 225.87, 430.57 226.63" style="stroke: white; fill: white;"/><path d="M 606.57,374.83 C 607.94 374.47, 609.45 374.02, 612.00 371.36 C 614.55 368.71, 616.10 366.48, 619.33 361.56 C 622.56 356.63, 624.91 353.33, 628.14 346.74 C 631.38 340.15, 633.26 335.77, 635.51 328.60 C 637.75 321.43, 638.35 317.45, 639.38 310.90 C 640.42 304.35, 640.95 300.89, 640.68 295.85 C 640.42 290.80, 640.11 287.98, 638.05 285.67 C 635.99 283.35, 633.39 282.76, 630.37 284.27 C 627.36 285.77, 625.76 287.96, 622.96 293.19 C 620.16 298.41, 618.65 302.30, 616.38 310.40 C 614.10 318.49, 612.72 324.18, 611.59 333.67 C 610.46 343.16, 610.22 348.94, 610.71 357.85 C 611.19 366.76, 611.72 371.66, 614.03 378.19 C 616.34 384.72, 618.12 387.82, 622.26 390.50 C 626.40 393.19, 629.52 393.29, 634.74 391.61 C 639.96 389.94, 642.65 387.95, 648.35 382.12 C 654.05 376.30, 657.32 371.91, 663.22 362.49 C 669.13 353.07, 672.36 346.78, 677.88 335.03 C 683.40 323.28, 686.17 316.22, 690.82 303.75 C 695.47 291.29, 697.85 284.04, 701.14 272.70 C 704.43 261.37, 705.75 255.53, 707.27 247.10 C 708.79 238.66, 709.16 235.14, 708.72 230.52 C 708.29 225.90, 707.33 224.28, 705.09 224.00 C 702.85 223.71, 700.54 224.85, 697.52 229.09 C 694.49 233.32, 692.74 237.02, 689.95 245.17 C 687.16 253.32, 685.63 258.80, 683.58 269.84 C 681.54 280.88, 680.46 288.09, 679.72 300.37 C 678.99 312.64, 679.02 319.66, 679.90 331.22 C 680.78 342.77, 681.77 348.77, 684.12 358.12 C 686.48 367.47, 687.96 371.99, 691.68 377.95 C 695.40 383.91, 697.78 386.26, 702.71 387.92 C 707.64 389.58, 710.60 389.26, 716.32 386.24 C 722.04 383.23, 725.16 380.36, 731.32 372.83 C 737.49 365.30, 741.02 359.59, 747.15 348.59 C 753.29 337.59, 756.62 330.50, 762.00 317.81 C 767.37 305.12, 770.10 297.57, 774.01 285.14 C 777.93 272.72, 779.52 265.77, 781.58 255.68 C 783.63 245.59, 784.16 241.12, 784.28 234.69 C 784.39 228.25, 784.07 225.73, 782.16 223.50 C 780.24 221.27, 777.69 221.20, 774.69 223.55 C 771.69 225.90, 770.14 228.72, 767.14 235.26 C 764.13 241.79, 762.47 246.45, 759.67 256.23 C 756.87 266.01, 755.30 272.38, 753.14 284.14 C 750.97 295.91, 750.17 303.02, 748.84 315.04 C 747.50 327.07, 747.10 333.91, 746.47 344.28 C 745.84 354.65, 745.59 359.75, 745.70 366.89 C 745.82 374.02, 745.67 376.87, 747.03 379.96 C 748.40 383.04, 750.25 383.77, 752.53 382.31 C 754.81 380.85, 755.76 378.03, 758.45 372.66 C 761.13 367.29, 762.54 363.03, 765.95 355.46 C 769.36 347.88, 771.45 342.84, 775.49 334.79 C 779.53 326.75, 781.91 322.06, 786.16 315.23 C 790.41 308.40, 792.87 305.11, 796.73 300.65 C 800.59 296.19, 802.65 294.74, 805.48 292.91 C 808.31 291.09, 809.39 291.09, 810.89 291.52 C 812.39 291.94, 812.32 292.82, 812.99 295.06 C 813.66 297.29, 814.27 298.97, 814.23 302.68 C 814.19 306.40, 813.87 308.77, 812.79 313.62 C 811.72 318.47, 810.78 321.56, 808.87 326.92 C 806.95 332.29, 805.52 335.44, 803.22 340.46 C 800.93 345.47, 799.50 348.05, 797.39 352.01 C 795.29 355.98, 793.71 357.47, 792.68 360.28 C 791.65 363.09, 791.65 364.31, 792.25 366.07 C 792.86 367.83, 793.84 368.21, 795.70 369.08 C 797.55 369.96, 798.63 370.33, 801.52 370.46 C 804.40 370.60, 806.24 370.10, 810.12 369.76 C 814.00 369.41, 816.34 369.21, 820.92 368.75 C 825.50 368.29, 828.10 368.17, 833.02 367.45 C 837.93 366.74, 840.56 366.42, 845.50 365.18 C 850.45 363.94, 853.10 363.17, 857.76 361.26 C 862.42 359.36, 864.83 358.33, 868.82 355.67 C 872.82 353.00, 874.77 351.12, 877.73 347.93 C 880.69 344.73, 881.97 342.95, 883.62 339.67 C 885.26 336.39, 885.84 334.64, 885.96 331.51 C 886.07 328.39, 885.78 326.37, 884.19 324.03 C 882.60 321.69, 880.91 320.16, 878.00 319.80 C 875.10 319.44, 872.75 319.92, 869.66 322.24 C 866.58 324.56, 864.96 326.86, 862.58 331.40 C 860.19 335.93, 858.87 339.04, 857.75 344.90 C 856.62 350.76, 856.41 354.63, 856.96 360.69 C 857.51 366.75, 858.22 370.40, 860.49 375.20 C 862.76 380.00, 864.48 382.25, 868.31 384.69 C 872.14 387.14, 874.86 387.69, 879.64 387.42 C 884.42 387.15, 887.42 386.20, 892.20 383.34 C 896.99 380.49, 899.63 378.26, 903.55 373.14 C 907.46 368.03, 909.40 364.40, 911.77 357.77 C 914.15 351.13, 915.14 346.90, 915.44 339.96 C 915.74 333.02, 915.10 329.02, 913.27 323.07 C 911.45 317.12, 909.74 314.05, 906.32 310.20 C 902.90 306.34, 900.26 305.17, 896.17 303.79 C 892.07 302.41, 889.21 302.53, 885.85 303.29 C 882.48 304.05, 880.63 305.47, 879.34 307.58 C 878.06 309.69, 877.78 311.91, 879.43 313.84 C 881.08 315.77, 883.15 316.70, 887.59 317.23 C 892.03 317.76, 895.38 317.27, 901.65 316.51 C 907.91 315.75, 911.69 314.75, 918.92 313.45 C 926.14 312.15, 930.58 310.96, 937.78 310.01 C 944.99 309.06, 948.93 308.36, 954.94 308.69 C 960.96 309.02, 963.68 309.52, 967.84 311.66 C 972.01 313.80, 973.64 315.29, 975.79 319.39 C 977.93 323.50, 978.37 326.38, 978.55 332.19 C 978.73 337.99, 977.94 342.02, 976.70 348.41 C 975.46 354.81, 974.04 358.78, 972.35 364.16 C 970.67 369.53, 968.83 372.38, 968.28 375.31 C 967.72 378.24, 968.44 379.50, 969.58 378.80 C 970.72 378.09, 971.57 376.20, 973.98 371.78 C 976.39 367.36, 977.97 363.37, 981.62 356.71 C 985.27 350.06, 987.74 345.29, 992.24 338.52 C 996.75 331.74, 999.57 327.89, 1004.15 322.83 C 1008.73 317.77, 1011.31 315.58, 1015.13 313.21 C 1018.95 310.84, 1020.67 310.49, 1023.25 310.99 C 1025.82 311.50, 1026.68 312.41, 1028.01 315.73 C 1029.33 319.05, 1029.66 322.04, 1029.88 327.59 C 1030.10 333.15, 1029.72 337.16, 1029.10 343.51 C 1028.48 349.85, 1027.48 354.14, 1026.79 359.32 C 1026.11 364.50, 1025.13 367.13, 1025.67 369.43 C 1026.21 371.73, 1027.69 372.43, 1029.47 370.82 C 1031.26 369.22, 1032.07 366.50, 1034.59 361.41 C 1037.12 356.31, 1038.67 351.85, 1042.11 345.34 C 1045.54 338.83, 1047.68 334.62, 1051.76 328.84 C 1055.84 323.07, 1058.53 320.01, 1062.51 316.46 C 1066.49 312.91, 1068.58 311.82, 1071.67 311.08 C 1074.76 310.34, 1075.83 310.78, 1077.96 312.77 C 1080.09 314.76, 1081.08 316.59, 1082.33 321.02 C 1083.58 325.45, 1083.79 328.95, 1084.21 334.93 C 1084.63 340.91, 1084.36 344.84, 1084.45 350.93 C 1084.54 357.03, 1084.04 360.58, 1084.68 365.40 C 1085.31 370.22, 1085.92 372.38, 1087.64 375.05 C 1089.37 377.72, 1091.28 378.20, 1093.29 378.76 C 1095.31 379.31, 1096.85 378.36, 1097.70 377.82 C 1098.55 377.28, 1098.20 376.44, 1097.52 376.06 C 1096.85 375.67, 1095.61 376.51, 1094.34 375.87 C 1093.06 375.24, 1092.42 375.08, 1091.16 372.89 C 1089.90 370.70, 1088.75 369.31, 1088.03 364.91 C 1087.32 360.50, 1087.72 356.92, 1087.59 350.88 C 1087.47 344.84, 1087.82 340.87, 1087.42 334.71 C 1087.01 328.55, 1087.02 324.97, 1085.57 320.08 C 1084.11 315.19, 1083.06 312.66, 1080.15 310.26 C 1077.23 307.85, 1074.89 307.24, 1070.99 308.07 C 1067.10 308.90, 1064.94 310.56, 1060.66 314.40 C 1056.38 318.24, 1053.84 321.39, 1049.58 327.29 C 1045.33 333.18, 1043.01 337.35, 1039.40 343.88 C 1035.79 350.40, 1033.95 354.82, 1031.51 359.90 C 1029.07 364.98, 1027.80 367.36, 1027.19 369.27 C 1026.58 371.19, 1027.83 371.38, 1028.47 369.49 C 1029.10 367.60, 1029.59 364.96, 1030.35 359.82 C 1031.12 354.68, 1031.75 350.27, 1032.30 343.80 C 1032.85 337.33, 1033.37 333.34, 1033.11 327.46 C 1032.85 321.58, 1032.87 318.30, 1031.02 314.40 C 1029.17 310.50, 1027.32 308.65, 1023.86 307.95 C 1020.39 307.24, 1018.00 308.23, 1013.69 310.88 C 1009.38 313.52, 1007.03 315.94, 1002.33 321.19 C 997.62 326.44, 994.83 330.31, 990.18 337.12 C 985.52 343.94, 982.90 348.64, 979.07 355.28 C 975.24 361.91, 973.18 365.71, 971.03 370.28 C 968.88 374.86, 968.20 376.90, 968.33 378.15 C 968.46 379.40, 970.24 379.14, 971.67 376.53 C 973.11 373.91, 973.93 370.61, 975.50 365.10 C 977.07 359.58, 978.35 355.54, 979.51 348.93 C 980.68 342.33, 981.60 338.25, 981.34 332.08 C 981.08 325.92, 980.67 322.66, 978.22 318.10 C 975.76 313.54, 973.69 311.69, 969.06 309.30 C 964.44 306.91, 961.40 306.50, 955.08 306.15 C 948.76 305.80, 944.79 306.62, 937.46 307.55 C 930.14 308.48, 925.70 309.66, 918.47 310.80 C 911.24 311.94, 907.41 312.79, 901.32 313.26 C 895.24 313.73, 891.96 313.53, 888.04 313.14 C 884.12 312.76, 882.93 312.01, 881.73 311.33 C 880.52 310.65, 880.99 310.46, 882.00 309.73 C 883.01 309.00, 884.15 308.21, 886.78 307.70 C 889.41 307.18, 891.68 306.26, 895.16 307.15 C 898.63 308.05, 901.03 308.83, 904.15 312.17 C 907.27 315.51, 909.00 318.32, 910.75 323.85 C 912.50 329.39, 913.19 333.25, 912.92 339.85 C 912.64 346.46, 911.67 350.57, 909.35 356.89 C 907.04 363.21, 905.09 366.67, 901.35 371.44 C 897.61 376.21, 895.03 378.15, 890.65 380.72 C 886.27 383.28, 883.58 383.99, 879.45 384.25 C 875.32 384.52, 873.23 384.11, 870.00 382.04 C 866.77 379.97, 865.28 378.22, 863.28 373.90 C 861.29 369.58, 860.49 366.10, 860.03 360.43 C 859.57 354.76, 859.80 351.00, 860.98 345.56 C 862.17 340.13, 863.65 337.19, 865.95 333.27 C 868.25 329.34, 870.17 327.76, 872.50 325.94 C 874.82 324.12, 876.00 324.08, 877.58 324.16 C 879.16 324.23, 879.70 324.90, 880.41 326.33 C 881.11 327.76, 881.24 328.99, 881.10 331.29 C 880.96 333.59, 880.96 335.01, 879.72 337.83 C 878.47 340.65, 877.46 342.40, 874.89 345.39 C 872.32 348.38, 870.54 350.23, 866.86 352.79 C 863.18 355.34, 860.93 356.35, 856.49 358.17 C 852.06 360.00, 849.49 360.76, 844.70 361.91 C 839.91 363.05, 837.37 363.35, 832.55 363.90 C 827.74 364.45, 825.16 364.51, 820.64 364.66 C 816.12 364.81, 813.78 364.75, 809.95 364.67 C 806.13 364.58, 804.22 364.11, 801.51 364.24 C 798.81 364.38, 797.77 365.09, 796.41 365.35 C 795.05 365.61, 794.63 366.21, 794.71 365.54 C 794.80 364.88, 795.64 364.43, 796.82 362.04 C 798.01 359.66, 798.76 357.67, 800.63 353.62 C 802.50 349.56, 803.90 346.89, 806.17 341.78 C 808.43 336.67, 809.89 333.50, 811.94 328.05 C 813.98 322.59, 815.07 319.55, 816.40 314.49 C 817.72 309.44, 818.43 307.00, 818.57 302.78 C 818.71 298.56, 818.48 296.23, 817.10 293.39 C 815.71 290.55, 814.29 289.21, 811.63 288.59 C 808.97 287.97, 807.17 288.19, 803.81 290.29 C 800.46 292.38, 798.75 294.31, 794.85 299.07 C 790.95 303.83, 788.59 307.15, 784.33 314.10 C 780.07 321.05, 777.69 325.75, 773.55 333.80 C 769.40 341.86, 767.16 346.87, 763.62 354.38 C 760.07 361.89, 758.36 366.15, 755.82 371.36 C 753.29 376.58, 752.23 378.89, 750.95 380.44 C 749.67 382.00, 750.08 381.85, 749.44 379.12 C 748.80 376.40, 748.00 373.79, 747.73 366.83 C 747.46 359.88, 747.57 354.70, 748.09 344.37 C 748.62 334.05, 749.01 327.20, 750.34 315.21 C 751.67 303.23, 752.49 296.13, 754.74 284.44 C 756.99 272.76, 758.65 266.42, 761.59 256.80 C 764.53 247.17, 766.42 242.56, 769.41 236.33 C 772.40 230.09, 774.35 227.91, 776.54 225.62 C 778.73 223.33, 779.21 223.06, 780.36 224.86 C 781.51 226.67, 782.36 228.56, 782.30 234.66 C 782.24 240.76, 781.98 245.37, 780.06 255.38 C 778.14 265.40, 776.58 272.36, 772.72 284.74 C 768.85 297.12, 766.12 304.65, 760.74 317.27 C 755.35 329.89, 751.96 336.95, 745.80 347.83 C 739.63 358.71, 735.99 364.34, 729.90 371.66 C 723.81 378.97, 720.64 381.55, 715.33 384.39 C 710.03 387.24, 707.80 387.39, 703.39 385.90 C 698.99 384.41, 696.84 382.58, 693.30 376.94 C 689.76 371.30, 688.09 366.88, 685.71 357.71 C 683.33 348.55, 682.28 342.55, 681.39 331.10 C 680.50 319.65, 680.47 312.65, 681.26 300.46 C 682.05 288.28, 683.18 281.08, 685.35 270.18 C 687.52 259.27, 689.23 253.85, 692.12 245.94 C 695.01 238.03, 697.23 234.67, 699.80 230.63 C 702.36 226.59, 703.61 225.72, 704.95 225.73 C 706.28 225.74, 706.35 226.45, 706.47 230.66 C 706.59 234.88, 706.89 238.47, 705.54 246.80 C 704.20 255.13, 702.95 261.01, 699.75 272.31 C 696.55 283.60, 694.18 290.86, 689.54 303.28 C 684.90 315.70, 682.11 322.74, 676.56 334.40 C 671.00 346.06, 667.70 352.31, 661.76 361.56 C 655.82 370.81, 652.42 375.09, 646.87 380.66 C 641.32 386.22, 638.67 387.81, 634.00 389.39 C 629.34 390.97, 627.13 390.92, 623.55 388.54 C 619.96 386.15, 618.24 383.63, 616.07 377.47 C 613.91 371.31, 613.20 366.45, 612.72 357.74 C 612.24 349.03, 612.46 343.25, 613.66 333.92 C 614.87 324.59, 616.36 318.95, 618.74 311.09 C 621.13 303.23, 622.91 299.39, 625.58 294.62 C 628.26 289.85, 630.10 288.64, 632.10 287.24 C 634.09 285.84, 634.43 285.87, 635.54 287.62 C 636.66 289.38, 637.42 291.43, 637.68 296.01 C 637.94 300.59, 637.75 304.15, 636.84 310.51 C 635.93 316.88, 635.37 320.86, 633.13 327.85 C 630.89 334.84, 628.96 339.11, 625.65 345.48 C 622.34 351.84, 619.89 355.03, 616.57 359.68 C 613.26 364.33, 611.38 366.04, 609.09 368.74 C 606.81 371.43, 605.66 371.94, 605.16 373.16 C 604.65 374.38, 605.20 375.19, 606.57 374.83" style="stroke: white; fill: white;"/></svg>